<svg width="34" height="34" viewBox="0 0 34 34" fill="none" xmlns="http://www.w3.org/2000/svg">
<path d="M16.9987 31.1666C24.8227 31.1666 31.1654 24.824 31.1654 16.9999C31.1654 9.17588 24.8227 2.83325 16.9987 2.83325C9.17466 2.83325 2.83203 9.17588 2.83203 16.9999C2.83203 24.824 9.17466 31.1666 16.9987 31.1666Z" stroke="#B68742" stroke-width="2" stroke-linecap="round" stroke-linejoin="round"/>
<path d="M12.8789 12.7501C13.212 11.8033 13.8694 11.0049 14.7347 10.4963C15.6 9.9878 16.6173 9.8019 17.6066 9.97158C18.5958 10.1413 19.4931 10.6556 20.1394 11.4234C20.7858 12.1912 21.1396 13.1631 21.1381 14.1667C21.1381 17.0001 16.8881 18.4167 16.8881 18.4167" stroke="#B68742" stroke-width="2" stroke-linecap="round" stroke-linejoin="round"/>
<path d="M17 24.0833H17.0141" stroke="#B68742" stroke-width="2" stroke-linecap="round" stroke-linejoin="round"/>
</svg>
