<svg width="28" height="36" viewBox="0 0 28 36" fill="none" xmlns="http://www.w3.org/2000/svg">
<path d="M25.4045 14.2926C25.4045 23.0426 13.8311 31.7926 13.8311 31.7926C13.8311 31.7926 2.25781 23.0426 2.25781 14.2926C2.25781 11.1985 3.47714 8.23099 5.64756 6.04306C7.81798 3.85514 10.7617 2.62598 13.8311 2.62598C16.9006 2.62598 19.8443 3.85514 22.0147 6.04306C24.1851 8.23099 25.4045 11.1985 25.4045 14.2926V14.2926Z" stroke="#B68742" stroke-width="2" stroke-linecap="round" stroke-linejoin="round"/>
<path d="M17.1683 14.293C17.1683 16.1645 15.6654 17.668 13.8283 17.668C11.9912 17.668 10.4883 16.1645 10.4883 14.293C10.4883 12.4214 11.9912 10.918 13.8283 10.918C15.6654 10.918 17.1683 12.4214 17.1683 14.293Z" stroke="#B68742" stroke-width="2"/>
</svg>
