<svg width="32" height="32" viewBox="0 0 32 32" fill="none" xmlns="http://www.w3.org/2000/svg">
<path d="M21.3346 28V25.3333C21.3346 23.9188 20.7727 22.5623 19.7725 21.5621C18.7723 20.5619 17.4158 20 16.0013 20H8.0013C6.58681 20 5.23026 20.5619 4.23007 21.5621C3.22987 22.5623 2.66797 23.9188 2.66797 25.3333V28" stroke="#B68742" stroke-width="2" stroke-linecap="round" stroke-linejoin="round"/>
<path d="M12.0013 14.6667C14.9468 14.6667 17.3346 12.2789 17.3346 9.33333C17.3346 6.38781 14.9468 4 12.0013 4C9.05578 4 6.66797 6.38781 6.66797 9.33333C6.66797 12.2789 9.05578 14.6667 12.0013 14.6667Z" stroke="#B68742" stroke-width="2" stroke-linecap="round" stroke-linejoin="round"/>
<path d="M29.332 28V25.3333C29.3311 24.1516 28.9378 23.0037 28.2139 22.0698C27.4899 21.1358 26.4762 20.4688 25.332 20.1733" stroke="#B68742" stroke-width="2" stroke-linecap="round" stroke-linejoin="round"/>
<path d="M21.332 4.17334C22.4793 4.46707 23.4961 5.13427 24.2222 6.06975C24.9484 7.00523 25.3425 8.15578 25.3425 9.34001C25.3425 10.5242 24.9484 11.6748 24.2222 12.6103C23.4961 13.5457 22.4793 14.2129 21.332 14.5067" stroke="#B68742" stroke-width="2" stroke-linecap="round" stroke-linejoin="round"/>
</svg>
