<svg width="44" height="40" viewBox="0 0 44 40" fill="none" xmlns="http://www.w3.org/2000/svg">
<path fill-rule="evenodd" clip-rule="evenodd" d="M5.08267 34.5713C7.95836 33.6158 10.6861 31.9967 13.0959 29.9469C13.1286 30.0268 13.1626 30.1066 13.1966 30.1864C13.4453 30.7663 13.7202 31.3317 14.0186 31.8802C11.4283 33.4024 8.39946 34.3684 5.08267 34.5713ZM22.6483 6.8262C22.2386 5.48064 22.6418 3.9335 24.0371 2.14159C24.2976 1.80782 23.1536 0.833984 22.7295 0.833984C22.3054 0.833984 22.1064 1.20703 21.9585 1.60494C21.2334 3.5513 21.003 5.3576 21.181 7.04872L21.185 7.07359C9.13638 14.1417 9.36806 31.4234 22.1326 39.2546C35.049 31.3304 35.1341 13.7307 22.6483 6.8262ZM19.7308 20.702C20.9258 20.702 21.9036 21.6798 21.9036 22.8761C21.9036 21.6798 22.8813 20.702 24.0777 20.702H26.9206C28.1157 20.702 29.0934 21.6798 29.0934 22.8761C29.0934 24.0725 28.1157 25.0502 26.9206 25.0502H24.0777C22.8813 25.0502 21.9036 24.0725 21.9036 22.8761C21.9036 24.0725 20.9258 25.0502 19.7308 25.0502H16.8878C15.6927 25.0502 14.7137 24.0725 14.7137 22.8761C14.7137 21.6798 15.6927 20.702 16.8878 20.702H19.7308ZM20.0096 29.3972H17.5331C16.4912 29.3972 15.6391 28.5451 15.6391 27.5032C15.6391 26.4613 16.4912 25.6092 17.5331 25.6092H20.0096C21.0514 25.6092 21.9036 26.4613 21.9036 27.5032C21.9036 26.4613 22.7557 25.6092 23.7976 25.6092H26.274C27.3159 25.6092 28.168 26.4613 28.168 27.5032C28.168 28.5451 27.3159 29.3972 26.274 29.3972H23.7976C22.7557 29.3972 21.9036 28.5451 21.9036 27.5032C21.9036 28.5451 21.0514 29.3972 20.0096 29.3972ZM20.0096 16.4952C21.0514 16.4952 21.9036 17.3473 21.9036 18.3892C21.9036 17.3473 22.7557 16.4952 23.7976 16.4952H26.274C27.3159 16.4952 28.168 17.3473 28.168 18.3892C28.168 19.4311 27.3159 20.2832 26.274 20.2832H23.7976C22.7557 20.2832 21.9036 19.4311 21.9036 18.3892C21.9036 19.4311 21.0514 20.2832 20.0096 20.2832H17.5331C16.4912 20.2832 15.6391 19.4311 15.6391 18.3892C15.6391 17.3473 16.4912 16.4952 17.5331 16.4952H20.0096ZM20.2897 33.0451H19.5383C18.6522 33.0451 17.9244 32.3187 17.9244 31.4312C17.9244 30.5438 18.6509 29.8173 19.5383 29.8173H20.2897C21.1771 29.8173 21.9036 30.5438 21.9036 31.4312C21.9036 30.5438 22.63 29.8173 23.5174 29.8173H24.2688C25.1562 29.8173 25.8827 30.5438 25.8827 31.4312C25.8827 32.3187 25.1575 33.0451 24.2688 33.0451H23.5174C22.63 33.0451 21.9036 32.3187 21.9036 31.4312C21.9036 32.3187 21.1771 33.0451 20.2897 33.0451ZM20.5907 33.464C21.2622 33.464 21.8119 34.0137 21.8119 34.6852C21.8119 34.0137 22.3617 33.464 23.0331 33.464H23.168C23.8394 33.464 24.3892 34.0137 24.3892 34.6852C24.3892 35.3567 23.8394 35.9064 23.168 35.9064H23.0331C22.3617 35.9064 21.8119 35.3567 21.8119 34.6852C21.8119 35.3567 21.2622 35.9064 20.5907 35.9064H20.4559C19.7844 35.9064 19.2347 35.3567 19.2347 34.6852C19.2347 34.0137 19.7844 33.464 20.4559 33.464H20.5907ZM20.9323 9.98462C21.4873 9.98462 21.9428 10.4401 21.9428 10.9951C21.9428 10.4401 22.397 9.98462 22.9533 9.98462C23.5083 9.98462 23.9625 10.4401 23.9625 10.9951V11.4179C23.9625 11.9742 23.5083 12.4284 22.9533 12.4284C22.397 12.4284 21.9428 11.9742 21.9428 11.4179C21.9428 11.9742 21.4886 12.4284 20.9323 12.4284C20.376 12.4284 19.9219 11.9742 19.9219 11.4179V10.9951C19.9219 10.4401 20.376 9.98462 20.9323 9.98462ZM20.2897 12.8472C21.1771 12.8472 21.9036 13.5737 21.9036 14.4611C21.9036 13.5737 22.63 12.8472 23.5174 12.8472H24.2688C25.1562 12.8472 25.8827 13.5737 25.8827 14.4611C25.8827 15.3486 25.1575 16.075 24.2688 16.075H23.5174C22.63 16.075 21.9036 15.3486 21.9036 14.4611C21.9036 15.3486 21.1771 16.075 20.2897 16.075H19.5383C18.6522 16.075 17.9244 15.3486 17.9244 14.4611C17.9244 13.5737 18.6509 12.8472 19.5383 12.8472H20.2897ZM38.8894 34.5713C35.6668 34.3737 32.7165 33.4561 30.1759 32.0084C30.5018 31.4194 30.8003 30.8121 31.0686 30.1864L31.0921 30.1302C33.4482 32.0935 36.0988 33.6446 38.8894 34.5713ZM26.3211 8.17177C37.7467 8.38774 45.9785 19.2596 43.4601 31.0974C42.9627 21.1759 35.1917 10.8734 26.3211 8.17177ZM32.5032 19.8944C32.4377 19.4049 32.3526 18.9167 32.2479 18.4324C31.4442 14.7177 29.5764 11.4964 26.918 8.99901C34.8671 12.8747 42.2716 23.2544 43.146 32.3762C42.9666 33.0202 42.7559 33.6655 42.5124 34.3121C40.1983 30.3959 36.3841 24.9626 32.5032 19.8944ZM31.5503 28.9508C32.2073 27.083 32.583 25.1235 32.6576 23.1523C36.0294 27.511 39.5268 31.6995 42.2389 34.5203C41.5504 34.5831 40.8724 34.6132 40.2035 34.6132C37.1642 33.4456 34.1917 31.4404 31.5503 28.9508ZM17.6509 8.17177C6.22666 8.38905 -2.00642 19.2609 0.513241 31.0988C1.00932 21.1759 8.78036 10.8734 17.6509 8.17177ZM11.8314 19.4206C11.8838 19.0894 11.9466 18.7609 12.0173 18.4324C12.8498 14.5789 14.8315 11.2556 17.6496 8.72021C9.47801 12.3538 1.72137 23.0254 0.824764 32.3749C1.00409 33.0189 1.21482 33.6642 1.45828 34.3108C3.84574 30.2728 7.82747 24.6222 11.8314 19.4206ZM12.643 28.7414C11.9911 26.8212 11.6364 24.8068 11.5985 22.7858C8.1403 27.2754 4.52245 31.6223 1.73315 34.5203C2.42164 34.5831 3.09966 34.6132 3.76852 34.6132C6.8929 33.4129 9.9466 31.3278 12.643 28.7414Z" fill="#D5BA93"/>
</svg>
