<svg width="56" height="39" viewBox="0 0 56 39" fill="none" xmlns="http://www.w3.org/2000/svg">
<g filter="url(#filter0_b_2541_475450)">
<path d="M52.083 12.0714C54.1599 11.9195 55.1146 12.0714 55.2842 12.0714C55.2842 13.1785 55.069 15.8833 54.686 17.487C54.2073 19.4916 52.9506 22.6632 52.083 24.219C51.2153 25.7749 50.2279 27.1512 48.1933 29.5747C46.5657 31.5136 43.3862 33.7137 41.9999 34.5714L39.9351 35.6785L38.5098 36.2894C37.3681 36.7787 36.186 37.1727 34.9664 37.4079C32.7907 37.8274 30.8499 38.0742 29.4633 38.1918C27.8892 38.3252 27.5883 38.1918 27.6382 38.1918C27.5983 38.1918 27.6262 37.6891 28.0571 35.6785C28.5956 33.1652 29.2539 31.1605 30.3011 28.0189C30.9693 26.0142 32.5869 23.1876 34.4001 20.9278C36.3447 18.5043 38.7084 16.9384 41.1621 15.4823C43.0781 14.3454 44.3932 13.8966 45.7696 13.3879C47.1459 12.8793 49.3301 12.2729 52.083 12.0714Z" fill="#B68742" fill-opacity="0.35"/>
</g>
<g filter="url(#filter1_b_2541_475450)">
<path d="M25.4257 38.1913C27.5026 38.3432 28.4574 38.1913 28.627 38.1913C28.6269 37.0842 28.4118 34.3794 28.0288 32.7757C27.5501 30.7711 26.2934 27.5995 25.4257 26.0437C24.5581 24.4878 23.5707 23.1115 21.5361 20.688C19.9085 18.7491 16.7289 16.549 15.3426 15.6913L13.2779 14.5842L11.8526 13.9733C10.7109 13.484 9.52877 13.09 8.30914 12.8548C6.13344 12.4353 4.1927 12.1885 2.80608 12.0709C1.23194 11.9375 0.931084 12.0709 0.980951 12.0709C0.941057 12.0709 0.968983 12.5736 1.39983 14.5842C1.9384 17.0975 2.59664 19.1022 3.64385 22.2438C4.31206 24.2485 5.9297 27.0751 7.74291 29.3349C9.68748 31.7584 12.0512 33.3243 14.5049 34.7804C16.4209 35.9173 17.736 36.3661 19.1123 36.8748C20.4887 37.3834 22.6728 37.9898 25.4257 38.1913Z" fill="#B68742" fill-opacity="0.35"/>
</g>
<g filter="url(#filter2_b_2541_475450)">
<path d="M40.2717 4.58882C42.1237 3.63653 43.0618 3.40289 43.2178 3.33657C43.6509 4.35541 44.5109 6.92882 44.7858 8.55456C45.1294 10.5867 45.2135 13.9971 45.0236 15.7684C44.8337 17.5397 44.4634 19.1926 43.539 22.2189C42.7994 24.6399 40.7339 27.9085 39.7936 29.2402L38.3265 31.0667L37.2537 32.1865C36.3944 33.0834 35.4606 33.9084 34.4302 34.602C32.592 35.8392 30.9024 36.8255 29.6723 37.4761C28.2758 38.2146 27.9467 38.2095 27.9926 38.19C27.9559 38.2056 27.7849 37.7321 27.3949 35.7131C26.9074 33.1895 26.729 31.0871 26.4639 27.7861C26.2946 25.6798 26.6777 22.4457 27.4624 19.6566C28.304 16.6655 29.8668 14.2998 31.5554 11.9999C32.8739 10.2041 33.9087 9.27659 34.9764 8.27008C36.0441 7.26358 37.817 5.85107 40.2717 4.58882Z" fill="#B68742" fill-opacity="0.35"/>
</g>
<g filter="url(#filter3_b_2541_475450)">
<path d="M25.3117 36.9356C27.1637 37.8879 28.1018 38.1215 28.2579 38.1878C28.6909 37.169 29.5509 34.5956 29.8258 32.9698C30.1694 30.9377 30.2536 27.5273 30.0636 25.756C29.8737 23.9847 29.5034 22.3318 28.579 19.3055C27.8395 16.8845 25.774 13.6159 24.8337 12.2842L23.3665 10.4577L22.2937 9.33794C21.4345 8.44102 20.5007 7.61599 19.4702 6.92244C17.632 5.68522 15.9425 4.69892 14.7123 4.04834C13.3158 3.30978 12.9867 3.31488 13.0326 3.33439C12.9959 3.31878 12.825 3.79231 12.435 5.81127C11.9475 8.33496 11.7691 10.4374 11.5039 13.7383C11.3347 15.8446 11.7177 19.0788 12.5024 21.8678C13.344 24.8589 14.9068 27.2246 16.5954 29.5245C17.914 31.3203 18.9487 32.2478 20.0164 33.2543C21.0841 34.2608 22.857 35.6733 25.3117 36.9356Z" fill="#B68742" fill-opacity="0.35"/>
</g>
<g filter="url(#filter4_b_2541_475450)">
<path d="M26.4437 35.952C27.7856 37.5444 28.5613 38.1215 28.6797 38.2429C29.4719 37.4696 31.2572 35.4264 32.1374 34.0321C33.2376 32.2893 34.6295 29.1748 35.1368 27.4671C35.6441 25.7594 35.9394 24.0915 36.2526 20.9427C36.5032 18.4237 35.8569 14.6116 35.5023 13.0204L34.8524 10.7696C34.0341 8.64951 33.0184 6.6057 31.7395 4.72728C30.6759 3.1653 30.1039 2.45232 29.3366 1.52017C28.3325 0.300483 28.0269 0.178375 28.0617 0.214061C28.0339 0.185512 27.6937 0.556595 26.5557 2.26932C25.1333 4.41023 24.1585 6.2815 22.6418 9.22528C21.6739 11.1037 20.781 14.2357 20.4303 17.1117C20.0543 20.1961 20.5847 22.9813 21.2566 25.7543C21.7812 27.9196 22.3786 29.1742 22.976 30.5144C23.5733 31.8546 24.665 33.8413 26.4437 35.952Z" fill="#B68742" fill-opacity="0.35"/>
</g>
<defs>
<filter id="filter0_b_2541_475450" x="26.6015" y="10.9804" width="29.7063" height="28.2941" filterUnits="userSpaceOnUse" color-interpolation-filters="sRGB">
<feFlood flood-opacity="0" result="BackgroundImageFix"/>
<feGaussianBlur in="BackgroundImageFix" stdDeviation="0.511769"/>
<feComposite in2="SourceAlpha" operator="in" result="effect1_backgroundBlur_2541_475450"/>
<feBlend mode="normal" in="SourceGraphic" in2="effect1_backgroundBlur_2541_475450" result="shape"/>
</filter>
<filter id="filter1_b_2541_475450" x="-0.0557644" y="10.9882" width="29.7063" height="28.2941" filterUnits="userSpaceOnUse" color-interpolation-filters="sRGB">
<feFlood flood-opacity="0" result="BackgroundImageFix"/>
<feGaussianBlur in="BackgroundImageFix" stdDeviation="0.511769"/>
<feComposite in2="SourceAlpha" operator="in" result="effect1_backgroundBlur_2541_475450"/>
<feBlend mode="normal" in="SourceGraphic" in2="effect1_backgroundBlur_2541_475450" result="shape"/>
</filter>
<filter id="filter2_b_2541_475450" x="25.4008" y="2.31338" width="20.7458" height="36.9055" filterUnits="userSpaceOnUse" color-interpolation-filters="sRGB">
<feFlood flood-opacity="0" result="BackgroundImageFix"/>
<feGaussianBlur in="BackgroundImageFix" stdDeviation="0.511769"/>
<feComposite in2="SourceAlpha" operator="in" result="effect1_backgroundBlur_2541_475450"/>
<feBlend mode="normal" in="SourceGraphic" in2="effect1_backgroundBlur_2541_475450" result="shape"/>
</filter>
<filter id="filter3_b_2541_475450" x="10.4408" y="2.30556" width="20.7458" height="36.9055" filterUnits="userSpaceOnUse" color-interpolation-filters="sRGB">
<feFlood flood-opacity="0" result="BackgroundImageFix"/>
<feGaussianBlur in="BackgroundImageFix" stdDeviation="0.511769"/>
<feComposite in2="SourceAlpha" operator="in" result="effect1_backgroundBlur_2541_475450"/>
<feBlend mode="normal" in="SourceGraphic" in2="effect1_backgroundBlur_2541_475450" result="shape"/>
</filter>
<filter id="filter4_b_2541_475450" x="19.2816" y="-0.814553" width="18.051" height="40.0813" filterUnits="userSpaceOnUse" color-interpolation-filters="sRGB">
<feFlood flood-opacity="0" result="BackgroundImageFix"/>
<feGaussianBlur in="BackgroundImageFix" stdDeviation="0.511769"/>
<feComposite in2="SourceAlpha" operator="in" result="effect1_backgroundBlur_2541_475450"/>
<feBlend mode="normal" in="SourceGraphic" in2="effect1_backgroundBlur_2541_475450" result="shape"/>
</filter>
</defs>
</svg>
