<svg width="54" height="30" viewBox="0 0 54 30" fill="none" xmlns="http://www.w3.org/2000/svg">
<path d="M40.5171 12.751C37.57 10.2524 33.6619 8.97107 29.882 9.22734C25.3332 9.54767 20.9767 11.8541 16.492 11.3415C15.2107 11.2134 13.9294 10.829 12.9043 10.0602C11.4307 8.97107 10.5338 7.04906 10.7901 5.19112C11.0463 3.33319 12.5199 1.73152 14.3138 1.34711C16.1076 0.962713 18.1578 1.98778 18.8625 3.71759C19.311 4.80672 19.1828 6.2162 18.35 7.04906C17.5171 7.88193 15.9795 8.01007 15.1466 7.11313" stroke="#B68742" stroke-opacity="0.66" stroke-width="1.92201" stroke-miterlimit="10" stroke-linecap="round"/>
<path d="M42.8218 17.6195C39.8106 15.3771 36.4151 13.6473 32.8273 12.4941" stroke="#B68742" stroke-opacity="0.66" stroke-width="1.92201" stroke-miterlimit="10" stroke-linecap="round"/>
<path d="M36.0952 18.1328C33.1481 15.6982 29.3041 14.3528 25.5242 14.3528C19.4378 14.3528 13.8 17.6843 7.71361 17.6843C5.9838 17.6843 4.06179 17.2999 2.84452 16.0186C1.49912 14.6091 1.37099 12.1105 2.65233 10.701C3.99773 9.22749 6.62447 9.29156 7.84174 10.8292C8.48241 11.662 8.67461 12.9434 7.96987 13.7762C7.26514 14.6091 5.72753 14.545 5.27907 13.584" stroke="#9E6E28" stroke-opacity="0.78" stroke-width="1.92201" stroke-miterlimit="10" stroke-linecap="round"/>
<path d="M53.0093 26.077C50.1903 28.1271 46.1541 27.6786 42.8227 26.5254C38.8505 25.116 35.1987 22.8736 31.4188 20.8876C30.0093 20.1188 28.5998 19.414 27.0622 19.0296C25.0121 18.5171 22.8338 18.5812 20.8477 19.2859C19.8227 19.6703 18.8617 20.1828 18.1569 20.9516C16.8115 22.4252 16.5552 24.7956 17.5162 26.5254C18.5413 28.2553 20.7196 29.2163 22.6416 28.7678C23.1541 28.6397 23.7307 28.4474 24.1151 28.063C25.5887 26.6536 25.0761 23.3862 22.5775 23.5784C21.8728 23.6424 21.2321 24.0268 20.9118 24.6675" stroke="#B68742" stroke-opacity="0.66" stroke-width="1.92201" stroke-miterlimit="10" stroke-linecap="round"/>
</svg>
