<svg width="24" height="24" viewBox="0 0 24 24" fill="none" xmlns="http://www.w3.org/2000/svg">
<path d="M21.4383 11.05L12.2483 20.24C11.1225 21.3658 9.59552 21.9983 8.00334 21.9983C6.41115 21.9983 4.88418 21.3658 3.75834 20.24C2.63249 19.1141 2 17.5872 2 15.995C2 14.4028 2.63249 12.8758 3.75834 11.75L12.3283 3.17997C13.0789 2.42808 14.0974 2.00515 15.1598 2.00421C16.2222 2.00328 17.2414 2.42441 17.9933 3.17497C18.7452 3.92554 19.1682 4.94404 19.1691 6.00644C19.17 7.06883 18.7489 8.08808 17.9983 8.83997L9.40834 17.41C9.03306 17.7853 8.52406 17.9961 7.99334 17.9961C7.46261 17.9961 6.95362 17.7853 6.57834 17.41C6.20306 17.0347 5.99222 16.5257 5.99222 15.995C5.99222 15.4642 6.20306 14.9553 6.57834 14.58L15.0683 6.09997" stroke="#9F9F9F" stroke-width="2" stroke-linecap="round" stroke-linejoin="round"/>
</svg>
