<svg width="32" height="32" viewBox="0 0 32 32" fill="none" xmlns="http://www.w3.org/2000/svg">
<path d="M26.6671 13.3332C26.6671 21.3332 16.0004 29.3332 16.0004 29.3332C16.0004 29.3332 5.33374 21.3332 5.33374 13.3332C5.33374 10.5042 6.45755 7.79109 8.45793 5.7907C10.4583 3.79031 13.1714 2.6665 16.0004 2.6665C18.8294 2.6665 21.5425 3.79031 23.5429 5.7907C25.5433 7.79109 26.6671 10.5042 26.6671 13.3332Z" fill="white" stroke="white" stroke-width="2" stroke-linecap="round" stroke-linejoin="round"/>
<path d="M19.5 13.3335C19.5 15.2665 17.933 16.8335 16 16.8335C14.067 16.8335 12.5 15.2665 12.5 13.3335C12.5 11.4005 14.067 9.8335 16 9.8335C17.933 9.8335 19.5 11.4005 19.5 13.3335Z" fill="#424F44" stroke="#424F44"/>
</svg>
