<svg width="11" height="19" viewBox="0 0 11 19" fill="none" xmlns="http://www.w3.org/2000/svg">
<path d="M5.00374 15.8752L4.97461 0.250244" stroke="#424F44" stroke-width="1.5"/>
<path d="M4.97461 18.1272V15.8926" stroke="#424F44" stroke-width="1.5"/>
<path d="M9.07091 6.20857C9.07106 5.09115 7.92465 3.52123 6.46386 3.22895C4.60166 2.85634 3.31674 3.02629 2.36704 3.97492C1.9946 4.34693 1.28771 5.24282 1.62201 6.58093C1.95632 7.91904 3.11191 8.44312 4.9741 8.81555C6.83629 9.18799 8.32605 9.56035 9.07091 11.0502C9.44333 11.7951 9.8158 13.6573 7.9536 14.7747C7.23938 15.2032 6.15201 15.5201 4.97425 15.5201C3.4845 15.5201 2.11089 14.6348 1.62201 13.6573C1.24981 12.9132 1.25011 12.5406 1.25 12.1682" stroke="#424F44" stroke-width="1.5"/>
</svg>
