<svg width="82" height="109" viewBox="0 0 82 109" fill="none" xmlns="http://www.w3.org/2000/svg">
<path d="M13.5853 61.4146L14.0759 61.3183L13.5853 61.4146ZM80.6608 108.112L75.8976 104.85L81.1047 102.356L80.6608 108.112ZM78.2771 104.291C78.1333 104.025 77.9878 103.763 77.8406 103.503L78.7103 103.01C78.8609 103.275 79.0098 103.544 79.1569 103.816L78.2771 104.291ZM71.4328 95.0636C68.8222 92.4714 65.9605 90.3978 62.9472 88.6944L63.4393 87.8239C66.52 89.5653 69.4556 91.6911 72.1374 94.354L71.4328 95.0636ZM53.1739 84.4174C49.7433 83.2524 46.2631 82.3344 42.849 81.4815L43.0914 80.5113C46.5113 81.3657 50.0243 82.2917 53.4955 83.4705L53.1739 84.4174ZM32.3911 78.7786C28.6905 77.6921 25.2576 76.4219 22.325 74.6573L22.8406 73.8005C25.6662 75.5007 29.0052 76.7422 32.6729 77.8191L32.3911 78.7786ZM14.8233 66.7498C14.0616 65.201 13.4783 63.4652 13.0946 61.5109L14.0759 61.3183C14.444 63.1936 15.0008 64.8449 15.7206 66.3084L14.8233 66.7498ZM13.0946 61.5109C12.7557 59.7842 12.6256 57.8941 12.6337 55.888L13.6336 55.8921C13.6257 57.8559 13.7535 59.6762 14.0759 61.3183L13.0946 61.5109ZM13.5509 44.7528C13.9975 41.1561 14.5055 37.4374 14.835 33.7262L15.831 33.8146C15.4995 37.5489 14.9879 41.2958 14.5433 44.876L13.5509 44.7528ZM15.0353 22.7078C14.7348 18.92 13.9448 15.3508 12.3763 12.1773L13.2728 11.7342C14.9138 15.0544 15.725 18.7568 16.0321 22.6288L15.0353 22.7078ZM5.26572 4.15811C3.85047 3.21843 2.24321 2.37462 0.42013 1.64188L0.793061 0.714019C2.67412 1.47006 4.34247 2.34475 5.81886 3.32502L5.26572 4.15811ZM13.5853 61.4146L14.5665 61.222L13.5853 61.4146ZM80.6608 108.112L71.0698 101.682L81.4339 96.5914L80.6608 108.112ZM71.0806 95.4184C68.5055 92.8615 65.6807 90.814 62.7012 89.1297L63.6854 87.3886C66.7998 89.1491 69.7723 91.3009 72.4897 93.9992L71.0806 95.4184ZM53.0131 84.8909C49.6029 83.7328 46.1391 82.8188 42.7278 81.9666L43.2126 80.0262C46.6353 80.8813 50.1647 81.8114 53.6563 82.9971L53.0131 84.8909ZM32.2503 79.2583C28.5332 78.167 25.0533 76.8825 22.0672 75.0858L23.0984 73.3721C25.8706 75.0401 29.1625 76.2673 32.8137 77.3394L32.2503 79.2583ZM14.3746 66.9704C13.5919 65.3791 12.9954 63.601 12.604 61.6072L14.5665 61.222C14.9269 63.0578 15.4704 64.6668 16.1693 66.0878L14.3746 66.9704ZM12.604 61.6072C12.2567 59.8383 12.1255 57.9132 12.1337 55.886L14.1336 55.8941C14.1258 57.8368 14.2525 59.6221 14.5665 61.222L12.604 61.6072ZM13.0547 44.6912C13.5024 41.0862 14.0085 37.3817 14.3369 33.682L16.3291 33.8588C15.9966 37.6046 15.483 41.3657 15.0394 44.9377L13.0547 44.6912ZM14.5368 22.7474C14.2397 19.0016 13.4603 15.499 11.9281 12.3988L13.721 11.5127C15.3983 14.9062 16.2201 18.6752 16.5306 22.5892L14.5368 22.7474ZM4.98915 4.57465C3.60448 3.65528 2.02776 2.8269 0.233664 2.10581L0.979526 0.250089C2.88957 1.01778 4.58847 1.9079 6.09543 2.90848L4.98915 4.57465Z" fill="#F1EFE8"/>
</svg>
