<svg width="106" height="106" viewBox="0 0 106 106" fill="none" xmlns="http://www.w3.org/2000/svg">
<path d="M96.5651 100.545H9.31538C4.49959 100.545 0.582031 96.6271 0.582031 91.8113V32.557C0.582031 30.629 2.14463 29.0664 4.07258 29.0664H101.808C103.736 29.0664 105.298 30.629 105.298 32.557V91.8113C105.298 96.6271 101.381 100.545 96.5651 100.545ZM7.56312 36.0475V91.8113C7.56312 92.777 8.34966 93.5636 9.31538 93.5636H96.5651C97.5308 93.5636 98.3173 92.777 98.3173 91.8113V36.0475H7.56312Z" fill="#B68742"/>
<path d="M47.7666 84.439C47.6107 84.439 47.4536 84.4285 47.2954 84.4076C45.3849 84.1504 44.0457 82.3935 44.3028 80.4819C45.7526 69.7391 49.5666 60.2425 55.6669 52.1549H42.5843C40.6564 52.1549 39.0938 50.5923 39.0938 48.6644C39.0938 46.7364 40.6564 45.1738 42.5843 45.1738H63.2949C64.7027 45.1738 65.9733 46.0197 66.5166 47.3193C67.0588 48.619 66.768 50.1164 65.7778 51.1182C57.7333 59.2582 52.8349 69.4517 51.2211 81.4162C50.9849 83.1684 49.4863 84.439 47.7666 84.439Z" fill="#B68742"/>
<path d="M101.808 36.0477H4.07258C2.14463 36.0477 0.582031 34.4851 0.582031 32.5571V21.456C0.582031 16.6402 4.49959 12.7227 9.31538 12.7227H96.5651C101.381 12.7227 105.298 16.6402 105.298 21.456V32.5571C105.298 34.4851 103.736 36.0477 101.808 36.0477ZM7.56312 29.0666H98.3173V21.456C98.3173 20.4891 97.5308 19.7038 96.5651 19.7038H9.31538C8.34966 19.7049 7.56312 20.4903 7.56312 21.456V29.0666Z" fill="#B68742"/>
<path d="M25.4984 24.0858C23.5704 24.0858 22.0078 22.5232 22.0078 20.5953V8.82746C22.0078 6.89952 23.5704 5.33691 25.4984 5.33691C27.4263 5.33691 28.9889 6.89952 28.9889 8.82746V20.5953C28.9889 22.522 27.4251 24.0858 25.4984 24.0858Z" fill="#B68742"/>
<path d="M80.3812 24.0858C78.4532 24.0858 76.8906 22.5232 76.8906 20.5953V8.82746C76.8906 6.89952 78.4532 5.33691 80.3812 5.33691C82.3091 5.33691 83.8717 6.89952 83.8717 8.82746V20.5953C83.8717 22.522 82.3091 24.0858 80.3812 24.0858Z" fill="#B68742"/>
</svg>
