<svg width="288" height="380" viewBox="0 0 288 380" fill="none" xmlns="http://www.w3.org/2000/svg">
<path d="M47.5015 215.001L48.4828 214.808L47.5015 215.001ZM284.503 380L275.19 373.174L285.758 368.522L284.503 380ZM277.048 366.68C275.433 363.663 273.755 360.766 272.019 357.985L273.715 356.926C275.475 359.745 277.175 362.68 278.811 365.736L277.048 366.68ZM266.362 349.599C264.346 346.83 262.266 344.189 260.127 341.668L261.652 340.374C263.823 342.932 265.934 345.613 267.979 348.422L266.362 349.599ZM253.321 334.236C250.93 331.817 248.479 329.523 245.974 327.346L247.286 325.836C249.829 328.046 252.317 330.375 254.744 332.83L253.321 334.236ZM238.13 321.023C235.419 318.997 232.656 317.086 229.848 315.28L230.93 313.598C233.776 315.428 236.577 317.366 239.328 319.421L238.13 321.023ZM221.191 310.106C218.238 308.467 215.247 306.927 212.223 305.474L213.089 303.671C216.146 305.14 219.173 306.698 222.161 308.357L221.191 310.106ZM203.005 301.341C199.889 300.038 196.748 298.813 193.59 297.655L194.279 295.777C197.462 296.945 200.631 298.181 203.776 299.496L203.005 301.341ZM184.025 294.354C180.805 293.308 177.576 292.318 174.346 291.373L174.908 289.453C178.154 290.403 181.402 291.399 184.643 292.452L184.025 294.354ZM164.586 288.641C161.304 287.76 158.029 286.912 154.77 286.086L155.261 284.148C158.527 284.975 161.811 285.825 165.105 286.71L164.586 288.641ZM144.921 283.631C141.606 282.813 138.315 282.004 135.061 281.192L135.546 279.252C138.796 280.063 142.083 280.871 145.4 281.689L144.921 283.631ZM125.215 278.677C121.891 277.803 118.615 276.908 115.4 275.978L115.956 274.057C119.152 274.981 122.411 275.871 125.724 276.743L125.215 278.677ZM105.646 272.966C102.356 271.876 99.147 270.726 96.0322 269.497L96.7662 267.637C99.8412 268.85 103.015 269.987 106.275 271.068L105.646 272.966ZM86.6627 265.398C83.543 263.879 80.547 262.245 77.6924 260.472L78.7479 258.773C81.5376 260.506 84.4726 262.107 87.538 263.6L86.6627 265.398ZM69.3168 254.5C66.6573 252.316 64.1726 249.952 61.8829 247.381L63.3766 246.051C65.5929 248.54 68.0017 250.832 70.5859 252.954L69.3168 254.5ZM55.6873 239.125C53.9164 236.297 52.3376 233.265 50.9663 230.007L52.8097 229.231C54.1399 232.392 55.6693 235.328 57.3823 238.063L55.6873 239.125ZM47.6851 220.289C47.2522 218.64 46.8634 216.942 46.5202 215.193L48.4828 214.808C48.8181 216.517 49.1976 218.173 49.6195 219.781L47.6851 220.289ZM46.5202 215.193C46.2077 213.601 45.9458 211.968 45.7301 210.298L47.7136 210.042C47.9242 211.673 48.1793 213.262 48.4828 214.808L46.5202 215.193ZM44.9712 200.431C44.8699 197.225 44.8878 193.915 45.0006 190.515L46.9995 190.581C46.8878 193.945 46.8704 197.212 46.9702 200.368L44.9712 200.431ZM45.5512 180.695C45.7954 177.482 46.0989 174.205 46.4441 170.878L48.4334 171.084C48.0897 174.398 47.788 177.656 47.5454 180.847L45.5512 180.695ZM47.5453 161.098C47.9304 157.883 48.3376 154.631 48.7522 151.352L50.7364 151.602C50.322 154.88 49.9154 158.127 49.5311 161.336L47.5453 161.098ZM49.9834 141.606C50.3875 138.372 50.7852 135.121 51.1634 131.86L53.15 132.091C52.7709 135.36 52.3724 138.617 51.9679 141.854L49.9834 141.606ZM52.2204 122.113C52.545 118.857 52.8371 115.601 53.0837 112.352L55.078 112.503C54.83 115.77 54.5365 119.043 54.2106 122.312L52.2204 122.113ZM53.6764 102.581C53.8205 99.3053 53.9042 96.0462 53.9138 92.8125L55.9138 92.8185C55.9041 96.0825 55.8197 99.3691 55.6745 102.669L53.6764 102.581ZM53.6993 83.0375C53.539 79.7553 53.2848 76.5103 52.9219 73.312L54.9091 73.0865C55.2774 76.3313 55.5347 79.6191 55.6969 82.9399L53.6993 83.0375ZM51.4585 63.6939C50.8347 60.4775 50.0772 57.3227 49.1693 54.2395L51.0879 53.6745C52.015 56.8231 52.7871 60.0397 53.4219 63.3131L51.4585 63.6939ZM45.9282 45.096C44.6757 42.1143 43.2498 39.2177 41.6329 36.4169L43.365 35.4169C45.0259 38.2941 46.4887 41.2663 47.7721 44.3214L45.9282 45.096ZM36.2504 28.3888C34.3066 25.877 32.1673 23.4631 29.816 21.1572L31.2163 19.7293C33.6331 22.0994 35.8329 24.5814 37.8321 27.1647L36.2504 28.3888ZM22.4715 14.8444C19.9778 12.9639 17.2985 11.1776 14.4216 9.49336L15.432 7.76739C18.374 9.48973 21.1181 11.3189 23.6757 13.2476L22.4715 14.8444ZM5.80946 5.0365C4.33952 4.36582 2.82691 3.71734 1.2705 3.09178L2.01636 1.23606C3.60052 1.87277 5.14125 2.53328 6.63967 3.21695L5.80946 5.0365ZM47.5015 215.001L49.464 214.615L47.5015 215.001ZM284.503 380L265.877 366.347L287.014 357.043L284.503 380ZM276.166 367.152C274.561 364.154 272.895 361.277 271.17 358.514L274.563 356.396C276.335 359.235 278.047 362.189 279.693 365.264L276.166 367.152ZM265.554 350.187C263.552 347.438 261.487 344.817 259.364 342.314L262.414 339.727C264.601 342.304 266.728 345.004 268.788 347.833L265.554 350.187ZM252.61 334.939C250.237 332.538 247.804 330.262 245.318 328.1L247.942 325.081C250.503 327.308 253.01 329.653 255.455 332.128L252.61 334.939ZM237.532 321.824C234.84 319.813 232.096 317.915 229.307 316.121L231.471 312.757C234.336 314.6 237.157 316.551 239.926 318.62L237.532 321.824ZM220.705 310.98C217.771 309.351 214.797 307.82 211.79 306.375L213.522 302.77C216.596 304.246 219.64 305.814 222.647 307.483L220.705 310.98ZM202.619 302.264C199.518 300.967 196.391 299.747 193.246 298.594L194.623 294.839C197.819 296.011 201.002 297.252 204.162 298.573L202.619 302.264ZM183.715 295.305C180.507 294.262 177.287 293.275 174.065 292.333L175.188 288.494C178.443 289.446 181.701 290.444 184.952 291.501L183.715 295.305ZM164.326 289.607C161.05 288.727 157.78 287.881 154.524 287.056L155.507 283.178C158.775 284.006 162.065 284.858 165.364 285.744L164.326 289.607ZM144.681 284.602C141.368 283.784 138.075 282.975 134.819 282.162L135.788 278.281C139.036 279.092 142.321 279.899 145.64 280.718L144.681 284.602ZM124.96 279.644C121.631 278.768 118.347 277.871 115.122 276.939L116.234 273.096C119.42 274.018 122.671 274.906 125.978 275.776L124.96 279.644ZM105.331 273.915C102.027 272.82 98.7999 271.664 95.6652 270.428L97.1332 266.707C100.188 267.912 103.344 269.043 106.589 270.118L105.331 273.915ZM86.225 266.297C83.0781 264.765 80.0517 263.115 77.1646 261.321L79.2757 257.923C82.0329 259.637 84.9375 261.221 87.9757 262.7L86.225 266.297ZM68.6822 255.272C65.9852 253.058 63.4625 250.659 61.1361 248.046L64.1235 245.386C66.303 247.834 68.6738 250.09 71.2205 252.181L68.6822 255.272ZM54.8397 239.655C53.0399 236.782 51.4364 233.702 50.0446 230.395L53.7314 228.843C55.041 231.955 56.5457 234.843 58.2298 237.532L54.8397 239.655ZM46.7179 220.543C46.2795 218.873 45.8861 217.154 45.539 215.386L49.464 214.615C49.7955 216.304 50.1702 217.94 50.5868 219.527L46.7179 220.543ZM45.539 215.386C45.2218 213.771 44.9565 212.116 44.7383 210.426L48.7054 209.914C48.9134 211.525 49.1651 213.093 49.464 214.615L45.539 215.386ZM43.9717 200.463C43.8696 197.232 43.8877 193.899 44.0012 190.481L47.999 190.614C47.8879 193.961 47.8707 197.206 47.9697 200.336L43.9717 200.463ZM44.554 180.62C44.7992 177.395 45.1036 174.109 45.4494 170.774L49.4281 171.187C49.0851 174.494 48.7843 177.742 48.5425 180.923L44.554 180.62ZM46.5524 160.979C46.9379 157.761 47.3454 154.506 47.7601 151.226L51.7285 151.728C51.3141 155.005 50.9079 158.25 50.524 161.455L46.5524 160.979ZM48.9911 141.482C49.395 138.25 49.7923 135.002 50.17 131.745L54.1434 132.206C53.7638 135.479 53.3649 138.739 52.9602 141.978L48.9911 141.482ZM51.2253 122.014C51.5493 118.765 51.8407 115.516 52.0866 112.276L56.0751 112.579C55.8265 115.855 55.5322 119.135 55.2056 122.411L51.2253 122.014ZM52.6774 102.537C52.821 99.2734 52.9042 96.0281 52.9138 92.8095L56.9138 92.8214C56.904 96.1007 56.8192 99.401 56.6735 102.713L52.6774 102.537ZM52.7005 83.0862C52.5411 79.8233 52.2886 76.5999 51.9282 73.4248L55.9027 72.9737C56.2736 76.2418 56.5326 79.5511 56.6957 82.8911L52.7005 83.0862ZM50.4768 63.8843C49.8585 60.6965 49.1083 57.5724 48.21 54.5219L52.0471 53.3921C52.9839 56.5733 53.7633 59.8208 54.4036 63.1227L50.4768 63.8843ZM45.0062 45.4832C43.7691 42.5383 42.3617 39.6795 40.7668 36.9169L44.231 34.917C45.914 37.8323 47.3953 40.8423 48.694 43.9341L45.0062 45.4832ZM35.4596 29.0008C33.5434 26.5248 31.4344 24.145 29.1158 21.8712L31.9165 19.0153C34.366 21.4175 36.5961 23.9336 38.623 26.5527L35.4596 29.0008ZM21.8695 15.6429C19.4076 13.7864 16.7608 12.0216 13.9163 10.3563L15.9372 6.9044C18.9117 8.64576 21.6882 10.4964 24.2778 12.4491L21.8695 15.6429ZM5.39436 5.94628C3.93864 5.28208 2.4401 4.63962 0.89757 4.01964L2.38929 0.308204C3.9873 0.950483 5.54213 1.61702 7.05477 2.30718L5.39436 5.94628Z" fill="#F1EFE8"/>
</svg>
