<svg width="194" height="66" viewBox="0 0 194 66" fill="none" xmlns="http://www.w3.org/2000/svg">
<path d="M193 58.7871C193 61.9848 190.811 64.3027 188.414 64.3027H5.59377C3.19587 64.3027 1 61.9828 1 58.7871V6.82689C1 3.6309 3.19757 1.30273 5.59377 1.30273H188.412C190.809 1.30273 192.999 3.62874 192.999 6.82689L193 58.7871Z" fill="#F1EFE8" stroke="url(#paint0_linear_2541_474429)" stroke-width="2"/>
<path d="M47.1148 31.6371C47.0761 27.4472 50.6335 25.4088 50.7961 25.3139C48.7815 22.45 45.6588 22.0587 44.5615 22.0275C41.9388 21.7584 39.3948 23.5576 38.0588 23.5576C36.6961 23.5576 34.6388 22.0535 32.4215 22.0977C29.5681 22.1406 26.8988 23.7513 25.4348 26.2525C22.4135 31.3524 24.6668 38.8469 27.5615 42.9692C29.0095 44.9881 30.7015 47.2423 32.9161 47.163C35.0828 47.0759 35.8921 45.8162 38.5068 45.8162C41.0975 45.8162 41.8575 47.163 44.1161 47.1123C46.4415 47.0759 47.9055 45.0843 49.3028 43.0472C50.9761 40.7332 51.6481 38.4543 51.6748 38.3373C51.6201 38.3191 47.1588 36.659 47.1148 31.6371Z" fill="black"/>
<path d="M42.8481 19.3157C44.0135 17.8948 44.8108 15.9617 44.5895 14C42.9028 14.0728 40.7935 15.1375 39.5788 16.5272C38.5041 17.7518 37.5441 19.759 37.7921 21.6466C39.6868 21.7844 41.6321 20.7145 42.8481 19.3157Z" fill="black"/>
<path d="M78.4722 46.8736H75.4442L73.7855 41.7919H68.0202L66.4402 46.8736H63.4922L69.2042 29.5732H72.7322L78.4722 46.8736ZM73.2855 39.6599L71.7855 35.1424C71.6269 34.6809 71.3295 33.5941 70.8909 31.8833H70.8375C70.6629 32.6191 70.3815 33.7059 69.9949 35.1424L68.5215 39.6599H73.2855Z" fill="black"/>
<path d="M93.1615 40.4827C93.1615 42.6043 92.5735 44.2813 91.3975 45.5124C90.3442 46.6083 89.0362 47.1556 87.4748 47.1556C85.7895 47.1556 84.5788 46.5654 83.8415 45.385H83.7882V51.9565H80.9455V38.5054C80.9455 37.1716 80.9095 35.8027 80.8402 34.3987H83.3402L83.4988 36.376H83.5522C84.5002 34.8862 85.9388 34.1426 87.8695 34.1426C89.3788 34.1426 90.6388 34.7237 91.6468 35.8872C92.6575 37.052 93.1615 38.5834 93.1615 40.4827ZM90.2655 40.5841C90.2655 39.3699 89.9855 38.3689 89.4228 37.5811C88.8082 36.7595 87.9828 36.3487 86.9482 36.3487C86.2468 36.3487 85.6095 36.5775 85.0402 37.0286C84.4695 37.4836 84.0962 38.0777 83.9215 38.8135C83.8335 39.1567 83.7895 39.4375 83.7895 39.6585V41.7385C83.7895 42.6459 84.0748 43.4116 84.6455 44.0369C85.2162 44.6622 85.9575 44.9742 86.8695 44.9742C87.9402 44.9742 88.7735 44.5712 89.3695 43.7678C89.9668 42.9631 90.2655 41.9023 90.2655 40.5841Z" fill="black"/>
<path d="M107.878 40.4827C107.878 42.6043 107.29 44.2813 106.112 45.5124C105.06 46.6083 103.752 47.1556 102.191 47.1556C100.506 47.1556 99.2949 46.5654 98.5589 45.385H98.5055V51.9565H95.6629V38.5054C95.6629 37.1716 95.6269 35.8027 95.5575 34.3987H98.0575L98.2162 36.376H98.2695C99.2162 34.8862 100.655 34.1426 102.587 34.1426C104.095 34.1426 105.355 34.7237 106.366 35.8872C107.372 37.052 107.878 38.5834 107.878 40.4827ZM104.982 40.5841C104.982 39.3699 104.7 38.3689 104.138 37.5811C103.523 36.7595 102.7 36.3487 101.664 36.3487C100.962 36.3487 100.326 36.5775 99.7549 37.0286C99.1842 37.4836 98.8122 38.0777 98.6375 38.8135C98.5509 39.1567 98.5055 39.4375 98.5055 39.6585V41.7385C98.5055 42.6459 98.7909 43.4116 99.3589 44.0369C99.9295 44.6609 100.671 44.9742 101.586 44.9742C102.656 44.9742 103.49 44.5712 104.086 43.7678C104.683 42.9631 104.982 41.9023 104.982 40.5841Z" fill="black"/>
<path d="M124.331 42.0216C124.331 43.4932 123.807 44.6905 122.755 45.6148C121.599 46.6249 119.99 47.1293 117.922 47.1293C116.012 47.1293 114.482 46.7705 113.323 46.0516L113.982 43.7415C115.23 44.4773 116.599 44.8465 118.091 44.8465C119.162 44.8465 119.995 44.6099 120.594 44.1393C121.19 43.6687 121.487 43.0369 121.487 42.2491C121.487 41.5471 121.242 40.9556 120.75 40.4759C120.26 39.9962 119.443 39.5503 118.302 39.1382C115.195 38.0085 113.643 36.3536 113.643 34.1774C113.643 32.7552 114.187 31.5891 115.276 30.6817C116.362 29.773 117.81 29.3193 119.62 29.3193C121.235 29.3193 122.576 29.5936 123.647 30.1409L122.936 32.4003C121.936 31.8699 120.806 31.6047 119.54 31.6047C118.54 31.6047 117.759 31.8452 117.199 32.3236C116.726 32.7513 116.488 33.2726 116.488 33.8901C116.488 34.5739 116.759 35.1394 117.303 35.584C117.776 35.9948 118.636 36.4394 119.884 36.9191C121.411 37.5184 122.532 38.2191 123.254 39.0225C123.972 39.8233 124.331 40.8256 124.331 42.0216Z" fill="black"/>
<path d="M133.73 36.4783H130.596V42.535C130.596 44.0755 131.148 44.8451 132.255 44.8451C132.763 44.8451 133.184 44.8022 133.518 44.7164L133.596 46.8211C133.036 47.0252 132.299 47.1279 131.386 47.1279C130.263 47.1279 129.386 46.7938 128.752 46.1269C128.122 45.4587 127.804 44.3381 127.804 42.7638V36.4757H125.938V34.3957H127.804V32.1116L130.596 31.29V34.3957H133.73V36.4783Z" fill="black"/>
<path d="M147.867 40.5331C147.867 42.4506 147.304 44.0249 146.182 45.256C145.004 46.5235 143.442 47.1553 141.494 47.1553C139.616 47.1553 138.122 46.5482 137.007 45.334C135.892 44.1198 135.335 42.5871 135.335 40.7398C135.335 38.8067 135.908 37.2233 137.059 35.9922C138.207 34.7598 139.756 34.1436 141.704 34.1436C143.582 34.1436 145.092 34.7507 146.232 35.9662C147.323 37.1453 147.867 38.6676 147.867 40.5331ZM144.917 40.6228C144.917 39.4723 144.665 38.4856 144.155 37.6627C143.559 36.6669 142.707 36.1703 141.603 36.1703C140.46 36.1703 139.592 36.6682 138.996 37.6627C138.486 38.4869 138.234 39.4892 138.234 40.6748C138.234 41.8253 138.486 42.812 138.996 43.6336C139.611 44.6294 140.47 45.126 141.578 45.126C142.663 45.126 143.515 44.619 144.13 43.6076C144.654 42.7691 144.917 41.772 144.917 40.6228Z" fill="black"/>
<path d="M157.107 36.8362C156.826 36.7855 156.526 36.7595 156.211 36.7595C155.211 36.7595 154.438 37.1274 153.894 37.8645C153.42 38.5145 153.183 39.3361 153.183 40.328V46.8735H150.342L150.368 38.3273C150.368 36.8895 150.332 35.5804 150.262 34.4H152.738L152.842 36.7868H152.92C153.22 35.9665 153.694 35.3061 154.342 34.8108C154.975 34.3649 155.659 34.1426 156.396 34.1426C156.659 34.1426 156.896 34.1608 157.107 34.1933V36.8362Z" fill="black"/>
<path d="M169.82 40.0458C169.82 40.5424 169.787 40.961 169.716 41.3029H161.188C161.222 42.5353 161.634 43.4778 162.426 44.1278C163.144 44.7089 164.074 45.0001 165.215 45.0001C166.478 45.0001 167.63 44.8038 168.666 44.4099L169.111 46.3339C167.9 46.8487 166.471 47.1048 164.822 47.1048C162.838 47.1048 161.28 46.5354 160.147 45.3979C159.016 44.2604 158.45 42.7329 158.45 40.8167C158.45 38.9356 158.976 37.3691 160.031 36.1198C161.135 34.786 162.627 34.1191 164.504 34.1191C166.348 34.1191 167.744 34.786 168.692 36.1198C169.443 37.1793 169.82 38.4897 169.82 40.0458ZM167.11 39.3269C167.128 38.5053 166.943 37.7955 166.558 37.1962C166.066 36.4253 165.31 36.0405 164.292 36.0405C163.363 36.0405 162.607 36.4162 162.03 37.1702C161.556 37.7695 161.275 38.4884 161.188 39.3256H167.11V39.3269Z" fill="black"/>
<path d="M72.345 18.9303C72.345 20.4604 71.8744 21.6122 70.9344 22.3857C70.0637 23.0994 68.8264 23.4569 67.2237 23.4569C66.429 23.4569 65.749 23.4231 65.1797 23.3555V14.9952C65.9224 14.8782 66.7224 14.8184 67.5864 14.8184C69.113 14.8184 70.2637 15.1421 71.0397 15.7895C71.909 16.5214 72.345 17.5679 72.345 18.9303ZM70.8717 18.968C70.8717 17.9761 70.6024 17.2156 70.0637 16.6852C69.525 16.1561 68.7384 15.8909 67.7024 15.8909C67.2624 15.8909 66.8877 15.9195 66.577 15.9793V22.335C66.749 22.361 67.0637 22.3727 67.521 22.3727C68.5904 22.3727 69.4157 22.0828 69.997 21.503C70.5784 20.9232 70.8717 20.0782 70.8717 18.968Z" fill="black"/>
<path d="M80.157 20.2671C80.157 21.2096 79.881 21.9818 79.329 22.5876C78.7504 23.2103 77.9837 23.521 77.0264 23.521C76.1037 23.521 75.369 23.2233 74.821 22.6253C74.2744 22.0286 74.001 21.2759 74.001 20.3685C74.001 19.4195 74.2824 18.6408 74.8477 18.0363C75.413 17.4318 76.173 17.1289 77.1304 17.1289C78.053 17.1289 78.7944 17.4266 79.3557 18.0233C79.889 18.6031 80.157 19.3519 80.157 20.2671ZM78.7077 20.3113C78.7077 19.7458 78.5824 19.2609 78.333 18.8566C78.0397 18.3678 77.6224 18.1234 77.0797 18.1234C76.5184 18.1234 76.0917 18.3678 75.7984 18.8566C75.5477 19.2609 75.4237 19.7536 75.4237 20.336C75.4237 20.9015 75.549 21.3864 75.7984 21.7907C76.101 22.2795 76.5224 22.5239 77.0664 22.5239C77.5997 22.5239 78.0184 22.2756 78.3197 21.7777C78.5784 21.3656 78.7077 20.8768 78.7077 20.3113Z" fill="black"/>
<path d="M90.6317 17.2529L88.665 23.3811H87.385L86.5704 20.72C86.3637 20.0557 86.1957 19.3953 86.065 18.7401H86.0397C85.9184 19.4135 85.7504 20.0726 85.5344 20.72L84.669 23.3811H83.3744L81.525 17.2529H82.961L83.6717 20.1662C83.8437 20.8552 83.985 21.5117 84.0984 22.1331H84.1237C84.2277 21.6209 84.3997 20.9683 84.6424 20.1792L85.5344 17.2542H86.673L87.5277 20.1168C87.7344 20.8149 87.9024 21.487 88.0317 22.1344H88.0704C88.165 21.5039 88.3077 20.8318 88.497 20.1168L89.2597 17.2542H90.6317V17.2529Z" fill="black"/>
<path d="M97.8757 23.3819H96.4784V19.8719C96.4784 18.7903 96.057 18.2495 95.2117 18.2495C94.797 18.2495 94.4624 18.3977 94.2024 18.6954C93.945 18.9931 93.8144 19.3441 93.8144 19.7458V23.3806H92.417V19.0048C92.417 18.4666 92.3997 17.8829 92.3664 17.2511H93.5944L93.6597 18.2092H93.6984C93.861 17.9115 94.1037 17.6658 94.4224 17.4695C94.801 17.2407 95.225 17.125 95.689 17.125C96.2757 17.125 96.7637 17.3096 97.1517 17.6801C97.6343 18.1338 97.8757 18.8111 97.8757 19.7107V23.3819Z" fill="black"/>
<path d="M101.729 23.3815H100.333V14.4414H101.729V23.3815Z" fill="black"/>
<path d="M109.956 20.2671C109.956 21.2096 109.68 21.9818 109.128 22.5876C108.549 23.2103 107.781 23.521 106.825 23.521C105.901 23.521 105.166 23.2233 104.62 22.6253C104.073 22.0286 103.8 21.2759 103.8 20.3685C103.8 19.4195 104.081 18.6408 104.646 18.0363C105.212 17.4318 105.972 17.1289 106.928 17.1289C107.852 17.1289 108.592 17.4266 109.154 18.0233C109.688 18.6031 109.956 19.3519 109.956 20.2671ZM108.505 20.3113C108.505 19.7458 108.38 19.2609 108.13 18.8566C107.838 18.3678 107.42 18.1234 106.878 18.1234C106.316 18.1234 105.889 18.3678 105.597 18.8566C105.346 19.2609 105.222 19.7536 105.222 20.336C105.222 20.9015 105.348 21.3864 105.597 21.7907C105.9 22.2795 106.321 22.5239 106.865 22.5239C107.398 22.5239 107.816 22.2756 108.117 21.7777C108.377 21.3656 108.505 20.8768 108.505 20.3113Z" fill="black"/>
<path d="M116.718 23.3819H115.464L115.36 22.676H115.321C114.892 23.2389 114.28 23.521 113.485 23.521C112.892 23.521 112.412 23.3351 112.05 22.9659C111.722 22.6305 111.558 22.2132 111.558 21.7179C111.558 20.9691 111.878 20.3984 112.522 20.0032C113.165 19.608 114.069 19.4143 115.233 19.4234V19.309C115.233 18.5017 114.798 18.0987 113.928 18.0987C113.308 18.0987 112.761 18.2508 112.289 18.5524L112.005 17.658C112.589 17.3057 113.31 17.1289 114.161 17.1289C115.804 17.1289 116.628 17.9739 116.628 19.6639V21.9207C116.628 22.533 116.658 23.0205 116.718 23.3819ZM115.268 21.2759V20.3308C113.726 20.3048 112.956 20.7169 112.956 21.5658C112.956 21.8856 113.044 22.1248 113.224 22.2847C113.404 22.4446 113.633 22.5239 113.906 22.5239C114.213 22.5239 114.5 22.429 114.761 22.2405C115.024 22.0507 115.185 21.8102 115.245 21.5151C115.26 21.4488 115.268 21.3682 115.268 21.2759Z" fill="black"/>
<path d="M124.658 23.3815H123.418L123.353 22.3974H123.314C122.918 23.1462 122.244 23.5206 121.296 23.5206C120.538 23.5206 119.908 23.2307 119.408 22.6509C118.908 22.0711 118.658 21.3184 118.658 20.3941C118.658 19.4022 118.929 18.5988 119.473 17.9852C120 17.4132 120.645 17.1272 121.413 17.1272C122.257 17.1272 122.848 17.4041 123.184 17.9592H123.21V14.4414H124.609V21.7305C124.609 22.3272 124.625 22.8771 124.658 23.3815ZM123.21 20.7971V19.7753C123.21 19.5985 123.197 19.4555 123.172 19.3463C123.093 19.0187 122.924 18.7431 122.666 18.5208C122.406 18.2985 122.093 18.1867 121.732 18.1867C121.21 18.1867 120.802 18.3882 120.502 18.7925C120.205 19.1968 120.054 19.7129 120.054 20.3434C120.054 20.9492 120.197 21.4406 120.484 21.8189C120.786 22.2219 121.194 22.4234 121.705 22.4234C122.164 22.4234 122.53 22.2557 122.809 21.919C123.078 21.6083 123.21 21.2339 123.21 20.7971Z" fill="black"/>
<path d="M136.609 20.2671C136.609 21.2096 136.333 21.9818 135.781 22.5876C135.202 23.2103 134.437 23.521 133.478 23.521C132.557 23.521 131.822 23.2233 131.273 22.6253C130.726 22.0286 130.453 21.2759 130.453 20.3685C130.453 19.4195 130.734 18.6408 131.3 18.0363C131.865 17.4318 132.625 17.1289 133.584 17.1289C134.505 17.1289 135.248 17.4266 135.808 18.0233C136.341 18.6031 136.609 19.3519 136.609 20.2671ZM135.161 20.3113C135.161 19.7458 135.036 19.2609 134.786 18.8566C134.492 18.3678 134.076 18.1234 133.532 18.1234C132.972 18.1234 132.545 18.3678 132.25 18.8566C132 19.2609 131.876 19.7536 131.876 20.336C131.876 20.9015 132.001 21.3864 132.25 21.7907C132.553 22.2795 132.974 22.5239 133.518 22.5239C134.052 22.5239 134.472 22.2756 134.773 21.7777C135.03 21.3656 135.161 20.8768 135.161 20.3113Z" fill="black"/>
<path d="M144.122 23.3819H142.726V19.8719C142.726 18.7903 142.305 18.2495 141.458 18.2495C141.044 18.2495 140.709 18.3977 140.45 18.6954C140.192 18.9931 140.062 19.3441 140.062 19.7458V23.3806H138.664V19.0048C138.664 18.4666 138.648 17.8829 138.614 17.2511H139.841L139.906 18.2092H139.945C140.109 17.9115 140.352 17.6658 140.669 17.4695C141.049 17.2407 141.472 17.125 141.937 17.125C142.522 17.125 143.01 17.3096 143.398 17.6801C143.882 18.1338 144.122 18.8111 144.122 19.7107V23.3819Z" fill="black"/>
<path d="M153.526 18.2742H151.988V21.2512C151.988 22.0078 152.261 22.3861 152.802 22.3861C153.053 22.3861 153.261 22.3653 153.425 22.3224L153.461 23.3559C153.185 23.4573 152.822 23.508 152.376 23.508C151.824 23.508 151.394 23.3442 151.084 23.0166C150.772 22.689 150.617 22.1378 150.617 21.3643V18.2742H149.698V17.2537H150.617V16.1305L151.986 15.7275V17.2524H153.525V18.2742H153.526Z" fill="black"/>
<path d="M160.924 23.3815H159.525V19.8975C159.525 18.799 159.104 18.2491 158.26 18.2491C157.612 18.2491 157.169 18.5676 156.926 19.2046C156.885 19.3385 156.861 19.5023 156.861 19.6947V23.3802H155.465V14.4414H156.861V18.1347H156.888C157.328 17.4626 157.958 17.1272 158.776 17.1272C159.354 17.1272 159.833 17.3118 160.213 17.6823C160.686 18.1438 160.924 18.8302 160.924 19.7376V23.3815Z" fill="black"/>
<path d="M168.554 20.0279C168.554 20.2723 168.536 20.4777 168.502 20.6454H164.312C164.33 21.2512 164.53 21.7127 164.918 22.0325C165.273 22.3185 165.73 22.4615 166.29 22.4615C166.91 22.4615 167.476 22.3653 167.985 22.1716L168.204 23.118C167.608 23.3702 166.906 23.4963 166.094 23.4963C165.121 23.4963 164.354 23.2168 163.8 22.6578C163.242 22.0988 162.966 21.3487 162.966 20.4075C162.966 19.4832 163.224 18.7136 163.742 18.1C164.284 17.4448 165.016 17.1172 165.94 17.1172C166.844 17.1172 167.53 17.4448 167.994 18.1C168.369 18.62 168.554 19.2635 168.554 20.0279ZM167.221 19.6756C167.232 19.2713 167.14 18.9229 166.95 18.6291C166.708 18.2508 166.338 18.061 165.838 18.061C165.382 18.061 165.01 18.2456 164.726 18.6161C164.494 18.9112 164.357 19.2635 164.312 19.6756H167.221Z" fill="black"/>
<defs>
<linearGradient id="paint0_linear_2541_474429" x1="97" y1="0.302734" x2="97" y2="65.3027" gradientUnits="userSpaceOnUse">
<stop stop-color="white"/>
<stop offset="1" stop-color="white" stop-opacity="0"/>
</linearGradient>
</defs>
</svg>
