<svg width="294" height="378" viewBox="0 0 294 378" fill="none" xmlns="http://www.w3.org/2000/svg">
<path d="M223.684 227.576L224.665 227.768L223.684 227.576ZM3.18448 377.076L12.4924 370.243L1.92054 365.598L3.18448 377.076ZM10.6051 363.758C12.2125 360.73 13.874 357.836 15.5858 355.069L13.8849 354.017C12.1495 356.822 10.4662 359.754 8.83853 362.821L10.6051 363.758ZM21.1987 346.684C23.2146 343.9 25.2878 341.263 27.4131 338.765L25.8897 337.469C23.7304 340.007 21.625 342.685 19.5788 345.511L21.1987 346.684ZM34.232 331.383C36.6476 328.976 39.1185 326.72 41.6381 324.601L40.3511 323.07C37.7888 325.225 35.2763 327.519 32.8204 329.966L34.232 331.383ZM49.5898 318.47C52.3563 316.516 55.1706 314.703 58.025 313.016L57.0077 311.295C54.1083 313.008 51.2484 314.85 48.436 316.836L49.5898 318.47ZM66.8692 308.24C69.8964 306.748 72.9585 305.377 76.0472 304.109L75.288 302.259C72.1599 303.542 69.056 304.933 65.9852 306.446L66.8692 308.24ZM85.483 300.571C88.6757 299.479 91.8869 298.479 95.108 297.555L94.5565 295.633C91.3066 296.565 88.0631 297.575 84.8357 298.679L85.483 300.571ZM104.87 294.975C108.158 294.174 111.446 293.434 114.726 292.738L114.311 290.781C111.015 291.481 107.707 292.225 104.396 293.032L104.87 294.975ZM124.644 290.743C127.985 290.102 131.305 289.489 134.596 288.884L134.234 286.917C130.943 287.522 127.616 288.136 124.267 288.779L124.644 290.743ZM144.559 287.045C147.934 286.41 151.265 285.765 154.539 285.086L154.133 283.128C150.876 283.803 147.558 284.446 144.19 285.079L144.559 287.045ZM164.471 282.857C167.827 282.035 171.106 281.149 174.292 280.173L173.705 278.26C170.563 279.224 167.322 280.1 163.995 280.915L164.471 282.857ZM183.931 276.793C187.159 275.497 190.261 274.059 193.218 272.447L192.26 270.691C189.381 272.261 186.351 273.666 183.186 274.937L183.931 276.793ZM201.843 266.884C204.562 264.809 207.102 262.51 209.441 259.949L207.964 258.6C205.71 261.068 203.259 263.287 200.629 265.294L201.843 266.884ZM215.662 251.717C217.4 248.918 218.954 245.88 220.309 242.577L218.459 241.818C217.144 245.022 215.64 247.961 213.963 250.662L215.662 251.717ZM223.512 232.865C223.936 231.221 224.321 229.522 224.665 227.768L222.703 227.383C222.366 229.1 221.989 230.76 221.575 232.366L223.512 232.865ZM224.665 227.768C224.969 226.222 225.24 224.629 225.483 222.992L223.504 222.699C223.266 224.308 223 225.87 222.703 227.383L224.665 227.768ZM226.562 213.355C226.816 210.238 227 207.002 227.132 203.664L225.133 203.585C225.002 206.901 224.819 210.108 224.569 213.193L226.562 213.355ZM227.377 193.996C227.419 190.846 227.432 187.624 227.426 184.341L225.426 184.344C225.432 187.62 225.419 190.832 225.377 193.969L227.377 193.996ZM227.369 174.676C227.341 171.498 227.307 168.272 227.276 165.014L225.276 165.033C225.307 168.295 225.341 171.516 225.369 174.694L227.369 174.676ZM227.204 155.379C227.19 152.189 227.187 148.974 227.205 145.743L225.205 145.732C225.187 148.971 225.19 152.193 225.204 155.388L227.204 155.379ZM227.325 136.109C227.39 132.905 227.482 129.694 227.611 126.482L225.612 126.402C225.483 129.629 225.39 132.853 225.325 136.068L227.325 136.109ZM228.11 116.871C228.318 113.666 228.569 110.468 228.872 107.285L226.881 107.095C226.576 110.3 226.323 113.518 226.114 116.741L228.11 116.871ZM229.952 97.7321C230.374 94.5405 230.857 91.3723 231.41 88.2352L229.44 87.8881C228.882 91.0557 228.394 94.2525 227.97 97.4703L229.952 97.7321ZM233.308 78.8266C234.027 75.6898 234.827 72.5944 235.718 69.5486L233.799 68.9871C232.896 72.0735 232.086 75.2074 231.359 78.3799L233.308 78.8266ZM238.713 60.4573C239.824 57.4466 241.039 54.4972 242.369 51.6181L240.553 50.7796C239.2 53.7095 237.964 56.7078 236.836 59.765L238.713 60.4573ZM246.751 43.1263C248.339 40.3654 250.053 37.6855 251.904 35.0957L250.277 33.9328C248.386 36.5783 246.636 39.3138 245.017 42.1292L246.751 43.1263ZM257.847 27.6374C259.94 25.2808 262.174 23.0192 264.559 20.8613L263.217 19.3782C260.777 21.5858 258.492 23.8993 256.352 26.3094L257.847 27.6374ZM271.953 14.8688C274.473 13.042 277.135 11.3133 279.947 9.69028L278.947 7.95817C276.076 9.61546 273.356 11.3817 270.779 13.2495L271.953 14.8688ZM288.429 5.33085C289.876 4.67185 291.357 4.03726 292.873 3.42785L292.127 1.57213C290.583 2.19263 289.074 2.83909 287.6 3.51077L288.429 5.33085ZM223.684 227.576L225.647 227.961L223.684 227.576ZM3.18448 377.076L21.8004 363.409L0.656587 354.121L3.18448 377.076ZM11.4883 364.227C13.0857 361.218 14.7363 358.343 16.4362 355.595L13.0345 353.491C11.2873 356.315 9.59299 359.267 7.95526 362.352L11.4883 364.227ZM22.0086 347.27C24.0094 344.507 26.0665 341.891 28.1748 339.413L25.1281 336.821C22.9517 339.38 20.8302 342.077 18.7688 344.924L22.0086 347.27ZM34.9378 332.092C37.3332 329.705 39.7833 327.467 42.2817 325.367L39.7075 322.305C37.1239 324.477 34.5906 326.791 32.1145 329.258L34.9378 332.092ZM50.1666 319.287C52.9102 317.349 55.7017 315.551 58.5337 313.877L56.499 310.434C53.5772 312.16 50.6945 314.017 47.8591 316.019L50.1666 319.287ZM67.3112 309.137C70.3166 307.656 73.3578 306.294 76.4268 305.034L74.9084 301.334C71.7606 302.625 68.6358 304.025 65.5432 305.549L67.3112 309.137ZM85.8067 301.518C88.9819 300.431 92.1771 299.436 95.3838 298.517L94.2807 294.672C91.0164 295.608 87.7569 296.623 84.512 297.733L85.8067 301.518ZM105.107 295.947C108.383 295.148 111.662 294.41 114.934 293.716L114.103 289.803C110.8 290.504 107.481 291.251 104.159 292.061L105.107 295.947ZM124.833 291.725C128.169 291.085 131.486 290.472 134.776 289.868L134.054 285.934C130.762 286.538 127.432 287.153 124.078 287.797L124.833 291.725ZM144.744 288.028C148.122 287.393 151.46 286.746 154.742 286.065L153.93 282.149C150.681 282.822 147.37 283.464 144.005 284.096L144.744 288.028ZM164.709 283.829C168.08 283.003 171.377 282.112 174.585 281.129L173.412 277.304C170.291 278.261 167.069 279.132 163.757 279.944L164.709 283.829ZM184.304 277.721C187.563 276.412 190.701 274.958 193.696 273.325L191.781 269.813C188.941 271.362 185.947 272.75 182.813 274.009L184.304 277.721ZM202.449 267.679C205.213 265.57 207.798 263.231 210.179 260.623L207.226 257.926C205.014 260.347 202.608 262.526 200.023 264.499L202.449 267.679ZM216.512 252.245C218.28 249.396 219.858 246.309 221.234 242.957L217.534 241.438C216.239 244.593 214.76 247.482 213.113 250.135L216.512 252.245ZM224.48 233.115C224.909 231.451 225.299 229.734 225.647 227.961L221.721 227.191C221.388 228.889 221.016 230.53 220.607 232.116L224.48 233.115ZM225.647 227.961C225.953 226.398 226.227 224.789 226.472 223.138L222.515 222.552C222.279 224.148 222.015 225.694 221.721 227.191L225.647 227.961ZM227.559 213.436C227.814 210.302 227.999 207.052 228.131 203.703L224.134 203.546C224.004 206.85 223.821 210.044 223.572 213.112L227.559 213.436ZM228.377 194.01C228.419 190.853 228.432 187.625 228.426 184.339L224.426 184.346C224.432 187.618 224.419 190.825 224.377 193.956L228.377 194.01ZM228.369 174.668C228.341 171.489 228.307 168.26 228.276 165.004L224.276 165.042C224.307 168.306 224.341 171.525 224.369 174.703L228.369 174.668ZM228.204 155.374C228.19 152.186 228.187 148.975 228.205 145.748L224.205 145.726C224.187 148.97 224.19 152.195 224.204 155.392L228.204 155.374ZM228.325 136.129C228.389 132.931 228.482 129.727 228.61 126.522L224.613 126.362C224.484 129.596 224.391 132.828 224.325 136.048L228.325 136.129ZM229.108 116.935C229.315 113.739 229.566 110.552 229.868 107.379L225.886 107C225.579 110.216 225.326 113.444 225.116 116.677L229.108 116.935ZM230.944 97.863C231.363 94.6846 231.844 91.5306 232.394 88.4087L228.455 87.7146C227.894 90.8975 227.405 94.1085 226.978 97.3393L230.944 97.863ZM234.283 79.0499C234.997 75.9311 235.793 72.8549 236.678 69.8294L232.839 68.7063C231.93 71.8131 231.115 74.9662 230.384 78.1566L234.283 79.0499ZM239.651 60.8035C240.753 57.816 241.959 54.8911 243.276 52.0373L239.645 50.3604C238.28 53.3157 237.035 56.3384 235.898 59.4188L239.651 60.8035ZM247.618 43.6248C249.19 40.8912 250.886 38.2391 252.717 35.6772L249.463 33.3514C247.552 36.0248 245.785 38.788 244.15 41.6306L247.618 43.6248ZM258.595 28.3014C260.664 25.9715 262.872 23.7359 265.23 21.6028L262.546 18.6367C260.079 20.8691 257.768 23.2085 255.604 25.6454L258.595 28.3014ZM272.54 15.6785C275.032 13.8722 277.665 12.1623 280.447 10.5563L278.447 7.0921C275.546 8.7665 272.797 10.5515 270.192 12.4398L272.54 15.6785ZM288.843 6.24091C290.276 5.58823 291.743 4.95957 293.246 4.35571L291.754 0.644276C290.197 1.27033 288.674 1.92271 287.185 2.60071L288.843 6.24091Z" fill="#F1EFE8"/>
</svg>
