<svg width="430" height="321" viewBox="0 0 430 321" fill="none" xmlns="http://www.w3.org/2000/svg">
<path d="M120.516 197.706L119.64 198.188L120.516 197.706ZM429.635 320.753L418.722 316.98L427.447 309.416L429.635 320.753ZM418.629 310.109C416.21 307.622 413.773 305.238 411.32 302.955L412.683 301.491C415.16 303.797 417.62 306.204 420.063 308.715L418.629 310.109ZM403.711 296.224C401.086 294.021 398.445 291.924 395.789 289.927L396.991 288.329C399.675 290.347 402.344 292.466 404.996 294.692L403.711 296.224ZM387.532 284.066C384.673 282.153 381.801 280.349 378.916 278.646L379.933 276.923C382.85 278.646 385.754 280.47 388.644 282.403L387.532 284.066ZM370.03 273.731C366.995 272.162 363.949 270.696 360.893 269.326L361.712 267.501C364.8 268.886 367.88 270.368 370.948 271.955L370.03 273.731ZM351.531 265.428C348.351 264.203 345.165 263.073 341.973 262.028L342.595 260.128C345.818 261.182 349.037 262.324 352.25 263.562L351.531 265.428ZM332.247 259.107C328.96 258.205 325.671 257.385 322.382 256.638L322.825 254.688C326.142 255.441 329.46 256.268 332.777 257.178L332.247 259.107ZM312.421 254.592C309.071 253.973 305.725 253.421 302.385 252.926L302.678 250.948C306.04 251.445 309.41 252.001 312.784 252.625L312.421 254.592ZM292.295 251.596C288.908 251.201 285.53 250.856 282.166 250.552L282.346 248.56C285.726 248.866 289.121 249.212 292.526 249.609L292.295 251.596ZM272.01 249.741C268.601 249.502 265.209 249.295 261.837 249.108L261.947 247.111C265.327 247.298 268.73 247.506 272.15 247.746L272.01 249.741ZM251.651 248.594C248.226 248.434 244.827 248.285 241.456 248.135L241.545 246.137C244.915 246.287 248.316 246.436 251.744 246.596L251.651 248.594ZM231.254 247.661C227.816 247.491 224.412 247.306 221.047 247.095L221.173 245.099C224.526 245.31 227.921 245.493 231.353 245.664L231.254 247.661ZM210.842 246.348C207.396 246.054 203.997 245.715 200.65 245.317L200.886 243.331C204.208 243.726 207.585 244.063 211.012 244.355L210.842 246.348ZM190.495 243.883C187.071 243.315 183.71 242.662 180.419 241.906L180.866 239.957C184.114 240.702 187.434 241.348 190.822 241.91L190.495 243.883ZM170.494 239.231C167.188 238.193 163.964 237.021 160.83 235.693L161.61 233.852C164.68 235.153 167.843 236.303 171.093 237.322L170.494 239.231ZM151.576 231.147C148.592 229.458 145.708 227.586 142.932 225.51L144.13 223.908C146.835 225.931 149.648 227.757 152.562 229.407L151.576 231.147ZM135.097 218.804C132.693 216.455 130.392 213.907 128.2 211.144L129.767 209.901C131.907 212.599 134.151 215.084 136.495 217.373L135.097 218.804ZM122.284 202.713C121.379 201.253 120.497 199.746 119.64 198.188L121.393 197.224C122.233 198.752 123.097 200.229 123.984 201.658L122.284 202.713ZM119.64 198.188C118.809 196.676 118.023 195.131 117.277 193.553L119.085 192.698C119.814 194.241 120.582 195.75 121.393 197.224L119.64 198.188ZM113.338 183.943C112.198 180.731 111.176 177.42 110.247 174.027L112.176 173.499C113.094 176.851 114.102 180.115 115.223 183.274L113.338 183.943ZM107.793 163.991C107.064 160.664 106.395 157.278 105.764 153.846L107.731 153.484C108.359 156.899 109.024 160.263 109.747 163.563L107.793 163.991ZM104.005 143.69C103.451 140.324 102.913 136.927 102.371 133.512L104.346 133.199C104.888 136.614 105.426 140.006 105.979 143.365L104.005 143.69ZM100.738 123.348C100.183 119.974 99.6067 116.593 98.992 113.216L100.96 112.858C101.577 116.249 102.155 119.642 102.712 123.023L100.738 123.348ZM97.0203 103.136C96.3125 99.7849 95.549 96.4492 94.7122 93.1398L96.6511 92.6495C97.4953 95.9881 98.2648 99.3498 98.9772 102.723L97.0203 103.136ZM91.9554 83.2722C90.9472 80.0044 89.8471 76.7749 88.6375 73.5947L90.5069 72.8837C91.7331 76.1077 92.8469 79.378 93.8665 82.6826L91.9554 83.2722ZM84.6503 64.1869C83.2008 61.1115 81.6238 58.0968 79.9014 55.1537L81.6275 54.1435C83.3819 57.1412 84.9864 60.2087 86.4594 63.3342L84.6503 64.1869ZM74.3326 46.6219C72.3572 43.9039 70.2268 41.2636 67.9248 38.7111L69.41 37.3717C71.7605 39.978 73.935 42.6731 75.9504 45.4461L74.3326 46.6219ZM60.6975 31.5142C58.224 29.3017 55.5864 27.1736 52.771 25.1381L53.9428 23.5173C56.8141 25.5932 59.5057 27.7648 62.0308 30.0235L60.6975 31.5142ZM44.2428 19.5888C41.3937 17.9227 38.3894 16.3379 35.2199 14.8406L36.0741 13.0323C39.2952 14.5539 42.3514 16.1659 45.2524 17.8623L44.2428 19.5888ZM25.8205 10.8502C22.7349 9.67716 19.5126 8.5772 16.1466 7.55481L16.7278 5.64113C20.1359 6.67631 23.4014 7.79092 26.5312 8.98077L25.8205 10.8502ZM6.27595 4.88282C4.61165 4.48397 2.91599 4.10218 1.18831 3.73789L1.60095 1.78092C3.34614 2.14891 5.05964 2.5347 6.74205 2.93789L6.27595 4.88282ZM120.516 197.706L118.764 198.669L120.516 197.706ZM429.635 320.753L407.809 313.206L425.259 298.078L429.635 320.753ZM417.913 310.807C415.504 308.331 413.079 305.959 410.639 303.686L413.365 300.759C415.854 303.077 418.326 305.495 420.78 308.018L417.913 310.807ZM403.068 296.99C400.456 294.798 397.829 292.712 395.188 290.726L397.592 287.529C400.29 289.558 402.973 291.688 405.639 293.926L403.068 296.99ZM386.976 284.897C384.133 282.995 381.276 281.2 378.407 279.507L380.441 276.062C383.374 277.794 386.294 279.628 389.2 281.572L386.976 284.897ZM369.571 274.62C366.553 273.059 363.523 271.601 360.484 270.239L362.121 266.589C365.226 267.981 368.322 269.471 371.408 271.066L369.571 274.62ZM351.171 266.361C348.008 265.143 344.838 264.018 341.662 262.979L342.906 259.177C346.145 260.237 349.38 261.385 352.609 262.629L351.171 266.361ZM331.982 260.071C328.711 259.173 325.436 258.357 322.161 257.614L323.047 253.713C326.377 254.469 329.709 255.299 333.041 256.214L331.982 260.071ZM312.239 255.575C308.902 254.958 305.568 254.408 302.238 253.915L302.824 249.958C306.197 250.458 309.579 251.016 312.966 251.642L312.239 255.575ZM292.179 252.589C288.801 252.195 285.433 251.851 282.076 251.548L282.436 247.564C285.824 247.871 289.227 248.218 292.642 248.616L292.179 252.589ZM271.94 250.738C268.537 250.5 265.15 250.293 261.782 250.107L262.003 246.113C265.386 246.3 268.794 246.508 272.22 246.748L271.94 250.738ZM251.604 249.593C248.181 249.433 244.784 249.284 241.411 249.134L241.589 245.138C244.958 245.288 248.362 245.437 251.791 245.597L251.604 249.593ZM231.204 248.66C227.763 248.489 224.355 248.305 220.985 248.093L221.235 244.101C224.583 244.311 227.973 244.495 231.402 244.665L231.204 248.66ZM210.757 247.344C207.302 247.05 203.892 246.71 200.532 246.31L201.004 242.338C204.313 242.732 207.679 243.067 211.097 243.359L210.757 247.344ZM190.331 244.869C186.89 244.298 183.509 243.642 180.195 242.881L181.09 238.982C184.315 239.723 187.615 240.364 190.986 240.924L190.331 244.869ZM170.195 240.185C166.86 239.139 163.606 237.956 160.44 236.614L162.001 232.931C165.038 234.218 168.17 235.357 171.392 236.368L170.195 240.185ZM151.084 232.017C148.064 230.308 145.144 228.413 142.333 226.31L144.729 223.107C147.398 225.104 150.175 226.907 153.054 228.536L151.084 232.017ZM134.399 219.519C131.963 217.14 129.634 214.561 127.417 211.765L130.551 209.28C132.664 211.945 134.88 214.398 137.194 216.658L134.399 219.519ZM121.435 203.24C120.52 201.766 119.629 200.243 118.764 198.669L122.269 196.742C123.101 198.255 123.956 199.717 124.833 201.13L121.435 203.24ZM118.764 198.669C117.922 197.139 117.127 195.575 116.373 193.98L119.989 192.271C120.71 193.796 121.469 195.287 122.269 196.742L118.764 198.669ZM112.396 184.277C111.246 181.039 110.217 177.704 109.283 174.291L113.141 173.235C114.053 176.567 115.053 179.807 116.166 182.939L112.396 184.277ZM106.816 164.205C106.085 160.865 105.413 157.467 104.78 154.027L108.714 153.304C109.341 156.71 110.004 160.062 110.724 163.349L106.816 164.205ZM103.019 143.852C102.464 140.483 101.925 137.083 101.383 133.669L105.334 133.042C105.876 136.458 106.413 139.847 106.966 143.202L103.019 143.852ZM99.7515 123.51C99.1967 120.14 98.6216 116.765 98.0082 113.395L101.944 112.679C102.562 116.077 103.141 119.476 103.698 122.861L99.7515 123.51ZM96.0419 103.343C95.3364 100.002 94.5758 96.6798 93.7427 93.385L97.6206 92.4044C98.4685 95.7575 99.2409 99.1322 99.9556 102.516L96.0419 103.343ZM90.9998 83.5671C89.9973 80.3176 88.9041 77.1085 87.7029 73.9502L91.4416 72.5282C92.6762 75.7742 93.7968 79.0648 94.822 82.3878L90.9998 83.5671ZM83.7457 64.6132C82.3081 61.5629 80.7448 58.5746 79.0383 55.6588L82.4906 53.6384C84.2609 56.6634 85.8791 59.7573 87.364 62.9079L83.7457 64.6132ZM73.5237 47.2098C71.5683 44.5194 69.4599 41.9065 67.1822 39.3808L70.1527 36.702C72.5274 39.3352 74.7239 42.0576 76.7594 44.8581L73.5237 47.2098ZM60.0308 32.2595C57.5832 30.0702 54.9726 27.9637 52.1851 25.9485L54.5287 22.7069C57.428 24.803 60.1465 26.9963 62.6975 29.2782L60.0308 32.2595ZM43.7381 20.4521C40.9148 18.8011 37.9365 17.2299 34.7927 15.7448L36.5013 12.1281C39.7481 13.6618 42.8303 15.2875 45.7572 16.9991L43.7381 20.4521ZM25.4651 11.785C22.4016 10.6203 19.2009 9.52765 15.8559 8.51164L17.0185 4.6843C20.4476 5.72587 23.7347 6.8478 26.8865 8.04605L25.4651 11.785ZM6.0429 5.85529C4.38764 5.4586 2.70091 5.07882 0.98199 4.71637L1.80727 0.802433C3.56125 1.17228 5.28365 1.56007 6.9751 1.96543L6.0429 5.85529Z" fill="#B68742"/>
</svg>
