<svg width="62" height="51" viewBox="0 0 62 51" fill="none" xmlns="http://www.w3.org/2000/svg">
<path d="M15.2 51C12.2667 51 9.86667 50.4 8 49.2C6.13333 48 4.6 46.4667 3.4 44.6C2.06667 42.3333 1.13333 40 0.6 37.6C0.200001 35.0667 6.85453e-07 33 6.85453e-07 31.4C6.85453e-07 24.8667 1.66667 18.9333 5 13.6C8.33333 8.26666 13.5333 3.93333 20.6 0.599988L22.4 4.19999C18.2667 5.93332 14.6667 8.66666 11.6 12.4C8.66667 16.1333 7.2 19.9333 7.2 23.8C7.2 25.4 7.4 26.8 7.8 28C9.93333 26.2667 12.4 25.4 15.2 25.4C18.6667 25.4 21.6667 26.5333 24.2 28.8C26.7333 31.0667 28 34.2 28 38.2C28 41.9333 26.7333 45 24.2 47.4C21.6667 49.8 18.6667 51 15.2 51ZM49.2 51C46.2667 51 43.8667 50.4 42 49.2C40.1333 48 38.6 46.4667 37.4 44.6C36.0667 42.3333 35.1333 40 34.6 37.6C34.2 35.0667 34 33 34 31.4C34 24.8667 35.6667 18.9333 39 13.6C42.3333 8.26666 47.5333 3.93333 54.6 0.599988L56.4 4.19999C52.2667 5.93332 48.6667 8.66666 45.6 12.4C42.6667 16.1333 41.2 19.9333 41.2 23.8C41.2 25.4 41.4 26.8 41.8 28C43.9333 26.2667 46.4 25.4 49.2 25.4C52.6667 25.4 55.6667 26.5333 58.2 28.8C60.7333 31.0667 62 34.2 62 38.2C62 41.9333 60.7333 45 58.2 47.4C55.6667 49.8 52.6667 51 49.2 51Z" fill="#788177"/>
</svg>
