<svg width="39" height="33" viewBox="0 0 39 33" fill="none" xmlns="http://www.w3.org/2000/svg">
<path fill-rule="evenodd" clip-rule="evenodd" d="M34.5314 28.9774C31.9743 28.1567 29.5486 26.7661 27.4058 25.0055C27.3767 25.0741 27.3465 25.1426 27.3162 25.2112C27.0951 25.7093 26.8506 26.1949 26.5853 26.666C28.8887 27.9735 31.582 28.8032 34.5314 28.9774ZM18.9115 5.1468C19.2758 3.99108 18.9173 2.66222 17.6765 1.12312C17.4449 0.83644 18.4622 0 18.8393 0C19.2164 0 19.3933 0.32041 19.5249 0.662181C20.1697 2.33394 20.3745 3.8854 20.2162 5.33792L20.2127 5.35928C30.9267 11.4302 30.7207 26.2736 19.3701 33C7.88439 26.1938 7.80874 11.0772 18.9115 5.1468ZM21.5059 17.0649C20.4432 17.0649 19.5737 17.9047 19.5737 18.9323C19.5737 17.9047 18.7043 17.0649 17.6405 17.0649H15.1124C14.0497 17.0649 13.1803 17.9047 13.1803 18.9323C13.1803 19.9599 14.0497 20.7997 15.1124 20.7997H17.6405C18.7043 20.7997 19.5737 19.9599 19.5737 18.9323C19.5737 19.9599 20.4432 20.7997 21.5059 20.7997H24.0339C25.0966 20.7997 25.9672 19.9599 25.9672 18.9323C25.9672 17.9047 25.0966 17.0649 24.0339 17.0649H21.5059ZM21.2579 24.5333H23.4601C24.3866 24.5333 25.1443 23.8014 25.1443 22.9065C25.1443 22.0116 24.3866 21.2797 23.4601 21.2797H21.2579C20.3315 21.2797 19.5737 22.0116 19.5737 22.9065C19.5737 22.0116 18.816 21.2797 17.8895 21.2797H15.6874C14.7609 21.2797 14.0032 22.0116 14.0032 22.9065C14.0032 23.8014 14.7609 24.5333 15.6874 24.5333H17.8895C18.816 24.5333 19.5737 23.8014 19.5737 22.9065C19.5737 23.8014 20.3315 24.5333 21.2579 24.5333ZM21.2579 13.4516C20.3315 13.4516 19.5737 14.1835 19.5737 15.0784C19.5737 14.1835 18.816 13.4516 17.8895 13.4516H15.6874C14.7609 13.4516 14.0032 14.1835 14.0032 15.0784C14.0032 15.9733 14.7609 16.7052 15.6874 16.7052H17.8895C18.816 16.7052 19.5737 15.9733 19.5737 15.0784C19.5737 15.9733 20.3315 16.7052 21.2579 16.7052H23.4601C24.3866 16.7052 25.1443 15.9733 25.1443 15.0784C25.1443 14.1835 24.3866 13.4516 23.4601 13.4516H21.2579ZM21.0089 27.6666H21.677C22.4649 27.6666 23.1121 27.0426 23.1121 26.2804C23.1121 25.5181 22.4661 24.8942 21.677 24.8942H21.0089C20.2197 24.8942 19.5737 25.5181 19.5737 26.2804C19.5737 25.5181 18.9278 24.8942 18.1386 24.8942H17.4705C16.6814 24.8942 16.0354 25.5181 16.0354 26.2804C16.0354 27.0426 16.6802 27.6666 17.4705 27.6666H18.1386C18.9278 27.6666 19.5737 27.0426 19.5737 26.2804C19.5737 27.0426 20.2197 27.6666 21.0089 27.6666ZM20.7412 28.0263C20.1441 28.0263 19.6552 28.4985 19.6552 29.0753C19.6552 28.4985 19.1664 28.0263 18.5693 28.0263H18.4494C17.8523 28.0263 17.3634 28.4985 17.3634 29.0753C17.3634 29.652 17.8523 30.1242 18.4494 30.1242H18.5693C19.1664 30.1242 19.6552 29.652 19.6552 29.0753C19.6552 29.652 20.1441 30.1242 20.7412 30.1242H20.861C21.4581 30.1242 21.947 29.652 21.947 29.0753C21.947 28.4985 21.4581 28.0263 20.861 28.0263H20.7412ZM20.4374 7.85961C19.9439 7.85961 19.5388 8.25084 19.5388 8.72752C19.5388 8.25084 19.1349 7.85961 18.6403 7.85961C18.1468 7.85961 17.7429 8.25084 17.7429 8.72752V9.09066C17.7429 9.56846 18.1468 9.95857 18.6403 9.95857C19.1349 9.95857 19.5388 9.56846 19.5388 9.09066C19.5388 9.56846 19.9427 9.95857 20.4374 9.95857C20.9321 9.95857 21.3359 9.56846 21.3359 9.09066V8.72752C21.3359 8.25084 20.9321 7.85961 20.4374 7.85961ZM21.0089 10.3183C20.2197 10.3183 19.5737 10.9423 19.5737 11.7045C19.5737 10.9423 18.9278 10.3183 18.1386 10.3183H17.4705C16.6814 10.3183 16.0354 10.9423 16.0354 11.7045C16.0354 12.4668 16.6802 13.0907 17.4705 13.0907H18.1386C18.9278 13.0907 19.5737 12.4668 19.5737 11.7045C19.5737 12.4668 20.2197 13.0907 21.0089 13.0907H21.677C22.4649 13.0907 23.1121 12.4668 23.1121 11.7045C23.1121 10.9423 22.4661 10.3183 21.677 10.3183H21.0089ZM4.46942 28.9774C7.33502 28.8077 9.95852 28.0196 12.2177 26.7762C11.9279 26.2703 11.6625 25.7486 11.4239 25.2112L11.403 25.1629C9.30788 26.8493 6.95092 28.1815 4.46942 28.9774ZM15.6455 6.30252C5.48553 6.48803 -1.83442 15.826 0.404982 25.9937C0.847275 17.4719 7.75753 8.62297 15.6455 6.30252ZM10.1482 16.3713C10.2064 15.9508 10.2821 15.5315 10.3752 15.1155C11.0899 11.9249 12.7508 9.15811 15.1147 7.01305C8.04618 10.3419 1.46183 19.2572 0.684325 27.0921C0.843783 27.6452 1.03118 28.1995 1.24767 28.7549C3.3055 25.3911 6.69719 20.7244 10.1482 16.3713ZM10.9956 24.1499C10.4113 22.5456 10.0772 20.8626 10.0109 19.1695C7.01261 22.9133 3.90259 26.5109 1.49093 28.9336C2.10316 28.9876 2.70607 29.0134 3.30084 29.0134C6.00349 28.0106 8.64677 26.2883 10.9956 24.1499ZM23.3554 6.30252C33.5141 6.48915 40.8353 15.8271 38.5947 25.9948C38.1536 17.4719 31.2433 8.62297 23.3554 6.30252ZM28.5302 15.9643C28.4836 15.6799 28.4278 15.3977 28.3649 15.1155C27.6246 11.8057 25.8625 8.95125 23.3565 6.77358C30.6229 9.89449 37.5204 19.0605 38.3177 27.091C38.1582 27.6441 37.9708 28.1983 37.7543 28.7537C35.6313 25.2854 32.0906 20.4321 28.5302 15.9643ZM27.8085 23.9701C28.3882 22.3208 28.7036 20.5906 28.7374 18.8547C31.8125 22.7109 35.0296 26.4445 37.5099 28.9336C36.8977 28.9876 36.2948 29.0134 35.7 29.0134C32.9217 27.9825 30.2062 26.1916 27.8085 23.9701Z" fill="white" fill-opacity="0.83"/>
</svg>
