<svg width="32" height="32" viewBox="0 0 32 32" fill="none" xmlns="http://www.w3.org/2000/svg">
<path d="M31.999 23.9581V28.7754C32.0008 29.2226 31.909 29.6653 31.7295 30.0751C31.55 30.4848 31.2867 30.8526 30.9565 31.155C30.6263 31.4573 30.2365 31.6875 29.812 31.8307C29.3876 31.974 28.9378 32.0272 28.4915 31.987C23.5405 31.4501 18.7847 29.7616 14.6062 27.0573C10.7187 24.5919 7.42282 21.3025 4.95254 17.4227C2.23338 13.2336 0.541186 8.46413 0.0130594 3.50072C-0.0271475 3.05667 0.0257297 2.60914 0.168324 2.1866C0.310918 1.76407 0.540105 1.3758 0.841293 1.04651C1.14248 0.717214 1.50907 0.45412 1.91772 0.273974C2.32637 0.0938272 2.76813 0.000575556 3.21487 0.000155683H8.04173C8.82256 -0.00751416 9.57955 0.268444 10.1716 0.776595C10.7636 1.28475 11.1503 1.99041 11.2596 2.76207C11.4634 4.30371 11.8412 5.8174 12.3859 7.27426C12.6024 7.84901 12.6492 8.47363 12.5209 9.07413C12.3926 9.67463 12.0945 10.2258 11.6619 10.6624L9.6185 12.7017C11.9089 16.7218 15.2441 20.0504 19.2722 22.3363L21.3156 20.297C21.753 19.8653 22.3053 19.5677 22.907 19.4397C23.5087 19.3116 24.1346 19.3584 24.7105 19.5744C26.1702 20.118 27.6869 20.4951 29.2316 20.6984C30.0132 20.8085 30.727 21.2014 31.2372 21.8024C31.7475 22.4034 32.0186 23.1706 31.999 23.9581Z" fill="white"/>
</svg>
