<svg width="27" height="27" viewBox="0 0 27 27" fill="none" xmlns="http://www.w3.org/2000/svg">
<path d="M8.99148 24.0015C9.61227 24.0015 10.1155 23.5131 10.1155 22.9106C10.1155 22.308 9.61227 21.8196 8.99148 21.8196C8.37068 21.8196 7.86743 22.308 7.86743 22.9106C7.86743 23.5131 8.37068 24.0015 8.99148 24.0015Z" stroke="white" stroke-width="2" stroke-linecap="round" stroke-linejoin="round"/>
<path d="M21.3565 24.0013C21.9773 24.0013 22.4805 23.5129 22.4805 22.9103C22.4805 22.3078 21.9773 21.8193 21.3565 21.8193C20.7357 21.8193 20.2324 22.3078 20.2324 22.9103C20.2324 23.5129 20.7357 24.0013 21.3565 24.0013Z" stroke="white" stroke-width="2" stroke-linecap="round" stroke-linejoin="round"/>
<path d="M2.30469 2.23633H4.55278L7.54273 15.7863C7.65241 16.2826 7.9369 16.7262 8.34722 17.0408C8.75754 17.3554 9.26803 17.5214 9.79082 17.5101H20.784C21.2956 17.5093 21.7917 17.3391 22.1902 17.0277C22.5887 16.7163 22.8659 16.2822 22.9759 15.7973L24.8305 7.69125H5.7555" stroke="white" stroke-width="2" stroke-linecap="round" stroke-linejoin="round"/>
</svg>
