<svg width="23" height="23" viewBox="0 0 23 23" fill="none" xmlns="http://www.w3.org/2000/svg">
<path d="M7.2354 21.291C7.81415 21.291 8.28331 20.8356 8.28331 20.2739C8.28331 19.7122 7.81415 19.2568 7.2354 19.2568C6.65666 19.2568 6.1875 19.7122 6.1875 20.2739C6.1875 20.8356 6.65666 21.291 7.2354 21.291Z" stroke="white" stroke-width="1.5" stroke-linecap="round" stroke-linejoin="round"/>
<path d="M18.7588 21.2905C19.3376 21.2905 19.8067 20.8352 19.8067 20.2734C19.8067 19.7117 19.3376 19.2563 18.7588 19.2563C18.1801 19.2563 17.7109 19.7117 17.7109 20.2734C17.7109 20.8352 18.1801 21.2905 18.7588 21.2905Z" stroke="white" stroke-width="1.5" stroke-linecap="round" stroke-linejoin="round"/>
<path d="M1 1H3.09581L5.88323 13.6322C5.98549 14.0948 6.2507 14.5084 6.63323 14.8017C7.01576 15.095 7.49167 15.2497 7.97904 15.2392H18.2275C18.7045 15.2384 19.167 15.0798 19.5385 14.7894C19.91 14.4991 20.1684 14.0945 20.271 13.6423L22 6.08542H4.21707" stroke="white" stroke-width="1.5" stroke-linecap="round" stroke-linejoin="round"/>
</svg>
