<svg width="2212" height="1102" viewBox="0 0 2212 1102" fill="none" xmlns="http://www.w3.org/2000/svg">
<line x1="278.5" y1="1" x2="278.5" y2="1101" stroke="white" stroke-opacity="0.63"/>
<line x1="553.5" y1="1" x2="553.5" y2="1101" stroke="white" stroke-opacity="0.63"/>
<line x1="828.5" y1="1" x2="828.5" y2="1100" stroke="white" stroke-opacity="0.63"/>
<line x1="1103.5" y1="1" x2="1103.5" y2="1101" stroke="white" stroke-opacity="0.63"/>
<line x1="1378.5" y1="1" x2="1378.5" y2="1101" stroke="white" stroke-opacity="0.63"/>
<line x1="1653.5" y1="1" x2="1653.5" y2="1101" stroke="white" stroke-opacity="0.63"/>
<line x1="1928.5" y1="1" x2="1928.5" y2="1101" stroke="white" stroke-opacity="0.63"/>
<line x1="61" y1="1100.5" x2="2145" y2="1100.5" stroke="white" stroke-opacity="0.63"/>
<line x1="61" y1="825.5" x2="2145" y2="825.5" stroke="white" stroke-opacity="0.63"/>
<line x1="61" y1="550.5" x2="2145" y2="550.5" stroke="white" stroke-opacity="0.63"/>
<line x1="61" y1="275.5" x2="2145" y2="275.5" stroke="white" stroke-opacity="0.63"/>
<line x1="61" y1="0.5" x2="2145" y2="0.500091" stroke="white" stroke-opacity="0.63"/>
<path d="M828.5 825.5C828.5 977.377 705.155 1100.5 553 1100.5C400.845 1100.5 277.5 977.377 277.5 825.5C277.5 673.623 400.845 550.5 553 550.5C705.155 550.5 828.5 673.623 828.5 825.5Z" stroke="white" stroke-opacity="0.63"/>
<path d="M1377.5 826C1377.5 978.157 1254.82 1101.5 1103.5 1101.5C952.177 1101.5 829.5 978.157 829.5 826C829.5 673.843 952.177 550.5 1103.5 550.5C1254.82 550.5 1377.5 673.843 1377.5 826Z" stroke="white" stroke-opacity="0.63"/>
<circle cx="1654" cy="825" r="275.5" stroke="white" stroke-opacity="0.63"/>
<path d="M1929.5 275.5C1929.5 426.823 1806.16 549.5 1654 549.5C1501.84 549.5 1378.5 426.823 1378.5 275.5C1378.5 124.177 1501.84 1.5 1654 1.5C1806.16 1.5 1929.5 124.177 1929.5 275.5Z" stroke="white" stroke-opacity="0.63"/>
<circle cx="1103.5" cy="275.5" r="274" stroke="white" stroke-opacity="0.63"/>
<path d="M0 1100C305.966 1100 554 853.98 554 550.5C554 247.02 305.966 1 0 1" stroke="white" stroke-opacity="0.63"/>
<path d="M1652.5 551.5C1652.5 855.258 1406.7 1101.5 1103.5 1101.5C800.297 1101.5 554.5 855.258 554.5 551.5C554.5 247.743 800.297 1.5 1103.5 1.5C1406.7 1.5 1652.5 247.743 1652.5 551.5Z" stroke="white" stroke-opacity="0.63"/>
<path d="M2212 1100C1903.27 1100 1653 853.98 1653 550.5C1653 247.02 1903.27 1 2212 1" stroke="white" stroke-opacity="0.63"/>
<path d="M829.5 275.5C829.5 426.823 706.157 549.5 554 549.5C401.843 549.5 278.5 426.823 278.5 275.5C278.5 124.177 401.843 1.5 554 1.5C706.157 1.5 829.5 124.177 829.5 275.5Z" stroke="white" stroke-opacity="0.63"/>
</svg>
