<svg width="283" height="157" viewBox="0 0 283 157" fill="none" xmlns="http://www.w3.org/2000/svg">
<path d="M271.372 50.31C272.764 55.7781 270.682 61.9428 265.531 68.4573C260.385 74.9645 252.235 81.7417 241.678 88.3876C220.569 101.676 189.935 114.378 154.78 123.326C119.626 132.274 86.6471 135.764 61.7535 134.185C49.3037 133.395 38.9054 131.339 31.275 128.084C23.6359 124.825 18.8599 120.406 17.4681 114.938C16.0763 109.47 18.1583 103.305 23.3097 96.7905C28.4552 90.2834 36.6051 83.5062 47.1622 76.8603C68.2715 63.5717 98.9056 50.8698 134.06 41.9218C169.214 32.9737 202.193 29.4837 227.087 31.0629C239.536 31.8527 249.935 33.9087 257.565 37.1639C265.204 40.4228 269.98 44.842 271.372 50.31Z" stroke="url(#paint0_linear_1_5414)"/>
<path d="M265.372 41.31C266.764 46.7781 264.682 52.9428 259.531 59.4573C254.385 65.9645 246.235 72.7417 235.678 79.3876C214.569 92.6762 183.935 105.378 148.78 114.326C113.626 123.274 80.6471 126.764 55.7535 125.185C43.3037 124.395 32.9054 122.339 25.275 119.084C17.6359 115.825 12.8599 111.406 11.4681 105.938C10.0763 100.47 12.1583 94.3051 17.3097 87.7905C22.4552 81.2834 30.6051 74.5062 41.1622 67.8603C62.2715 54.5717 92.9056 41.8698 128.06 32.9218C163.214 23.9737 196.193 20.4837 221.087 22.0629C233.536 22.8527 243.935 24.9087 251.565 28.1639C259.204 31.4228 263.98 35.842 265.372 41.31Z" stroke="url(#paint1_linear_1_5414)"/>
<defs>
<linearGradient id="paint0_linear_1_5414" x1="133.937" y1="41.4372" x2="154.904" y2="123.811" gradientUnits="userSpaceOnUse">
<stop offset="0.234375" stop-color="white"/>
<stop offset="0.786458" stop-color="white" stop-opacity="0"/>
</linearGradient>
<linearGradient id="paint1_linear_1_5414" x1="127.937" y1="32.4372" x2="148.904" y2="114.811" gradientUnits="userSpaceOnUse">
<stop offset="0.234375" stop-color="white"/>
<stop offset="0.786458" stop-color="white" stop-opacity="0"/>
</linearGradient>
</defs>
</svg>
