<svg width="194" height="66" viewBox="0 0 194 66" fill="none" xmlns="http://www.w3.org/2000/svg">
<path d="M193 58.7871C193 61.9848 190.811 64.3027 188.414 64.3027H5.59377C3.19587 64.3027 1 61.9828 1 58.7871V6.82689C1 3.6309 3.19757 1.30273 5.59377 1.30273H188.412C190.809 1.30273 192.999 3.62874 192.999 6.82689L193 58.7871Z" fill="#F1EFE8" stroke="url(#paint0_linear_2541_474457)" stroke-width="2"/>
<path d="M69.8607 19.0164C69.8607 20.1019 69.5278 20.9713 68.8721 21.6196C68.1181 22.3883 67.1361 22.775 65.9328 22.775C64.7827 22.775 63.8007 22.3818 62.9952 21.6066C62.1879 20.8201 61.7852 19.8549 61.7852 18.6995C61.7852 17.5441 62.1879 16.5789 62.9952 15.7989C63.8007 15.0173 64.7827 14.624 65.9328 14.624C66.5053 14.624 67.0512 14.7394 67.5722 14.9539C68.0915 15.17 68.5142 15.4625 68.8205 15.8233L68.1248 16.509C67.5905 15.8931 66.8632 15.5893 65.9328 15.5893C65.0939 15.5893 64.3666 15.8753 63.7491 16.4521C63.1383 17.0306 62.832 17.7798 62.832 18.6995C62.832 19.6193 63.1383 20.3749 63.7491 20.9534C64.3666 21.5238 65.0939 21.8163 65.9328 21.8163C66.8232 21.8163 67.5722 21.5238 68.163 20.9469C68.5525 20.565 68.7739 20.0385 68.8321 19.3658H65.9328V18.4265H69.8008C69.8474 18.6296 69.8607 18.8263 69.8607 19.0164Z" fill="black"/>
<path d="M75.9939 15.7599H72.3606V18.2299H75.6361V19.1691H72.3606V21.6391H75.9939V22.5962H71.332V14.8027H75.9939V15.7599Z" fill="black"/>
<path d="M80.3275 22.5962H79.2989V15.7599H77.0703V14.8027H82.5578V15.7599H80.3275V22.5962Z" fill="black"/>
<path d="M86.5273 22.5962V14.8027H87.5543V22.5962H86.5273Z" fill="black"/>
<path d="M92.1048 22.5962H91.0846V15.7599H88.8477V14.8027H94.3417V15.7599H92.1048V22.5962Z" fill="black"/>
<path d="M104.735 21.5936C103.947 22.3818 102.972 22.775 101.809 22.775C100.639 22.775 99.6632 22.3818 98.8759 21.5936C98.0903 20.8071 97.6992 19.8419 97.6992 18.6995C97.6992 17.5571 98.0903 16.5919 98.8759 15.8054C99.6632 15.0173 100.639 14.624 101.809 14.624C102.965 14.624 103.941 15.0173 104.728 15.8119C105.52 16.6049 105.911 17.5636 105.911 18.6995C105.911 19.8419 105.52 20.8071 104.735 21.5936ZM99.6366 20.9404C100.229 21.5238 100.95 21.8163 101.809 21.8163C102.661 21.8163 103.388 21.5238 103.974 20.9404C104.565 20.357 104.864 19.6079 104.864 18.6995C104.864 17.7911 104.565 17.042 103.974 16.4586C103.388 15.8753 102.661 15.5828 101.809 15.5828C100.95 15.5828 100.229 15.8753 99.6366 16.4586C99.0457 17.042 98.7461 17.7911 98.7461 18.6995C98.7461 19.6079 99.0457 20.357 99.6366 20.9404Z" fill="black"/>
<path d="M107.352 22.5962V14.8027H108.6L112.481 20.864H112.526L112.481 19.3657V14.8027H113.508V22.5962H112.436L108.372 16.236H108.327L108.372 17.7407V22.5962H107.352Z" fill="black"/>
<path d="M97.4442 33.9775C94.3168 33.9775 91.762 36.3013 91.762 39.5074C91.762 42.6875 94.3168 45.0356 97.4442 45.0356C100.578 45.0356 103.133 42.6875 103.133 39.5074C103.133 36.3013 100.578 33.9775 97.4442 33.9775ZM97.4442 42.8581C95.7282 42.8581 94.2519 41.4753 94.2519 39.5074C94.2519 37.5135 95.7282 36.155 97.4442 36.155C99.1602 36.155 100.643 37.5135 100.643 39.5074C100.643 41.4753 99.1602 42.8581 97.4442 42.8581ZM85.0462 33.9775C81.9122 33.9775 79.3641 36.3013 79.3641 39.5074C79.3641 42.6875 81.9122 45.0356 85.0462 45.0356C88.1786 45.0356 90.7284 42.6875 90.7284 39.5074C90.7284 36.3013 88.1786 33.9775 85.0462 33.9775ZM85.0462 42.8581C83.3286 42.8581 81.8473 41.4753 81.8473 39.5074C81.8473 37.5135 83.3286 36.155 85.0462 36.155C86.7622 36.155 88.2385 37.5135 88.2385 39.5074C88.2385 41.4753 86.7622 42.8581 85.0462 42.8581ZM70.2932 35.6724V38.0221H76.0403C75.8722 39.3351 75.4228 40.3004 74.7338 40.9731C73.8949 41.7856 72.5884 42.6875 70.2932 42.6875C66.7564 42.6875 63.9869 39.9006 63.9869 36.4475C63.9869 32.9944 66.7564 30.2075 70.2932 30.2075C72.2056 30.2075 73.597 30.9371 74.6239 31.8829L76.3199 30.227C74.8836 28.888 72.9729 27.8594 70.2932 27.8594C65.4432 27.8594 61.3672 31.7123 61.3672 36.4475C61.3672 41.1828 65.4432 45.0356 70.2932 45.0356C72.9146 45.0356 74.8836 44.1971 76.4314 42.6241C78.0176 41.0755 78.5119 38.898 78.5119 37.1398C78.5119 36.5938 78.4653 36.0916 78.3821 35.6724H70.2932ZM130.62 37.494C130.152 36.2574 128.709 33.9775 125.77 33.9775C122.858 33.9775 120.433 36.2184 120.433 39.5074C120.433 42.6046 122.833 45.0356 126.05 45.0356C128.651 45.0356 130.152 43.487 130.77 42.5851L128.839 41.329C128.195 42.2488 127.318 42.8581 126.05 42.8581C124.79 42.8581 123.886 42.2943 123.307 41.1828L130.881 38.1229L130.62 37.494ZM122.897 39.3351C122.833 37.2031 124.593 36.1111 125.855 36.1111C126.844 36.1111 127.683 36.5938 127.962 37.2844L122.897 39.3351ZM116.741 44.6993H119.231V28.4493H116.741V44.6993ZM112.663 35.2093H112.58C112.021 34.5625 110.954 33.9775 109.602 33.9775C106.766 33.9775 104.173 36.4085 104.173 39.5253C104.173 42.6241 106.766 45.0356 109.602 45.0356C110.954 45.0356 112.021 44.4458 112.58 43.7795H112.663V44.5725C112.663 46.6866 111.506 47.8225 109.641 47.8225C108.119 47.8225 107.176 46.75 106.786 45.8481L104.621 46.7305C105.245 48.1963 106.898 50 109.641 50C112.56 50 115.023 48.323 115.023 44.2426V34.3139H112.663V35.2093ZM109.815 42.8581C108.1 42.8581 106.663 41.4558 106.663 39.5253C106.663 37.5769 108.1 36.155 109.815 36.155C111.506 36.155 112.84 37.5769 112.84 39.5253C112.84 41.4558 111.506 42.8581 109.815 42.8581ZM142.277 28.4493H136.322V44.6993H138.806V38.5421H142.277C145.035 38.5421 147.74 36.5938 147.74 33.4949C147.74 30.3976 145.029 28.4493 142.277 28.4493ZM142.342 36.2818H138.806V30.7096H142.342C144.196 30.7096 145.255 32.2128 145.255 33.4949C145.255 34.7526 144.196 36.2818 142.342 36.2818ZM157.693 33.9466C155.899 33.9466 154.033 34.7201 153.266 36.4345L155.469 37.3364C155.944 36.4345 156.816 36.142 157.738 36.142C159.026 36.142 160.333 36.8976 160.353 38.2318V38.4024C159.903 38.1489 158.941 37.7735 157.758 37.7735C155.384 37.7735 152.966 39.0491 152.966 41.4298C152.966 43.6073 154.91 45.0096 157.095 45.0096C158.766 45.0096 159.688 44.2735 160.268 43.4171H160.353V44.6732H162.751V38.4398C162.751 35.5586 160.547 33.9466 157.693 33.9466ZM157.393 42.8516C156.581 42.8516 155.449 42.4584 155.449 41.4753C155.449 40.2175 156.861 39.7349 158.082 39.7349C159.176 39.7349 159.688 39.9705 160.353 40.2809C160.158 41.7856 158.831 42.8516 157.393 42.8516ZM171.489 34.3025L168.634 41.3469H168.55L165.599 34.3025H162.921L167.355 44.1468L164.825 49.6246H167.42L174.252 34.3025H171.489ZM149.105 44.6993H151.595V28.4493H149.105V44.6993Z" fill="black"/>
<path d="M20.6175 15.4997C20.2264 15.8994 20 16.5218 20 17.3278V46.0773C20 46.8833 20.2264 47.5057 20.6175 47.9054L20.714 47.9932L37.2146 31.8894V31.5092L20.714 15.4054L20.6175 15.4997Z" fill="url(#paint1_linear_2541_474457)"/>
<path d="M42.7089 37.2598L37.2148 31.8891V31.5089L42.7156 26.1383L42.8388 26.2081L49.3531 29.827C51.2122 30.854 51.2122 32.544 49.3531 33.5775L42.8388 37.1899L42.7089 37.2598Z" fill="url(#paint2_linear_2541_474457)"/>
<path d="M42.8383 37.1904L37.2143 31.6996L20.6172 47.9057C21.2347 48.5394 22.2416 48.6158 23.3867 47.9821L42.8383 37.1904Z" fill="url(#paint3_linear_2541_474457)"/>
<path d="M42.8383 26.2083L23.3867 15.4167C22.2416 14.7895 21.2347 14.8658 20.6172 15.4996L37.2143 31.6992L42.8383 26.2083Z" fill="url(#paint4_linear_2541_474457)"/>
<defs>
<linearGradient id="paint0_linear_2541_474457" x1="97" y1="0.302734" x2="97" y2="65.3027" gradientUnits="userSpaceOnUse">
<stop stop-color="white"/>
<stop offset="1" stop-color="white" stop-opacity="0"/>
</linearGradient>
<linearGradient id="paint1_linear_2541_474457" x1="35.7496" y1="46.3767" x2="13.9387" y2="24.0373" gradientUnits="userSpaceOnUse">
<stop stop-color="#00A0FF"/>
<stop offset="0.0066" stop-color="#00A1FF"/>
<stop offset="0.2601" stop-color="#00BEFF"/>
<stop offset="0.5122" stop-color="#00D2FF"/>
<stop offset="0.7604" stop-color="#00DFFF"/>
<stop offset="1" stop-color="#00E3FF"/>
</linearGradient>
<linearGradient id="paint2_linear_2541_474457" x1="51.774" y1="31.6972" x2="19.5558" y2="31.6972" gradientUnits="userSpaceOnUse">
<stop stop-color="#FFE000"/>
<stop offset="0.4087" stop-color="#FFBD00"/>
<stop offset="0.7754" stop-color="#FFA500"/>
<stop offset="1" stop-color="#FF9C00"/>
</linearGradient>
<linearGradient id="paint3_linear_2541_474457" x1="39.7801" y1="28.7146" x2="10.2028" y2="-1.57938" gradientUnits="userSpaceOnUse">
<stop stop-color="#FF3A44"/>
<stop offset="1" stop-color="#C31162"/>
</linearGradient>
<linearGradient id="paint4_linear_2541_474457" x1="16.4393" y1="57.4702" x2="29.6469" y2="43.9427" gradientUnits="userSpaceOnUse">
<stop stop-color="#32A071"/>
<stop offset="0.0685" stop-color="#2DA771"/>
<stop offset="0.4762" stop-color="#15CF74"/>
<stop offset="0.8009" stop-color="#06E775"/>
<stop offset="1" stop-color="#00F076"/>
</linearGradient>
</defs>
</svg>
