<svg width="24" height="24" viewBox="0 0 24 24" fill="none" xmlns="http://www.w3.org/2000/svg">
<path d="M12 22C17.5228 22 22 17.5228 22 12C22 6.47715 17.5228 2 12 2C6.47715 2 2 6.47715 2 12C2 17.5228 6.47715 22 12 22Z" stroke="#A0A7A1" stroke-width="2" stroke-linecap="round" stroke-linejoin="round"/>
<path d="M9.09375 8.99996C9.32885 8.33163 9.7929 7.76807 10.4037 7.40909C11.0145 7.05012 11.7326 6.9189 12.4309 7.03867C13.1292 7.15844 13.7626 7.52148 14.2188 8.06349C14.6751 8.60549 14.9248 9.29148 14.9237 9.99996C14.9237 12 11.9237 13 11.9237 13" stroke="#A0A7A1" stroke-width="2" stroke-linecap="round" stroke-linejoin="round"/>
<path d="M12 17H12.01" stroke="#A0A7A1" stroke-width="2" stroke-linecap="round" stroke-linejoin="round"/>
</svg>
