<svg width="55" height="40" viewBox="0 0 55 40" fill="none" xmlns="http://www.w3.org/2000/svg">
<g filter="url(#filter0_b_1_3345)">
<path d="M5.46622 13.4984C3.57901 13.3603 2.71144 13.4984 2.55737 13.4984C2.55739 14.5043 2.7529 16.9621 3.1009 18.4193C3.5359 20.2409 4.67778 23.1228 5.46622 24.5365C6.25465 25.9503 7.15184 27.2009 9.00059 29.4031C10.4796 31.1648 13.3687 33.164 14.6284 33.9434L16.5046 34.9493L17.7997 35.5044C18.8371 35.9491 19.9113 36.3071 21.0195 36.5208C22.9965 36.902 24.76 37.1263 26.02 37.2331C27.4504 37.3543 27.7237 37.2331 27.6784 37.2331C27.7147 37.2331 27.6893 36.7763 27.2978 34.9493C26.8084 32.6656 26.2103 30.844 25.2587 27.9893C24.6515 26.1678 23.1816 23.5993 21.534 21.5459C19.7671 19.3437 17.6193 17.9208 15.3897 16.5978C13.6487 15.5646 12.4536 15.1568 11.203 14.6946C9.95238 14.2324 7.96769 13.6814 5.46622 13.4984Z" fill="white" fill-opacity="0.33"/>
</g>
<g filter="url(#filter1_b_1_3345)">
<path d="M29.6903 37.2326C27.8031 37.3707 26.9356 37.2326 26.7815 37.2326C26.7815 36.2266 26.977 33.7689 27.325 32.3116C27.76 30.4901 28.9019 27.6082 29.6903 26.1944C30.4788 24.7807 31.376 23.5301 33.2247 21.3279C34.7037 19.5661 37.5928 17.5669 38.8525 16.7876L40.7287 15.7816L42.0238 15.2265C43.0612 14.7819 44.1354 14.4239 45.2436 14.2102C47.2206 13.8289 48.9841 13.6047 50.2441 13.4979C51.6745 13.3766 51.9479 13.4979 51.9025 13.4979C51.9388 13.4979 51.9134 13.9546 51.5219 15.7816C51.0325 18.0654 50.4344 19.8869 49.4829 22.7416C48.8757 24.5632 47.4058 27.1317 45.7582 29.1851C43.9912 31.3873 41.8434 32.8101 39.6138 34.1332C37.8728 35.1663 36.6777 35.5741 35.4271 36.0363C34.1765 36.4985 32.1918 37.0496 29.6903 37.2326Z" fill="white" fill-opacity="0.33"/>
</g>
<g filter="url(#filter2_b_1_3345)">
<path d="M16.1988 6.69973C14.516 5.83442 13.6636 5.62211 13.5218 5.56185C13.1283 6.48763 12.3468 8.82602 12.097 10.3033C11.7848 12.1499 11.7083 15.2488 11.8809 16.8583C12.0535 18.4678 12.39 19.9697 13.23 22.7196C13.9019 24.9195 15.7788 27.8896 16.6332 29.0996L17.9664 30.7593L18.9412 31.7768C19.722 32.5918 20.5705 33.3415 21.5068 33.9717C23.1772 35.096 24.7124 35.9922 25.8302 36.5833C27.0992 37.2544 27.3982 37.2498 27.3565 37.2321C27.3898 37.2463 27.5452 36.816 27.8995 34.9814C28.3425 32.6882 28.5046 30.7778 28.7456 27.7784C28.8993 25.8645 28.5513 22.9257 27.8382 20.3914C27.0735 17.6735 25.6535 15.5238 24.1191 13.434C22.921 11.8021 21.9807 10.9594 21.0105 10.0448C20.0403 9.1302 18.4294 7.84669 16.1988 6.69973Z" fill="white" fill-opacity="0.33"/>
</g>
<g filter="url(#filter3_b_1_3345)">
<path d="M29.7926 36.0919C28.1098 36.9572 27.2573 37.1695 27.1155 37.2298C26.722 36.304 25.9405 33.9656 25.6908 32.4883C25.3785 30.6418 25.3021 27.5429 25.4747 25.9334C25.6473 24.3238 25.9837 22.8219 26.8237 20.072C27.4957 17.8721 29.3725 14.902 30.227 13.692L31.5601 12.0323L32.5349 11.0148C33.3157 10.1998 34.1643 9.4501 35.1006 8.81989C36.7709 7.69567 38.3061 6.79945 39.4239 6.20829C40.6929 5.53718 40.9919 5.54182 40.9502 5.55954C40.9836 5.54536 41.1389 5.97564 41.4933 7.8102C41.9363 10.1034 42.0984 12.0138 42.3393 15.0132C42.4931 16.9272 42.145 19.866 41.432 22.4002C40.6673 25.1182 39.2472 27.2678 37.7128 29.3576C36.5147 30.9895 35.5744 31.8323 34.6043 32.7468C33.6341 33.6614 32.0231 34.9449 29.7926 36.0919Z" fill="white" fill-opacity="0.33"/>
</g>
<g filter="url(#filter4_b_1_3345)">
<path d="M28.7634 35.1979C27.544 36.6449 26.8392 37.1693 26.7316 37.2795C26.0117 36.5769 24.3895 34.7203 23.5897 33.4534C22.59 31.8697 21.3252 29.0396 20.8642 27.4879C20.4032 25.9362 20.1349 24.4206 19.8503 21.5594C19.6226 19.2704 20.2099 15.8065 20.5321 14.3607L21.1227 12.3154C21.8662 10.389 22.7891 8.53183 23.9513 6.82497C24.9177 5.40565 25.4375 4.75779 26.1347 3.91077C27.047 2.80248 27.3248 2.69152 27.2931 2.72395C27.3184 2.69801 27.6276 3.0352 28.6616 4.5915C29.954 6.53687 30.8398 8.23724 32.2181 10.9122C33.0975 12.619 33.9089 15.4649 34.2275 18.0783C34.5692 20.881 34.0873 23.4119 33.4768 25.9316C33 27.8991 32.4572 29.0391 31.9144 30.2569C31.3716 31.4747 30.3796 33.2799 28.7634 35.1979Z" fill="white" fill-opacity="0.33"/>
</g>
<defs>
<filter id="filter0_b_1_3345" x="1.62732" y="12.507" width="26.993" height="25.7101" filterUnits="userSpaceOnUse" color-interpolation-filters="sRGB">
<feFlood flood-opacity="0" result="BackgroundImageFix"/>
<feGaussianBlur in="BackgroundImageFix" stdDeviation="0.465028"/>
<feComposite in2="SourceAlpha" operator="in" result="effect1_backgroundBlur_1_3345"/>
<feBlend mode="normal" in="SourceGraphic" in2="effect1_backgroundBlur_1_3345" result="shape"/>
</filter>
<filter id="filter1_b_1_3345" x="25.8514" y="12.5139" width="26.993" height="25.7101" filterUnits="userSpaceOnUse" color-interpolation-filters="sRGB">
<feFlood flood-opacity="0" result="BackgroundImageFix"/>
<feGaussianBlur in="BackgroundImageFix" stdDeviation="0.465028"/>
<feComposite in2="SourceAlpha" operator="in" result="effect1_backgroundBlur_1_3345"/>
<feBlend mode="normal" in="SourceGraphic" in2="effect1_backgroundBlur_1_3345" result="shape"/>
</filter>
<filter id="filter2_b_1_3345" x="10.8606" y="4.63183" width="18.8508" height="33.5352" filterUnits="userSpaceOnUse" color-interpolation-filters="sRGB">
<feFlood flood-opacity="0" result="BackgroundImageFix"/>
<feGaussianBlur in="BackgroundImageFix" stdDeviation="0.465028"/>
<feComposite in2="SourceAlpha" operator="in" result="effect1_backgroundBlur_1_3345"/>
<feBlend mode="normal" in="SourceGraphic" in2="effect1_backgroundBlur_1_3345" result="shape"/>
</filter>
<filter id="filter3_b_1_3345" x="24.4543" y="4.62463" width="18.8508" height="33.5352" filterUnits="userSpaceOnUse" color-interpolation-filters="sRGB">
<feFlood flood-opacity="0" result="BackgroundImageFix"/>
<feGaussianBlur in="BackgroundImageFix" stdDeviation="0.465028"/>
<feComposite in2="SourceAlpha" operator="in" result="effect1_backgroundBlur_1_3345"/>
<feBlend mode="normal" in="SourceGraphic" in2="effect1_backgroundBlur_1_3345" result="shape"/>
</filter>
<filter id="filter4_b_1_3345" x="18.869" y="1.7893" width="16.4021" height="36.4203" filterUnits="userSpaceOnUse" color-interpolation-filters="sRGB">
<feFlood flood-opacity="0" result="BackgroundImageFix"/>
<feGaussianBlur in="BackgroundImageFix" stdDeviation="0.465028"/>
<feComposite in2="SourceAlpha" operator="in" result="effect1_backgroundBlur_1_3345"/>
<feBlend mode="normal" in="SourceGraphic" in2="effect1_backgroundBlur_1_3345" result="shape"/>
</filter>
</defs>
</svg>
