<svg width="54" height="40" viewBox="0 0 54 40" fill="none" xmlns="http://www.w3.org/2000/svg">
<g filter="url(#filter0_b_1_9547)">
<path d="M5.79898 13.4507C3.95182 13.3155 3.10265 13.4507 2.95186 13.4507C2.95188 14.4353 3.14324 16.8409 3.48386 18.2672C3.90963 20.0501 5.02727 22.8709 5.79898 24.2546C6.57069 25.6384 7.44884 26.8625 9.25836 29.0179C10.706 30.7423 13.5338 32.6991 14.7668 33.4619L16.6031 34.4465L17.8708 34.9898C18.8862 35.425 19.9376 35.7754 21.0223 35.9846C22.9573 36.3578 24.6834 36.5773 25.9166 36.6818C27.3167 36.8004 27.5842 36.6818 27.5399 36.6818C27.5754 36.6818 27.5505 36.2347 27.1673 34.4465C26.6883 32.2112 26.1029 30.4283 25.1715 27.6342C24.5772 25.8513 23.1385 23.3373 21.5259 21.3274C19.7964 19.172 17.6942 17.7793 15.5119 16.4843C13.8078 15.4731 12.6381 15.0739 11.414 14.6216C10.19 14.1692 8.24738 13.6298 5.79898 13.4507Z" fill="white" fill-opacity="0.33"/>
</g>
<g filter="url(#filter1_b_1_9547)">
<path d="M29.5091 36.6818C27.6619 36.8169 26.8128 36.6818 26.662 36.6818C26.662 35.6972 26.8534 33.2916 27.194 31.8652C27.6198 30.0823 28.7374 27.2616 29.5091 25.8778C30.2808 24.4941 31.159 23.27 32.9685 21.1145C34.4161 19.3902 37.2439 17.4334 38.4769 16.6705L40.3132 15.686L41.5809 15.1426C42.5963 14.7074 43.6477 14.357 44.7324 14.1478C46.6675 13.7747 48.3935 13.5552 49.6268 13.4507C51.0268 13.332 51.2944 13.4507 51.25 13.4507C51.2855 13.4507 51.2607 13.8977 50.8775 15.686C50.3985 17.9212 49.813 19.7042 48.8817 22.4983C48.2874 24.2812 46.8487 26.7952 45.236 28.805C43.5065 30.9605 41.4043 32.3532 39.222 33.6481C37.5179 34.6593 36.3483 35.0585 35.1242 35.5109C33.9001 35.9633 31.9575 36.5026 29.5091 36.6818Z" fill="white" fill-opacity="0.33"/>
</g>
<g filter="url(#filter2_b_1_9547)">
<path d="M16.3038 6.79621C14.6566 5.94926 13.8223 5.74146 13.6835 5.68248C13.2984 6.58862 12.5335 8.87739 12.289 10.3233C11.9834 12.1307 11.9086 15.1638 12.0775 16.7392C12.2464 18.3146 12.5757 19.7846 13.3979 22.4762C14.0556 24.6294 15.8926 27.5365 16.7289 28.7208L18.0338 30.3453L18.9879 31.3412C19.7522 32.1389 20.5827 32.8727 21.4991 33.4896C23.134 34.5899 24.6367 35.4671 25.7308 36.0457C26.9728 36.7026 27.2655 36.6981 27.2247 36.6807C27.2573 36.6946 27.4093 36.2735 27.7562 34.4778C28.1898 32.2333 28.3484 30.3634 28.5843 27.4276C28.7348 25.5543 28.3941 22.6779 27.6962 20.1973C26.9477 17.5371 25.5578 15.433 24.056 13.3876C22.8833 11.7904 21.9629 10.9655 21.0133 10.0703C20.0638 9.17511 18.487 7.91884 16.3038 6.79621Z" fill="white" fill-opacity="0.33"/>
</g>
<g filter="url(#filter3_b_1_9547)">
<path d="M29.6091 35.5651C27.962 36.4121 27.1276 36.6199 26.9888 36.6789C26.6037 35.7727 25.8388 33.4839 25.5943 32.038C25.2887 30.2306 25.2139 27.1975 25.3828 25.6221C25.5517 24.0468 25.881 22.5767 26.7032 19.8851C27.3609 17.7319 29.198 14.8249 30.0343 13.6405L31.3391 12.016L32.2932 11.0201C33.0575 10.2224 33.888 9.48861 34.8045 8.87177C36.4393 7.7714 37.942 6.8942 39.0361 6.31558C40.2781 5.65872 40.5708 5.66325 40.53 5.6806C40.5626 5.66672 40.7147 6.08787 41.0615 7.88351C41.4951 10.1281 41.6538 11.9979 41.8896 14.9337C42.0401 16.807 41.6994 19.6835 41.0015 22.164C40.253 24.8242 38.8631 26.9283 37.3613 28.9737C36.1886 30.571 35.2682 31.3959 34.3187 32.291C33.3691 33.1862 31.7923 34.4425 29.6091 35.5651Z" fill="white" fill-opacity="0.33"/>
</g>
<g filter="url(#filter4_b_1_9547)">
<path d="M28.602 34.6901C27.4085 36.1064 26.7186 36.6197 26.6133 36.7276C25.9087 36.0398 24.3208 34.2226 23.538 32.9826C22.5595 31.4326 21.3216 28.6625 20.8704 27.1437C20.4192 25.625 20.1566 24.1415 19.878 21.341C19.6551 19.1006 20.23 15.7102 20.5453 14.295L21.1233 12.2932C21.8511 10.4076 22.7544 8.58986 23.8919 6.91922C24.8378 5.53 25.3466 4.8959 26.0291 4.06685C26.922 2.98207 27.1939 2.87347 27.1629 2.90521C27.1877 2.87982 27.4902 3.20986 28.5023 4.73313C29.7674 6.63723 30.6343 8.30152 31.9833 10.9197C32.8441 12.5903 33.6383 15.3759 33.9501 17.9338C34.2846 20.677 33.8129 23.1542 33.2153 25.6204C32.7487 27.5462 32.2174 28.662 31.6861 29.854C31.1548 31.046 30.1839 32.8128 28.602 34.6901Z" fill="white" fill-opacity="0.33"/>
</g>
<defs>
<filter id="filter0_b_1_9547" x="2.04154" y="12.4803" width="26.4203" height="25.1645" filterUnits="userSpaceOnUse" color-interpolation-filters="sRGB">
<feFlood flood-opacity="0" result="BackgroundImageFix"/>
<feGaussianBlur in="BackgroundImageFix" stdDeviation="0.455161"/>
<feComposite in2="SourceAlpha" operator="in" result="effect1_backgroundBlur_1_9547"/>
<feBlend mode="normal" in="SourceGraphic" in2="effect1_backgroundBlur_1_9547" result="shape"/>
</filter>
<filter id="filter1_b_1_9547" x="25.7517" y="12.4876" width="26.4203" height="25.1645" filterUnits="userSpaceOnUse" color-interpolation-filters="sRGB">
<feFlood flood-opacity="0" result="BackgroundImageFix"/>
<feGaussianBlur in="BackgroundImageFix" stdDeviation="0.455161"/>
<feComposite in2="SourceAlpha" operator="in" result="effect1_backgroundBlur_1_9547"/>
<feBlend mode="normal" in="SourceGraphic" in2="effect1_backgroundBlur_1_9547" result="shape"/>
</filter>
<filter id="filter2_b_1_9547" x="11.0788" y="4.77217" width="18.4509" height="32.8237" filterUnits="userSpaceOnUse" color-interpolation-filters="sRGB">
<feFlood flood-opacity="0" result="BackgroundImageFix"/>
<feGaussianBlur in="BackgroundImageFix" stdDeviation="0.455161"/>
<feComposite in2="SourceAlpha" operator="in" result="effect1_backgroundBlur_1_9547"/>
<feBlend mode="normal" in="SourceGraphic" in2="effect1_backgroundBlur_1_9547" result="shape"/>
</filter>
<filter id="filter3_b_1_9547" x="24.3841" y="4.76546" width="18.4509" height="32.8237" filterUnits="userSpaceOnUse" color-interpolation-filters="sRGB">
<feFlood flood-opacity="0" result="BackgroundImageFix"/>
<feGaussianBlur in="BackgroundImageFix" stdDeviation="0.455161"/>
<feComposite in2="SourceAlpha" operator="in" result="effect1_backgroundBlur_1_9547"/>
<feBlend mode="normal" in="SourceGraphic" in2="effect1_backgroundBlur_1_9547" result="shape"/>
</filter>
<filter id="filter4_b_1_9547" x="18.9176" y="1.99031" width="16.054" height="35.6475" filterUnits="userSpaceOnUse" color-interpolation-filters="sRGB">
<feFlood flood-opacity="0" result="BackgroundImageFix"/>
<feGaussianBlur in="BackgroundImageFix" stdDeviation="0.455161"/>
<feComposite in2="SourceAlpha" operator="in" result="effect1_backgroundBlur_1_9547"/>
<feBlend mode="normal" in="SourceGraphic" in2="effect1_backgroundBlur_1_9547" result="shape"/>
</filter>
</defs>
</svg>
