<svg width="50" height="44" viewBox="0 0 50 44" fill="none" xmlns="http://www.w3.org/2000/svg">
<path d="M23.7654 0.338777C23.1706 0.665361 22.634 1.24466 22.634 1.55569C22.634 1.60624 22.7196 1.76175 22.8284 1.9056C23.5516 2.85814 24.0609 3.87289 24.2981 4.80987C24.3836 5.15978 24.3992 5.30364 24.3992 5.82073C24.403 6.27173 24.3836 6.49723 24.3331 6.72272L24.2631 7.02209L23.6916 7.36034C22.0897 8.30899 20.8145 9.3043 19.5043 10.6184C18.4507 11.6759 17.7197 12.5701 16.9421 13.7598C15.1887 16.4503 14.1584 19.3779 13.7813 22.7526C13.6841 23.6351 13.6841 26.0651 13.7813 26.9321C14.0107 28.9538 14.3917 30.5828 15.0332 32.3168C16.6078 36.5469 19.4382 40.2171 23.2561 42.9697C23.8043 43.3663 24.7802 44 24.8424 44C25.0018 44 26.8913 42.6587 27.7855 41.9161C33.9751 36.7607 36.9649 29.0432 35.7169 21.4462C34.7799 15.7388 31.4363 10.7467 26.487 7.66749L25.9465 7.33313L25.9699 6.43113C25.9971 5.07036 25.8804 4.02451 25.5539 2.7415C25.3945 2.11944 25.099 1.198 24.9473 0.863644C24.6713 0.249355 24.2592 0.0666231 23.7654 0.338777ZM24.2553 10.7001C24.5935 10.8011 24.9396 11.1666 25.0212 11.5165C25.0484 11.6293 25.0523 11.6293 25.1223 11.4232C25.3867 10.6767 26.2887 10.4085 26.9224 10.8945C27.0468 10.9916 27.1362 11.1083 27.2296 11.291C27.354 11.5476 27.3579 11.5671 27.3579 12.0414C27.354 12.4613 27.3423 12.5546 27.2684 12.7257C26.9418 13.4566 25.9932 13.651 25.4178 13.0989C25.2662 12.9512 25.0873 12.6285 25.0795 12.4885C25.0795 12.4457 25.0484 12.4846 25.0134 12.5857C24.8657 12.9745 24.6791 13.1883 24.3486 13.3361C24.0959 13.4527 23.6877 13.4449 23.4427 13.3283C23.1978 13.2116 22.9567 12.9706 22.8557 12.749C22.7429 12.5002 22.7157 11.7964 22.8051 11.4893C22.9878 10.8517 23.6177 10.5095 24.2553 10.7001ZM23.6954 13.9659C24.3564 14.137 24.8696 14.6385 25.029 15.2683L25.099 15.5366L25.1495 15.3344C25.3206 14.6618 25.8377 14.1409 26.5025 13.9659C26.8213 13.8843 27.9333 13.8843 28.2521 13.9659C29.2396 14.2225 29.8306 15.2334 29.574 16.2209C29.3951 16.9013 28.7925 17.4417 28.0732 17.5622C27.6417 17.6361 26.6464 17.5933 26.3587 17.4922C25.7521 17.2745 25.3361 16.8196 25.1573 16.182L25.0951 15.9487L25.0679 16.112C25.029 16.3336 24.8113 16.7691 24.6402 16.9635C24.4691 17.1656 24.1659 17.3678 23.8587 17.4883C23.641 17.5739 23.5749 17.5778 22.8284 17.5778C22.0897 17.5778 22.0159 17.5739 21.8098 17.4922C21.281 17.2823 20.8689 16.8818 20.6862 16.4036C20.5812 16.1237 20.5462 15.6494 20.6123 15.35C20.7562 14.6968 21.2888 14.1447 21.9381 13.9698C22.2336 13.8881 23.3961 13.8881 23.6954 13.9659ZM23.4311 18.126C23.8354 18.2309 24.1464 18.4059 24.4458 18.7053C24.7568 19.0163 24.9357 19.3273 25.0407 19.7433L25.1068 20.0077L25.1573 19.7667C25.1845 19.6345 25.2623 19.4129 25.3284 19.2729C25.4955 18.9269 25.9465 18.472 26.2887 18.3087C26.7863 18.0676 26.8408 18.0638 28.7847 18.0754L30.5459 18.0871L30.8142 18.1921C31.6773 18.5264 32.2372 19.3196 32.2372 20.206C32.2372 20.8242 32.0389 21.2985 31.5957 21.7456C31.2963 22.0489 30.9153 22.2627 30.5343 22.3405C30.1999 22.4104 27.0701 22.3949 26.763 22.3249C25.9699 22.1383 25.3206 21.4735 25.1573 20.6842L25.1068 20.4432L25.0368 20.7153C24.8307 21.5279 24.1737 22.1733 23.3805 22.3405C23.1006 22.3988 19.9553 22.3988 19.6715 22.3405C18.9094 22.1811 18.2252 21.5279 18.0269 20.762C17.953 20.4743 17.953 19.9727 18.0269 19.6811C18.2174 18.9502 18.8511 18.3281 19.6015 18.1299C19.9242 18.0443 23.1006 18.0404 23.4311 18.126ZM23.2367 22.9392C23.8043 23.1025 24.3447 23.4796 24.6596 23.9423C24.854 24.23 24.9551 24.4633 25.0407 24.8326L25.1106 25.1242L25.1379 24.9376C25.2117 24.436 25.4528 23.9889 25.8571 23.5885C26.1837 23.2658 26.4636 23.0986 26.9107 22.9586C27.2023 22.8692 27.214 22.8692 29.224 22.8692H31.2458L31.5646 22.9781C32.3149 23.2308 32.9176 23.8256 33.1742 24.5605C33.2947 24.9026 33.3219 25.5674 33.2325 25.9251C33.0575 26.6133 32.556 27.2431 31.9261 27.5503C31.3663 27.8224 31.2846 27.8302 29.0724 27.8185C27.1596 27.8069 27.1207 27.803 26.8524 27.7135C26.0049 27.4375 25.3128 26.6677 25.1495 25.824L25.0951 25.5519L25.0679 25.7463C24.9901 26.2517 24.7257 26.7377 24.3253 27.1226C24.0142 27.4181 23.7888 27.5541 23.3727 27.7019L23.0812 27.8069H21.0011H18.9211L18.5906 27.6863C17.848 27.422 17.2804 26.8543 17.0277 26.1195C16.9499 25.9018 16.9383 25.7851 16.9383 25.338C16.9383 24.7121 17.0082 24.4594 17.3037 24.0084C17.7003 23.398 18.3224 22.9975 19.0338 22.8887C19.1427 22.8692 20.0797 22.8614 21.1178 22.8653C22.7546 22.8731 23.0345 22.8809 23.2367 22.9392ZM23.5283 28.5417C24.302 28.7944 24.9046 29.4359 25.0484 30.1668L25.0951 30.4001L25.1651 30.1241C25.3595 29.362 25.8999 28.7944 26.658 28.5533C26.9224 28.4717 26.9807 28.4678 28.6797 28.4678C30.5809 28.4678 30.6159 28.4717 31.0708 28.7011C31.5218 28.9305 31.93 29.397 32.1205 29.9063C32.2294 30.194 32.2644 30.7461 32.1983 31.0649C32.0933 31.582 31.7201 32.1224 31.2613 32.4296C30.7442 32.7717 30.4021 32.8145 28.4309 32.795C26.7786 32.7756 26.6969 32.7639 26.2342 32.519C25.9271 32.3596 25.5266 31.9553 25.3634 31.6481C25.2934 31.5159 25.2039 31.2826 25.1651 31.131L25.0951 30.8511L25.0523 31.0766C24.8968 31.8503 24.2048 32.5462 23.4116 32.7328C23.0928 32.8067 19.9358 32.8028 19.6404 32.729C18.2524 32.379 17.5642 30.8939 18.2018 29.6303C18.5012 29.0393 19.0999 28.6078 19.7687 28.4911C19.8814 28.4717 20.7251 28.46 21.6426 28.4639C23.1278 28.4717 23.3378 28.4795 23.5283 28.5417ZM23.6799 33.3121C23.9948 33.3821 24.2786 33.5493 24.543 33.8098C24.8307 34.0975 24.9318 34.2725 25.0368 34.6574L25.1106 34.9217L25.1379 34.739C25.1806 34.4474 25.4022 34.047 25.6549 33.8059C26.1526 33.3355 26.4209 33.2577 27.49 33.2771L28.2521 33.2888L28.5553 33.4327C29.6906 33.977 29.9939 35.4077 29.1618 36.3175C28.9169 36.5858 28.6797 36.7413 28.3648 36.8462C28.1393 36.924 28.0499 36.9279 27.2879 36.9162L26.4597 36.9046L26.1565 36.7568C25.6433 36.5002 25.27 36.0376 25.1495 35.501L25.0951 35.2716L25.0679 35.4544C25.0251 35.7304 24.7918 36.162 24.5624 36.3914C24.3447 36.6091 24.0026 36.8113 23.7227 36.8851C23.4933 36.9473 22.1558 36.9434 21.9303 36.8851C21.6504 36.8074 21.386 36.6557 21.1489 36.4264C20.7212 36.022 20.5501 35.5866 20.5812 34.9956C20.5968 34.6846 20.6201 34.5951 20.7406 34.3424C20.8223 34.1675 20.9622 33.9575 21.0789 33.837C21.2849 33.6154 21.6932 33.3743 21.9575 33.3121C22.1675 33.2655 23.4699 33.2616 23.6799 33.3121ZM24.2125 37.4878C24.7024 37.6316 24.9901 37.9465 25.1884 38.5569C25.2001 38.5919 25.2273 38.553 25.2545 38.4597C25.3828 38.0554 25.6472 37.7327 26.0165 37.5538C26.2109 37.4566 26.2692 37.4489 26.6775 37.4489C27.2101 37.4528 27.3812 37.5111 27.7039 37.8182C28.0032 38.0982 28.1315 38.4014 28.1315 38.8096C28.1354 39.0779 28.116 39.1557 28.011 39.3812C27.8672 39.6844 27.6533 39.9138 27.3695 40.0615C27.1751 40.1626 27.1324 40.1704 26.6775 40.1704C26.2381 40.1704 26.1759 40.1626 26.0165 40.0771C25.62 39.8672 25.3983 39.6106 25.2739 39.2218C25.2389 39.1012 25.2001 39.0313 25.1884 39.0624C24.9979 39.6533 24.718 39.9799 24.2553 40.1354C23.9754 40.2287 23.4427 40.2171 23.155 40.1082C22.8362 39.9877 22.4863 39.6378 22.3658 39.3151C22.082 38.5608 22.4669 37.7638 23.2483 37.4839C23.4427 37.4139 23.9754 37.4178 24.2125 37.4878Z" fill="white" fill-opacity="0.47"/>
<path d="M19.1933 8.60832C17.988 8.70163 17.1249 8.82215 16.1762 9.02432C11.1531 10.1052 6.72084 13.1222 3.76992 17.4572C2.26141 19.6811 1.16502 22.1927 0.56628 24.8131C0.0180848 27.1847 -0.137432 29.8208 0.123058 32.2585C0.177489 32.7561 0.344669 33.8681 0.430203 34.2996L0.500186 34.6495L0.523513 34.3968C0.539065 34.2569 0.577944 33.8642 0.609047 33.522C1.235 27.0681 4.6447 20.1671 9.7262 15.0817C12.6771 12.123 15.9002 10.0235 19.3877 8.79105L19.9708 8.58499L19.6598 8.58888C19.4887 8.59277 19.2788 8.60054 19.1933 8.60832Z" fill="white" fill-opacity="0.47"/>
<path d="M30.6237 8.78716C31.7823 9.20706 32.3499 9.44811 33.3685 9.9652C37.7113 12.1658 41.8248 16.0303 44.7679 20.6764C46.6302 23.6195 47.9404 26.6132 48.7375 29.7508C49.1146 31.2437 49.3129 32.4568 49.4839 34.3385L49.5111 34.6495L49.6006 34.2024C49.8494 32.9427 49.966 31.7725 49.9933 30.2562C50.0166 28.9382 49.9816 28.1645 49.8494 27.0876C48.7841 18.4758 42.9017 11.4776 34.8848 9.27704C33.5124 8.9038 31.9689 8.65886 30.5848 8.60054L30.0405 8.57722L30.6237 8.78716Z" fill="white" fill-opacity="0.47"/>
<path d="M30.4992 9.70868C33.6484 12.7374 35.7246 16.6447 36.5333 21.0769C36.5955 21.4074 36.611 21.4346 36.8598 21.7573C37.0037 21.94 37.6024 22.7293 38.1895 23.5108C42.0619 28.6467 45.5143 33.6232 47.8743 37.48C48.1503 37.9349 48.3914 38.3198 48.4069 38.3354C48.4341 38.3626 48.8502 37.1729 49.0679 36.4458L49.1456 36.1853L49.0718 35.5672C48.3953 30.1047 45.7048 24.0862 41.5914 18.8258C40.565 17.5117 39.733 16.5786 38.4422 15.2839C37.2836 14.1292 36.6965 13.5966 35.6585 12.7607C34.045 11.466 32.4898 10.4552 30.8336 9.62314C30.4137 9.4132 30.0599 9.24213 30.0443 9.24213C30.0249 9.24213 30.231 9.45207 30.4992 9.70868Z" fill="white" fill-opacity="0.47"/>
<path d="M18.7266 9.85248C17.4475 10.5406 16.3822 11.2249 15.1964 12.1114C8.99132 16.773 3.82429 24.2766 1.74037 31.6559C1.35547 33.0166 1.07165 34.4241 0.923907 35.7071L0.869476 36.1853L0.982226 36.5624C1.15329 37.1417 1.57319 38.3625 1.59652 38.3586C1.60818 38.3586 1.73259 38.1642 1.87256 37.9271C2.66569 36.5663 4.51245 33.732 6.09872 31.4304C8.04267 28.6078 10.632 25.0503 12.712 22.3366L12.9998 21.9633L13.1086 21.3063C13.8434 16.9868 15.7368 13.2272 18.7033 10.2024C19.0532 9.8447 19.3254 9.55311 19.3059 9.557C19.2865 9.557 19.026 9.68919 18.7266 9.85248Z" fill="white" fill-opacity="0.47"/>
<path d="M36.8444 25.7191C36.7589 27.3053 36.5723 28.6428 36.2418 30.0308C36.1213 30.5401 35.8647 31.4382 35.7403 31.7998L35.6625 32.0214L35.9619 32.3091C36.6617 32.9856 37.8242 33.977 38.7301 34.6729C40.8373 36.2903 42.9368 37.5344 45.1373 38.4675L45.7439 38.7241L46.327 38.7163C46.813 38.7125 48.0649 38.6425 48.0844 38.623C48.0883 38.6191 47.82 38.3276 47.4895 37.9738C44.8302 35.1434 41.2805 30.9211 37.7114 26.3411L36.8716 25.2681L36.8444 25.7191Z" fill="white" fill-opacity="0.47"/>
<path d="M12.5061 26.0806C9.38406 30.1512 5.15013 35.19 2.42859 38.0748L1.9115 38.6269L2.24975 38.6541C2.44025 38.6696 2.94957 38.6969 3.3889 38.7124L4.18593 38.7396L4.63304 38.5647C6.95023 37.6588 9.78063 35.9326 12.1795 33.9653C12.6927 33.5415 13.8435 32.5306 13.9951 32.3635L14.0845 32.2663L13.9096 31.7103C13.307 29.8013 13.027 28.3084 12.8443 26.0417L12.8171 25.6762L12.5061 26.0806Z" fill="white" fill-opacity="0.47"/>
<path d="M35.052 33.6465C34.7876 34.2453 34.5038 34.844 34.3094 35.2056C34.1928 35.4272 34.0995 35.6138 34.1072 35.6216C34.115 35.6255 34.3405 35.7538 34.6088 35.9054C36.8949 37.1806 39.5931 38.0826 42.2874 38.4753C42.9406 38.5725 44.0797 38.6853 44.1458 38.6619C44.1691 38.6542 44.0719 38.6075 43.9203 38.557C43.4499 38.4014 42.3302 37.9427 41.642 37.6239C39.6281 36.6908 37.5519 35.3728 35.6468 33.8254L35.1492 33.421L35.052 33.6465Z" fill="white" fill-opacity="0.47"/>
<path d="M14.2751 33.8992C11.9074 35.8392 9.08474 37.4644 6.3632 38.4597C6.08716 38.5608 5.85 38.6541 5.83833 38.6658C5.82667 38.6735 5.95886 38.6696 6.12993 38.658C8.97199 38.4169 11.5574 37.7443 14.0146 36.609C14.5123 36.3797 15.422 35.9131 15.5931 35.8004C15.6398 35.7693 15.5737 35.606 15.2237 34.8945C14.9866 34.4163 14.7533 33.9381 14.6989 33.8292L14.6056 33.627L14.2751 33.8992Z" fill="white" fill-opacity="0.47"/>
</svg>
