<svg width="54" height="32" viewBox="0 0 54 32" fill="none" xmlns="http://www.w3.org/2000/svg">
<path d="M14.1306 14.2168C16.9698 11.8096 20.7349 10.5751 24.3765 10.822C28.7588 11.1306 32.956 13.3527 37.2765 12.8589C38.511 12.7354 39.7454 12.3651 40.733 11.6244C42.1526 10.5751 43.0167 8.72346 42.7699 6.93351C42.523 5.14355 41.1033 3.60049 39.3751 3.23015C37.6469 2.85982 35.6718 3.84738 34.9928 5.51389C34.5607 6.56317 34.6842 7.92107 35.4866 8.72346C36.289 9.52586 37.7703 9.6493 38.5727 8.78518" stroke="white" stroke-opacity="0.66" stroke-width="1.85168" stroke-miterlimit="10" stroke-linecap="round"/>
<path d="M11.9078 18.9078C14.8088 16.7475 18.0801 15.081 21.5365 13.97" stroke="white" stroke-opacity="0.66" stroke-width="1.85168" stroke-miterlimit="10" stroke-linecap="round"/>
<path d="M18.3889 19.4014C21.2282 17.056 24.9315 15.7598 28.5731 15.7598C34.4368 15.7598 39.8684 18.9694 45.732 18.9694C47.3985 18.9694 49.2502 18.599 50.4229 17.3646C51.7191 16.0067 51.8425 13.5995 50.6081 12.2416C49.3119 10.822 46.7813 10.8837 45.6086 12.365C44.9913 13.1674 44.8062 14.4019 45.4851 15.2043C46.1641 16.0067 47.6454 15.945 48.0775 15.0191" stroke="#E4E4E4" stroke-opacity="0.51" stroke-width="1.85168" stroke-miterlimit="10" stroke-linecap="round"/>
<path d="M2.09409 27.0551C4.80988 29.0302 8.6984 28.5982 11.908 27.4872C15.7348 26.1293 19.253 23.969 22.8946 22.0556C24.2525 21.3149 25.6104 20.6359 27.0917 20.2656C29.0668 19.7718 31.1654 19.8336 33.0788 20.5125C34.0664 20.8828 34.9922 21.3766 35.6712 22.1173C36.9673 23.5369 37.2142 25.8206 36.2884 27.4872C35.3008 29.1537 33.2023 30.0795 31.3506 29.6474C30.8568 29.524 30.3013 29.3388 29.931 28.9685C28.5113 27.6106 29.0051 24.4627 31.4123 24.6479C32.0912 24.7096 32.7085 25.08 33.0171 25.6972" stroke="white" stroke-opacity="0.66" stroke-width="1.85168" stroke-miterlimit="10" stroke-linecap="round"/>
</svg>
