<svg width="64" height="38" viewBox="0 0 64 38" fill="none" xmlns="http://www.w3.org/2000/svg">
<path d="M16.627 16.9454C20.0772 14.0201 24.6526 12.52 29.078 12.82C34.4035 13.1951 39.5039 15.8953 44.7543 15.2953C46.2545 15.1452 47.7546 14.6952 48.9547 13.7951C50.6798 12.52 51.7299 10.2698 51.4299 8.09464C51.1299 5.91946 49.4047 4.0443 47.3046 3.59426C45.2044 3.14422 42.8042 4.34432 41.9791 6.3695C41.4541 7.6446 41.6041 9.29475 42.5792 10.2698C43.5542 11.2449 45.3544 11.3949 46.3295 10.3448" stroke="white" stroke-opacity="0.66" stroke-width="2.25019" stroke-miterlimit="10" stroke-linecap="round"/>
<path d="M13.9258 22.6458C17.4511 20.0206 21.4264 17.9954 25.6268 16.6453" stroke="white" stroke-opacity="0.66" stroke-width="2.25019" stroke-miterlimit="10" stroke-linecap="round"/>
<path d="M21.8019 23.2458C25.2522 20.3956 29.7526 18.8204 34.1779 18.8204C41.3035 18.8204 47.9041 22.7208 55.0297 22.7208C57.0549 22.7208 59.3051 22.2707 60.7302 20.7706C62.3053 19.1205 62.4553 16.1952 60.9552 14.5451C59.3801 12.8199 56.3048 12.8949 54.8797 14.6951C54.1296 15.6702 53.9046 17.1703 54.7297 18.1454C55.5547 19.1205 57.3549 19.0455 57.8799 17.9204" stroke="#E4E4E4" stroke-opacity="0.51" stroke-width="2.25019" stroke-miterlimit="10" stroke-linecap="round"/>
<path d="M2 32.5467C5.30028 34.9469 10.0257 34.4219 13.926 33.0718C18.5764 31.4216 22.8518 28.7964 27.2771 26.4712C28.9273 25.5711 30.5774 24.7461 32.3776 24.296C34.7778 23.696 37.328 23.771 39.6532 24.5961C40.8533 25.0461 41.9784 25.6461 42.8035 26.5462C44.3786 28.2714 44.6786 31.0466 43.5535 33.0718C42.3534 35.0969 39.8032 36.222 37.553 35.697C36.953 35.547 36.2779 35.322 35.8279 34.8719C34.1027 33.2218 34.7028 29.3965 37.628 29.6215C38.4531 29.6965 39.2032 30.1465 39.5782 30.8966" stroke="white" stroke-opacity="0.66" stroke-width="2.25019" stroke-miterlimit="10" stroke-linecap="round"/>
</svg>
