<svg width="54" height="40" viewBox="0 0 54 40" fill="none" xmlns="http://www.w3.org/2000/svg">
<g filter="url(#filter0_b_2193_35409)">
<path d="M5.79878 13.4511C3.95162 13.3159 3.10245 13.4511 2.95166 13.4511C2.95168 14.4357 3.14304 16.8413 3.48366 18.2676C3.90943 20.0505 5.02708 22.8712 5.79878 24.255C6.57049 25.6387 7.44864 26.8628 9.25817 29.0183C10.7058 30.7427 13.5336 32.6994 14.7666 33.4623L16.6029 34.4469L17.8706 34.9902C18.886 35.4254 19.9374 35.7758 21.0221 35.985C22.9571 36.3581 24.6832 36.5776 25.9164 36.6822C27.3165 36.8008 27.584 36.6822 27.5397 36.6822C27.5752 36.6822 27.5503 36.2351 27.1671 34.4469C26.6881 32.2116 26.1027 30.4286 25.1713 27.6345C24.577 25.8516 23.1383 23.3376 21.5257 21.3278C19.7962 19.1723 17.694 17.7797 15.5117 16.4847C13.8076 15.4735 12.6379 15.0743 11.4138 14.6219C10.1898 14.1695 8.24718 13.6302 5.79878 13.4511Z" fill="white" fill-opacity="0.33"/>
</g>
<g filter="url(#filter1_b_2193_35409)">
<path d="M29.509 36.6818C27.6618 36.8169 26.8127 36.6818 26.6619 36.6818C26.6619 35.6972 26.8532 33.2916 27.1939 31.8652C27.6196 30.0823 28.7373 27.2616 29.509 25.8778C30.2807 24.4941 31.1588 23.27 32.9684 21.1145C34.416 19.3902 37.2438 17.4334 38.4768 16.6705L40.3131 15.686L41.5808 15.1426C42.5962 14.7074 43.6476 14.357 44.7323 14.1478C46.6673 13.7747 48.3934 13.5552 49.6266 13.4507C51.0267 13.332 51.2942 13.4507 51.2499 13.4507C51.2854 13.4507 51.2605 13.8977 50.8773 15.686C50.3983 17.9212 49.8129 19.7042 48.8815 22.4983C48.2872 24.2812 46.8485 26.7952 45.2359 28.805C43.5064 30.9605 41.4042 32.3532 39.2219 33.6481C37.5178 34.6593 36.3481 35.0585 35.124 35.5109C33.9 35.9633 31.9574 36.5026 29.509 36.6818Z" fill="white" fill-opacity="0.33"/>
</g>
<g filter="url(#filter2_b_2193_35409)">
<path d="M16.3037 6.7967C14.6566 5.94975 13.8222 5.74195 13.6834 5.68296C13.2983 6.58911 12.5334 8.87787 12.2889 10.3238C11.9833 12.1312 11.9085 15.1643 12.0774 16.7397C12.2463 18.3151 12.5756 19.7851 13.3978 22.4767C14.0555 24.6299 15.8925 27.537 16.7288 28.7213L18.0337 30.3458L18.9878 31.3417C19.7521 32.1394 20.5826 32.8732 21.499 33.49C23.1339 34.5904 24.6366 35.4676 25.7307 36.0462C26.9727 36.7031 27.2654 36.6986 27.2246 36.6812C27.2572 36.6951 27.4092 36.2739 27.7561 34.4783C28.1897 32.2338 28.3483 30.3639 28.5842 27.4281C28.7347 25.5548 28.394 22.6784 27.6961 20.1978C26.9476 17.5376 25.5577 15.4335 24.0559 13.3881C22.8832 11.7908 21.9628 10.9659 21.0133 10.0708C20.0637 9.1756 18.4869 7.91933 16.3037 6.7967Z" fill="white" fill-opacity="0.33"/>
</g>
<g filter="url(#filter3_b_2193_35409)">
<path d="M29.6091 35.5652C27.962 36.4122 27.1276 36.62 26.9888 36.679C26.6037 35.7728 25.8388 33.4841 25.5943 32.0381C25.2887 30.2308 25.2139 27.1976 25.3828 25.6222C25.5517 24.0469 25.881 22.5768 26.7032 19.8853C27.3609 17.732 29.198 14.825 30.0343 13.6406L31.3391 12.0161L32.2933 11.0202C33.0575 10.2225 33.888 9.48873 34.8045 8.8719C36.4393 7.77152 37.942 6.89432 39.0361 6.31571C40.2781 5.65884 40.5708 5.66337 40.53 5.68072C40.5626 5.66684 40.7147 6.08799 41.0615 7.88363C41.4951 10.1282 41.6538 11.998 41.8896 14.9338C42.0401 16.8071 41.6995 19.6836 41.0015 22.1641C40.253 24.8243 38.8631 26.9284 37.3613 28.9739C36.1886 30.5711 35.2683 31.396 34.3187 32.2912C33.3691 33.1863 31.7923 34.4426 29.6091 35.5652Z" fill="white" fill-opacity="0.33"/>
</g>
<g filter="url(#filter4_b_2193_35409)">
<path d="M28.6017 34.6902C27.4082 36.1065 26.7183 36.6198 26.613 36.7277C25.9084 36.04 24.3206 34.2227 23.5378 32.9827C22.5593 31.4327 21.3214 28.6626 20.8701 27.1439C20.4189 25.6251 20.1563 24.1416 19.8777 21.3411C19.6549 19.1007 20.2297 15.7103 20.545 14.2951L21.1231 12.2933C21.8509 10.4077 22.7542 8.58998 23.8917 6.91934C24.8376 5.53013 25.3463 4.89602 26.0288 4.06697C26.9218 2.9822 27.1936 2.87359 27.1626 2.90533C27.1874 2.87994 27.49 3.20998 28.502 4.73326C29.7671 6.63735 30.6341 8.30164 31.9831 10.9198C32.8438 12.5904 33.638 15.376 33.9499 17.9339C34.2844 20.6771 33.8126 23.1543 33.2151 25.6205C32.7484 27.5463 32.2171 28.6621 31.6858 29.8541C31.1545 31.0461 30.1837 32.813 28.6017 34.6902Z" fill="white" fill-opacity="0.33"/>
</g>
<defs>
<filter id="filter0_b_2193_35409" x="2.04134" y="12.4807" width="26.4204" height="25.1645" filterUnits="userSpaceOnUse" color-interpolation-filters="sRGB">
<feFlood flood-opacity="0" result="BackgroundImageFix"/>
<feGaussianBlur in="BackgroundImageFix" stdDeviation="0.455161"/>
<feComposite in2="SourceAlpha" operator="in" result="effect1_backgroundBlur_2193_35409"/>
<feBlend mode="normal" in="SourceGraphic" in2="effect1_backgroundBlur_2193_35409" result="shape"/>
</filter>
<filter id="filter1_b_2193_35409" x="25.7515" y="12.4876" width="26.4204" height="25.1645" filterUnits="userSpaceOnUse" color-interpolation-filters="sRGB">
<feFlood flood-opacity="0" result="BackgroundImageFix"/>
<feGaussianBlur in="BackgroundImageFix" stdDeviation="0.455161"/>
<feComposite in2="SourceAlpha" operator="in" result="effect1_backgroundBlur_2193_35409"/>
<feBlend mode="normal" in="SourceGraphic" in2="effect1_backgroundBlur_2193_35409" result="shape"/>
</filter>
<filter id="filter2_b_2193_35409" x="11.0787" y="4.77266" width="18.4509" height="32.8237" filterUnits="userSpaceOnUse" color-interpolation-filters="sRGB">
<feFlood flood-opacity="0" result="BackgroundImageFix"/>
<feGaussianBlur in="BackgroundImageFix" stdDeviation="0.455161"/>
<feComposite in2="SourceAlpha" operator="in" result="effect1_backgroundBlur_2193_35409"/>
<feBlend mode="normal" in="SourceGraphic" in2="effect1_backgroundBlur_2193_35409" result="shape"/>
</filter>
<filter id="filter3_b_2193_35409" x="24.3841" y="4.76558" width="18.4509" height="32.8237" filterUnits="userSpaceOnUse" color-interpolation-filters="sRGB">
<feFlood flood-opacity="0" result="BackgroundImageFix"/>
<feGaussianBlur in="BackgroundImageFix" stdDeviation="0.455161"/>
<feComposite in2="SourceAlpha" operator="in" result="effect1_backgroundBlur_2193_35409"/>
<feBlend mode="normal" in="SourceGraphic" in2="effect1_backgroundBlur_2193_35409" result="shape"/>
</filter>
<filter id="filter4_b_2193_35409" x="18.9173" y="1.99043" width="16.054" height="35.6475" filterUnits="userSpaceOnUse" color-interpolation-filters="sRGB">
<feFlood flood-opacity="0" result="BackgroundImageFix"/>
<feGaussianBlur in="BackgroundImageFix" stdDeviation="0.455161"/>
<feComposite in2="SourceAlpha" operator="in" result="effect1_backgroundBlur_2193_35409"/>
<feBlend mode="normal" in="SourceGraphic" in2="effect1_backgroundBlur_2193_35409" result="shape"/>
</filter>
</defs>
</svg>
