<svg width="25" height="25" viewBox="0 0 25 25" fill="none" xmlns="http://www.w3.org/2000/svg">
<path fill-rule="evenodd" clip-rule="evenodd" d="M11.543 0.016243C11.4348 0.0292742 11.1313 0.0661785 10.8686 0.0982511C6.78797 0.596302 3.10095 3.25012 1.25617 7.01715C0.387906 8.79007 0 10.4858 0 12.5082C0 14.5321 0.388862 16.2307 1.25707 17.9993C3.1182 21.7905 6.69894 24.3573 10.9248 24.9295C11.6185 25.0235 13.4538 25.0235 14.1002 24.9295C18.0085 24.3615 21.2517 22.2421 23.2228 18.9678C23.8801 17.8759 24.3032 16.8736 24.6106 15.6798C24.9167 14.4919 25 13.8128 25 12.5082C25 11.2046 24.9168 10.5264 24.6111 9.33671C23.3733 4.52039 19.3161 0.876193 14.3531 0.122966C13.7859 0.0368584 11.9504 -0.0327926 11.543 0.016243ZM13.7975 8.18351C14.5231 8.31887 15.2174 8.85259 15.5508 9.53128L15.73 9.89638L15.7462 13.1823C15.7552 14.9895 15.7485 16.5246 15.7314 16.5935C15.657 16.8938 15.7246 16.8895 11.054 16.889C8.32543 16.8888 6.60334 16.867 6.37241 16.8299C5.46874 16.6847 4.73423 16.0595 4.43833 15.1836C4.35667 14.9419 4.34616 14.5306 4.34824 11.6498C4.35071 8.22748 4.34666 8.28315 4.60008 8.18053C4.76891 8.11212 13.4299 8.11498 13.7975 8.18351ZM20.3504 8.29607C20.4054 8.40475 20.4214 9.35362 20.4221 12.5504C20.4229 16.5918 20.4209 16.6667 20.3104 16.7772C20.2114 16.8762 20.1783 16.8812 20.0345 16.8193C19.9447 16.7806 19.0735 16.1677 18.0986 15.4571L16.326 14.1652L16.326 12.5082L16.3259 10.8513L17.9869 9.64362C20.3524 7.92384 20.2046 8.00809 20.3504 8.29607Z" fill="#B68742"/>
</svg>
