<svg width="54" height="32" viewBox="0 0 54 32" fill="none" xmlns="http://www.w3.org/2000/svg">
<path d="M14.1307 14.2168C16.97 11.8096 20.735 10.5751 24.3767 10.822C28.759 11.1306 32.9561 13.3527 37.2767 12.8589C38.5111 12.7354 39.7456 12.3651 40.7332 11.6244C42.1528 10.5751 43.0169 8.72346 42.77 6.93351C42.5231 5.14355 41.1035 3.60049 39.3753 3.23015C37.647 2.85982 35.6719 3.84738 34.993 5.51389C34.5609 6.56317 34.6843 7.92107 35.4867 8.72346C36.2891 9.52586 37.7705 9.6493 38.5729 8.78518" stroke="white" stroke-opacity="0.66" stroke-width="1.85168" stroke-miterlimit="10" stroke-linecap="round"/>
<path d="M11.908 18.9075C14.8089 16.7472 18.0802 15.0807 21.5367 13.9697" stroke="white" stroke-opacity="0.66" stroke-width="1.85168" stroke-miterlimit="10" stroke-linecap="round"/>
<path d="M18.3892 19.4013C21.2284 17.0558 24.9318 15.7597 28.5734 15.7597C34.437 15.7597 39.8686 18.9692 45.7322 18.9692C47.3988 18.9692 49.2504 18.5989 50.4232 17.3645C51.7193 16.0066 51.8428 13.5994 50.6083 12.2415C49.3122 10.8219 46.7815 10.8836 45.6088 12.3649C44.9916 13.1673 44.8064 14.4018 45.4854 15.2042C46.1643 16.0066 47.6456 15.9448 48.0777 15.019" stroke="#E4E4E4" stroke-opacity="0.51" stroke-width="1.85168" stroke-miterlimit="10" stroke-linecap="round"/>
<path d="M2.09424 27.055C4.81003 29.0301 8.69855 28.598 11.9081 27.487C15.7349 26.1291 19.2531 23.9688 22.8947 22.0554C24.2526 21.3148 25.6105 20.6358 27.0919 20.2655C29.067 19.7717 31.1656 19.8334 33.079 20.5124C34.0665 20.8827 34.9924 21.3765 35.6713 22.1172C36.9675 23.5368 37.2144 25.8205 36.2885 27.487C35.301 29.1535 33.2024 30.0794 31.3507 29.6473C30.857 29.5239 30.3014 29.3387 29.9311 28.9684C28.5115 27.6105 29.0053 24.4626 31.4125 24.6478C32.0914 24.7095 32.7086 25.0798 33.0172 25.6971" stroke="white" stroke-opacity="0.66" stroke-width="1.85168" stroke-miterlimit="10" stroke-linecap="round"/>
</svg>
