<svg width="480" height="108" viewBox="0 0 480 108" fill="none" xmlns="http://www.w3.org/2000/svg">
<path d="M31.7 88.4998C27.5 94.9998 26 100.6 29.7 107.4L25.2 99.1998C21.5 92.3998 21.8 84.0998 26 77.5998L49 42.2998V42.3998C52 49.9998 51.1 58.5998 46.6 65.4998L31.7 88.4998Z" fill="white"/>
<path d="M20.9 72.6L42.5 41.4L44.1 37.6C46 30.1 44.8 22 40.4 15.3L39.1 13.3L31.2 0.5L4.4 41.7C-0.5 49.3 -0.9 58.9 3.4 66.8L8.6 76.4C4.3 68.5 6 61.9 11 54.4L36.4 15.4C36.5 15.9 36.7 16.3 36.8 16.8C36.8 16.8 36.8 16.8 36.8 16.9C38 21.1 37.3 25.6 35 29.2L16.6 57.4C11 66.1 10.5 77.1 15.5 86.2L18.6 91.9C16.4 85.6 17.1 78.4 20.9 72.6Z" fill="white"/>
<path d="M388.6 41.7C389 41.2 389.3 40.6 389.7 40.1C395.7 34.4 402.8 32.7 410.7 35.2C418.4 37.7 422.7 43.4 424 51.2C424.4 53.4 424.3 55.7 424.3 57.9C424.3 64.9 424.3 71.9 424.3 78.9C424.3 79.4 424.3 79.8 424.3 80.4C421.5 80.4 418.8 80.4 415.9 80.4C415.9 79.8 415.8 79.3 415.8 78.8C415.8 71.7 415.8 64.7 415.8 57.6C415.8 55.7 415.6 53.8 415.2 51.9C414.2 46.5 409.5 42.6 404.1 42.6C398.5 42.7 393.8 46.6 393.1 52.2C392.7 55.1 392.6 58.1 392.5 61C392.4 66.9 392.5 72.8 392.5 78.7C392.5 79.2 392.5 79.7 392.5 80.4C389.6 80.4 386.9 80.4 384 80.4C384 79.7 384 79.1 384 78.6C383.9 70.6 383.9 62.5 383.8 54.5C383.7 50.3 382.1 46.7 378.3 44.4C371.6 40.3 362.7 44.2 361.4 51.9C360.9 55 360.8 58.1 360.7 61.2C360.6 67 360.7 72.9 360.8 78.7C360.8 79.3 360.8 79.8 360.8 80.5C357.9 80.5 355.2 80.5 352.4 80.5C352.4 80.1 352.3 79.7 352.3 79.3C352.3 70.9 352.2 62.5 352.3 54.1C352.4 42.5 361.5 33.8 373.1 34.2C378.5 34.4 383.2 36.5 387 40.3C387.3 40.6 387.6 41 388 41.3C388.1 41.4 388.2 41.4 388.3 41.4C388.4 41.5 388.5 41.6 388.6 41.7Z" fill="white"/>
<path d="M441.5 99.3C438.6 99.3 435.9 99.3 433.2 99.3C433.2 98.8 433.1 98.3 433.1 97.9C433.1 84.4 433.1 70.9 433.1 57.4C433.1 46.1 440.7 36.8001 451.7 34.6001C464.1 32.0001 476.3 40.0001 479.1 52.5001C481.8 64.7001 474 76.9 461.7 79.8C458.8 80.5 456 80.7001 453.1 80.1001C452.7 80.0001 452.1 79.6 452.1 79.3C452 76.7 452.1 74.2001 452.1 71.7001C454.5 71.7001 456.8 72.0001 459 71.6001C466.5 70.3001 471.6 63.6001 471.1 56.1001C470.6 48.9001 464.6 42.9 457.6 42.4C449.8 41.9 443.1 47.0001 441.7 54.5001C441.5 55.8001 441.5 57.1 441.5 58.4C441.5 71.4 441.5 84.4 441.5 97.3C441.5 98 441.5 98.6 441.5 99.3Z" fill="white"/>
<path d="M324.5 71.6998C324.5 74.2998 324.5 76.7998 324.4 79.3998C324.4 79.6998 323.6 80.1998 323.1 80.2998C314.4 81.3998 307.2 78.3998 301.9 71.5998C296.5 64.5998 295.4 56.7998 298.8 48.5998C302.1 40.4998 308.4 35.6998 317.1 34.4998C330.9 32.4998 343.2 43.0998 343.4 56.9998C343.5 64.3998 343.4 71.7998 343.5 79.2998C343.5 80.4998 343.1 80.6998 342 80.6998C340.2 80.5998 338.4 80.5998 336.5 80.6998C335.3 80.7998 335 80.3998 335 79.1998C335 71.8998 335.1 64.5998 335 57.3998C334.9 50.7998 330.9 45.2998 324.7 43.3998C318.8 41.5998 313.5 42.9998 309.4 47.4998C305.2 51.9998 304.3 57.3998 306.7 63.0998C309.1 68.7998 313.6 71.7998 319.8 72.0998C321.2 71.9998 322.7 71.7998 324.5 71.6998Z" fill="white"/>
<path d="M217.1 74.2997C212.4 78.2997 207.3 80.4997 201.3 80.3997C191.3 80.2997 182.7 74.0997 179.4 64.7997C174.6 51.2997 183.9 36.0997 198.1 34.2997C206.9 33.1997 214 36.1997 219.8 42.7997C220.5 43.6997 220.6 44.1997 219.8 45.1997C215.9 50.0997 212.1 54.9997 208.3 59.8997C208 60.2997 207.7 60.6997 207.2 61.1997C205 59.3997 202.9 57.6997 200.7 55.9997C203.6 52.2997 206.4 48.5997 209.3 44.9997C201.1 39.1997 189.3 43.9997 187.1 53.7997C185.8 59.7997 188 65.7997 192.9 69.1997C197.9 72.6997 204.1 72.7997 209.4 69.4997C210.1 68.9997 210.6 68.9997 211.2 69.4997C213.1 71.1997 215 72.6997 217.1 74.2997Z" fill="white"/>
<path d="M101.7 42.5999C101.7 55.2999 101.7 67.7999 101.7 80.4999C99 80.4999 96.5 80.4999 94 80.4999C93.8 80.4999 93.5 80.0999 93.3 79.7999C93.2 79.5999 93.3 79.2999 93.3 78.9999C93.3 64.4999 93.3 49.9999 93.3 35.5999C93.3 35.1999 93.3 34.7999 93.4 34.3999C93.5 34.2999 93.6 34.1999 93.7 34.1999C99.6 34.2999 105.5 33.3999 111.2 35.2999C120.7 38.4999 127 46.9999 127.1 57.2999C127.2 64.5999 127.1 71.8999 127.1 79.1999C127.1 80.1999 126.8 80.5999 125.8 80.5999C123.9 80.4999 122.1 80.4999 120.2 80.5999C119 80.6999 118.7 80.2999 118.7 79.0999C118.7 71.9999 118.7 64.9999 118.7 57.8999C118.7 51.4999 115.8 46.6999 110 43.8999C107.5 42.5999 104.8 42.2999 101.7 42.5999Z" fill="white"/>
<path d="M145.3 42.5998C145.3 43.2998 145.3 43.8998 145.3 44.4998C145.3 55.8998 145.3 67.3998 145.3 78.7998C145.3 80.1998 144.9 80.6998 143.5 80.5998C141.4 80.4998 139.2 80.5998 137 80.5998C137 65.0998 137 49.7998 137 34.3998C137.1 34.2998 137.2 34.1998 137.2 34.1998C143.3 34.2998 149.5 33.3998 155.5 35.5998C164.4 38.8998 170.5 47.4998 170.6 56.8998C170.7 64.3998 170.6 71.7998 170.6 79.2998C170.6 79.5998 170.6 79.8998 170.5 80.3998C167.8 80.3998 165 80.3998 162.2 80.3998C162.2 79.7998 162.2 79.1998 162.2 78.6998C162.2 71.6998 162.2 64.6998 162.2 57.6998C162.2 49.9998 157.2 44.0998 149.7 42.6998C148.7 42.4998 147.7 42.4998 146.6 42.4998C146.3 42.4998 145.9 42.4998 145.3 42.5998Z" fill="white"/>
<path d="M287.4 69.2997C289.5 71.2997 291.4 73.1997 293.4 74.9997C286.9 81.1997 273.1 83.3997 263.2 74.3997C253.7 65.7997 252.9 51.2997 261.4 41.7997C269.7 32.4997 284.3 31.3997 293.5 39.3997C292.2 40.6997 290.9 41.9997 289.6 43.2997C287.8 45.1997 287.8 45.1997 285.5 43.9997C280.1 41.1997 273.5 41.9997 268.9 46.0997C264.3 50.1997 262.7 56.6997 264.9 62.4997C267 68.0997 272.5 71.7997 278.6 71.8997C281.9 71.9997 284.8 70.9997 287.4 69.2997Z" fill="white"/>
<path d="M235.3 80.5C232.6 80.5 230.1 80.5 227.6 80.5C227.4 80.5 226.9 79.9 226.9 79.6C226.9 71.3 226.7 62.9 227.2 54.6C227.8 44.4 237 35.5 247 34.5C247.3 34.5 247.5 34.5 248 34.5C248 37.1 248 39.6 248 42.2C248 42.5 247.5 42.9 247.1 43C239.8 44.8 235.4 50.5 235.3 58C235.3 65 235.3 71.9 235.3 78.9C235.3 79.2 235.3 79.8 235.3 80.5Z" fill="white"/>
<path d="M74.2 34.1997C76.9 34.1997 79.6 34.1997 82.4 34.1997C82.4 34.7997 82.5 35.2997 82.5 35.6997C82.5 50.0997 82.5 64.4997 82.5 78.7997C82.5 79.9997 82.2 80.4997 80.9 80.4997C78.7 80.3997 76.5 80.4997 74.2 80.4997C74.2 64.9997 74.2 49.6997 74.2 34.1997Z" fill="white"/>
<path d="M78.3 14.4999C80.9 14.4999 83.1 16.7999 83.1 19.3999C83.1 21.9999 80.8 24.1999 78.2 24.1999C75.5 24.1999 73.3 21.8999 73.3 19.1999C73.5 16.5999 75.7 14.3999 78.3 14.4999Z" fill="white"/>
</svg>
