<svg width="123" height="98" viewBox="0 0 123 98" fill="none" xmlns="http://www.w3.org/2000/svg">
<circle cx="62.0058" cy="49.6051" r="48.2675" fill="#E5DDD0"/>
<path d="M38.3789 49.2675V40.1541H42.4293V49.2675H38.3789Z" fill="#B68742" stroke="#B68742" stroke-width="1.35014" stroke-linecap="round"/>
<path d="M55.5935 76.2703V32.3908M55.5935 32.3908H90.3596V76.2703H31.291V32.3908H55.5935Z" stroke="#B68742" stroke-width="2"/>
<path d="M55.2559 32.3908L59.9813 22.9398H95.7601L90.697 32.3908" stroke="#B68742" stroke-width="2"/>
<path d="M1.25 32.3907C5.86298 32.7283 15.629 33.2008 17.7892 32.3907C20.4895 31.3781 20.827 29.3529 20.827 28.0028C20.827 26.6526 20.152 24.965 18.4643 24.2899C17.1721 23.773 15.4265 23.9524 14.0763 24.965C13.3126 25.5378 12.0511 26.9902 13.0637 28.6779" stroke="#B68742" stroke-width="2" stroke-linecap="round"/>
<path d="M102.174 60.516C106.787 60.1784 116.553 59.7059 118.713 60.516C121.413 61.5286 121.751 63.5538 121.751 64.9039C121.751 66.2541 121.076 67.9417 119.388 68.6168C118.096 69.1337 116.35 68.9543 115 67.9417C114.236 67.3689 112.975 65.9165 113.988 64.2288" stroke="#B68742" stroke-width="2" stroke-linecap="round"/>
<path d="M100.148 52.6429C101.161 52.1928 103.591 51.0227 105.211 49.9426C106.832 48.8625 107.912 47.2423 108.249 46.5672" stroke="#B68742" stroke-width="2" stroke-linecap="round"/>
<path d="M104.874 44.2045C102.444 46.6347 102.061 49.7176 102.174 50.9552C103.749 51.1802 107.487 52.3344 109.599 51.6303C112.637 50.6177 113.602 48.5861 113.987 45.8922C114.325 43.5294 113.762 39.704 113.312 38.4664C111.512 39.3665 107.304 41.7742 104.874 44.2045Z" stroke="#B68742" stroke-width="2" stroke-linecap="round"/>
<path d="M23.8652 7.75072C27.3756 7.4807 31.8536 6.5131 33.6537 6.06305" stroke="#B68742" stroke-width="2" stroke-linecap="round"/>
<path d="M32.9789 1C28.9284 1 26.5657 5.05042 25.8906 7.07563C28.8159 8.53828 30.4898 12.4915 37.0293 10.1134C40.7422 8.76331 42.4298 5.05042 43.78 2.35014C41.8673 1.90009 37.0293 1 32.9789 1Z" stroke="#B68742" stroke-width="2" stroke-linecap="round"/>
</svg>
