<svg width="26" height="29" viewBox="0 0 26 29" fill="none" xmlns="http://www.w3.org/2000/svg">
<path d="M1 6.50008L5 1.16675H21L25 6.50008M1 6.50008V25.1667C1 25.874 1.28095 26.5523 1.78105 27.0524C2.28115 27.5525 2.95942 27.8334 3.66667 27.8334H22.3333C23.0406 27.8334 23.7189 27.5525 24.219 27.0524C24.719 26.5523 25 25.874 25 25.1667V6.50008M1 6.50008H25M18.3333 11.8334C18.3333 13.2479 17.7714 14.6045 16.7712 15.6047C15.771 16.6048 14.4145 17.1667 13 17.1667C11.5855 17.1667 10.229 16.6048 9.22876 15.6047C8.22857 14.6045 7.66667 13.2479 7.66667 11.8334" stroke="#929A93" stroke-width="2" stroke-linecap="round" stroke-linejoin="round"/>
</svg>
