<svg width="32" height="33" viewBox="0 0 32 33" fill="none" xmlns="http://www.w3.org/2000/svg">
<path d="M16.0056 27.5002L15.959 2.50024" stroke="#929A93" stroke-width="2"/>
<path d="M15.959 31.1035V27.5281" stroke="#929A93" stroke-width="2"/>
<path d="M22.5135 12.0336C22.5137 10.2457 20.6794 7.73383 18.3422 7.26617C15.3627 6.67 13.3068 6.94192 11.7873 8.45972C11.1914 9.05494 10.0603 10.4884 10.5952 12.6293C11.1301 14.7703 12.9791 15.6088 15.9586 16.2047C18.9381 16.8006 21.3217 17.3964 22.5135 19.7802C23.1093 20.972 23.7053 23.9516 20.7258 25.7393C19.583 26.425 17.8432 26.9321 15.9588 26.9321C13.5752 26.9321 11.3774 25.5155 10.5952 23.9516C9.9997 22.7609 10.0002 22.1649 10 21.569" stroke="#929A93" stroke-width="2"/>
</svg>
