<svg width="69" height="69" viewBox="0 0 69 69" fill="none" xmlns="http://www.w3.org/2000/svg">
<path d="M34.5 63.25C50.3782 63.25 63.25 50.3782 63.25 34.5C63.25 18.6218 50.3782 5.75 34.5 5.75C18.6218 5.75 5.75 18.6218 5.75 34.5C5.75 50.3782 18.6218 63.25 34.5 63.25Z" stroke="#B68742" stroke-width="2" stroke-linecap="round" stroke-linejoin="round"/>
<path d="M26.1328 25.8742C26.8087 23.9527 28.1429 22.3325 29.8989 21.3005C31.655 20.2684 33.7196 19.8911 35.7272 20.2355C37.7348 20.5798 39.5557 21.6236 40.8674 23.1818C42.1792 24.7401 42.8971 26.7123 42.8941 28.7492C42.8941 34.4992 34.2691 37.3742 34.2691 37.3742" stroke="#B68742" stroke-width="2" stroke-linecap="round" stroke-linejoin="round"/>
<path d="M34.5 48.875H34.5292" stroke="#B68742" stroke-width="2" stroke-linecap="round" stroke-linejoin="round"/>
</svg>
