<svg width="45" height="32" viewBox="0 0 45 32" fill="none" xmlns="http://www.w3.org/2000/svg">
<g filter="url(#filter0_b_2846_459134)">
<path d="M4.60612 10.7364C3.0783 10.6247 2.37594 10.7364 2.25122 10.7364C2.25123 11.5508 2.40952 13.5405 2.69124 14.7203C3.0434 16.1949 3.96783 18.528 4.60612 19.6725C5.24441 20.8171 5.97074 21.8295 7.46743 23.6123C8.66477 25.0386 11.0037 26.6571 12.0235 27.288L13.5424 28.1024L14.5909 28.5518C15.4307 28.9117 16.3003 29.2016 17.1975 29.3746C18.798 29.6832 20.2257 29.8648 21.2457 29.9512C22.4037 30.0494 22.625 29.9512 22.5883 29.9512C22.6177 29.9512 22.5971 29.5815 22.2802 28.1024C21.884 26.2535 21.3998 24.7789 20.6294 22.4678C20.1379 20.9931 18.9479 18.9138 17.6141 17.2514C16.1836 15.4686 14.4448 14.3167 12.6398 13.2456C11.2303 12.4092 10.2629 12.0791 9.25042 11.7049C8.23796 11.3307 6.63122 10.8846 4.60612 10.7364Z" fill="#B68742" fill-opacity="0.33"/>
</g>
<g filter="url(#filter1_b_2846_459134)">
<path d="M24.217 29.9509C22.6891 30.0627 21.9868 29.9509 21.8621 29.9509C21.8621 29.1366 22.0204 27.1468 22.3021 25.9671C22.6542 24.4924 23.5787 22.1594 24.217 21.0148C24.8553 19.8703 25.5816 18.8579 27.0783 17.075C28.2756 15.6488 30.6145 14.0303 31.6343 13.3994L33.1532 12.585L34.2017 12.1356C35.0416 11.7756 35.9112 11.4858 36.8084 11.3128C38.4089 11.0041 39.8365 10.8226 40.8566 10.7361C42.0145 10.638 42.2359 10.7361 42.1992 10.7361C42.2285 10.7361 42.208 11.1059 41.891 12.585C41.4949 14.4338 41.0106 15.9085 40.2403 18.2196C39.7487 19.6942 38.5588 21.7736 37.2249 23.436C35.7944 25.2188 34.0556 26.3707 32.2506 27.4418C30.8412 28.2782 29.8737 28.6083 28.8613 28.9825C27.8488 29.3567 26.2421 29.8028 24.217 29.9509Z" fill="#B68742" fill-opacity="0.33"/>
</g>
<g filter="url(#filter2_b_2846_459134)">
<path d="M13.2948 5.23254C11.9324 4.53201 11.2423 4.36014 11.1275 4.31135C10.809 5.06083 10.1763 6.95391 9.97411 8.14984C9.72134 9.64476 9.65945 12.1535 9.79916 13.4565C9.93888 14.7595 10.2113 15.9755 10.8913 18.2017C11.4353 19.9827 12.9547 22.3871 13.6465 23.3667L14.7257 24.7103L15.5149 25.5341C16.147 26.1939 16.8339 26.8008 17.592 27.311C18.9442 28.2211 20.1871 28.9467 21.092 29.4253C22.1193 29.9686 22.3614 29.9648 22.3276 29.9505C22.3546 29.9619 22.4804 29.6136 22.7673 28.1284C23.1259 26.2719 23.2571 24.7253 23.4522 22.2971C23.5767 20.7476 23.2949 18.3685 22.7177 16.3168C22.0986 14.1165 20.9489 12.3762 19.7068 10.6844C18.7368 9.36327 17.9756 8.68098 17.1902 7.94057C16.4047 7.20016 15.1006 6.16108 13.2948 5.23254Z" fill="#B68742" fill-opacity="0.33"/>
</g>
<g filter="url(#filter3_b_2846_459134)">
<path d="M24.2999 29.0275C22.9376 29.728 22.2475 29.8999 22.1327 29.9487C21.8141 29.1992 21.1814 27.3061 20.9792 26.1102C20.7265 24.6152 20.6646 22.1065 20.8043 20.8035C20.944 19.5005 21.2164 18.2845 21.8964 16.0583C22.4404 14.2773 23.9599 11.8729 24.6516 10.8933L25.7309 9.54966L26.52 8.72592C27.1521 8.06612 27.8391 7.4592 28.5971 6.94901C29.9493 6.03887 31.1922 5.31333 32.0971 4.83475C33.1244 4.29144 33.3665 4.29519 33.3328 4.30954C33.3598 4.29806 33.4855 4.6464 33.7724 6.1316C34.131 7.9881 34.2623 9.53468 34.4573 11.9629C34.5818 13.5124 34.3 15.8915 33.7228 17.9432C33.1037 20.1435 31.9541 21.8838 30.7119 23.5757C29.7419 24.8967 28.9807 25.579 28.1953 26.3194C27.4099 27.0599 26.1057 28.0989 24.2999 29.0275Z" fill="#B68742" fill-opacity="0.33"/>
</g>
<g filter="url(#filter4_b_2846_459134)">
<path d="M23.4665 28.3036C22.4793 29.4751 21.9087 29.8996 21.8216 29.9889C21.2388 29.42 19.9255 27.917 19.2781 26.8913C18.4687 25.6093 17.4448 23.3181 17.0716 22.0619C16.6984 20.8057 16.4812 19.5787 16.2508 17.2624C16.0664 15.4093 16.5419 12.6051 16.8027 11.4345L17.2808 9.77878C17.8828 8.21921 18.6299 6.71573 19.5708 5.33391C20.3531 4.18488 20.7739 3.66039 21.3384 2.97468C22.077 2.07745 22.3018 1.98762 22.2762 2.01387C22.2967 1.99287 22.547 2.26585 23.384 3.52577C24.4304 5.10068 25.1475 6.47724 26.2633 8.64276C26.9752 10.0246 27.6321 12.3285 27.8901 14.4442C28.1667 16.7132 27.7765 18.7621 27.2823 20.8019C26.8963 22.3948 26.4568 23.3177 26.0174 24.3036C25.578 25.2895 24.775 26.7509 23.4665 28.3036Z" fill="#B68742" fill-opacity="0.33"/>
</g>
<defs>
<filter id="filter0_b_2846_459134" x="1.49828" y="9.93383" width="21.8526" height="20.814" filterUnits="userSpaceOnUse" color-interpolation-filters="sRGB">
<feFlood flood-opacity="0" result="BackgroundImageFix"/>
<feGaussianBlur in="BackgroundImageFix" stdDeviation="0.376471"/>
<feComposite in2="SourceAlpha" operator="in" result="effect1_backgroundBlur_2846_459134"/>
<feBlend mode="normal" in="SourceGraphic" in2="effect1_backgroundBlur_2846_459134" result="shape"/>
</filter>
<filter id="filter1_b_2846_459134" x="21.1091" y="9.93956" width="21.8526" height="20.814" filterUnits="userSpaceOnUse" color-interpolation-filters="sRGB">
<feFlood flood-opacity="0" result="BackgroundImageFix"/>
<feGaussianBlur in="BackgroundImageFix" stdDeviation="0.376471"/>
<feComposite in2="SourceAlpha" operator="in" result="effect1_backgroundBlur_2846_459134"/>
<feBlend mode="normal" in="SourceGraphic" in2="effect1_backgroundBlur_2846_459134" result="shape"/>
</filter>
<filter id="filter2_b_2846_459134" x="8.97313" y="3.55846" width="15.261" height="27.1488" filterUnits="userSpaceOnUse" color-interpolation-filters="sRGB">
<feFlood flood-opacity="0" result="BackgroundImageFix"/>
<feGaussianBlur in="BackgroundImageFix" stdDeviation="0.376471"/>
<feComposite in2="SourceAlpha" operator="in" result="effect1_backgroundBlur_2846_459134"/>
<feBlend mode="normal" in="SourceGraphic" in2="effect1_backgroundBlur_2846_459134" result="shape"/>
</filter>
<filter id="filter3_b_2846_459134" x="19.9783" y="3.55272" width="15.261" height="27.1488" filterUnits="userSpaceOnUse" color-interpolation-filters="sRGB">
<feFlood flood-opacity="0" result="BackgroundImageFix"/>
<feGaussianBlur in="BackgroundImageFix" stdDeviation="0.376471"/>
<feComposite in2="SourceAlpha" operator="in" result="effect1_backgroundBlur_2846_459134"/>
<feBlend mode="normal" in="SourceGraphic" in2="effect1_backgroundBlur_2846_459134" result="shape"/>
</filter>
<filter id="filter4_b_2846_459134" x="15.4563" y="1.25719" width="13.2786" height="29.4846" filterUnits="userSpaceOnUse" color-interpolation-filters="sRGB">
<feFlood flood-opacity="0" result="BackgroundImageFix"/>
<feGaussianBlur in="BackgroundImageFix" stdDeviation="0.376471"/>
<feComposite in2="SourceAlpha" operator="in" result="effect1_backgroundBlur_2846_459134"/>
<feBlend mode="normal" in="SourceGraphic" in2="effect1_backgroundBlur_2846_459134" result="shape"/>
</filter>
</defs>
</svg>
