<svg width="124" height="31" viewBox="0 0 124 31" fill="none" xmlns="http://www.w3.org/2000/svg">
<rect width="124" height="31" rx="15.5" fill="#DDEDDF"/>
<path d="M33.6666 10.5L24.4999 19.6667L20.3333 15.5" stroke="#424F44" stroke-width="2" stroke-linecap="round" stroke-linejoin="round"/>
<path d="M54.6357 21L53.4053 17.8281H49.3994L48.1758 21H47L50.9102 10.9648H51.9561L55.8389 21H54.6357ZM53.0566 16.7959L51.8877 13.6445C51.8604 13.5625 51.8148 13.4281 51.751 13.2412C51.6917 13.0544 51.6302 12.8607 51.5664 12.6602C51.5026 12.4596 51.4502 12.2979 51.4092 12.1748C51.3636 12.3617 51.3135 12.5485 51.2588 12.7354C51.2087 12.9176 51.1585 13.0885 51.1084 13.248C51.0583 13.403 51.015 13.5352 50.9785 13.6445L49.7891 16.7959H53.0566ZM58.7731 21L55.9294 13.5078H57.1462L58.7936 18.04C58.9076 18.3499 59.0238 18.6917 59.1423 19.0654C59.2608 19.4391 59.3428 19.7399 59.3884 19.9678H59.4362C59.4909 19.7399 59.582 19.4391 59.7096 19.0654C59.8373 18.6872 59.9535 18.3454 60.0583 18.04L61.7057 13.5078H62.9225L60.072 21H58.7731ZM66.9984 13.3848C67.8916 13.3848 68.5547 13.5853 68.9877 13.9863C69.4206 14.3874 69.6371 15.0277 69.6371 15.9072V21H68.8099L68.5912 19.8926H68.5365C68.3268 20.166 68.1081 20.3962 67.8802 20.583C67.6524 20.7653 67.388 20.9043 67.0873 21C66.791 21.0911 66.4265 21.1367 65.9935 21.1367C65.5378 21.1367 65.1322 21.057 64.7767 20.8975C64.4258 20.738 64.1478 20.4964 63.9427 20.1729C63.7422 19.8493 63.642 19.4391 63.642 18.9424C63.642 18.195 63.9382 17.6208 64.5306 17.2197C65.1231 16.8187 66.0254 16.5999 67.2377 16.5635L68.5296 16.5088V16.0508C68.5296 15.4036 68.3907 14.9502 68.1127 14.6904C67.8347 14.4307 67.4427 14.3008 66.9369 14.3008C66.5449 14.3008 66.1713 14.3577 65.8158 14.4717C65.4603 14.5856 65.1231 14.7201 64.8041 14.875L64.4554 14.0137C64.7927 13.8405 65.18 13.6924 65.6175 13.5693C66.055 13.4463 66.5153 13.3848 66.9984 13.3848ZM68.516 17.3086L67.3744 17.3564C66.4401 17.3929 65.7816 17.5456 65.3988 17.8145C65.016 18.0833 64.8246 18.4639 64.8246 18.9561C64.8246 19.3844 64.9545 19.7012 65.2142 19.9062C65.474 20.1113 65.8181 20.2139 66.2464 20.2139C66.9118 20.2139 67.4564 20.0293 67.8802 19.6602C68.3041 19.291 68.516 18.7373 68.516 17.999V17.3086ZM73.1797 13.5078V21H72.045V13.5078H73.1797ZM72.626 10.7051C72.8129 10.7051 72.9724 10.7666 73.1045 10.8896C73.2412 11.0081 73.3096 11.195 73.3096 11.4502C73.3096 11.7008 73.2412 11.8877 73.1045 12.0107C72.9724 12.1338 72.8129 12.1953 72.626 12.1953C72.4301 12.1953 72.266 12.1338 72.1338 12.0107C72.0062 11.8877 71.9424 11.7008 71.9424 11.4502C71.9424 11.195 72.0062 11.0081 72.1338 10.8896C72.266 10.7666 72.4301 10.7051 72.626 10.7051ZM76.7976 21H75.656V10.3633H76.7976V21ZM82.0697 13.3848C82.963 13.3848 83.626 13.5853 84.059 13.9863C84.4919 14.3874 84.7084 15.0277 84.7084 15.9072V21H83.8813L83.6625 19.8926H83.6078C83.3982 20.166 83.1794 20.3962 82.9516 20.583C82.7237 20.7653 82.4594 20.9043 82.1586 21C81.8624 21.0911 81.4978 21.1367 81.0648 21.1367C80.6091 21.1367 80.2035 21.057 79.848 20.8975C79.4971 20.738 79.2191 20.4964 79.0141 20.1729C78.8135 19.8493 78.7133 19.4391 78.7133 18.9424C78.7133 18.195 79.0095 17.6208 79.602 17.2197C80.1944 16.8187 81.0967 16.5999 82.309 16.5635L83.601 16.5088V16.0508C83.601 15.4036 83.462 14.9502 83.184 14.6904C82.906 14.4307 82.5141 14.3008 82.0082 14.3008C81.6163 14.3008 81.2426 14.3577 80.8871 14.4717C80.5316 14.5856 80.1944 14.7201 79.8754 14.875L79.5268 14.0137C79.864 13.8405 80.2514 13.6924 80.6889 13.5693C81.1264 13.4463 81.5867 13.3848 82.0697 13.3848ZM83.5873 17.3086L82.4457 17.3564C81.5115 17.3929 80.8529 17.5456 80.4701 17.8145C80.0873 18.0833 79.8959 18.4639 79.8959 18.9561C79.8959 19.3844 80.0258 19.7012 80.2855 19.9062C80.5453 20.1113 80.8894 20.2139 81.3178 20.2139C81.9831 20.2139 82.5277 20.0293 82.9516 19.6602C83.3754 19.291 83.5873 18.7373 83.5873 17.999V17.3086ZM88.2511 10.3633V13.0225C88.2511 13.3278 88.2419 13.624 88.2237 13.9111C88.21 14.1982 88.1986 14.4215 88.1895 14.5811H88.2511C88.4561 14.2438 88.7524 13.959 89.1397 13.7266C89.5271 13.4941 90.0216 13.3779 90.6231 13.3779C91.5619 13.3779 92.3093 13.7038 92.8653 14.3555C93.4259 15.0026 93.7061 15.9665 93.7061 17.2471C93.7061 18.0902 93.5785 18.8011 93.3233 19.3799C93.0681 19.9587 92.7081 20.3962 92.2432 20.6924C91.7784 20.9886 91.2292 21.1367 90.5958 21.1367C90.0033 21.1367 89.5157 21.0273 89.1329 20.8086C88.7546 20.5853 88.463 20.3141 88.2579 19.9951H88.169L87.9366 21H87.1163V10.3633H88.2511ZM90.4386 14.3281C89.8962 14.3281 89.4656 14.4352 89.1466 14.6494C88.8276 14.859 88.5974 15.1781 88.4561 15.6064C88.3194 16.0303 88.2511 16.568 88.2511 17.2197V17.2812C88.2511 18.2246 88.4083 18.9469 88.7227 19.4482C89.0372 19.945 89.6091 20.1934 90.4386 20.1934C91.1358 20.1934 91.6576 19.9382 92.004 19.4277C92.3549 18.9173 92.5303 18.1882 92.5303 17.2402C92.5303 16.2741 92.3572 15.5472 92.0108 15.0596C91.669 14.5719 91.1449 14.3281 90.4386 14.3281ZM96.9002 21H95.7586V10.3633H96.9002V21ZM102.254 13.3711C102.892 13.3711 103.439 13.5124 103.895 13.7949C104.351 14.0775 104.699 14.474 104.941 14.9844C105.182 15.4902 105.303 16.0827 105.303 16.7617V17.4658H100.128C100.142 18.3454 100.361 19.0153 100.785 19.4756C101.208 19.9359 101.805 20.166 102.576 20.166C103.05 20.166 103.469 20.1227 103.833 20.0361C104.198 19.9495 104.576 19.8219 104.968 19.6533V20.6514C104.59 20.82 104.214 20.943 103.84 21.0205C103.471 21.098 103.034 21.1367 102.528 21.1367C101.808 21.1367 101.179 20.9909 100.641 20.6992C100.108 20.403 99.6931 19.9701 99.3969 19.4004C99.1007 18.8307 98.9526 18.1335 98.9526 17.3086C98.9526 16.502 99.087 15.8047 99.3559 15.2168C99.6293 14.6243 100.012 14.1686 100.504 13.8496C101.001 13.5306 101.584 13.3711 102.254 13.3711ZM102.241 14.3008C101.635 14.3008 101.151 14.499 100.791 14.8955C100.431 15.292 100.217 15.8457 100.149 16.5566H104.114C104.109 16.11 104.039 15.7181 103.902 15.3809C103.77 15.0391 103.567 14.7747 103.293 14.5879C103.02 14.3965 102.669 14.3008 102.241 14.3008Z" fill="#424F44"/>
</svg>
