<svg width="33" height="32" viewBox="0 0 33 32" fill="none" xmlns="http://www.w3.org/2000/svg">
<path d="M28.3218 13C28.3218 22 16.3218 31 16.3218 31C16.3218 31 4.32178 22 4.32178 13C4.32178 9.8174 5.58606 6.76516 7.8365 4.51472C10.0869 2.26428 13.1392 1 16.3218 1C19.5044 1 22.5566 2.26428 24.8071 4.51472C27.0575 6.76516 28.3218 9.8174 28.3218 13V13Z" stroke="#B68742" stroke-width="2" stroke-linecap="round" stroke-linejoin="round"/>
<path d="M19.8196 13C19.8196 14.933 18.2526 16.5 16.3196 16.5C14.3866 16.5 12.8196 14.933 12.8196 13C12.8196 11.067 14.3866 9.5 16.3196 9.5C18.2526 9.5 19.8196 11.067 19.8196 13Z" stroke="#B68742" stroke-width="2"/>
</svg>
