<svg width="889" height="888" viewBox="0 0 889 888" fill="none" xmlns="http://www.w3.org/2000/svg">
<circle cx="403.185" cy="219.026" r="12.4956" transform="rotate(-10 403.185 219.026)" fill="#E7D3B6"/>
<circle cx="364.885" cy="229.397" r="12.4956" transform="rotate(-20 364.885 229.397)" fill="#E7D3B6"/>
<circle cx="328.958" cy="246.255" r="12.4956" transform="rotate(-30 328.958 246.255)" fill="#E7D3B6"/>
<circle cx="296.489" cy="269.087" r="12.4956" transform="rotate(-40 296.489 269.087)" fill="#E7D3B6"/>
<circle cx="268.458" cy="297.2" r="12.4956" transform="rotate(-50 268.458 297.2)" fill="#E7D3B6"/>
<circle cx="245.716" cy="329.736" r="12.4956" transform="rotate(-60 245.716 329.736)" fill="#E7D3B6"/>
<circle cx="228.971" cy="365.713" r="12.4956" transform="rotate(-70 228.971 365.713)" fill="#E7D3B6"/>
<circle cx="218.708" cy="404.034" r="12.4956" transform="rotate(-80 218.708 404.034)" fill="#E7D3B6"/>
<circle cx="215.251" cy="443.535" r="12.4956" transform="rotate(-90 215.251 443.535)" fill="#E7D3B6"/>
<circle cx="218.821" cy="483.129" r="12.4956" transform="rotate(-100 218.821 483.129)" fill="#E7D3B6"/>
<circle cx="229.193" cy="521.501" r="12.4956" transform="rotate(-110 229.193 521.501)" fill="#E7D3B6"/>
<circle cx="246.048" cy="557.485" r="12.4956" transform="rotate(-120 246.048 557.485)" fill="#E7D3B6"/>
<circle cx="268.882" cy="589.987" r="12.4956" transform="rotate(-130 268.882 589.987)" fill="#E7D3B6"/>
<circle cx="296.993" cy="618.016" r="12.4956" transform="rotate(-140 296.993 618.016)" fill="#E7D3B6"/>
<circle cx="329.526" cy="640.727" r="12.4956" transform="rotate(-150 329.526 640.727)" fill="#E7D3B6"/>
<circle cx="365.506" cy="657.425" r="12.4956" transform="rotate(-160 365.506 657.425)" fill="#E7D3B6"/>
<circle cx="403.831" cy="667.604" r="12.4956" transform="rotate(-170 403.831 667.604)" fill="#E7D3B6"/>
<circle cx="443.327" cy="670.955" r="12.4956" transform="rotate(180 443.327 670.955)" fill="#E7D3B6"/>
<circle cx="482.925" cy="667.489" r="12.4956" transform="rotate(170 482.925 667.489)" fill="#E7D3B6"/>
<circle cx="521.291" cy="657.199" r="12.4956" transform="rotate(160 521.291 657.199)" fill="#E7D3B6"/>
<circle cx="557.28" cy="640.398" r="12.4956" transform="rotate(150 557.28 640.398)" fill="#E7D3B6"/>
<circle cx="589.773" cy="617.594" r="12.4956" transform="rotate(140 589.773 617.594)" fill="#E7D3B6"/>
<circle cx="617.812" cy="589.483" r="12.4956" transform="rotate(130 617.812 589.483)" fill="#E7D3B6"/>
<circle cx="640.523" cy="556.917" r="12.4956" transform="rotate(120 640.523 556.917)" fill="#E7D3B6"/>
<circle cx="658.185" cy="521.144" r="12.4956" transform="rotate(110 658.185 521.144)" fill="#E7D3B6"/>
<circle cx="668.272" cy="482.614" r="12.4956" transform="rotate(100 668.272 482.614)" fill="#E7D3B6"/>
<circle cx="671.502" cy="442.878" r="12.4956" transform="rotate(90 671.502 442.878)" fill="#E7D3B6"/>
<circle cx="668.03" cy="403.387" r="12.4956" transform="rotate(80 668.03 403.387)" fill="#E7D3B6"/>
<circle cx="657.706" cy="365.095" r="12.4956" transform="rotate(70 657.706 365.095)" fill="#E7D3B6"/>
<circle cx="640.846" cy="329.168" r="12.4956" transform="rotate(60 640.846 329.168)" fill="#E7D3B6"/>
<circle cx="617.966" cy="296.695" r="12.4956" transform="rotate(50 617.966 296.695)" fill="#E7D3B6"/>
<circle cx="589.761" cy="268.664" r="12.4956" transform="rotate(40 589.761 268.664)" fill="#E7D3B6"/>
<circle cx="557.087" cy="245.926" r="12.4956" transform="rotate(30 557.087 245.926)" fill="#E7D3B6"/>
<circle cx="520.935" cy="229.173" r="12.4956" transform="rotate(20 520.935 229.173)" fill="#E7D3B6"/>
<circle cx="482.411" cy="218.913" r="12.4956" transform="rotate(10 482.411 218.913)" fill="#E7D3B6"/>
<circle cx="442.669" cy="215.458" r="12.4956" fill="#E7D3B6"/>
<circle cx="373.411" cy="191.351" r="11.246" transform="rotate(-15 373.411 191.351)" fill="#E7D3B6"/>
<circle cx="330.76" cy="207.479" r="11.246" transform="rotate(-25 330.76 207.479)" fill="#E7D3B6"/>
<circle cx="291.51" cy="230.759" r="11.246" transform="rotate(-35 291.51 230.759)" fill="#E7D3B6"/>
<circle cx="256.856" cy="260.484" r="11.246" transform="rotate(-45 256.856 260.484)" fill="#E7D3B6"/>
<circle cx="227.842" cy="295.751" r="11.246" transform="rotate(-55 227.842 295.751)" fill="#E7D3B6"/>
<circle cx="205.365" cy="335.489" r="11.246" transform="rotate(-65 205.365 335.489)" fill="#E7D3B6"/>
<circle cx="190.036" cy="377.933" r="11.246" transform="rotate(-75 190.036 377.933)" fill="#E7D3B6"/>
<circle cx="182.445" cy="422.863" r="11.246" transform="rotate(-85 182.445 422.863)" fill="#E7D3B6"/>
<circle cx="182.763" cy="468.402" r="11.246" transform="rotate(-95 182.763 468.402)" fill="#E7D3B6"/>
<circle cx="191.154" cy="513.324" r="11.246" transform="rotate(-105 191.154 513.324)" fill="#E7D3B6"/>
<circle cx="207.19" cy="556.107" r="11.246" transform="rotate(-115 207.19 556.107)" fill="#E7D3B6"/>
<circle cx="230.379" cy="595.448" r="11.246" transform="rotate(-125 230.379 595.448)" fill="#E7D3B6"/>
<circle cx="260.021" cy="630.154" r="11.246" transform="rotate(-135 260.021 630.154)" fill="#E7D3B6"/>
<circle cx="295.218" cy="659.171" r="11.246" transform="rotate(-145 295.218 659.171)" fill="#E7D3B6"/>
<circle cx="334.895" cy="681.614" r="11.246" transform="rotate(-155 334.895 681.614)" fill="#E7D3B6"/>
<circle cx="377.837" cy="696.805" r="11.246" transform="rotate(-165 377.837 696.805)" fill="#E7D3B6"/>
<circle cx="422.76" cy="704.279" r="11.246" transform="rotate(-175 422.76 704.279)" fill="#E7D3B6"/>
<circle cx="468.28" cy="703.812" r="11.246" transform="rotate(175 468.28 703.812)" fill="#E7D3B6"/>
<circle cx="513.225" cy="695.576" r="11.246" transform="rotate(165 513.225 695.576)" fill="#E7D3B6"/>
<circle cx="556.013" cy="679.661" r="11.246" transform="rotate(155 556.013 679.661)" fill="#E7D3B6"/>
<circle cx="595.364" cy="656.554" r="11.246" transform="rotate(145 595.364 656.554)" fill="#E7D3B6"/>
<circle cx="630.072" cy="626.951" r="11.246" transform="rotate(135 630.072 626.951)" fill="#E7D3B6"/>
<circle cx="659.091" cy="591.758" r="11.246" transform="rotate(125 659.091 591.758)" fill="#E7D3B6"/>
<circle cx="681.532" cy="552.04" r="11.246" transform="rotate(115 681.532 552.04)" fill="#E7D3B6"/>
<circle cx="696.717" cy="509.005" r="11.246" transform="rotate(105 696.717 509.005)" fill="#E7D3B6"/>
<circle cx="704.179" cy="463.962" r="11.246" transform="rotate(95 704.179 463.962)" fill="#E7D3B6"/>
<circle cx="703.697" cy="418.277" r="11.246" transform="rotate(85 703.697 418.277)" fill="#E7D3B6"/>
<circle cx="695.478" cy="373.501" r="11.246" transform="rotate(75 695.478 373.501)" fill="#E7D3B6"/>
<circle cx="679.571" cy="330.832" r="11.246" transform="rotate(65 679.571 330.832)" fill="#E7D3B6"/>
<circle cx="656.468" cy="291.566" r="11.246" transform="rotate(55 656.468 291.566)" fill="#E7D3B6"/>
<circle cx="626.876" cy="256.899" r="11.246" transform="rotate(45 626.876 256.899)" fill="#E7D3B6"/>
<circle cx="591.676" cy="227.885" r="11.246" transform="rotate(35 591.676 227.885)" fill="#E7D3B6"/>
<circle cx="551.96" cy="205.4" r="11.246" transform="rotate(25 551.96 205.4)" fill="#E7D3B6"/>
<circle cx="508.919" cy="190.132" r="11.246" transform="rotate(15 508.919 190.132)" fill="#E7D3B6"/>
<circle cx="463.86" cy="182.544" r="11.246" transform="rotate(5 463.86 182.544)" fill="#E7D3B6"/>
<circle cx="418.164" cy="182.866" r="11.246" transform="rotate(-5 418.164 182.866)" fill="#E7D3B6"/>
<circle cx="388.009" cy="153.27" r="9.99647" transform="rotate(-10 388.009 153.27)" fill="#E7D3B6"/>
<circle cx="338.51" cy="167.358" r="9.99647" transform="rotate(-20 338.51 167.358)" fill="#E7D3B6"/>
<circle cx="292.181" cy="189.817" r="9.99647" transform="rotate(-30 292.181 189.817)" fill="#E7D3B6"/>
<circle cx="250.431" cy="219.966" r="9.99647" transform="rotate(-40 250.431 219.966)" fill="#E7D3B6"/>
<circle cx="214.516" cy="256.588" r="9.99647" transform="rotate(-50 214.516 256.588)" fill="#E7D3B6"/>
<circle cx="185.532" cy="299.123" r="9.99647" transform="rotate(-60 185.532 299.123)" fill="#E7D3B6"/>
<circle cx="164.365" cy="346.025" r="9.99647" transform="rotate(-70 164.365 346.025)" fill="#E7D3B6"/>
<circle cx="151.649" cy="395.87" r="9.99647" transform="rotate(-80 151.649 395.87)" fill="#E7D3B6"/>
<circle cx="147.779" cy="447.143" r="9.99647" transform="rotate(-90 147.779 447.143)" fill="#E7D3B6"/>
<circle cx="153.001" cy="498.417" r="9.99647" transform="rotate(-100 153.001 498.417)" fill="#E7D3B6"/>
<circle cx="167.021" cy="548.003" r="9.99647" transform="rotate(-110 167.021 548.003)" fill="#E7D3B6"/>
<circle cx="189.419" cy="594.395" r="9.99647" transform="rotate(-120 189.419 594.395)" fill="#E7D3B6"/>
<circle cx="218.89" cy="634.819" r="9.99647" transform="rotate(-130 218.89 634.819)" fill="#E7D3B6"/>
<circle cx="255.649" cy="670.735" r="9.99647" transform="rotate(-140 255.649 670.735)" fill="#E7D3B6"/>
<circle cx="298.921" cy="701.047" r="9.99647" transform="rotate(-150 298.921 701.047)" fill="#E7D3B6"/>
<circle cx="345.827" cy="722.154" r="9.99647" transform="rotate(-160 345.827 722.154)" fill="#E7D3B6"/>
<circle cx="395.667" cy="734.774" r="9.99647" transform="rotate(-170 395.667 734.774)" fill="#E7D3B6"/>
<circle cx="446.936" cy="738.526" r="9.99647" transform="rotate(180 446.936 738.526)" fill="#E7D3B6"/>
<circle cx="497.097" cy="732.469" r="9.99647" transform="rotate(170 497.097 732.469)" fill="#E7D3B6"/>
<circle cx="546.56" cy="718.584" r="9.99647" transform="rotate(160 546.56 718.584)" fill="#E7D3B6"/>
<circle cx="592.874" cy="696.32" r="9.99647" transform="rotate(150 592.874 696.32)" fill="#E7D3B6"/>
<circle cx="634.616" cy="666.356" r="9.99647" transform="rotate(140 634.616 666.356)" fill="#E7D3B6"/>
<circle cx="670.53" cy="629.602" r="9.99647" transform="rotate(130 670.53 629.602)" fill="#E7D3B6"/>
<circle cx="699.518" cy="587.173" r="9.99647" transform="rotate(120 699.518 587.173)" fill="#E7D3B6"/>
<circle cx="720.709" cy="540.36" r="9.99647" transform="rotate(110 720.709 540.36)" fill="#E7D3B6"/>
<circle cx="733.444" cy="490.587" r="9.99647" transform="rotate(100 733.444 490.587)" fill="#E7D3B6"/>
<circle cx="737.358" cy="439.362" r="9.99647" transform="rotate(90 737.358 439.362)" fill="#E7D3B6"/>
<circle cx="732.268" cy="388.207" r="9.99647" transform="rotate(80 732.268 388.207)" fill="#E7D3B6"/>
<circle cx="718.381" cy="338.714" r="9.99647" transform="rotate(70 718.381 338.714)" fill="#E7D3B6"/>
<circle cx="696.112" cy="292.387" r="9.99647" transform="rotate(60 696.112 292.387)" fill="#E7D3B6"/>
<circle cx="666.145" cy="250.629" r="9.99647" transform="rotate(50 666.145 250.629)" fill="#E7D3B6"/>
<circle cx="629.398" cy="214.715" r="9.99647" transform="rotate(40 629.398 214.715)" fill="#E7D3B6"/>
<circle cx="586.97" cy="185.733" r="9.99647" transform="rotate(30 586.97 185.733)" fill="#E7D3B6"/>
<circle cx="540.162" cy="164.564" r="9.99647" transform="rotate(20 540.162 164.564)" fill="#E7D3B6"/>
<circle cx="490.388" cy="151.852" r="9.99647" transform="rotate(10 490.388 151.852)" fill="#E7D3B6"/>
<circle cx="439.158" cy="147.981" r="9.99647" fill="#E7D3B6"/>
<circle cx="352.513" cy="126.765" r="8.74691" transform="rotate(-15 352.513 126.765)" fill="#E7D3B6"/>
<circle cx="298.994" cy="147.182" r="8.74691" transform="rotate(-25 298.994 147.182)" fill="#E7D3B6"/>
<circle cx="249.842" cy="176.58" r="8.74691" transform="rotate(-35 249.842 176.58)" fill="#E7D3B6"/>
<circle cx="206.548" cy="214.072" r="8.74691" transform="rotate(-45 206.548 214.072)" fill="#E7D3B6"/>
<circle cx="170.42" cy="258.517" r="8.74691" transform="rotate(-55 170.42 258.517)" fill="#E7D3B6"/>
<circle cx="142.576" cy="308.563" r="8.74691" transform="rotate(-65 142.576 308.563)" fill="#E7D3B6"/>
<circle cx="123.848" cy="362.689" r="8.74691" transform="rotate(-75 123.848 362.689)" fill="#E7D3B6"/>
<circle cx="114.804" cy="419.252" r="8.74691" transform="rotate(-85 114.804 419.252)" fill="#E7D3B6"/>
<circle cx="115.716" cy="476.533" r="8.74691" transform="rotate(-95 115.716 476.533)" fill="#E7D3B6"/>
<circle cx="126.525" cy="532.754" r="8.74691" transform="rotate(-105 126.525 532.754)" fill="#E7D3B6"/>
<circle cx="146.94" cy="586.243" r="8.74691" transform="rotate(-115 146.94 586.243)" fill="#E7D3B6"/>
<circle cx="178.132" cy="639.208" r="8.74691" transform="rotate(-125 178.132 639.208)" fill="#E7D3B6"/>
<circle cx="216.044" cy="682.58" r="8.74691" transform="rotate(-135 216.044 682.58)" fill="#E7D3B6"/>
<circle cx="260.847" cy="718.669" r="8.74691" transform="rotate(-145 260.847 718.669)" fill="#E7D3B6"/>
<circle cx="311.176" cy="746.378" r="8.74691" transform="rotate(-155 311.176 746.378)" fill="#E7D3B6"/>
<circle cx="365.494" cy="764.866" r="8.74691" transform="rotate(-165 365.494 764.866)" fill="#E7D3B6"/>
<circle cx="422.158" cy="773.57" r="8.74691" transform="rotate(-175 422.158 773.57)" fill="#E7D3B6"/>
<circle cx="479.41" cy="772.195" r="8.74691" transform="rotate(175 479.41 772.195)" fill="#E7D3B6"/>
<circle cx="536.076" cy="761.265" r="8.74691" transform="rotate(165 536.076 761.265)" fill="#E7D3B6"/>
<circle cx="589.907" cy="740.663" r="8.74691" transform="rotate(155 589.907 740.663)" fill="#E7D3B6"/>
<circle cx="641.993" cy="712.429" r="8.74691" transform="rotate(145 641.993 712.429)" fill="#E7D3B6"/>
<circle cx="685.436" cy="674.433" r="8.74691" transform="rotate(135 685.436 674.433)" fill="#E7D3B6"/>
<circle cx="721.509" cy="629.404" r="8.74691" transform="rotate(125 721.509 629.404)" fill="#E7D3B6"/>
<circle cx="749.091" cy="578.702" r="8.74691" transform="rotate(115 749.091 578.702)" fill="#E7D3B6"/>
<circle cx="767.374" cy="523.876" r="8.74691" transform="rotate(105 767.374 523.876)" fill="#E7D3B6"/>
<circle cx="775.793" cy="466.591" r="8.74691" transform="rotate(95 775.793 466.591)" fill="#E7D3B6"/>
<circle cx="774.092" cy="408.585" r="8.74691" transform="rotate(85 774.092 408.585)" fill="#E7D3B6"/>
<circle cx="763.174" cy="352.335" r="8.74691" transform="rotate(75 763.174 352.335)" fill="#E7D3B6"/>
<circle cx="742.509" cy="298.838" r="8.74691" transform="rotate(65 742.509 298.838)" fill="#E7D3B6"/>
<circle cx="712.742" cy="249.717" r="8.74691" transform="rotate(55 712.742 249.717)" fill="#E7D3B6"/>
<circle cx="674.775" cy="206.47" r="8.74691" transform="rotate(45 674.775 206.47)" fill="#E7D3B6"/>
<circle cx="629.746" cy="170.401" r="8.74691" transform="rotate(35 629.746 170.401)" fill="#E7D3B6"/>
<circle cx="579.03" cy="142.609" r="8.74691" transform="rotate(25 579.03 142.609)" fill="#E7D3B6"/>
<circle cx="524.173" cy="123.942" r="8.74691" transform="rotate(15 524.173 123.942)" fill="#E7D3B6"/>
<circle cx="466.837" cy="114.966" r="8.74691" transform="rotate(5 466.837 114.966)" fill="#E7D3B6"/>
<circle cx="408.773" cy="115.954" r="8.74691" transform="rotate(-5 408.773 115.954)" fill="#E7D3B6"/>
<circle cx="372.821" cy="88.0964" r="7.49735" transform="rotate(-10 372.821 88.0964)" fill="#E7D3B6"/>
<circle cx="312.131" cy="106.468" r="7.49735" transform="rotate(-20 312.131 106.468)" fill="#E7D3B6"/>
<circle cx="255.399" cy="135.058" r="7.49735" transform="rotate(-30 255.399 135.058)" fill="#E7D3B6"/>
<circle cx="204.36" cy="173.004" r="7.49735" transform="rotate(-40 204.36 173.004)" fill="#E7D3B6"/>
<circle cx="160.567" cy="219.149" r="7.49735" transform="rotate(-50 160.567 219.149)" fill="#E7D3B6"/>
<circle cx="125.333" cy="272.094" r="7.49735" transform="rotate(-60 125.333 272.094)" fill="#E7D3B6"/>
<circle cx="99.752" cy="330.227" r="7.49735" transform="rotate(-70 99.752 330.227)" fill="#E7D3B6"/>
<circle cx="84.5867" cy="391.781" r="7.49735" transform="rotate(-80 84.5867 391.781)" fill="#E7D3B6"/>
<circle cx="80.302" cy="454.889" r="7.49735" transform="rotate(-90 80.302 454.889)" fill="#E7D3B6"/>
<circle cx="87.8916" cy="518.497" r="7.49735" transform="rotate(-100 87.8916 518.497)" fill="#E7D3B6"/>
<circle cx="106.263" cy="579.808" r="7.49735" transform="rotate(-110 106.263 579.808)" fill="#E7D3B6"/>
<circle cx="134.861" cy="636.958" r="7.49735" transform="rotate(-120 134.861 636.958)" fill="#E7D3B6"/>
<circle cx="172.796" cy="688.21" r="7.49735" transform="rotate(-130 172.796 688.21)" fill="#E7D3B6"/>
<circle cx="218.946" cy="732.009" r="7.49735" transform="rotate(-140 218.946 732.009)" fill="#E7D3B6"/>
<circle cx="271.885" cy="767.02" r="7.49735" transform="rotate(-150 271.885 767.02)" fill="#E7D3B6"/>
<circle cx="330.022" cy="792.185" r="7.49735" transform="rotate(-160 330.022 792.185)" fill="#E7D3B6"/>
<circle cx="391.573" cy="806.737" r="7.49735" transform="rotate(-170 391.573 806.737)" fill="#E7D3B6"/>
<circle cx="454.686" cy="810.232" r="7.49735" transform="rotate(180 454.686 810.232)" fill="#E7D3B6"/>
<circle cx="518.296" cy="803.43" r="7.49735" transform="rotate(170 518.296 803.43)" fill="#E7D3B6"/>
<circle cx="577.162" cy="783.885" r="7.49735" transform="rotate(160 577.162 783.885)" fill="#E7D3B6"/>
<circle cx="634.151" cy="755.854" r="7.49735" transform="rotate(150 634.151 755.854)" fill="#E7D3B6"/>
<circle cx="685.328" cy="718.311" r="7.49735" transform="rotate(140 685.328 718.311)" fill="#E7D3B6"/>
<circle cx="729.125" cy="672.399" r="7.49735" transform="rotate(130 729.125 672.399)" fill="#E7D3B6"/>
<circle cx="764.222" cy="619.515" r="7.49735" transform="rotate(120 764.222 619.515)" fill="#E7D3B6"/>
<circle cx="789.541" cy="561.265" r="7.49735" transform="rotate(110 789.541 561.265)" fill="#E7D3B6"/>
<circle cx="804.327" cy="499.415" r="7.49735" transform="rotate(100 804.327 499.415)" fill="#E7D3B6"/>
<circle cx="808.085" cy="435.847" r="7.49735" transform="rotate(90 808.085 435.847)" fill="#E7D3B6"/>
<circle cx="801.312" cy="373.03" r="7.49735" transform="rotate(80 801.312 373.03)" fill="#E7D3B6"/>
<circle cx="783.639" cy="312.334" r="7.49735" transform="rotate(70 783.639 312.334)" fill="#E7D3B6"/>
<circle cx="755.62" cy="255.604" r="7.49735" transform="rotate(60 755.62 255.604)" fill="#E7D3B6"/>
<circle cx="718.075" cy="204.565" r="7.49735" transform="rotate(50 718.075 204.565)" fill="#E7D3B6"/>
<circle cx="672.202" cy="160.766" r="7.49735" transform="rotate(40 672.202 160.766)" fill="#E7D3B6"/>
<circle cx="619.318" cy="125.537" r="7.49735" transform="rotate(30 619.318 125.537)" fill="#E7D3B6"/>
<circle cx="561.06" cy="99.9547" r="7.49735" transform="rotate(20 561.06 99.9547)" fill="#E7D3B6"/>
<circle cx="499.216" cy="84.7896" r="7.49735" transform="rotate(10 499.216 84.7896)" fill="#E7D3B6"/>
<circle cx="435.646" cy="80.5049" r="7.49735" fill="#E7D3B6"/>
<circle cx="331.712" cy="63.1183" r="6.2478" transform="rotate(-15 331.712 63.1183)" fill="#E7D3B6"/>
<circle cx="267.408" cy="88.7346" r="6.2478" transform="rotate(-25 267.408 88.7346)" fill="#E7D3B6"/>
<circle cx="208.425" cy="125.113" r="6.2478" transform="rotate(-35 208.425 125.113)" fill="#E7D3B6"/>
<circle cx="156.553" cy="171.146" r="6.24779" transform="rotate(-45 156.553 171.146)" fill="#E7D3B6"/>
<circle cx="113.382" cy="225.434" r="6.24779" transform="rotate(-55 113.382 225.434)" fill="#E7D3B6"/>
<circle cx="80.213" cy="286.332" r="6.2478" transform="rotate(-65 80.213 286.332)" fill="#E7D3B6"/>
<circle cx="58.0636" cy="351.984" r="6.2478" transform="rotate(-75 58.0636 351.984)" fill="#E7D3B6"/>
<circle cx="47.5937" cy="420.398" r="6.2478" transform="rotate(-85 47.5937 420.398)" fill="#E7D3B6"/>
<circle cx="49.1185" cy="489.496" r="6.24779" transform="rotate(-95 49.1185 489.496)" fill="#E7D3B6"/>
<circle cx="63.2518" cy="557.707" r="6.2478" transform="rotate(-105 63.2518 557.707)" fill="#E7D3B6"/>
<circle cx="88.9053" cy="622.429" r="6.2478" transform="rotate(-115 88.9053 622.429)" fill="#E7D3B6"/>
<circle cx="124.758" cy="680.524" r="6.2478" transform="rotate(-125 124.758 680.524)" fill="#E7D3B6"/>
<circle cx="170.682" cy="732.508" r="6.24779" transform="rotate(-135 170.682 732.508)" fill="#E7D3B6"/>
<circle cx="224.855" cy="775.688" r="6.24779" transform="rotate(-145 224.855 775.688)" fill="#E7D3B6"/>
<circle cx="285.649" cy="808.759" r="6.2478" transform="rotate(-155 285.649 808.759)" fill="#E7D3B6"/>
<circle cx="351.221" cy="830.711" r="6.2478" transform="rotate(-165 351.221 830.711)" fill="#E7D3B6"/>
<circle cx="419.576" cy="840.88" r="6.2478" transform="rotate(-175 419.576 840.88)" fill="#E7D3B6"/>
<circle cx="488.625" cy="838.957" r="6.24779" transform="rotate(175 488.625 838.957)" fill="#E7D3B6"/>
<circle cx="556.741" cy="825.386" r="6.2478" transform="rotate(165 556.741 825.386)" fill="#E7D3B6"/>
<circle cx="621.392" cy="800.196" r="6.2478" transform="rotate(155 621.392 800.196)" fill="#E7D3B6"/>
<circle cx="680.611" cy="764.147" r="6.2478" transform="rotate(145 680.611 764.147)" fill="#E7D3B6"/>
<circle cx="732.608" cy="718.335" r="6.24779" transform="rotate(135 732.608 718.335)" fill="#E7D3B6"/>
<circle cx="775.782" cy="664.156" r="6.24779" transform="rotate(125 775.782 664.156)" fill="#E7D3B6"/>
<circle cx="808.846" cy="603.252" r="6.2478" transform="rotate(115 808.846 603.252)" fill="#E7D3B6"/>
<circle cx="830.784" cy="537.476" r="6.2478" transform="rotate(105 830.784 537.476)" fill="#E7D3B6"/>
<circle cx="840.926" cy="468.825" r="6.2478" transform="rotate(95 840.926 468.825)" fill="#E7D3B6"/>
<circle cx="838.963" cy="399.384" r="6.24779" transform="rotate(85 838.963 399.384)" fill="#E7D3B6"/>
<circle cx="825.432" cy="331.657" r="6.2478" transform="rotate(75 825.432 331.657)" fill="#E7D3B6"/>
<circle cx="800.267" cy="267.308" r="6.2478" transform="rotate(65 800.267 267.308)" fill="#E7D3B6"/>
<circle cx="764.242" cy="208.295" r="6.2478" transform="rotate(55 764.242 208.295)" fill="#E7D3B6"/>
<circle cx="718.432" cy="156.407" r="6.24779" transform="rotate(45 718.432 156.407)" fill="#E7D3B6"/>
<circle cx="664.252" cy="113.224" r="6.24779" transform="rotate(35 664.252 113.224)" fill="#E7D3B6"/>
<circle cx="603.34" cy="80.056" r="6.2478" transform="rotate(25 603.34 80.056)" fill="#E7D3B6"/>
<circle cx="537.545" cy="57.9144" r="6.2478" transform="rotate(15 537.545 57.9144)" fill="#E7D3B6"/>
<circle cx="468.869" cy="47.47" r="6.2478" transform="rotate(5 468.869 47.47)" fill="#E7D3B6"/>
<circle cx="399.398" cy="49.0406" r="6.24779" transform="rotate(-5 399.398 49.0406)" fill="#E7D3B6"/>
</svg>
