<svg width="815" height="573" viewBox="0 0 815 573" fill="none" xmlns="http://www.w3.org/2000/svg">
<path d="M792.003 177L792.756 177.658L792.003 177ZM111.003 379.5L111.25 380.469L111.003 379.5ZM19.5 534L20.3015 533.402L19.5 534ZM246.502 556L235.297 553.211L238.484 564.31L246.502 556ZM231.948 558.815C228.865 559.537 225.63 560.243 222.261 560.926L222.659 562.886C226.046 562.199 229.301 561.489 232.404 560.763L231.948 558.815ZM212.57 562.762C209.397 563.322 206.135 563.859 202.795 564.369L203.097 566.346C206.452 565.834 209.729 565.294 212.918 564.731L212.57 562.762ZM192.997 565.756C189.778 566.176 186.504 566.569 183.185 566.931L183.402 568.919C186.735 568.556 190.023 568.161 193.256 567.739L192.997 565.756ZM173.34 567.899C170.079 568.184 166.787 568.438 163.473 568.656L163.604 570.652C166.933 570.433 170.24 570.178 173.514 569.891L173.34 567.899ZM153.592 569.197C150.308 569.34 147.01 569.446 143.708 569.511L143.748 571.511C147.066 571.445 150.379 571.339 153.679 571.195L153.592 569.197ZM133.82 569.585C130.518 569.567 127.219 569.506 123.934 569.399L123.869 571.398C127.173 571.506 130.489 571.567 133.81 571.585L133.82 569.585ZM114.061 568.932C110.753 568.725 107.468 568.466 104.215 568.154L104.024 570.145C107.3 570.46 110.607 570.72 113.936 570.928L114.061 568.932ZM94.4138 567.03C91.1106 566.587 87.8522 566.081 84.6488 565.51L84.2978 567.479C87.5311 568.056 90.8179 568.565 94.1479 569.012L94.4138 567.03ZM74.9788 563.542C71.7265 562.792 68.5478 561.965 65.4544 561.057L64.8909 562.976C68.0247 563.896 71.2417 564.733 74.5296 565.491L74.9788 563.542ZM56.1148 557.962C52.9738 556.792 49.9479 555.521 47.0521 554.146L46.194 555.952C49.1463 557.354 52.2257 558.647 55.4165 559.836L56.1148 557.962ZM38.4445 549.501C35.5965 547.755 32.9227 545.878 30.4418 543.863L29.1812 545.416C31.7359 547.49 34.4823 549.417 37.399 551.206L38.4445 549.501ZM23.3814 537.165C22.2952 535.951 21.2677 534.697 20.3015 533.402L18.6985 534.598C19.7011 535.942 20.7663 537.242 21.8909 538.498L23.3814 537.165ZM20.3015 533.402C19.3122 532.076 18.3687 530.749 17.47 529.421L15.8137 530.542C16.7299 531.896 17.6913 533.248 18.6985 534.598L20.3015 533.402ZM12.462 521.176C10.8836 518.249 9.51461 515.322 8.3464 512.401L6.48937 513.144C7.68665 516.138 9.08816 519.133 10.7016 522.126L12.462 521.176ZM5.3299 503.257C4.50183 500.081 3.90272 496.917 3.5218 493.77L1.5363 494.011C1.92809 497.247 2.54407 500.5 3.39462 503.761L5.3299 503.257ZM3.02664 484.151C3.08406 480.923 3.36539 477.72 3.85916 474.547L1.88295 474.239C1.37544 477.5 1.08603 480.795 1.02696 484.116L3.02664 484.151ZM5.96439 465.135C6.8611 462.065 7.9545 459.032 9.23372 456.043L7.39495 455.256C6.08543 458.317 4.96464 461.425 4.04464 464.574L5.96439 465.135ZM13.5224 447.378C15.0873 444.601 16.813 441.869 18.6898 439.189L17.0516 438.042C15.1389 440.773 13.3782 443.56 11.78 446.397L13.5224 447.378ZM24.6024 431.504C26.6566 429.061 28.8384 426.67 31.1395 424.337L29.7155 422.932C27.3786 425.302 25.1609 427.732 23.0715 430.217L24.6024 431.504ZM38.208 417.677C40.6167 415.565 43.1262 413.51 45.729 411.517L44.5133 409.929C41.8762 411.948 39.3323 414.031 36.8893 416.174L38.208 417.677ZM53.6243 405.855C56.2922 404.063 59.0394 402.332 61.8592 400.666L60.8422 398.944C57.9896 400.629 55.2096 402.38 52.5089 404.195L53.6243 405.855ZM70.3686 395.955C73.2265 394.473 76.1462 393.057 79.1216 391.709L78.2964 389.887C75.2891 391.249 72.3377 392.681 69.4481 394.179L70.3686 395.955ZM88.092 387.922C91.0966 386.743 94.1485 385.633 97.2422 384.595L96.6062 382.699C93.4808 383.747 90.3973 384.869 87.3615 386.06L88.092 387.922ZM106.542 381.73C108.103 381.291 109.672 380.871 111.25 380.469L110.756 378.531C109.163 378.937 107.577 379.361 106.001 379.805L106.542 381.73ZM111.25 380.469C112.795 380.076 114.368 379.701 115.967 379.345L115.532 377.392C113.914 377.753 112.322 378.132 110.756 378.531L111.25 380.469ZM125.748 377.438C128.933 376.899 132.207 376.418 135.569 375.988L135.316 374.004C131.93 374.437 128.628 374.922 125.414 375.466L125.748 377.438ZM145.386 374.899C148.632 374.59 151.948 374.32 155.334 374.086L155.196 372.091C151.795 372.326 148.46 372.597 145.196 372.908L145.386 374.899ZM165.277 373.504C168.519 373.346 171.818 373.215 175.172 373.106L175.108 371.107C171.744 371.216 168.434 371.348 165.179 371.506L165.277 373.504ZM185.21 372.85C188.457 372.787 191.751 372.742 195.089 372.71L195.07 370.71C191.726 370.742 188.426 370.787 185.172 370.85L185.21 372.85ZM205.086 372.657C208.361 372.651 211.676 372.656 215.03 372.669L215.038 370.669C211.681 370.656 208.362 370.651 205.082 370.657L205.086 372.657ZM224.997 372.728C228.288 372.753 231.614 372.783 234.973 372.816L234.993 370.817C231.633 370.783 228.306 370.753 225.012 370.728L224.997 372.728ZM244.925 372.92C248.225 372.955 251.555 372.991 254.913 373.026L254.934 371.026C251.576 370.991 248.247 370.955 244.946 370.92L244.925 372.92ZM264.864 373.121C268.168 373.15 271.497 373.176 274.851 373.197L274.864 371.197C271.512 371.176 268.184 371.15 264.882 371.121L264.864 373.121ZM284.812 373.243C288.115 373.253 291.442 373.256 294.789 373.251L294.786 371.251C291.442 371.256 288.118 371.253 284.817 371.243L284.812 373.243ZM304.766 373.211C308.068 373.189 311.389 373.158 314.729 373.117L314.705 371.117C311.368 371.158 308.051 371.189 304.753 371.211L304.766 373.211ZM324.725 372.96C328.024 372.897 331.339 372.823 334.671 372.735L334.618 370.736C331.292 370.823 327.981 370.898 324.687 370.96L324.725 372.96ZM344.686 372.433C347.98 372.321 351.288 372.194 354.611 372.053L354.526 370.055C351.209 370.196 347.906 370.322 344.618 370.435L344.686 372.433ZM364.621 371.581C367.916 371.41 371.223 371.224 374.543 371.02L374.42 369.024C371.107 369.227 367.806 369.413 364.518 369.584L364.621 371.581ZM384.517 370.357C387.82 370.12 391.134 369.865 394.459 369.591L394.295 367.598C390.977 367.871 387.67 368.126 384.374 368.362L384.517 370.357ZM404.393 368.716C407.702 368.406 411.02 368.075 414.348 367.724L414.137 365.735C410.818 366.086 407.507 366.415 404.206 366.725L404.393 368.716ZM424.236 366.618C427.541 366.228 430.855 365.815 434.176 365.38L433.916 363.397C430.604 363.831 427.299 364.242 424.002 364.632L424.236 366.618ZM444.031 364.023C447.317 363.549 450.61 363.05 453.91 362.528L453.597 360.552C450.307 361.074 447.023 361.57 443.746 362.044L444.031 364.023ZM463.761 360.896C467.025 360.332 470.294 359.743 473.569 359.127L473.2 357.162C469.935 357.775 466.674 358.363 463.42 358.925L463.761 360.896ZM483.406 357.203C486.643 356.544 489.885 355.859 493.131 355.147L492.703 353.193C489.467 353.903 486.235 354.586 483.007 355.243L483.406 357.203ZM502.88 352.927C506.109 352.165 509.34 351.375 512.575 350.556L512.084 348.617C508.86 349.433 505.639 350.221 502.421 350.98L502.88 352.927ZM522.22 348.031C525.437 347.16 528.656 346.26 531.877 345.329L531.322 343.408C528.112 344.335 524.903 345.232 521.697 346.1L522.22 348.031ZM541.4 342.49C544.576 341.513 547.754 340.507 550.931 339.468L550.31 337.567C547.144 338.602 543.978 339.605 540.813 340.578L541.4 342.49ZM560.398 336.283C563.526 335.199 566.654 334.085 569.782 332.938L569.094 331.06C565.977 332.203 562.86 333.313 559.743 334.393L560.398 336.283ZM579.165 329.4C582.246 328.206 585.326 326.98 588.405 325.722L587.648 323.87C584.58 325.124 581.512 326.346 578.442 327.535L579.165 329.4ZM597.614 321.857C600.67 320.54 603.725 319.191 606.778 317.807L605.952 315.986C602.911 317.364 599.868 318.708 596.823 320.02L597.614 321.857ZM615.791 313.62C618.793 312.191 621.793 310.728 624.79 309.23L623.896 307.441C620.911 308.933 617.922 310.39 614.931 311.814L615.791 313.62ZM633.676 304.683C636.604 303.149 639.529 301.582 642.451 299.979L641.49 298.226C638.579 299.822 635.665 301.383 632.748 302.911L633.676 304.683ZM651.206 295.068C654.069 293.425 656.928 291.748 659.783 290.037L658.755 288.321C655.911 290.026 653.062 291.697 650.21 293.333L651.206 295.068ZM668.287 284.828C671.117 283.057 673.943 281.25 676.764 279.408L675.671 277.734C672.861 279.569 670.046 281.368 667.226 283.132L668.287 284.828ZM685.009 273.913C687.748 272.05 690.482 270.153 693.211 268.22L692.055 266.588C689.337 268.513 686.613 270.404 683.885 272.26L685.009 273.913ZM701.373 262.322C704.014 260.375 706.649 258.395 709.279 256.38L708.063 254.792C705.443 256.8 702.817 258.773 700.186 260.712L701.373 262.322ZM717.153 250.231C719.767 248.15 722.375 246.035 724.977 243.884L723.703 242.343C721.11 244.486 718.512 246.593 715.908 248.666L717.153 250.231ZM732.537 237.52C735.051 235.365 737.559 233.176 740.06 230.952L738.732 229.458C736.239 231.673 733.74 233.854 731.235 236.002L732.537 237.52ZM747.546 224.178C749.951 221.962 752.351 219.712 754.745 217.43L753.364 215.982C750.979 218.257 748.588 220.499 746.19 222.707L747.546 224.178ZM761.901 210.486C764.28 208.138 766.652 205.756 769.018 203.341L767.589 201.941C765.231 204.349 762.867 206.723 760.496 209.063L761.901 210.486ZM775.887 196.208C778.154 193.815 780.413 191.391 782.666 188.934L781.192 187.583C778.947 190.031 776.694 192.448 774.435 194.832L775.887 196.208ZM789.403 181.466C790.523 180.205 791.64 178.935 792.756 177.658L791.249 176.342C790.137 177.616 789.023 178.881 787.908 180.138L789.403 181.466ZM792.756 177.658C793.871 176.381 794.937 175.1 795.955 173.815L794.387 172.573C793.389 173.832 792.344 175.089 791.249 176.342L792.756 177.658ZM801.668 165.793C803.481 162.935 805.072 160.064 806.455 157.185L804.652 156.319C803.304 159.126 801.751 161.928 799.979 164.721L801.668 165.793ZM810.155 148.03C811.21 144.835 812.026 141.636 812.621 138.441L810.655 138.075C810.076 141.183 809.282 144.294 808.255 147.403L810.155 148.03ZM813.772 128.627C813.937 125.319 813.883 122.024 813.629 118.749L811.635 118.903C811.882 122.098 811.935 125.308 811.774 128.527L813.772 128.627ZM812.286 108.969C811.656 105.751 810.848 102.56 809.883 99.4024L807.97 99.9871C808.916 103.083 809.707 106.207 810.324 109.354L812.286 108.969ZM806.571 90.1262C805.338 87.101 803.973 84.1142 802.495 81.1721L800.708 82.0702C802.164 84.9685 803.507 87.9075 804.719 90.881L806.571 90.1262ZM797.773 72.5461C796.106 69.7293 794.345 66.9619 792.51 64.2502L790.854 65.3712C792.668 68.0515 794.406 70.7848 796.052 73.5649L797.773 72.5461ZM786.785 56.2715C784.798 53.6507 782.752 51.0926 780.667 48.6037L779.134 49.8881C781.2 52.3536 783.225 54.8863 785.192 57.48L786.785 56.2715ZM774.197 41.2267C771.952 38.7776 769.684 36.4109 767.414 34.1339L765.997 35.5459C768.248 37.804 770.497 40.1506 772.723 42.5782L774.197 41.2267ZM760.367 27.346C757.883 25.0473 755.423 22.8666 753.015 20.8138L751.717 22.3358C754.105 24.3713 756.545 26.534 759.009 28.814L760.367 27.346ZM745.421 14.6142C742.656 12.4563 740.013 10.5045 737.546 8.77713L736.399 10.4156C738.837 12.122 741.451 14.0531 744.191 16.191L745.421 14.6142ZM729.245 3.40667C727.644 2.47109 726.195 1.69668 724.929 1.09638L724.072 2.90362C725.274 3.47338 726.671 4.21896 728.237 5.13358L729.245 3.40667ZM792.003 177L793.509 178.316L792.003 177ZM111.003 379.5L111.497 381.438L111.003 379.5ZM19.5 534L21.1029 532.804L19.5 534ZM246.502 556L224.091 550.422L230.466 572.619L246.502 556ZM231.72 557.841C228.647 558.561 225.422 559.265 222.063 559.946L222.858 563.867C226.254 563.178 229.519 562.465 232.632 561.736L231.72 557.841ZM212.396 561.777C209.231 562.336 205.976 562.872 202.644 563.381L203.248 567.335C206.61 566.821 209.896 566.28 213.092 565.716L212.396 561.777ZM192.867 564.765C189.655 565.184 186.388 565.576 183.077 565.937L183.51 569.913C186.85 569.549 190.145 569.154 193.385 568.731L192.867 564.765ZM173.253 566.903C169.999 567.188 166.714 567.441 163.407 567.659L163.67 571.65C167.007 571.43 170.32 571.175 173.602 570.887L173.253 566.903ZM153.549 568.198C150.272 568.341 146.982 568.446 143.689 568.511L143.768 572.511C147.094 572.445 150.415 572.338 153.722 572.194L153.549 568.198ZM133.826 568.585C130.532 568.567 127.242 568.506 123.967 568.4L123.836 572.398C127.15 572.506 130.475 572.567 133.804 572.585L133.826 568.585ZM114.124 567.934C110.826 567.727 107.552 567.47 104.311 567.158L103.928 571.14C107.216 571.456 110.534 571.717 113.874 571.926L114.124 567.934ZM94.5467 566.039C91.2569 565.597 88.0128 565.094 84.8243 564.526L84.1222 568.464C87.3706 569.043 90.6716 569.555 94.0149 570.003L94.5467 566.039ZM75.2034 562.567C71.969 561.822 68.8093 561 65.7361 560.098L64.6091 563.935C67.7632 564.862 70.9993 565.703 74.305 566.465L75.2034 562.567ZM56.464 557.025C53.3478 555.864 50.3488 554.604 47.4811 553.242L45.765 556.856C48.7454 558.271 51.8517 559.575 55.0674 560.773L56.464 557.025ZM38.9672 548.648C36.1535 546.923 33.5161 545.071 31.0721 543.087L28.5509 546.193C31.1425 548.297 33.9252 550.249 36.8763 552.058L38.9672 548.648ZM24.1266 536.498C23.0597 535.306 22.051 534.075 21.1029 532.804L17.897 535.196C18.9178 536.564 20.0019 537.887 21.1457 539.165L24.1266 536.498ZM21.1029 532.804C20.1227 531.49 19.1881 530.176 18.2981 528.861L14.9856 531.103C15.9105 532.47 16.8808 533.834 17.897 535.196L21.1029 532.804ZM13.3422 520.702C11.7814 517.807 10.4286 514.915 9.27492 512.03L5.56086 513.515C6.77266 516.545 8.19043 519.575 9.82137 522.6L13.3422 520.702ZM6.29754 503.004C5.48071 499.872 4.89004 496.752 4.51456 493.65L0.543546 494.131C0.940775 497.412 1.56519 500.709 2.42697 504.014L6.29754 503.004ZM4.02649 484.169C4.08308 480.988 4.36037 477.829 4.84726 474.701L0.89484 474.086C0.38047 477.391 0.087014 480.731 0.0271187 484.098L4.02649 484.169ZM6.92427 465.415C7.80934 462.386 8.88903 459.39 10.1531 456.436L6.47557 454.862C5.15089 457.959 4.0164 461.105 3.08477 464.293L6.92427 465.415ZM14.3937 447.869C15.9419 445.121 17.65 442.417 19.5089 439.763L16.2325 437.468C14.3019 440.225 12.5237 443.039 10.9087 445.906L14.3937 447.869ZM25.3679 432.148C27.4044 429.725 29.5683 427.354 31.8515 425.039L29.0035 422.23C26.6487 424.618 24.4131 427.067 22.306 429.574L25.3679 432.148ZM38.8674 418.429C41.2589 416.332 43.7512 414.291 46.3369 412.311L43.9054 409.135C41.2512 411.167 38.6901 413.264 36.23 415.422L38.8674 418.429ZM54.182 406.685C56.8335 404.904 59.5643 403.183 62.3677 401.527L60.3337 398.083C57.4647 399.777 54.6683 401.539 51.9512 403.365L54.182 406.685ZM70.8289 396.843C73.6709 395.369 76.5747 393.96 79.5342 392.62L77.8838 388.976C74.8606 390.346 71.8933 391.785 68.9879 393.292L70.8289 396.843ZM88.4573 388.852C91.4462 387.68 94.4824 386.575 97.5603 385.543L96.2882 381.751C93.1469 382.804 90.0477 383.931 86.9962 385.129L88.4573 388.852ZM106.813 382.693C108.366 382.256 109.927 381.838 111.497 381.438L110.51 377.562C108.908 377.97 107.315 378.397 105.73 378.842L106.813 382.693ZM111.497 381.438C113.032 381.047 114.595 380.675 116.185 380.321L115.314 376.416C113.687 376.779 112.085 377.161 110.51 377.562L111.497 381.438ZM125.915 378.424C129.085 377.888 132.346 377.408 135.696 376.98L135.189 373.012C131.791 373.447 128.476 373.934 125.247 374.48L125.915 378.424ZM145.481 375.895C148.717 375.587 152.025 375.318 155.403 375.083L155.127 371.093C151.718 371.329 148.375 371.601 145.101 371.913L145.481 375.895ZM165.325 374.503C168.562 374.345 171.856 374.214 175.205 374.106L175.076 370.108C171.707 370.217 168.391 370.349 165.131 370.507L165.325 374.503ZM185.23 373.85C188.473 373.787 191.763 373.741 195.098 373.71L195.061 369.71C191.714 369.742 188.41 369.787 185.153 369.85L185.23 373.85ZM205.087 373.657C208.361 373.651 211.674 373.656 215.026 373.669L215.041 369.669C211.683 369.656 208.362 369.651 205.081 369.657L205.087 373.657ZM224.989 373.728C228.28 373.753 231.605 373.783 234.963 373.816L235.003 369.817C231.642 369.784 228.314 369.753 225.019 369.728L224.989 373.728ZM244.914 373.92C248.214 373.955 251.545 373.991 254.903 374.026L254.944 370.026C251.587 369.991 248.258 369.955 244.957 369.92L244.914 373.92ZM264.855 374.121C268.16 374.15 271.49 374.176 274.845 374.197L274.87 370.197C271.519 370.176 268.192 370.151 264.891 370.122L264.855 374.121ZM284.809 374.243C288.114 374.253 291.441 374.256 294.791 374.251L294.785 370.251C291.442 370.256 288.12 370.253 284.82 370.243L284.809 374.243ZM304.772 374.211C308.076 374.189 311.4 374.158 314.742 374.117L314.692 370.117C311.358 370.158 308.042 370.189 304.746 370.211L304.772 374.211ZM324.744 373.96C328.045 373.897 331.363 373.823 334.697 373.735L334.592 369.736C331.268 369.824 327.96 369.898 324.668 369.96L324.744 373.96ZM344.72 373.433C348.017 373.32 351.328 373.194 354.653 373.052L354.483 369.056C351.169 369.197 347.869 369.323 344.584 369.435L344.72 373.433ZM364.673 372.58C367.97 372.409 371.281 372.222 374.604 372.018L374.359 368.026C371.049 368.229 367.751 368.415 364.466 368.585L364.673 372.58ZM384.589 371.354C387.895 371.117 391.212 370.862 394.541 370.588L394.212 366.601C390.898 366.874 387.595 367.128 384.303 367.364L384.589 371.354ZM404.487 369.712C407.799 369.401 411.121 369.07 414.453 368.718L414.032 364.74C410.717 365.091 407.41 365.42 404.113 365.729L404.487 369.712ZM424.354 367.611C427.663 367.22 430.98 366.808 434.306 366.372L433.786 362.406C430.478 362.839 427.177 363.25 423.885 363.638L424.354 367.611ZM444.174 365.013C447.465 364.538 450.762 364.039 454.066 363.515L453.441 359.565C450.155 360.085 446.875 360.581 443.603 361.054L444.174 365.013ZM463.931 361.882C467.2 361.316 470.474 360.726 473.754 360.11L473.015 356.179C469.755 356.791 466.499 357.378 463.25 357.94L463.931 361.882ZM483.605 358.183C486.848 357.523 490.095 356.837 493.346 356.123L492.488 352.216C489.257 352.925 486.03 353.607 482.808 354.263L483.605 358.183ZM503.11 353.9C506.344 353.137 509.58 352.346 512.82 351.526L511.839 347.648C508.62 348.463 505.404 349.249 502.191 350.007L503.11 353.9ZM522.481 348.996C525.703 348.124 528.928 347.222 532.154 346.29L531.044 342.447C527.839 343.373 524.637 344.269 521.436 345.135L522.481 348.996ZM541.694 343.446C544.876 342.468 548.058 341.459 551.242 340.419L550 336.617C546.839 337.649 543.678 338.651 540.519 339.622L541.694 343.446ZM560.725 337.228C563.859 336.142 566.992 335.026 570.126 333.877L568.749 330.121C565.638 331.262 562.527 332.37 559.416 333.448L560.725 337.228ZM579.526 330.333C582.613 329.136 585.698 327.908 588.783 326.647L587.27 322.945C584.208 324.196 581.145 325.416 578.081 326.603L579.526 330.333ZM598.01 322.775C601.072 321.456 604.132 320.104 607.191 318.718L605.539 315.075C602.504 316.451 599.467 317.793 596.428 319.101L598.01 322.775ZM616.221 314.523C619.229 313.091 622.234 311.625 625.237 310.124L623.449 306.546C620.469 308.035 617.487 309.49 614.501 310.911L616.221 314.523ZM634.14 305.569C637.074 304.032 640.005 302.461 642.932 300.856L641.009 297.349C638.104 298.942 635.195 300.501 632.284 302.026L634.14 305.569ZM651.703 295.935C654.572 294.289 657.437 292.609 660.297 290.894L658.241 287.464C655.402 289.165 652.559 290.832 649.713 292.466L651.703 295.935ZM668.818 285.676C671.653 283.901 674.485 282.091 677.311 280.246L675.124 276.896C672.319 278.728 669.51 280.524 666.696 282.285L668.818 285.676ZM685.572 274.74C688.316 272.874 691.055 270.972 693.789 269.036L691.477 265.772C688.764 267.693 686.045 269.58 683.322 271.433L685.572 274.74ZM701.966 263.127C704.612 261.177 707.253 259.192 709.888 257.173L707.455 253.998C704.84 256.002 702.219 257.971 699.593 259.907L701.966 263.127ZM717.776 251.013C720.395 248.929 723.007 246.81 725.614 244.655L723.065 241.572C720.478 243.711 717.884 245.815 715.285 247.883L717.776 251.013ZM733.188 238.279C735.706 236.12 738.218 233.927 740.724 231.7L738.067 228.71C735.579 230.922 733.085 233.099 730.584 235.242L733.188 238.279ZM748.223 224.914C750.633 222.693 753.037 220.44 755.435 218.153L752.674 215.259C750.293 217.529 747.906 219.767 745.513 221.972L748.223 224.914ZM762.604 211.198C764.987 208.846 767.363 206.46 769.732 204.04L766.874 201.242C764.521 203.645 762.161 206.015 759.794 208.351L762.604 211.198ZM776.613 196.895C778.883 194.499 781.147 192.071 783.403 189.61L780.455 186.907C778.213 189.352 775.965 191.764 773.709 194.144L776.613 196.895ZM790.151 182.13C791.272 180.866 792.392 179.595 793.509 178.316L790.496 175.684C789.386 176.956 788.274 178.219 787.16 179.474L790.151 182.13ZM793.509 178.316C794.635 177.027 795.711 175.733 796.739 174.436L793.603 171.952C792.616 173.199 791.581 174.443 790.496 175.684L793.509 178.316ZM802.512 166.328C804.346 163.439 805.956 160.534 807.356 157.618L803.751 155.886C802.42 158.657 800.886 161.425 799.134 164.185L802.512 166.328ZM811.104 148.344C812.174 145.105 813.001 141.863 813.604 138.624L809.672 137.892C809.101 140.956 808.319 144.023 807.306 147.089L811.104 148.344ZM814.77 128.677C814.938 125.325 814.883 121.988 814.626 118.672L810.638 118.981C810.882 122.134 810.934 125.302 810.775 128.477L814.77 128.677ZM813.268 108.777C812.63 105.523 811.814 102.299 810.839 99.11L807.014 100.279C807.951 103.344 808.733 106.435 809.342 109.546L813.268 108.777ZM807.497 89.7488C806.254 86.6978 804.878 83.687 803.388 80.7231L799.814 82.5192C801.26 85.3956 802.592 88.3108 803.793 91.2584L807.497 89.7488ZM798.633 72.0368C796.955 69.2015 795.184 66.4171 793.338 63.6898L790.026 65.9317C791.829 68.5963 793.557 71.3126 795.191 74.0743L798.633 72.0368ZM787.582 55.6673C785.584 53.0329 783.529 50.4622 781.434 47.9615L778.367 50.5303C780.423 52.984 782.438 55.5042 784.395 58.0842L787.582 55.6673ZM774.934 40.5509C772.679 38.0911 770.401 35.7143 768.122 33.4278L765.289 36.252C767.531 38.5006 769.77 40.8371 771.986 43.254L774.934 40.5509ZM761.046 26.612C758.552 24.3039 756.081 22.1143 753.664 20.0528L751.068 23.0968C753.446 25.1237 755.876 27.2774 758.33 29.548L761.046 26.612ZM746.037 13.8258C743.258 11.6578 740.602 9.69574 738.119 7.95788L735.825 11.2349C738.248 12.9308 740.849 14.8515 743.576 16.9793L746.037 13.8258ZM729.75 2.54322C728.13 1.59715 726.656 0.808333 725.357 0.192763L723.644 3.80724C724.813 4.36173 726.184 5.09289 727.732 5.99703L729.75 2.54322Z" fill="#B68742"/>
</svg>
