<svg width="304" height="264" viewBox="0 0 304 264" fill="none" xmlns="http://www.w3.org/2000/svg">
<path d="M301.5 55.4998L301.013 55.3852L301.5 55.4998ZM65.5051 136.139L65.4591 135.641L65.5051 136.139ZM2.49645 186.999L2.99039 187.076L2.49645 186.999ZM27.9971 263.499L28.1474 257.727L23.074 260.483L27.9971 263.499ZM26.288 259.305C26.176 259.1 26.0644 258.896 25.9531 258.694L25.0765 259.175C25.1876 259.377 25.2991 259.581 25.4109 259.785L26.288 259.305ZM20.912 249.655C19.0806 246.415 17.3716 243.426 15.7952 240.645L14.9252 241.138C16.5054 243.926 18.209 246.905 20.0414 250.147L20.912 249.655ZM10.7905 231.605C9.03866 228.311 7.53791 225.272 6.29162 222.334L5.37102 222.725C6.63272 225.699 8.14789 228.766 9.90754 232.075L10.7905 231.605ZM3.06327 212.608C2.31996 209.385 1.8952 206.07 1.79818 202.455L0.798542 202.482C0.897275 206.161 1.32998 209.542 2.08885 212.833L3.06327 212.608ZM2.29661 192.19C2.47921 190.559 2.71027 188.858 2.99039 187.076L2.00252 186.921C1.72036 188.716 1.48724 190.432 1.30282 192.079L2.29661 192.19ZM2.99039 187.076C3.28223 185.22 3.63559 183.426 4.04753 181.694L3.07465 181.462C2.65655 183.221 2.29825 185.04 2.00252 186.921L2.99039 187.076ZM7.49563 171.328C9.01922 167.867 10.83 164.716 12.8914 161.853L12.0799 161.269C9.97717 164.189 8.13174 167.401 6.58037 170.925L7.49563 171.328ZM20.1813 153.75C22.8922 151.319 25.8457 149.184 28.9992 147.317L28.4899 146.457C25.2841 148.354 22.2769 150.528 19.5137 153.005L20.1813 153.75ZM38.8497 142.563C42.2045 141.258 45.7033 140.176 49.3083 139.293L49.0704 138.322C45.4275 139.214 41.8867 140.309 38.4873 141.631L38.8497 142.563ZM60.0932 137.261C61.8983 137.013 63.719 136.806 65.5511 136.637L65.4591 135.641C63.6131 135.812 61.7777 136.02 59.9574 136.27L60.0932 137.261ZM65.5511 136.637C67.1441 136.49 68.809 136.344 70.5415 136.2L70.4584 135.203C68.7236 135.348 67.0556 135.493 65.4591 135.641L65.5511 136.637ZM80.5785 135.414C83.7918 135.174 87.1627 134.93 90.6715 134.673L90.5987 133.676C87.0905 133.932 83.7184 134.177 80.504 134.417L80.5785 135.414ZM100.755 133.929C104.02 133.683 107.375 133.424 110.807 133.149L110.727 132.152C107.297 132.427 103.944 132.686 100.68 132.932L100.755 133.929ZM120.873 132.307C124.177 132.018 127.536 131.711 130.938 131.383L130.843 130.388C127.443 130.715 124.087 131.022 120.786 131.31L120.873 132.307ZM140.996 130.362C144.318 130.006 147.669 129.629 151.041 129.226L150.923 128.233C147.555 128.635 144.207 129.012 140.89 129.368L140.996 130.362ZM161.069 127.958C164.397 127.513 167.735 127.041 171.076 126.541L170.927 125.552C167.592 126.052 164.259 126.523 160.937 126.967L161.069 127.958ZM181.056 124.954C184.382 124.393 187.702 123.801 191.006 123.175L190.82 122.192C187.523 122.817 184.21 123.408 180.89 123.968L181.056 124.954ZM200.918 121.177C204.233 120.468 207.523 119.72 210.779 118.931L210.544 117.959C207.297 118.746 204.016 119.492 200.709 120.199L200.918 121.177ZM220.575 116.4C223.861 115.495 227.1 114.543 230.283 113.541L229.982 112.588C226.812 113.586 223.584 114.534 220.31 115.436L220.575 116.4ZM239.871 110.303C243.09 109.136 246.235 107.911 249.295 106.622L248.907 105.7C245.864 106.982 242.735 108.201 239.53 109.363L239.871 110.303ZM258.491 102.422C261.583 100.89 264.561 99.2797 267.411 97.5875L266.901 96.7277C264.074 98.4059 261.118 100.004 258.047 101.526L258.491 102.422ZM275.897 92.0161C278.688 89.9833 281.308 87.8473 283.739 85.602L283.06 84.8675C280.661 87.0842 278.07 89.1959 275.308 91.2078L275.897 92.0161ZM290.711 78.2029C292.871 75.5404 294.789 72.7449 296.44 69.809L295.569 69.3188C293.947 72.2025 292.061 74.9515 289.934 77.5728L290.711 78.2029ZM300.583 60.5283C301.124 58.9265 301.593 57.2888 301.987 55.6143L301.013 55.3852C300.627 57.029 300.166 58.6364 299.635 60.2083L300.583 60.5283ZM301.987 55.6143C302.388 53.9088 302.708 52.2617 302.952 50.6707L301.963 50.5193C301.724 52.0829 301.409 53.7041 301.013 55.3852L301.987 55.6143ZM303.488 40.6677C303.278 37.0162 302.589 33.7391 301.522 30.7909L300.582 31.1312C301.615 33.9843 302.285 37.1658 302.49 40.7253L303.488 40.6677ZM296.614 22.0094C294.49 19.3284 292.002 17.0468 289.325 15.0819L288.733 15.888C291.351 17.8097 293.771 20.0311 295.83 22.6303L296.614 22.0094ZM280.706 9.95659C277.578 8.4305 274.43 7.17415 271.485 6.08482L271.138 7.0227C274.067 8.10621 277.181 9.34957 280.268 10.8554L280.706 9.95659ZM262.128 2.70281C260.259 1.97344 258.778 1.29093 257.785 0.591065L257.209 1.40829C258.308 2.18345 259.888 2.90212 261.764 3.63439L262.128 2.70281ZM301.5 55.4998L300.527 55.2707L301.5 55.4998ZM65.5051 136.139L65.413 135.143L65.5051 136.139ZM2.49645 186.999L3.48432 187.154L2.49645 186.999ZM27.9971 263.499L28.2917 251.956L18.1477 257.472L27.9971 263.499ZM21.3473 249.409C19.5164 246.17 17.8046 243.176 16.2302 240.398L14.4902 241.384C16.0724 244.176 17.7732 247.15 19.6061 250.393L21.3473 249.409ZM11.2319 231.37C9.48404 228.084 7.99051 225.059 6.75192 222.139L4.91073 222.92C6.18013 225.912 7.70251 228.993 9.46609 232.309L11.2319 231.37ZM3.55048 212.496C2.81495 209.306 2.39416 206.025 2.298 202.442L0.298722 202.495C0.398314 206.206 0.834994 209.621 1.60164 212.945L3.55048 212.496ZM2.7935 192.246C2.97519 190.623 3.20523 188.929 3.48432 187.154L1.50859 186.844C1.2254 188.645 0.99125 190.368 0.80592 192.023L2.7935 192.246ZM3.48432 187.154C3.77422 185.31 4.12511 183.529 4.53397 181.809L2.5882 181.347C2.16703 183.118 1.80626 184.95 1.50858 186.844L3.48432 187.154ZM7.95327 171.529C9.46296 168.1 11.2565 164.979 13.2972 162.145L11.6741 160.977C9.55073 163.926 7.688 167.168 6.12274 170.724L7.95327 171.529ZM20.5151 154.122C23.1998 151.715 26.1265 149.599 29.2539 147.748L28.2352 146.027C25.0033 147.939 21.9693 150.132 19.1799 152.633L20.5151 154.122ZM39.0309 143.029C42.3634 141.733 45.8412 140.657 49.4272 139.779L48.9515 137.836C45.2896 138.733 41.7278 139.834 38.3061 141.165L39.0309 143.029ZM60.1611 137.756C61.9586 137.51 63.772 137.303 65.5971 137.135L65.413 135.143C63.5601 135.314 61.7174 135.524 59.8894 135.775L60.1611 137.756ZM65.5971 137.135C67.1883 136.988 68.8518 136.843 70.583 136.698L70.4168 134.705C68.6809 134.85 67.0113 134.995 65.413 135.143L65.5971 137.135ZM80.6157 135.913C83.8285 135.673 87.1989 135.428 90.7079 135.172L90.5623 133.177C87.0543 133.433 83.6817 133.678 80.4667 133.919L80.6157 135.913ZM100.792 134.427C104.058 134.181 107.414 133.923 110.847 133.647L110.687 131.654C107.258 131.929 103.906 132.187 100.642 132.433L100.792 134.427ZM120.916 132.805C124.222 132.516 127.582 132.209 130.986 131.881L130.795 129.89C127.397 130.218 124.043 130.524 120.742 130.812L120.916 132.805ZM141.05 130.859C144.373 130.503 147.726 130.125 151.101 129.722L150.863 127.736C147.498 128.138 144.152 128.515 140.837 128.87L141.05 130.859ZM161.135 128.454C164.465 128.008 167.807 127.536 171.15 127.035L170.853 125.057C167.521 125.557 164.191 126.027 160.87 126.471L161.135 128.454ZM181.139 125.447C184.468 124.886 187.791 124.293 191.099 123.666L190.727 121.701C187.433 122.326 184.124 122.916 180.807 123.475L181.139 125.447ZM201.022 121.666C204.342 120.956 207.636 120.207 210.897 119.417L210.426 117.473C207.184 118.259 203.907 119.003 200.604 119.71L201.022 121.666ZM220.708 116.882C223.999 115.976 227.244 115.022 230.433 114.018L229.832 112.111C226.668 113.107 223.446 114.053 220.177 114.954L220.708 116.882ZM240.041 110.773C243.268 109.604 246.421 108.375 249.489 107.083L248.713 105.24C245.678 106.517 242.557 107.734 239.36 108.893L240.041 110.773ZM258.713 102.87C261.815 101.333 264.805 99.7166 267.667 98.0175L266.646 96.2978C263.831 97.969 260.886 99.5612 257.825 101.078L258.713 102.87ZM276.191 92.4203C278.996 90.3771 281.632 88.2288 284.078 85.9693L282.721 84.5002C280.337 86.7027 277.762 88.8021 275.014 90.8037L276.191 92.4203ZM291.099 78.518C293.276 75.8349 295.21 73.0161 296.876 70.0541L295.133 69.0738C293.526 71.9313 291.656 74.657 289.546 77.2577L291.099 78.518ZM301.056 60.6883C301.602 59.0716 302.076 57.4187 302.473 55.7288L300.527 55.2707C300.143 56.8991 299.687 58.4913 299.161 60.0482L301.056 60.6883ZM302.473 55.7288C302.878 54.0111 303.2 52.3511 303.446 50.7464L301.469 50.4436C301.232 51.9935 300.919 53.6017 300.527 55.2707L302.473 55.7288ZM303.988 40.639C303.774 36.9413 303.077 33.6165 301.993 30.6207L300.112 31.3013C301.127 34.107 301.788 37.2406 301.991 40.7541L303.988 40.639ZM297.006 21.6989C294.85 18.9771 292.327 16.6654 289.621 14.6789L288.437 16.2911C291.026 18.1911 293.412 20.3824 295.438 22.9407L297.006 21.6989ZM280.926 9.50719C277.776 7.97096 274.611 6.70812 271.659 5.61588L270.965 7.49164C273.886 8.57224 276.983 9.80911 280.049 11.3048L280.926 9.50719ZM262.309 2.23701C260.444 1.5091 259.012 0.844677 258.073 0.18245L256.921 1.81691C258.073 2.6297 259.702 3.36646 261.582 4.10018L262.309 2.23701Z" fill="#B68742"/>
</svg>
