<svg width="889" height="888" viewBox="0 0 889 888" fill="none" xmlns="http://www.w3.org/2000/svg">
<circle cx="403.184" cy="219.024" r="12.4956" transform="rotate(-10 403.184 219.024)" fill="#E7D3B6"/>
<circle cx="364.885" cy="229.396" r="12.4956" transform="rotate(-20 364.885 229.396)" fill="#E7D3B6"/>
<circle cx="328.958" cy="246.253" r="12.4956" transform="rotate(-30 328.958 246.253)" fill="#E7D3B6"/>
<circle cx="296.489" cy="269.085" r="12.4956" transform="rotate(-40 296.489 269.085)" fill="#E7D3B6"/>
<circle cx="268.457" cy="297.198" r="12.4956" transform="rotate(-50 268.457 297.198)" fill="#E7D3B6"/>
<circle cx="245.716" cy="329.734" r="12.4956" transform="rotate(-60 245.716 329.734)" fill="#E7D3B6"/>
<circle cx="228.971" cy="365.711" r="12.4956" transform="rotate(-70 228.971 365.711)" fill="#E7D3B6"/>
<circle cx="218.708" cy="404.032" r="12.4956" transform="rotate(-80 218.708 404.032)" fill="#E7D3B6"/>
<circle cx="215.251" cy="443.533" r="12.4956" transform="rotate(-90 215.251 443.533)" fill="#E7D3B6"/>
<circle cx="218.821" cy="483.127" r="12.4956" transform="rotate(-100 218.821 483.127)" fill="#E7D3B6"/>
<circle cx="229.193" cy="521.499" r="12.4956" transform="rotate(-110 229.193 521.499)" fill="#E7D3B6"/>
<circle cx="246.048" cy="557.483" r="12.4956" transform="rotate(-120 246.048 557.483)" fill="#E7D3B6"/>
<circle cx="268.882" cy="589.985" r="12.4956" transform="rotate(-130 268.882 589.985)" fill="#E7D3B6"/>
<circle cx="296.993" cy="618.014" r="12.4956" transform="rotate(-140 296.993 618.014)" fill="#E7D3B6"/>
<circle cx="329.526" cy="640.725" r="12.4956" transform="rotate(-150 329.526 640.725)" fill="#E7D3B6"/>
<circle cx="365.506" cy="657.423" r="12.4956" transform="rotate(-160 365.506 657.423)" fill="#E7D3B6"/>
<circle cx="403.831" cy="667.602" r="12.4956" transform="rotate(-170 403.831 667.602)" fill="#E7D3B6"/>
<circle cx="443.326" cy="670.953" r="12.4956" transform="rotate(180 443.326 670.953)" fill="#E7D3B6"/>
<circle cx="482.925" cy="667.487" r="12.4956" transform="rotate(170 482.925 667.487)" fill="#E7D3B6"/>
<circle cx="521.291" cy="657.197" r="12.4956" transform="rotate(160 521.291 657.197)" fill="#E7D3B6"/>
<circle cx="557.28" cy="640.396" r="12.4956" transform="rotate(150 557.28 640.396)" fill="#E7D3B6"/>
<circle cx="589.773" cy="617.592" r="12.4956" transform="rotate(140 589.773 617.592)" fill="#E7D3B6"/>
<circle cx="617.812" cy="589.481" r="12.4956" transform="rotate(130 617.812 589.481)" fill="#E7D3B6"/>
<circle cx="640.522" cy="556.915" r="12.4956" transform="rotate(120 640.522 556.915)" fill="#E7D3B6"/>
<circle cx="658.185" cy="521.142" r="12.4956" transform="rotate(110 658.185 521.142)" fill="#E7D3B6"/>
<circle cx="668.272" cy="482.612" r="12.4956" transform="rotate(100 668.272 482.612)" fill="#E7D3B6"/>
<circle cx="671.502" cy="442.876" r="12.4956" transform="rotate(90 671.502 442.876)" fill="#E7D3B6"/>
<circle cx="668.03" cy="403.385" r="12.4956" transform="rotate(80 668.03 403.385)" fill="#E7D3B6"/>
<circle cx="657.705" cy="365.093" r="12.4956" transform="rotate(70 657.705 365.093)" fill="#E7D3B6"/>
<circle cx="640.846" cy="329.166" r="12.4956" transform="rotate(60 640.846 329.166)" fill="#E7D3B6"/>
<circle cx="617.965" cy="296.694" r="12.4956" transform="rotate(50 617.965 296.694)" fill="#E7D3B6"/>
<circle cx="589.761" cy="268.662" r="12.4956" transform="rotate(40 589.761 268.662)" fill="#E7D3B6"/>
<circle cx="557.087" cy="245.924" r="12.4956" transform="rotate(30 557.087 245.924)" fill="#E7D3B6"/>
<circle cx="520.935" cy="229.172" r="12.4956" transform="rotate(20 520.935 229.172)" fill="#E7D3B6"/>
<circle cx="482.411" cy="218.911" r="12.4956" transform="rotate(10 482.411 218.911)" fill="#E7D3B6"/>
<circle cx="442.669" cy="215.456" r="12.4956" fill="#E7D3B6"/>
<circle cx="373.411" cy="191.349" r="11.246" transform="rotate(-15 373.411 191.349)" fill="#E7D3B6"/>
<circle cx="330.76" cy="207.477" r="11.246" transform="rotate(-25 330.76 207.477)" fill="#E7D3B6"/>
<circle cx="291.51" cy="230.758" r="11.246" transform="rotate(-35 291.51 230.758)" fill="#E7D3B6"/>
<circle cx="256.856" cy="260.482" r="11.246" transform="rotate(-45 256.856 260.482)" fill="#E7D3B6"/>
<circle cx="227.842" cy="295.749" r="11.246" transform="rotate(-55 227.842 295.749)" fill="#E7D3B6"/>
<circle cx="205.365" cy="335.487" r="11.246" transform="rotate(-65 205.365 335.487)" fill="#E7D3B6"/>
<circle cx="190.036" cy="377.931" r="11.246" transform="rotate(-75 190.036 377.931)" fill="#E7D3B6"/>
<circle cx="182.445" cy="422.861" r="11.246" transform="rotate(-85 182.445 422.861)" fill="#E7D3B6"/>
<circle cx="182.763" cy="468.4" r="11.246" transform="rotate(-95 182.763 468.4)" fill="#E7D3B6"/>
<circle cx="191.153" cy="513.322" r="11.246" transform="rotate(-105 191.153 513.322)" fill="#E7D3B6"/>
<circle cx="207.19" cy="556.105" r="11.246" transform="rotate(-115 207.19 556.105)" fill="#E7D3B6"/>
<circle cx="230.378" cy="595.446" r="11.246" transform="rotate(-125 230.378 595.446)" fill="#E7D3B6"/>
<circle cx="260.021" cy="630.152" r="11.246" transform="rotate(-135 260.021 630.152)" fill="#E7D3B6"/>
<circle cx="295.218" cy="659.169" r="11.246" transform="rotate(-145 295.218 659.169)" fill="#E7D3B6"/>
<circle cx="334.895" cy="681.612" r="11.246" transform="rotate(-155 334.895 681.612)" fill="#E7D3B6"/>
<circle cx="377.837" cy="696.803" r="11.246" transform="rotate(-165 377.837 696.803)" fill="#E7D3B6"/>
<circle cx="422.759" cy="704.277" r="11.246" transform="rotate(-175 422.759 704.277)" fill="#E7D3B6"/>
<circle cx="468.28" cy="703.81" r="11.246" transform="rotate(175 468.28 703.81)" fill="#E7D3B6"/>
<circle cx="513.225" cy="695.574" r="11.246" transform="rotate(165 513.225 695.574)" fill="#E7D3B6"/>
<circle cx="556.013" cy="679.659" r="11.246" transform="rotate(155 556.013 679.659)" fill="#E7D3B6"/>
<circle cx="595.364" cy="656.552" r="11.246" transform="rotate(145 595.364 656.552)" fill="#E7D3B6"/>
<circle cx="630.072" cy="626.949" r="11.246" transform="rotate(135 630.072 626.949)" fill="#E7D3B6"/>
<circle cx="659.091" cy="591.756" r="11.246" transform="rotate(125 659.091 591.756)" fill="#E7D3B6"/>
<circle cx="681.532" cy="552.038" r="11.246" transform="rotate(115 681.532 552.038)" fill="#E7D3B6"/>
<circle cx="696.717" cy="509.003" r="11.246" transform="rotate(105 696.717 509.003)" fill="#E7D3B6"/>
<circle cx="704.179" cy="463.96" r="11.246" transform="rotate(95 704.179 463.96)" fill="#E7D3B6"/>
<circle cx="703.697" cy="418.275" r="11.246" transform="rotate(85 703.697 418.275)" fill="#E7D3B6"/>
<circle cx="695.478" cy="373.499" r="11.246" transform="rotate(75 695.478 373.499)" fill="#E7D3B6"/>
<circle cx="679.57" cy="330.83" r="11.246" transform="rotate(65 679.57 330.83)" fill="#E7D3B6"/>
<circle cx="656.468" cy="291.565" r="11.246" transform="rotate(55 656.468 291.565)" fill="#E7D3B6"/>
<circle cx="626.876" cy="256.897" r="11.246" transform="rotate(45 626.876 256.897)" fill="#E7D3B6"/>
<circle cx="591.675" cy="227.883" r="11.246" transform="rotate(35 591.675 227.883)" fill="#E7D3B6"/>
<circle cx="551.959" cy="205.398" r="11.246" transform="rotate(25 551.959 205.398)" fill="#E7D3B6"/>
<circle cx="508.919" cy="190.13" r="11.246" transform="rotate(15 508.919 190.13)" fill="#E7D3B6"/>
<circle cx="463.861" cy="182.543" r="11.246" transform="rotate(5 463.861 182.543)" fill="#E7D3B6"/>
<circle cx="418.164" cy="182.864" r="11.246" transform="rotate(-5 418.164 182.864)" fill="#E7D3B6"/>
<circle cx="388.008" cy="153.268" r="9.99647" transform="rotate(-10 388.008 153.268)" fill="#E7D3B6"/>
<circle cx="338.51" cy="167.356" r="9.99647" transform="rotate(-20 338.51 167.356)" fill="#E7D3B6"/>
<circle cx="292.18" cy="189.815" r="9.99647" transform="rotate(-30 292.18 189.815)" fill="#E7D3B6"/>
<circle cx="250.43" cy="219.964" r="9.99647" transform="rotate(-40 250.43 219.964)" fill="#E7D3B6"/>
<circle cx="214.516" cy="256.586" r="9.99647" transform="rotate(-50 214.516 256.586)" fill="#E7D3B6"/>
<circle cx="185.532" cy="299.121" r="9.99647" transform="rotate(-60 185.532 299.121)" fill="#E7D3B6"/>
<circle cx="164.365" cy="346.023" r="9.99647" transform="rotate(-70 164.365 346.023)" fill="#E7D3B6"/>
<circle cx="151.649" cy="395.868" r="9.99647" transform="rotate(-80 151.649 395.868)" fill="#E7D3B6"/>
<circle cx="147.779" cy="447.141" r="9.99647" transform="rotate(-90 147.779 447.141)" fill="#E7D3B6"/>
<circle cx="153.001" cy="498.415" r="9.99647" transform="rotate(-100 153.001 498.415)" fill="#E7D3B6"/>
<circle cx="167.021" cy="548.001" r="9.99647" transform="rotate(-110 167.021 548.001)" fill="#E7D3B6"/>
<circle cx="189.419" cy="594.393" r="9.99647" transform="rotate(-120 189.419 594.393)" fill="#E7D3B6"/>
<circle cx="218.89" cy="634.817" r="9.99647" transform="rotate(-130 218.89 634.817)" fill="#E7D3B6"/>
<circle cx="255.649" cy="670.733" r="9.99647" transform="rotate(-140 255.649 670.733)" fill="#E7D3B6"/>
<circle cx="298.92" cy="701.045" r="9.99647" transform="rotate(-150 298.92 701.045)" fill="#E7D3B6"/>
<circle cx="345.826" cy="722.152" r="9.99647" transform="rotate(-160 345.826 722.152)" fill="#E7D3B6"/>
<circle cx="395.667" cy="734.772" r="9.99647" transform="rotate(-170 395.667 734.772)" fill="#E7D3B6"/>
<circle cx="446.936" cy="738.524" r="9.99647" transform="rotate(180 446.936 738.524)" fill="#E7D3B6"/>
<circle cx="497.097" cy="732.467" r="9.99647" transform="rotate(170 497.097 732.467)" fill="#E7D3B6"/>
<circle cx="546.56" cy="718.582" r="9.99647" transform="rotate(160 546.56 718.582)" fill="#E7D3B6"/>
<circle cx="592.874" cy="696.318" r="9.99647" transform="rotate(150 592.874 696.318)" fill="#E7D3B6"/>
<circle cx="634.616" cy="666.354" r="9.99647" transform="rotate(140 634.616 666.354)" fill="#E7D3B6"/>
<circle cx="670.53" cy="629.6" r="9.99647" transform="rotate(130 670.53 629.6)" fill="#E7D3B6"/>
<circle cx="699.518" cy="587.171" r="9.99647" transform="rotate(120 699.518 587.171)" fill="#E7D3B6"/>
<circle cx="720.709" cy="540.358" r="9.99647" transform="rotate(110 720.709 540.358)" fill="#E7D3B6"/>
<circle cx="733.444" cy="490.585" r="9.99647" transform="rotate(100 733.444 490.585)" fill="#E7D3B6"/>
<circle cx="737.358" cy="439.36" r="9.99647" transform="rotate(90 737.358 439.36)" fill="#E7D3B6"/>
<circle cx="732.268" cy="388.205" r="9.99647" transform="rotate(80 732.268 388.205)" fill="#E7D3B6"/>
<circle cx="718.381" cy="338.712" r="9.99647" transform="rotate(70 718.381 338.712)" fill="#E7D3B6"/>
<circle cx="696.112" cy="292.385" r="9.99647" transform="rotate(60 696.112 292.385)" fill="#E7D3B6"/>
<circle cx="666.145" cy="250.627" r="9.99647" transform="rotate(50 666.145 250.627)" fill="#E7D3B6"/>
<circle cx="629.397" cy="214.713" r="9.99647" transform="rotate(40 629.397 214.713)" fill="#E7D3B6"/>
<circle cx="586.97" cy="185.731" r="9.99647" transform="rotate(30 586.97 185.731)" fill="#E7D3B6"/>
<circle cx="540.161" cy="164.562" r="9.99647" transform="rotate(20 540.161 164.562)" fill="#E7D3B6"/>
<circle cx="490.388" cy="151.85" r="9.99647" transform="rotate(10 490.388 151.85)" fill="#E7D3B6"/>
<circle cx="439.157" cy="147.979" r="9.99647" fill="#E7D3B6"/>
<circle cx="352.512" cy="126.763" r="8.74691" transform="rotate(-15 352.512 126.763)" fill="#E7D3B6"/>
<circle cx="298.994" cy="147.18" r="8.74691" transform="rotate(-25 298.994 147.18)" fill="#E7D3B6"/>
<circle cx="249.842" cy="176.578" r="8.74691" transform="rotate(-35 249.842 176.578)" fill="#E7D3B6"/>
<circle cx="206.548" cy="214.07" r="8.74691" transform="rotate(-45 206.548 214.07)" fill="#E7D3B6"/>
<circle cx="170.42" cy="258.515" r="8.74691" transform="rotate(-55 170.42 258.515)" fill="#E7D3B6"/>
<circle cx="142.576" cy="308.561" r="8.74691" transform="rotate(-65 142.576 308.561)" fill="#E7D3B6"/>
<circle cx="123.848" cy="362.687" r="8.74691" transform="rotate(-75 123.848 362.687)" fill="#E7D3B6"/>
<circle cx="114.804" cy="419.25" r="8.74691" transform="rotate(-85 114.804 419.25)" fill="#E7D3B6"/>
<circle cx="115.716" cy="476.531" r="8.74691" transform="rotate(-95 115.716 476.531)" fill="#E7D3B6"/>
<circle cx="126.525" cy="532.752" r="8.74691" transform="rotate(-105 126.525 532.752)" fill="#E7D3B6"/>
<circle cx="146.94" cy="586.241" r="8.74691" transform="rotate(-115 146.94 586.241)" fill="#E7D3B6"/>
<circle cx="178.132" cy="639.206" r="8.74691" transform="rotate(-125 178.132 639.206)" fill="#E7D3B6"/>
<circle cx="216.044" cy="682.578" r="8.74691" transform="rotate(-135 216.044 682.578)" fill="#E7D3B6"/>
<circle cx="260.847" cy="718.667" r="8.74691" transform="rotate(-145 260.847 718.667)" fill="#E7D3B6"/>
<circle cx="311.176" cy="746.376" r="8.74691" transform="rotate(-155 311.176 746.376)" fill="#E7D3B6"/>
<circle cx="365.494" cy="764.864" r="8.74691" transform="rotate(-165 365.494 764.864)" fill="#E7D3B6"/>
<circle cx="422.158" cy="773.568" r="8.74691" transform="rotate(-175 422.158 773.568)" fill="#E7D3B6"/>
<circle cx="479.41" cy="772.193" r="8.74691" transform="rotate(175 479.41 772.193)" fill="#E7D3B6"/>
<circle cx="536.076" cy="761.263" r="8.74691" transform="rotate(165 536.076 761.263)" fill="#E7D3B6"/>
<circle cx="589.907" cy="740.661" r="8.74691" transform="rotate(155 589.907 740.661)" fill="#E7D3B6"/>
<circle cx="641.993" cy="712.427" r="8.74691" transform="rotate(145 641.993 712.427)" fill="#E7D3B6"/>
<circle cx="685.435" cy="674.431" r="8.74691" transform="rotate(135 685.435 674.431)" fill="#E7D3B6"/>
<circle cx="721.509" cy="629.402" r="8.74691" transform="rotate(125 721.509 629.402)" fill="#E7D3B6"/>
<circle cx="749.091" cy="578.7" r="8.74691" transform="rotate(115 749.091 578.7)" fill="#E7D3B6"/>
<circle cx="767.374" cy="523.874" r="8.74691" transform="rotate(105 767.374 523.874)" fill="#E7D3B6"/>
<circle cx="775.793" cy="466.589" r="8.74691" transform="rotate(95 775.793 466.589)" fill="#E7D3B6"/>
<circle cx="774.092" cy="408.583" r="8.74691" transform="rotate(85 774.092 408.583)" fill="#E7D3B6"/>
<circle cx="763.174" cy="352.333" r="8.74691" transform="rotate(75 763.174 352.333)" fill="#E7D3B6"/>
<circle cx="742.508" cy="298.836" r="8.74691" transform="rotate(65 742.508 298.836)" fill="#E7D3B6"/>
<circle cx="712.741" cy="249.715" r="8.74691" transform="rotate(55 712.741 249.715)" fill="#E7D3B6"/>
<circle cx="674.775" cy="206.468" r="8.74691" transform="rotate(45 674.775 206.468)" fill="#E7D3B6"/>
<circle cx="629.746" cy="170.399" r="8.74691" transform="rotate(35 629.746 170.399)" fill="#E7D3B6"/>
<circle cx="579.03" cy="142.607" r="8.74691" transform="rotate(25 579.03 142.607)" fill="#E7D3B6"/>
<circle cx="524.173" cy="123.94" r="8.74691" transform="rotate(15 524.173 123.94)" fill="#E7D3B6"/>
<circle cx="466.837" cy="114.964" r="8.74691" transform="rotate(5 466.837 114.964)" fill="#E7D3B6"/>
<circle cx="408.773" cy="115.953" r="8.74691" transform="rotate(-5 408.773 115.953)" fill="#E7D3B6"/>
<circle cx="372.821" cy="88.0945" r="7.49735" transform="rotate(-10 372.821 88.0945)" fill="#E7D3B6"/>
<circle cx="312.131" cy="106.466" r="7.49735" transform="rotate(-20 312.131 106.466)" fill="#E7D3B6"/>
<circle cx="255.399" cy="135.056" r="7.49735" transform="rotate(-30 255.399 135.056)" fill="#E7D3B6"/>
<circle cx="204.36" cy="173.002" r="7.49735" transform="rotate(-40 204.36 173.002)" fill="#E7D3B6"/>
<circle cx="160.567" cy="219.147" r="7.49735" transform="rotate(-50 160.567 219.147)" fill="#E7D3B6"/>
<circle cx="125.333" cy="272.092" r="7.49735" transform="rotate(-60 125.333 272.092)" fill="#E7D3B6"/>
<circle cx="99.7518" cy="330.225" r="7.49735" transform="rotate(-70 99.7518 330.225)" fill="#E7D3B6"/>
<circle cx="84.5867" cy="391.78" r="7.49735" transform="rotate(-80 84.5867 391.78)" fill="#E7D3B6"/>
<circle cx="80.302" cy="454.887" r="7.49735" transform="rotate(-90 80.302 454.887)" fill="#E7D3B6"/>
<circle cx="87.8915" cy="518.495" r="7.49735" transform="rotate(-100 87.8915 518.495)" fill="#E7D3B6"/>
<circle cx="106.263" cy="579.806" r="7.49735" transform="rotate(-110 106.263 579.806)" fill="#E7D3B6"/>
<circle cx="134.861" cy="636.956" r="7.49735" transform="rotate(-120 134.861 636.956)" fill="#E7D3B6"/>
<circle cx="172.796" cy="688.208" r="7.49735" transform="rotate(-130 172.796 688.208)" fill="#E7D3B6"/>
<circle cx="218.946" cy="732.007" r="7.49735" transform="rotate(-140 218.946 732.007)" fill="#E7D3B6"/>
<circle cx="271.885" cy="767.018" r="7.49735" transform="rotate(-150 271.885 767.018)" fill="#E7D3B6"/>
<circle cx="330.022" cy="792.183" r="7.49735" transform="rotate(-160 330.022 792.183)" fill="#E7D3B6"/>
<circle cx="391.573" cy="806.735" r="7.49735" transform="rotate(-170 391.573 806.735)" fill="#E7D3B6"/>
<circle cx="454.686" cy="810.23" r="7.49735" transform="rotate(180 454.686 810.23)" fill="#E7D3B6"/>
<circle cx="518.296" cy="803.428" r="7.49735" transform="rotate(170 518.296 803.428)" fill="#E7D3B6"/>
<circle cx="577.162" cy="783.883" r="7.49735" transform="rotate(160 577.162 783.883)" fill="#E7D3B6"/>
<circle cx="634.151" cy="755.852" r="7.49735" transform="rotate(150 634.151 755.852)" fill="#E7D3B6"/>
<circle cx="685.327" cy="718.309" r="7.49735" transform="rotate(140 685.327 718.309)" fill="#E7D3B6"/>
<circle cx="729.124" cy="672.397" r="7.49735" transform="rotate(130 729.124 672.397)" fill="#E7D3B6"/>
<circle cx="764.222" cy="619.513" r="7.49735" transform="rotate(120 764.222 619.513)" fill="#E7D3B6"/>
<circle cx="789.541" cy="561.263" r="7.49735" transform="rotate(110 789.541 561.263)" fill="#E7D3B6"/>
<circle cx="804.327" cy="499.413" r="7.49735" transform="rotate(100 804.327 499.413)" fill="#E7D3B6"/>
<circle cx="808.084" cy="435.845" r="7.49735" transform="rotate(90 808.084 435.845)" fill="#E7D3B6"/>
<circle cx="801.311" cy="373.028" r="7.49735" transform="rotate(80 801.311 373.028)" fill="#E7D3B6"/>
<circle cx="783.639" cy="312.332" r="7.49735" transform="rotate(70 783.639 312.332)" fill="#E7D3B6"/>
<circle cx="755.619" cy="255.602" r="7.49735" transform="rotate(60 755.619 255.602)" fill="#E7D3B6"/>
<circle cx="718.075" cy="204.563" r="7.49735" transform="rotate(50 718.075 204.563)" fill="#E7D3B6"/>
<circle cx="672.202" cy="160.764" r="7.49735" transform="rotate(40 672.202 160.764)" fill="#E7D3B6"/>
<circle cx="619.318" cy="125.536" r="7.49735" transform="rotate(30 619.318 125.536)" fill="#E7D3B6"/>
<circle cx="561.06" cy="99.9527" r="7.49735" transform="rotate(20 561.06 99.9527)" fill="#E7D3B6"/>
<circle cx="499.216" cy="84.7877" r="7.49735" transform="rotate(10 499.216 84.7877)" fill="#E7D3B6"/>
<circle cx="435.646" cy="80.503" r="7.49735" fill="#E7D3B6"/>
<circle cx="331.712" cy="63.1166" r="6.2478" transform="rotate(-15 331.712 63.1166)" fill="#E7D3B6"/>
<circle cx="267.408" cy="88.7329" r="6.2478" transform="rotate(-25 267.408 88.7329)" fill="#E7D3B6"/>
<circle cx="208.424" cy="125.111" r="6.2478" transform="rotate(-35 208.424 125.111)" fill="#E7D3B6"/>
<circle cx="156.552" cy="171.144" r="6.24779" transform="rotate(-45 156.552 171.144)" fill="#E7D3B6"/>
<circle cx="113.381" cy="225.433" r="6.24779" transform="rotate(-55 113.381 225.433)" fill="#E7D3B6"/>
<circle cx="80.2126" cy="286.331" r="6.2478" transform="rotate(-65 80.2126 286.331)" fill="#E7D3B6"/>
<circle cx="58.0632" cy="351.982" r="6.2478" transform="rotate(-75 58.0632 351.982)" fill="#E7D3B6"/>
<circle cx="47.5933" cy="420.396" r="6.2478" transform="rotate(-85 47.5933 420.396)" fill="#E7D3B6"/>
<circle cx="49.1182" cy="489.494" r="6.24779" transform="rotate(-95 49.1182 489.494)" fill="#E7D3B6"/>
<circle cx="63.2512" cy="557.705" r="6.2478" transform="rotate(-105 63.2512 557.705)" fill="#E7D3B6"/>
<circle cx="88.9048" cy="622.427" r="6.2478" transform="rotate(-115 88.9048 622.427)" fill="#E7D3B6"/>
<circle cx="124.758" cy="680.522" r="6.2478" transform="rotate(-125 124.758 680.522)" fill="#E7D3B6"/>
<circle cx="170.681" cy="732.506" r="6.24779" transform="rotate(-135 170.681 732.506)" fill="#E7D3B6"/>
<circle cx="224.855" cy="775.686" r="6.24779" transform="rotate(-145 224.855 775.686)" fill="#E7D3B6"/>
<circle cx="285.649" cy="808.757" r="6.2478" transform="rotate(-155 285.649 808.757)" fill="#E7D3B6"/>
<circle cx="351.22" cy="830.709" r="6.2478" transform="rotate(-165 351.22 830.709)" fill="#E7D3B6"/>
<circle cx="419.576" cy="840.878" r="6.2478" transform="rotate(-175 419.576 840.878)" fill="#E7D3B6"/>
<circle cx="488.625" cy="838.955" r="6.24779" transform="rotate(175 488.625 838.955)" fill="#E7D3B6"/>
<circle cx="556.741" cy="825.384" r="6.2478" transform="rotate(165 556.741 825.384)" fill="#E7D3B6"/>
<circle cx="621.392" cy="800.194" r="6.2478" transform="rotate(155 621.392 800.194)" fill="#E7D3B6"/>
<circle cx="680.61" cy="764.146" r="6.2478" transform="rotate(145 680.61 764.146)" fill="#E7D3B6"/>
<circle cx="732.607" cy="718.333" r="6.24779" transform="rotate(135 732.607 718.333)" fill="#E7D3B6"/>
<circle cx="775.782" cy="664.154" r="6.24779" transform="rotate(125 775.782 664.154)" fill="#E7D3B6"/>
<circle cx="808.845" cy="603.25" r="6.2478" transform="rotate(115 808.845 603.25)" fill="#E7D3B6"/>
<circle cx="830.784" cy="537.474" r="6.2478" transform="rotate(105 830.784 537.474)" fill="#E7D3B6"/>
<circle cx="840.925" cy="468.823" r="6.2478" transform="rotate(95 840.925 468.823)" fill="#E7D3B6"/>
<circle cx="838.963" cy="399.382" r="6.24779" transform="rotate(85 838.963 399.382)" fill="#E7D3B6"/>
<circle cx="825.431" cy="331.655" r="6.2478" transform="rotate(75 825.431 331.655)" fill="#E7D3B6"/>
<circle cx="800.266" cy="267.306" r="6.2478" transform="rotate(65 800.266 267.306)" fill="#E7D3B6"/>
<circle cx="764.241" cy="208.293" r="6.2478" transform="rotate(55 764.241 208.293)" fill="#E7D3B6"/>
<circle cx="718.431" cy="156.405" r="6.24779" transform="rotate(45 718.431 156.405)" fill="#E7D3B6"/>
<circle cx="664.251" cy="113.223" r="6.24779" transform="rotate(35 664.251 113.223)" fill="#E7D3B6"/>
<circle cx="603.34" cy="80.0543" r="6.2478" transform="rotate(25 603.34 80.0543)" fill="#E7D3B6"/>
<circle cx="537.544" cy="57.9127" r="6.2478" transform="rotate(15 537.544 57.9127)" fill="#E7D3B6"/>
<circle cx="468.868" cy="47.4683" r="6.2478" transform="rotate(5 468.868 47.4683)" fill="#E7D3B6"/>
<circle cx="399.398" cy="49.0406" r="6.24779" transform="rotate(-5 399.398 49.0406)" fill="#E7D3B6"/>
</svg>
