<svg width="50" height="36" viewBox="0 0 50 36" fill="none" xmlns="http://www.w3.org/2000/svg">
<g filter="url(#filter0_b_2207_136272)">
<path d="M3.46622 11.2621C1.57901 11.124 0.711436 11.2621 0.557373 11.2621C0.55739 12.268 0.752903 14.7257 1.1009 16.183C1.5359 18.0046 2.67778 20.8864 3.46622 22.3002C4.25465 23.7139 5.15184 24.9646 7.00059 27.1667C8.47959 28.9285 11.3687 30.9277 12.6284 31.7071L14.5046 32.713L15.7997 33.2681C16.8371 33.7127 17.9113 34.0708 19.0195 34.2845C20.9965 34.6657 22.76 34.89 24.02 34.9968C25.4504 35.118 25.7237 34.9968 25.6784 34.9968C25.7147 34.9968 25.6893 34.54 25.2978 32.713C24.8084 30.4293 24.2103 28.6077 23.2587 25.753C22.6515 23.9314 21.1816 21.363 19.534 19.3096C17.7671 17.1074 15.6193 15.6845 13.3897 14.3614C11.6487 13.3283 10.4536 12.9205 9.203 12.4583C7.95238 11.9961 5.96769 11.4451 3.46622 11.2621Z" fill="white" fill-opacity="0.33"/>
</g>
<g filter="url(#filter1_b_2207_136272)">
<path d="M27.6903 34.9962C25.8031 35.1343 24.9356 34.9962 24.7815 34.9962C24.7815 33.9903 24.977 31.5326 25.325 30.0753C25.76 28.2537 26.9019 25.3719 27.6903 23.9581C28.4788 22.5444 29.376 21.2937 31.2247 19.0916C32.7037 17.3298 35.5928 15.3306 36.8525 14.5512L38.7287 13.5453L40.0238 12.9902C41.0612 12.5456 42.1354 12.1875 43.2436 11.9738C45.2206 11.5926 46.9841 11.3683 48.2441 11.2615C49.6745 11.1403 49.9479 11.2615 49.9025 11.2615C49.9388 11.2615 49.9134 11.7183 49.5219 13.5453C49.0325 15.8291 48.4344 17.6506 47.4829 20.5053C46.8757 22.3269 45.4058 24.8953 43.7582 26.9487C41.9912 29.1509 39.8434 30.5738 37.6138 31.8969C35.8728 32.93 34.6777 33.3378 33.4271 33.8C32.1765 34.2622 30.1918 34.8132 27.6903 34.9962Z" fill="white" fill-opacity="0.33"/>
</g>
<g filter="url(#filter2_b_2207_136272)">
<path d="M14.1988 4.4634C12.516 3.59809 11.6636 3.38579 11.5218 3.32552C11.1283 4.25131 10.3468 6.58969 10.097 8.06695C9.78479 9.91352 9.70834 13.0124 9.88092 14.6219C10.0535 16.2315 10.39 17.7334 11.23 20.4833C11.9019 22.6832 13.7788 25.6533 14.6332 26.8633L15.9664 28.523L16.9412 29.5405C17.722 30.3555 18.5705 31.1052 19.5068 31.7354C21.1772 32.8596 22.7124 33.7558 23.8302 34.347C25.0992 35.0181 25.3982 35.0135 25.3565 34.9958C25.3898 35.0099 25.5452 34.5797 25.8995 32.7451C26.3425 30.4519 26.5046 28.5415 26.7456 25.5421C26.8993 23.6281 26.5513 20.6893 25.8382 18.155C25.0735 15.4371 23.6535 13.2875 22.1191 11.1977C20.921 9.56581 19.9807 8.72303 19.0105 7.80845C18.0403 6.89387 16.4294 5.61036 14.1988 4.4634Z" fill="white" fill-opacity="0.33"/>
</g>
<g filter="url(#filter3_b_2207_136272)">
<path d="M27.7926 33.8554C26.1098 34.7208 25.2573 34.9331 25.1155 34.9933C24.722 34.0675 23.9405 31.7292 23.6908 30.2519C23.3785 28.4053 23.3021 25.3064 23.4747 23.6969C23.6473 22.0874 23.9837 20.5855 24.8237 17.8356C25.4957 15.6356 27.3725 12.6656 28.227 11.4555L29.5601 9.79585L30.5349 8.77833C31.3157 7.96333 32.1643 7.21365 33.1006 6.58344C34.7709 5.45922 36.3061 4.563 37.4239 3.97184C38.6929 3.30073 38.9919 3.30537 38.9502 3.32309C38.9836 3.30891 39.1389 3.73919 39.4933 5.57375C39.9363 7.86695 40.0984 9.77734 40.3393 12.7768C40.4931 14.6907 40.145 17.6295 39.432 20.1638C38.6673 22.8817 37.2472 25.0314 35.7128 27.1212C34.5147 28.753 33.5744 29.5958 32.6043 30.5104C31.6341 31.425 30.0231 32.7085 27.7926 33.8554Z" fill="white" fill-opacity="0.33"/>
</g>
<g filter="url(#filter4_b_2207_136272)">
<path d="M26.7634 32.9614C25.544 34.4084 24.8392 34.9328 24.7316 35.0431C24.0117 34.3404 22.3895 32.4838 21.5897 31.2169C20.59 29.6333 19.3252 26.8032 18.8642 25.2515C18.4032 23.6998 18.1349 22.1842 17.8503 19.323C17.6226 17.034 18.2099 13.5701 18.5321 12.1242L19.1227 10.079C19.8662 8.15253 20.7891 6.29538 21.9513 4.58852C22.9177 3.1692 23.4375 2.52134 24.1347 1.67432C25.047 0.56603 25.3248 0.455075 25.2931 0.487502C25.3184 0.46156 25.6276 0.798752 26.6616 2.35505C27.954 4.30042 28.8398 6.00079 30.2181 8.67571C31.0975 10.3826 31.9089 13.2285 32.2275 15.8418C32.5692 18.6445 32.0873 21.1754 31.4768 23.6951C31 25.6626 30.4572 26.8027 29.9144 28.0205C29.3716 29.2383 28.3796 31.0435 26.7634 32.9614Z" fill="white" fill-opacity="0.33"/>
</g>
<defs>
<filter id="filter0_b_2207_136272" x="-0.372683" y="10.2706" width="26.993" height="25.71" filterUnits="userSpaceOnUse" color-interpolation-filters="sRGB">
<feFlood flood-opacity="0" result="BackgroundImageFix"/>
<feGaussianBlur in="BackgroundImageFix" stdDeviation="0.465028"/>
<feComposite in2="SourceAlpha" operator="in" result="effect1_backgroundBlur_2207_136272"/>
<feBlend mode="normal" in="SourceGraphic" in2="effect1_backgroundBlur_2207_136272" result="shape"/>
</filter>
<filter id="filter1_b_2207_136272" x="23.8514" y="10.2775" width="26.993" height="25.7102" filterUnits="userSpaceOnUse" color-interpolation-filters="sRGB">
<feFlood flood-opacity="0" result="BackgroundImageFix"/>
<feGaussianBlur in="BackgroundImageFix" stdDeviation="0.465028"/>
<feComposite in2="SourceAlpha" operator="in" result="effect1_backgroundBlur_2207_136272"/>
<feBlend mode="normal" in="SourceGraphic" in2="effect1_backgroundBlur_2207_136272" result="shape"/>
</filter>
<filter id="filter2_b_2207_136272" x="8.86059" y="2.39563" width="18.8508" height="33.5352" filterUnits="userSpaceOnUse" color-interpolation-filters="sRGB">
<feFlood flood-opacity="0" result="BackgroundImageFix"/>
<feGaussianBlur in="BackgroundImageFix" stdDeviation="0.465028"/>
<feComposite in2="SourceAlpha" operator="in" result="effect1_backgroundBlur_2207_136272"/>
<feBlend mode="normal" in="SourceGraphic" in2="effect1_backgroundBlur_2207_136272" result="shape"/>
</filter>
<filter id="filter3_b_2207_136272" x="22.4543" y="2.3883" width="18.8508" height="33.5352" filterUnits="userSpaceOnUse" color-interpolation-filters="sRGB">
<feFlood flood-opacity="0" result="BackgroundImageFix"/>
<feGaussianBlur in="BackgroundImageFix" stdDeviation="0.465028"/>
<feComposite in2="SourceAlpha" operator="in" result="effect1_backgroundBlur_2207_136272"/>
<feBlend mode="normal" in="SourceGraphic" in2="effect1_backgroundBlur_2207_136272" result="shape"/>
</filter>
<filter id="filter4_b_2207_136272" x="16.869" y="-0.447146" width="16.4021" height="36.4202" filterUnits="userSpaceOnUse" color-interpolation-filters="sRGB">
<feFlood flood-opacity="0" result="BackgroundImageFix"/>
<feGaussianBlur in="BackgroundImageFix" stdDeviation="0.465028"/>
<feComposite in2="SourceAlpha" operator="in" result="effect1_backgroundBlur_2207_136272"/>
<feBlend mode="normal" in="SourceGraphic" in2="effect1_backgroundBlur_2207_136272" result="shape"/>
</filter>
</defs>
</svg>
