<svg width="64" height="36" viewBox="0 0 64 36" fill="none" xmlns="http://www.w3.org/2000/svg">
<path d="M16.627 15.4454C20.0772 12.5201 24.6526 11.02 29.078 11.32C34.4035 11.6951 39.5039 14.3953 44.7543 13.7953C46.2545 13.6452 47.7546 13.1952 48.9547 12.2951C50.6798 11.02 51.7299 8.76983 51.4299 6.59464C51.1299 4.41946 49.4047 2.5443 47.3046 2.09426C45.2044 1.64422 42.8042 2.84432 41.9791 4.8695C41.4541 6.1446 41.6041 7.79475 42.5792 8.76983C43.5542 9.74491 45.3544 9.89492 46.3295 8.84483" stroke="white" stroke-opacity="0.66" stroke-width="2.25019" stroke-miterlimit="10" stroke-linecap="round"/>
<path d="M13.9258 21.146C17.4511 18.5208 21.4264 16.4956 25.6268 15.1455" stroke="white" stroke-opacity="0.66" stroke-width="2.25019" stroke-miterlimit="10" stroke-linecap="round"/>
<path d="M21.8019 21.7459C25.2522 18.8957 29.7526 17.3206 34.1779 17.3206C41.3035 17.3206 47.9041 21.2209 55.0297 21.2209C57.0549 21.2209 59.3051 20.7709 60.7302 19.2707C62.3053 17.6206 62.4553 14.6953 60.9552 13.0452C59.3801 11.3201 56.3048 11.3951 54.8797 13.1952C54.1296 14.1703 53.9046 15.6704 54.7297 16.6455C55.5547 17.6206 57.3549 17.5456 57.8799 16.4205" stroke="#E4E4E4" stroke-opacity="0.51" stroke-width="2.25019" stroke-miterlimit="10" stroke-linecap="round"/>
<path d="M2 31.0467C5.30028 33.4469 10.0257 32.9219 13.926 31.5718C18.5764 29.9216 22.8518 27.2964 27.2771 24.9712C28.9273 24.0711 30.5774 23.2461 32.3776 22.796C34.7778 22.196 37.328 22.271 39.6532 23.0961C40.8533 23.5461 41.9784 24.1461 42.8035 25.0462C44.3786 26.7714 44.6786 29.5466 43.5535 31.5718C42.3534 33.5969 39.8032 34.722 37.553 34.197C36.953 34.047 36.2779 33.822 35.8279 33.3719C34.1027 31.7218 34.7028 27.8965 37.628 28.1215C38.4531 28.1965 39.2032 28.6465 39.5782 29.3966" stroke="white" stroke-opacity="0.66" stroke-width="2.25019" stroke-miterlimit="10" stroke-linecap="round"/>
</svg>
