<svg width="513" height="62" viewBox="0 0 513 62" fill="none" xmlns="http://www.w3.org/2000/svg">
<path fill-rule="evenodd" clip-rule="evenodd" d="M0 28.9697L21.375 21.3278C42.75 13.4129 85.5 -2.41679 128.25 0.312473C171 2.76881 213.75 23.7841 256.5 34.4282C299.25 44.7994 342 44.7994 384.75 39.6138C427.5 34.4282 470.25 23.7841 491.625 18.5985L513 13.4129V123.402H491.625C470.25 123.402 427.5 123.402 384.75 123.402C342 123.402 299.25 123.402 256.5 123.402C213.75 123.402 171 123.402 128.25 123.402C85.5 123.402 42.75 123.402 21.375 123.402H0V28.9697Z" fill="white"/>
</svg>
