<svg width="24" height="24" viewBox="0 0 24 24" fill="none" xmlns="http://www.w3.org/2000/svg">
<path d="M17.9164 0.0556641H5.97214C2.67382 0.0556641 0 2.72948 0 6.0278V17.9721C0 21.2704 2.67382 23.9442 5.97214 23.9442H17.9164C21.2147 23.9442 23.8886 21.2704 23.8886 17.9721V6.0278C23.8886 2.72948 21.2147 0.0556641 17.9164 0.0556641Z" fill="url(#paint0_linear_4764_423)"/>
<path d="M17.2833 12.0612C17.4477 13.1699 17.2584 14.3022 16.7422 15.2971C16.2259 16.292 15.4092 17.0987 14.408 17.6026C13.4069 18.1065 12.2723 18.2819 11.1657 18.1039C10.0591 17.9258 9.03687 17.4033 8.24434 16.6108C7.4518 15.8183 6.92934 14.796 6.75128 13.6894C6.57321 12.5828 6.74861 11.4483 7.25252 10.4471C7.75643 9.44597 8.56319 8.6292 9.55805 8.11299C10.5529 7.59677 11.6852 7.4074 12.7939 7.5718C13.9248 7.7395 14.9718 8.26648 15.7802 9.0749C16.5887 9.88332 17.1156 10.9303 17.2833 12.0612Z" stroke="white" stroke-width="1.90058" stroke-linecap="round" stroke-linejoin="round"/>
<circle cx="17.9784" cy="5.96544" r="0.754375" fill="white"/>
<defs>
<linearGradient id="paint0_linear_4764_423" x1="11.9443" y1="0.0556641" x2="11.9443" y2="23.9442" gradientUnits="userSpaceOnUse">
<stop stop-color="#8E3DB4"/>
<stop offset="0.182292" stop-color="#C23390"/>
<stop offset="0.453125" stop-color="#DF2D73"/>
<stop offset="0.671875" stop-color="#F8702F"/>
<stop offset="1" stop-color="#FDB95A"/>
</linearGradient>
</defs>
</svg>
