<svg width="13" height="17" viewBox="0 0 13 17" fill="none" xmlns="http://www.w3.org/2000/svg">
<g clip-path="url(#clip0_4764_417)">
<path d="M11.7057 6.80526C11.7057 10.8053 6.3724 14.8053 6.3724 14.8053C6.3724 14.8053 1.03906 10.8053 1.03906 6.80526C1.03906 5.39077 1.60097 4.03422 2.60116 3.03402C3.60135 2.03383 4.95791 1.47192 6.3724 1.47192C7.78688 1.47192 9.14344 2.03383 10.1436 3.03402C11.1438 4.03422 11.7057 5.39077 11.7057 6.80526V6.80526Z" stroke="#9F9F9F" stroke-width="1.03226" stroke-linecap="round" stroke-linejoin="round"/>
<path d="M7.85692 6.8053C7.85692 7.62482 7.19257 8.28917 6.37305 8.28917C5.55353 8.28917 4.88918 7.62482 4.88918 6.8053C4.88918 5.98578 5.55353 5.32143 6.37305 5.32143C7.19257 5.32143 7.85692 5.98578 7.85692 6.8053Z" stroke="#9F9F9F" stroke-width="1.03226"/>
</g>
<defs>
<clipPath id="clip0_4764_417">
<rect width="12.9032" height="16" fill="white" transform="translate(0 0.5)"/>
</clipPath>
</defs>
</svg>
