<svg width="1920" height="2897" viewBox="0 0 1920 2897" fill="none" xmlns="http://www.w3.org/2000/svg">
<line x1="130.5" y1="1" x2="130.5" y2="1101" stroke="#424F44" stroke-opacity="0.1"/>
<line x1="405.5" y1="1" x2="405.5" y2="1101" stroke="#424F44" stroke-opacity="0.1"/>
<line x1="680.5" y1="10" x2="680.5" y2="1100" stroke="#424F44" stroke-opacity="0.1"/>
<line x1="955.5" y1="1" x2="955.5" y2="1101" stroke="#424F44" stroke-opacity="0.1"/>
<line x1="1230.5" y1="10" x2="1230.5" y2="1101" stroke="#424F44" stroke-opacity="0.1"/>
<line x1="1505.5" y1="1" x2="1505.5" y2="1101" stroke="#424F44" stroke-opacity="0.1"/>
<line x1="1780.5" y1="1" x2="1780.5" y2="1101" stroke="#424F44" stroke-opacity="0.1"/>
<line x1="-87" y1="1100.5" x2="1997" y2="1100.5" stroke="#424F44" stroke-opacity="0.1"/>
<line x1="-87" y1="825.5" x2="1997" y2="825.5" stroke="#424F44" stroke-opacity="0.1"/>
<line x1="-87" y1="550.5" x2="1997" y2="550.5" stroke="#424F44" stroke-opacity="0.1"/>
<line x1="-87" y1="275.5" x2="1997" y2="275.5" stroke="#424F44" stroke-opacity="0.1"/>
<line x1="-87" y1="0.5" x2="1997" y2="0.500091" stroke="#424F44" stroke-opacity="0.1"/>
<circle cx="405" cy="825" r="275.5" stroke="#424F44" stroke-opacity="0.1"/>
<circle cx="957" cy="826" r="275.5" stroke="#424F44" stroke-opacity="0.1"/>
<circle cx="1506" cy="825" r="275.5" stroke="#424F44" stroke-opacity="0.1"/>
<circle cx="1509" cy="277" r="275.5" stroke="#424F44" stroke-opacity="0.1"/>
<circle cx="957" cy="277" r="275.5" stroke="#424F44" stroke-opacity="0.1"/>
<path d="M-148 1118C157.966 1118 406 869.966 406 564C406 258.034 157.966 10 -148 10" stroke="#424F44" stroke-opacity="0.1"/>
<circle cx="955.5" cy="552.5" r="549" stroke="#424F44" stroke-opacity="0.1"/>
<path d="M2063.5 1118C1755.05 1118 1505 867.951 1505 559.5C1505 251.049 1755.05 1 2063.5 1" stroke="#424F44" stroke-opacity="0.1"/>
<circle cx="406" cy="277" r="275.5" stroke="#424F44" stroke-opacity="0.1"/>
<line x1="130.5" y1="1101" x2="130.5" y2="2201" stroke="#424F44" stroke-opacity="0.1"/>
<line x1="405.5" y1="1101" x2="405.5" y2="2201" stroke="#424F44" stroke-opacity="0.1"/>
<line x1="680.5" y1="1110" x2="680.5" y2="2200" stroke="#424F44" stroke-opacity="0.1"/>
<line x1="955.5" y1="1101" x2="955.5" y2="2201" stroke="#424F44" stroke-opacity="0.1"/>
<line x1="1230.5" y1="1110" x2="1230.5" y2="2201" stroke="#424F44" stroke-opacity="0.1"/>
<line x1="1505.5" y1="1101" x2="1505.5" y2="2201" stroke="#424F44" stroke-opacity="0.1"/>
<line x1="1780.5" y1="1101" x2="1780.5" y2="2201" stroke="#424F44" stroke-opacity="0.1"/>
<line x1="-87" y1="2200.5" x2="1997" y2="2200.5" stroke="#424F44" stroke-opacity="0.1"/>
<line x1="-87" y1="1925.5" x2="1997" y2="1925.5" stroke="#424F44" stroke-opacity="0.1"/>
<line x1="-87" y1="1650.5" x2="1997" y2="1650.5" stroke="#424F44" stroke-opacity="0.1"/>
<line x1="-87" y1="1375.5" x2="1997" y2="1375.5" stroke="#424F44" stroke-opacity="0.1"/>
<line x1="-87" y1="1100.5" x2="1997" y2="1100.5" stroke="#424F44" stroke-opacity="0.1"/>
<circle cx="405" cy="1925" r="275.5" stroke="#424F44" stroke-opacity="0.1"/>
<circle cx="957" cy="1926" r="275.5" stroke="#424F44" stroke-opacity="0.1"/>
<circle cx="1506" cy="1925" r="275.5" stroke="#424F44" stroke-opacity="0.1"/>
<circle cx="1509" cy="1377" r="275.5" stroke="#424F44" stroke-opacity="0.1"/>
<circle cx="957" cy="1377" r="275.5" stroke="#424F44" stroke-opacity="0.1"/>
<path d="M-148 2218C157.966 2218 406 1969.97 406 1664C406 1358.03 157.966 1110 -148 1110" stroke="#424F44" stroke-opacity="0.1"/>
<circle cx="955.5" cy="1652.5" r="549" stroke="#424F44" stroke-opacity="0.1"/>
<path d="M2063.5 2218C1755.05 2218 1505 1967.95 1505 1659.5C1505 1351.05 1755.05 1101 2063.5 1101" stroke="#424F44" stroke-opacity="0.1"/>
<circle cx="406" cy="1377" r="275.5" stroke="#424F44" stroke-opacity="0.1"/>
<line x1="130.5" y1="2201" x2="130.5" y2="3301" stroke="#424F44" stroke-opacity="0.1"/>
<line x1="405.5" y1="2201" x2="405.5" y2="3301" stroke="#424F44" stroke-opacity="0.1"/>
<line x1="680.5" y1="2210" x2="680.5" y2="3300" stroke="#424F44" stroke-opacity="0.1"/>
<line x1="955.5" y1="2201" x2="955.5" y2="3301" stroke="#424F44" stroke-opacity="0.1"/>
<line x1="1230.5" y1="2210" x2="1230.5" y2="3301" stroke="#424F44" stroke-opacity="0.1"/>
<line x1="1505.5" y1="2201" x2="1505.5" y2="3301" stroke="#424F44" stroke-opacity="0.1"/>
<line x1="1780.5" y1="2201" x2="1780.5" y2="3301" stroke="#424F44" stroke-opacity="0.1"/>
<line x1="-87" y1="2750.5" x2="1997" y2="2750.5" stroke="#424F44" stroke-opacity="0.1"/>
<line x1="-87" y1="2475.5" x2="1997" y2="2475.5" stroke="#424F44" stroke-opacity="0.1"/>
<line x1="-87" y1="2200.5" x2="1997" y2="2200.5" stroke="#424F44" stroke-opacity="0.1"/>
<circle cx="405" cy="3025" r="275.5" stroke="#424F44" stroke-opacity="0.1"/>
<circle cx="957" cy="3026" r="275.5" stroke="#424F44" stroke-opacity="0.1"/>
<circle cx="1506" cy="3025" r="275.5" stroke="#424F44" stroke-opacity="0.1"/>
<circle cx="1509" cy="2477" r="275.5" stroke="#424F44" stroke-opacity="0.1"/>
<circle cx="957" cy="2477" r="275.5" stroke="#424F44" stroke-opacity="0.1"/>
<path d="M-148 3318C157.966 3318 406 3069.97 406 2764C406 2458.03 157.966 2210 -148 2210" stroke="#424F44" stroke-opacity="0.1"/>
<circle cx="955.5" cy="2752.5" r="549" stroke="#424F44" stroke-opacity="0.1"/>
<path d="M2063.5 3318C1755.05 3318 1505 3067.95 1505 2759.5C1505 2451.05 1755.05 2201 2063.5 2201" stroke="#424F44" stroke-opacity="0.1"/>
<circle cx="406" cy="2477" r="275.5" stroke="#424F44" stroke-opacity="0.1"/>
<line x1="130.5" y1="1" x2="130.5" y2="1101" stroke="white" stroke-opacity="0.1"/>
<line x1="405.5" y1="1" x2="405.5" y2="1101" stroke="white" stroke-opacity="0.1"/>
<line x1="680.5" y1="10" x2="680.5" y2="1100" stroke="white" stroke-opacity="0.1"/>
<line x1="955.5" y1="1" x2="955.5" y2="1101" stroke="white" stroke-opacity="0.1"/>
<line x1="1230.5" y1="10" x2="1230.5" y2="1101" stroke="white" stroke-opacity="0.1"/>
<line x1="1505.5" y1="1" x2="1505.5" y2="1101" stroke="white" stroke-opacity="0.1"/>
<line x1="1780.5" y1="1" x2="1780.5" y2="1101" stroke="white" stroke-opacity="0.1"/>
<line x1="-87" y1="1100.5" x2="1997" y2="1100.5" stroke="white" stroke-opacity="0.1"/>
<line x1="-87" y1="825.5" x2="1997" y2="825.5" stroke="white" stroke-opacity="0.1"/>
<line x1="-87" y1="550.5" x2="1997" y2="550.5" stroke="white" stroke-opacity="0.1"/>
<line x1="-87" y1="275.5" x2="1997" y2="275.5" stroke="white" stroke-opacity="0.1"/>
<line x1="-87" y1="0.5" x2="1997" y2="0.500091" stroke="white" stroke-opacity="0.1"/>
<circle cx="405" cy="825" r="275.5" stroke="white" stroke-opacity="0.1"/>
<circle cx="957" cy="826" r="275.5" stroke="white" stroke-opacity="0.1"/>
<circle cx="1506" cy="825" r="275.5" stroke="white" stroke-opacity="0.1"/>
<circle cx="1509" cy="277" r="275.5" stroke="white" stroke-opacity="0.1"/>
<circle cx="957" cy="277" r="275.5" stroke="white" stroke-opacity="0.1"/>
<path d="M-148 1118C157.966 1118 406 869.966 406 564C406 258.034 157.966 10 -148 10" stroke="white" stroke-opacity="0.1"/>
<circle cx="955.5" cy="552.5" r="549" stroke="white" stroke-opacity="0.1"/>
<path d="M2063.5 1118C1755.05 1118 1505 867.951 1505 559.5C1505 251.049 1755.05 1 2063.5 1" stroke="white" stroke-opacity="0.1"/>
<circle cx="406" cy="277" r="275.5" stroke="white" stroke-opacity="0.1"/>
<line x1="130.5" y1="1101" x2="130.5" y2="2201" stroke="white" stroke-opacity="0.1"/>
<line x1="405.5" y1="1101" x2="405.5" y2="2201" stroke="white" stroke-opacity="0.1"/>
<line x1="680.5" y1="1110" x2="680.5" y2="2200" stroke="white" stroke-opacity="0.1"/>
<line x1="955.5" y1="1101" x2="955.5" y2="2201" stroke="white" stroke-opacity="0.1"/>
<line x1="1230.5" y1="1110" x2="1230.5" y2="2201" stroke="white" stroke-opacity="0.1"/>
<line x1="1505.5" y1="1101" x2="1505.5" y2="2201" stroke="white" stroke-opacity="0.1"/>
<line x1="1780.5" y1="1101" x2="1780.5" y2="2201" stroke="white" stroke-opacity="0.1"/>
<line x1="-87" y1="2200.5" x2="1997" y2="2200.5" stroke="white" stroke-opacity="0.1"/>
<line x1="-87" y1="1925.5" x2="1997" y2="1925.5" stroke="white" stroke-opacity="0.1"/>
<line x1="-87" y1="1650.5" x2="1997" y2="1650.5" stroke="white" stroke-opacity="0.1"/>
<line x1="-87" y1="1375.5" x2="1997" y2="1375.5" stroke="white" stroke-opacity="0.1"/>
<line x1="-87" y1="1100.5" x2="1997" y2="1100.5" stroke="white" stroke-opacity="0.1"/>
<circle cx="405" cy="1925" r="275.5" stroke="white" stroke-opacity="0.1"/>
<circle cx="957" cy="1926" r="275.5" stroke="white" stroke-opacity="0.1"/>
<circle cx="1506" cy="1925" r="275.5" stroke="white" stroke-opacity="0.1"/>
<circle cx="1509" cy="1377" r="275.5" stroke="white" stroke-opacity="0.1"/>
<circle cx="957" cy="1377" r="275.5" stroke="white" stroke-opacity="0.1"/>
<path d="M-148 2218C157.966 2218 406 1969.97 406 1664C406 1358.03 157.966 1110 -148 1110" stroke="white" stroke-opacity="0.1"/>
<circle cx="955.5" cy="1652.5" r="549" stroke="white" stroke-opacity="0.1"/>
<path d="M2063.5 2218C1755.05 2218 1505 1967.95 1505 1659.5C1505 1351.05 1755.05 1101 2063.5 1101" stroke="white" stroke-opacity="0.1"/>
<circle cx="406" cy="1377" r="275.5" stroke="white" stroke-opacity="0.1"/>
<line x1="130.5" y1="2201" x2="130.5" y2="3301" stroke="white" stroke-opacity="0.1"/>
<line x1="405.5" y1="2201" x2="405.5" y2="3301" stroke="white" stroke-opacity="0.1"/>
<line x1="680.5" y1="2210" x2="680.5" y2="3300" stroke="white" stroke-opacity="0.1"/>
<line x1="955.5" y1="2201" x2="955.5" y2="3301" stroke="white" stroke-opacity="0.1"/>
<line x1="1230.5" y1="2210" x2="1230.5" y2="3301" stroke="white" stroke-opacity="0.1"/>
<line x1="1505.5" y1="2201" x2="1505.5" y2="3301" stroke="white" stroke-opacity="0.1"/>
<line x1="1780.5" y1="2201" x2="1780.5" y2="3301" stroke="white" stroke-opacity="0.1"/>
<line x1="-87" y1="2750.5" x2="1997" y2="2750.5" stroke="white" stroke-opacity="0.1"/>
<line x1="-87" y1="2475.5" x2="1997" y2="2475.5" stroke="white" stroke-opacity="0.1"/>
<line x1="-87" y1="2200.5" x2="1997" y2="2200.5" stroke="white" stroke-opacity="0.1"/>
<circle cx="405" cy="3025" r="275.5" stroke="white" stroke-opacity="0.1"/>
<circle cx="957" cy="3026" r="275.5" stroke="white" stroke-opacity="0.1"/>
<circle cx="1506" cy="3025" r="275.5" stroke="white" stroke-opacity="0.1"/>
<circle cx="1509" cy="2477" r="275.5" stroke="white" stroke-opacity="0.1"/>
<circle cx="957" cy="2477" r="275.5" stroke="white" stroke-opacity="0.1"/>
<path d="M-148 3318C157.966 3318 406 3069.97 406 2764C406 2458.03 157.966 2210 -148 2210" stroke="white" stroke-opacity="0.1"/>
<circle cx="955.5" cy="2752.5" r="549" stroke="white" stroke-opacity="0.1"/>
<path d="M2063.5 3318C1755.05 3318 1505 3067.95 1505 2759.5C1505 2451.05 1755.05 2201 2063.5 2201" stroke="white" stroke-opacity="0.1"/>
<circle cx="406" cy="2477" r="275.5" stroke="white" stroke-opacity="0.1"/>
</svg>
