<svg width="32" height="33" viewBox="0 0 32 33" fill="none" xmlns="http://www.w3.org/2000/svg">
<g clip-path="url(#clip0_2846_467111)">
<path d="M13.7417 0.54166C11.3017 0.86166 9.04167 1.69666 7.025 3.02333C4.25667 4.84666 2.125 7.51833 0.951667 10.6367C0.506667 11.82 0.208333 13.0267 0.0416667 14.315L0 14.64V16.4167V18.1933L0.0416667 18.5183C0.603333 22.87 2.815 26.6917 6.27 29.2783C8.76 31.1433 11.7567 32.2233 14.9333 32.4C15.33 32.4217 16.3367 32.4217 16.7333 32.4C19.1417 32.2667 21.4517 31.615 23.5167 30.4867C24.8583 29.7533 26.025 28.8783 27.1167 27.785C28.1567 26.7433 29.0117 25.6083 29.7417 24.3083C29.9167 23.995 30.315 23.175 30.4717 22.8083C31.2017 21.09 31.6167 19.2883 31.7333 17.3383C31.755 16.9683 31.755 15.865 31.7333 15.495C31.6317 13.7783 31.305 12.2117 30.725 10.6583C30.3867 9.74999 29.8517 8.66666 29.3417 7.84999C28.41 6.35999 27.2533 5.04833 25.9 3.94499C23.6333 2.09833 20.8617 0.91666 17.91 0.54166L17.5817 0.499994L15.8117 0.501661C14.0533 0.503326 14.04 0.503326 13.7417 0.54166ZM15.1333 5.39999V8.93499L15.0383 8.92666C14.985 8.92166 14.8483 8.90833 14.7333 8.89999C13.4767 8.79166 11.945 8.45333 10.6167 7.98833L10.3533 7.89666L10.4183 7.73833C11.165 5.94666 12.255 4.00833 13.495 2.26666L13.68 2.00666L13.9183 1.96999C14.3017 1.91166 14.66 1.87833 14.9967 1.86999L15.1333 1.86666V5.39999ZM17.275 1.90833C17.4033 1.92166 17.615 1.94999 17.7467 1.96999L17.985 2.00666L18.1233 2.19833C19.34 3.89666 20.3967 5.75166 21.1583 7.52999C21.2367 7.71499 21.3 7.87666 21.2967 7.88666C21.2833 7.92333 20.4433 8.19833 19.8283 8.36666C18.8683 8.62833 17.8067 8.82499 16.9333 8.89999C16.8183 8.90833 16.6817 8.92166 16.63 8.92666L16.5333 8.93499V5.39833V1.86166L16.7883 1.87333C16.9267 1.87999 17.1467 1.89666 17.275 1.90833ZM11.7817 2.46666C11.055 3.49999 10.6033 4.24833 10.0583 5.32499C9.73333 5.96833 9.405 6.69166 9.19833 7.21999C9.16667 7.30166 9.135 7.36666 9.12667 7.36666C9.12 7.36666 9.035 7.33333 8.94 7.29166C8.21 6.97333 7.36333 6.52666 6.71667 6.11999C6.46167 5.95999 6.00167 5.64666 6.00167 5.63333C6.00333 5.62166 6.25 5.40499 6.525 5.17499C7.81167 4.09999 9.23833 3.28333 10.7667 2.74999C11.05 2.65166 11.7367 2.43999 11.79 2.43499C11.7983 2.43333 11.7933 2.44833 11.7817 2.46666ZM20.2417 2.53999C21.9183 3.02333 23.5267 3.86833 24.9533 5.01999C25.26 5.26666 25.6767 5.63166 25.6633 5.63999C25.5633 5.71499 25.1167 6.01666 24.95 6.11999C24.3083 6.52333 23.4483 6.97666 22.7317 7.28999C22.6333 7.33166 22.5467 7.36666 22.5383 7.36666C22.53 7.36666 22.5133 7.33833 22.5017 7.30333C22.4883 7.26999 22.4083 7.07499 22.3233 6.87166C21.6583 5.29166 20.89 3.88999 19.9667 2.57666C19.895 2.47499 19.8717 2.43333 19.8933 2.43999C19.9117 2.44499 20.0683 2.48999 20.2417 2.53999ZM5.355 6.85666C5.98167 7.27333 6.53833 7.58666 7.39167 8.00666C7.695 8.15666 8.1 8.34833 8.29167 8.43333C8.485 8.51999 8.64667 8.59333 8.65333 8.59833C8.66 8.60499 8.62 8.73166 8.56667 8.88166C7.775 11.0667 7.205 13.5833 7.09833 15.3667C7.08833 15.5367 7.07667 15.685 7.07333 15.695C7.06833 15.7117 6.48833 15.7167 4.245 15.7167C2.69167 15.7167 1.41833 15.7133 1.415 15.71C1.395 15.6883 1.46167 14.8283 1.51833 14.3833C1.87833 11.5433 3.015 8.95166 4.82167 6.84499C4.92167 6.72833 5.00833 6.63333 5.01167 6.63333C5.01667 6.63333 5.17 6.73333 5.355 6.85666ZM26.8517 6.85333C28.7933 9.11666 29.96 11.955 30.2167 15.0417C30.25 15.4383 30.26 15.7033 30.2417 15.71C30.2333 15.7133 28.9583 15.715 27.4083 15.7133L24.5917 15.7083L24.58 15.5C24.5133 14.36 24.27 12.915 23.9083 11.5083C23.685 10.6433 23.3467 9.54999 23.0683 8.79166C23.0317 8.69166 23.0067 8.60499 23.0133 8.59833C23.02 8.59333 23.1083 8.55333 23.2083 8.50833C24.3933 7.98833 25.5083 7.39499 26.325 6.84666C26.5 6.72999 26.6467 6.63499 26.6517 6.63333C26.6583 6.63333 26.7483 6.73333 26.8517 6.85333ZM10.0517 9.12333C10.2533 9.21166 10.8983 9.45499 11.2483 9.57333C12.4233 9.97333 13.595 10.2417 14.65 10.3483C14.8283 10.3667 15.0083 10.385 15.05 10.3867L15.125 10.3917L15.13 13.0533L15.1333 15.7167H11.8083H8.48333V15.6367C8.48333 15.525 8.52833 14.9367 8.55833 14.64C8.72333 13.035 9.135 11.27 9.72833 9.63333C9.80667 9.41833 9.88167 9.20666 9.89667 9.16166C9.91167 9.11833 9.93167 9.08333 9.94333 9.08333C9.95333 9.08333 10.0033 9.10166 10.0517 9.12333ZM21.7783 9.19166C21.97 9.68499 22.2783 10.6217 22.4467 11.225C22.8567 12.6867 23.1017 14.1233 23.1767 15.5033L23.1883 15.7167H19.86H16.5333L16.5367 13.0533L16.5417 10.3917L16.7 10.38C17.3667 10.3283 18.1833 10.1933 18.9417 10.0083C19.7367 9.81333 20.7717 9.47333 21.48 9.17499C21.5967 9.12666 21.7017 9.08666 21.715 9.08833C21.7283 9.08999 21.7567 9.13666 21.7783 9.19166ZM7.08667 17.4033C7.16167 19.2033 7.69333 21.5967 8.51333 23.825C8.58833 24.0267 8.65 24.2017 8.65333 24.2133C8.65667 24.225 8.53833 24.2883 8.35 24.3733C7.09333 24.94 6.185 25.4267 5.35167 25.98L5.01 26.205L4.93 26.115C4.765 25.9317 4.45667 25.55 4.24333 25.2667C2.625 23.1117 1.65833 20.5033 1.44333 17.7C1.42167 17.4267 1.41 17.1817 1.415 17.1283C1.41667 17.1217 2.69 17.1183 4.24667 17.12L7.075 17.125L7.08667 17.4033ZM15.125 19.7833V22.4417L14.8167 22.47C13.3683 22.6 11.7083 23.0283 10.1617 23.6667C10.0517 23.7133 9.95333 23.75 9.94333 23.75C9.93167 23.75 9.91167 23.715 9.89667 23.67C9.88167 23.6267 9.81333 23.43 9.74333 23.2333C9.04167 21.2633 8.59167 19.1433 8.49 17.32L8.47833 17.1167L11.8017 17.12L15.125 17.125V19.7833ZM23.1767 17.32C23.0933 18.82 22.7883 20.4617 22.2817 22.1417C22.1067 22.72 21.77 23.7033 21.7333 23.74C21.7267 23.7467 21.5633 23.69 21.3633 23.6117C19.7817 22.98 18.28 22.6 16.85 22.4683L16.5417 22.44L16.5367 19.7783L16.5333 17.1167H19.86H23.1883L23.1767 17.32ZM30.2517 17.1233C30.255 17.1283 30.2533 17.2317 30.2467 17.3533C30.0733 20.6 28.8883 23.6067 26.845 25.9867C26.745 26.105 26.6583 26.2 26.655 26.2C26.65 26.2 26.4967 26.1 26.3117 25.9767C25.4883 25.43 24.475 24.8883 23.3 24.3667C23.1483 24.3 23.02 24.24 23.0133 24.235C23.0067 24.23 23.055 24.0867 23.1183 23.9167C23.3867 23.2067 23.7067 22.1967 23.9183 21.4C24.2917 19.9883 24.54 18.49 24.5767 17.4333C24.5817 17.2817 24.5883 17.1483 24.5933 17.1367C24.5983 17.1217 25.1783 17.1167 27.4217 17.1167C28.975 17.1167 30.2483 17.12 30.2517 17.1233ZM15.1333 27.435V30.9717L14.88 30.96C14.565 30.945 14.2333 30.9117 13.92 30.8633L13.6817 30.8267L13.5267 30.6183C12.53 29.2633 11.575 27.595 10.8217 25.8917C10.665 25.535 10.3967 24.8967 10.4033 24.8917C10.4167 24.8783 11.1167 24.6533 11.3833 24.575C12.47 24.2567 13.69 24.0233 14.7333 23.9333C14.8483 23.925 14.9683 23.9133 15 23.91C15.0317 23.9083 15.075 23.9033 15.0967 23.9033L15.1333 23.9V27.435ZM16.925 23.9333C17.9383 24.0183 19.145 24.2467 20.2233 24.5583C20.5417 24.65 21.2483 24.8767 21.2633 24.89C21.265 24.8933 21.2 25.0567 21.1183 25.2533C20.2833 27.2583 19.27 29.0783 18.115 30.6517L17.985 30.8267L17.7467 30.8633C17.4333 30.9117 17.1017 30.945 16.7883 30.96L16.5333 30.9717V27.435V23.8983L16.6217 23.9067C16.6683 23.9117 16.8067 23.925 16.925 23.9333ZM9.21 25.4833C9.675 26.7217 10.2133 27.85 10.8417 28.8983C11.05 29.2467 11.485 29.9133 11.6883 30.1917C11.7483 30.2733 11.795 30.3433 11.7933 30.345C11.7867 30.3533 11.325 30.23 11.0567 30.1483C9.56167 29.695 8.06333 28.895 6.77 27.8583C6.415 27.5733 5.98833 27.2033 6.00333 27.1933C6.31167 26.9517 7.02833 26.4967 7.56667 26.1967C8.01833 25.945 9.13 25.4083 9.17333 25.4217C9.18167 25.425 9.19667 25.4517 9.21 25.4833ZM22.79 25.5433C23.5517 25.8833 24.3883 26.3367 25.0417 26.7633C25.2033 26.8683 25.5833 27.13 25.6633 27.1933C25.6783 27.2033 25.225 27.5967 24.87 27.88C23.5833 28.9067 22.0983 29.6983 20.61 30.1483C20.3367 30.2317 19.88 30.3533 19.8733 30.345C19.87 30.3433 19.905 30.2917 19.95 30.23C20.3483 29.6883 20.8283 28.925 21.21 28.2283C21.6283 27.4667 22.11 26.4167 22.3983 25.6383C22.475 25.4317 22.4817 25.4167 22.4933 25.4167C22.5 25.4167 22.6333 25.4733 22.79 25.5433Z" fill="white"/>
</g>
<defs>
<clipPath id="clip0_2846_467111">
<rect width="32" height="32" fill="white" transform="translate(0 0.5)"/>
</clipPath>
</defs>
</svg>
