<svg width="32" height="32" viewBox="0 0 32 32" fill="none" xmlns="http://www.w3.org/2000/svg">
<path d="M28 13C28 22 16 31 16 31C16 31 4 22 4 13C4 9.8174 5.26428 6.76516 7.51472 4.51472C9.76516 2.26428 12.8174 1 16 1C19.1826 1 22.2348 2.26428 24.4853 4.51472C26.7357 6.76516 28 9.8174 28 13V13Z" stroke="#B68742" stroke-width="2" stroke-linecap="round" stroke-linejoin="round"/>
<path d="M19.4978 13C19.4978 14.933 17.9308 16.5 15.9978 16.5C14.0648 16.5 12.4978 14.933 12.4978 13C12.4978 11.067 14.0648 9.5 15.9978 9.5C17.9308 9.5 19.4978 11.067 19.4978 13Z" stroke="#B68742" stroke-width="2"/>
</svg>
