<svg width="55" height="32" viewBox="0 0 55 32" fill="none" xmlns="http://www.w3.org/2000/svg">
<path d="M14.2888 14.2232C17.2539 11.6932 21.1859 10.3958 24.9889 10.6553C29.5655 10.9797 33.9487 13.315 38.4608 12.796C39.75 12.6663 41.0391 12.2771 42.0705 11.4986C43.553 10.3958 44.4554 8.44971 44.1976 6.56847C43.9398 4.68723 42.4572 3.06547 40.6524 2.67625C38.8475 2.28703 36.7849 3.32495 36.0758 5.07645C35.6246 6.17925 35.7535 7.6064 36.5915 8.44971C37.4295 9.29303 38.9765 9.42277 39.8144 8.51458" stroke="#B68742" stroke-opacity="0.51" stroke-width="2.25019" stroke-miterlimit="10" stroke-linecap="round"/>
<path d="M11.9675 19.1535C14.9971 16.883 18.4134 15.1315 22.0231 13.9639" stroke="#B68742" stroke-opacity="0.51" stroke-width="2.25019" stroke-miterlimit="10" stroke-linecap="round"/>
<path d="M18.7361 19.672C21.7012 17.2069 25.5687 15.8446 29.3718 15.8446C35.4953 15.8446 41.1677 19.2179 47.2912 19.2179C49.0316 19.2179 50.9654 18.8287 52.1901 17.5313C53.5437 16.1041 53.6726 13.5742 52.3835 12.147C51.0298 10.655 48.387 10.7199 47.1623 12.2768C46.5177 13.1201 46.3244 14.4175 47.0334 15.2608C47.7425 16.1041 49.2895 16.0392 49.7407 15.0662" stroke="#B68742" stroke-width="2.25019" stroke-miterlimit="10" stroke-linecap="round"/>
<path d="M1.71875 27.7165C4.55493 29.7923 8.61582 29.3382 11.9677 28.1706C15.9641 26.7434 19.6382 24.4729 23.4413 22.462C24.8594 21.6835 26.2775 20.9699 27.8245 20.5807C29.8872 20.0618 32.0788 20.1266 34.077 20.8402C35.1083 21.2294 36.0752 21.7484 36.7842 22.5268C38.1379 24.0188 38.3957 26.4191 37.4288 28.1706C36.3975 29.9221 34.2059 30.8951 32.2721 30.441C31.7565 30.3113 31.1763 30.1167 30.7896 29.7274C29.307 28.3003 29.8227 24.9919 32.3366 25.1865C33.0456 25.2514 33.6902 25.6406 34.0125 26.2893" stroke="#B68742" stroke-opacity="0.51" stroke-width="2.25019" stroke-miterlimit="10" stroke-linecap="round"/>
</svg>
