<svg width="32" height="32" viewBox="0 0 32 32" fill="none" xmlns="http://www.w3.org/2000/svg">
<g clip-path="url(#clip0_2846_506483)">
<path d="M13.7417 0.0416756C11.3017 0.361675 9.04167 1.19668 7.025 2.52334C4.25667 4.34668 2.125 7.01834 0.951667 10.1367C0.506667 11.32 0.208333 12.5267 0.0416667 13.815L0 14.14V15.9167V17.6933L0.0416667 18.0183C0.603333 22.37 2.815 26.1917 6.27 28.7783C8.76 30.6433 11.7567 31.7233 14.9333 31.9C15.33 31.9217 16.3367 31.9217 16.7333 31.9C19.1417 31.7667 21.4517 31.115 23.5167 29.9867C24.8583 29.2533 26.025 28.3783 27.1167 27.285C28.1567 26.2433 29.0117 25.1083 29.7417 23.8083C29.9167 23.495 30.315 22.675 30.4717 22.3083C31.2017 20.59 31.6167 18.7883 31.7333 16.8383C31.755 16.4683 31.755 15.365 31.7333 14.995C31.6317 13.2783 31.305 11.7117 30.725 10.1583C30.3867 9.25001 29.8517 8.16668 29.3417 7.35001C28.41 5.86001 27.2533 4.54834 25.9 3.44501C23.6333 1.59834 20.8617 0.416676 17.91 0.0416756L17.5817 9.53674e-06L15.8117 0.00167656C14.0533 0.00334167 14.04 0.00334167 13.7417 0.0416756ZM15.1333 4.90001V8.43501L15.0383 8.42668C14.985 8.42168 14.8483 8.40834 14.7333 8.40001C13.4767 8.29168 11.945 7.95334 10.6167 7.48834L10.3533 7.39668L10.4183 7.23834C11.165 5.44668 12.255 3.50834 13.495 1.76668L13.68 1.50668L13.9183 1.47001C14.3017 1.41168 14.66 1.37834 14.9967 1.37001L15.1333 1.36668V4.90001ZM17.275 1.40834C17.4033 1.42168 17.615 1.45001 17.7467 1.47001L17.985 1.50668L18.1233 1.69834C19.34 3.39668 20.3967 5.25168 21.1583 7.03001C21.2367 7.21501 21.3 7.37668 21.2967 7.38668C21.2833 7.42334 20.4433 7.69834 19.8283 7.86668C18.8683 8.12834 17.8067 8.32501 16.9333 8.40001C16.8183 8.40834 16.6817 8.42168 16.63 8.42668L16.5333 8.43501V4.89834V1.36168L16.7883 1.37334C16.9267 1.38001 17.1467 1.39668 17.275 1.40834ZM11.7817 1.96667C11.055 3.00001 10.6033 3.74834 10.0583 4.82501C9.73333 5.46834 9.405 6.19168 9.19833 6.72001C9.16667 6.80168 9.135 6.86668 9.12667 6.86668C9.12 6.86668 9.035 6.83334 8.94 6.79168C8.21 6.47334 7.36333 6.02668 6.71667 5.62001C6.46167 5.46001 6.00167 5.14668 6.00167 5.13334C6.00333 5.12168 6.25 4.90501 6.525 4.67501C7.81167 3.60001 9.23833 2.78334 10.7667 2.25001C11.05 2.15168 11.7367 1.94001 11.79 1.93501C11.7983 1.93334 11.7933 1.94834 11.7817 1.96667ZM20.2417 2.04001C21.9183 2.52334 23.5267 3.36834 24.9533 4.52001C25.26 4.76668 25.6767 5.13168 25.6633 5.14001C25.5633 5.21501 25.1167 5.51668 24.95 5.62001C24.3083 6.02334 23.4483 6.47668 22.7317 6.79001C22.6333 6.83168 22.5467 6.86668 22.5383 6.86668C22.53 6.86668 22.5133 6.83834 22.5017 6.80334C22.4883 6.77001 22.4083 6.57501 22.3233 6.37168C21.6583 4.79168 20.89 3.39001 19.9667 2.07668C19.895 1.97501 19.8717 1.93334 19.8933 1.94001C19.9117 1.94501 20.0683 1.99001 20.2417 2.04001ZM5.355 6.35668C5.98167 6.77334 6.53833 7.08668 7.39167 7.50668C7.695 7.65668 8.1 7.84834 8.29167 7.93334C8.485 8.02001 8.64667 8.09334 8.65333 8.09834C8.66 8.10501 8.62 8.23168 8.56667 8.38168C7.775 10.5667 7.205 13.0833 7.09833 14.8667C7.08833 15.0367 7.07667 15.185 7.07333 15.195C7.06833 15.2117 6.48833 15.2167 4.245 15.2167C2.69167 15.2167 1.41833 15.2133 1.415 15.21C1.395 15.1883 1.46167 14.3283 1.51833 13.8833C1.87833 11.0433 3.015 8.45168 4.82167 6.34501C4.92167 6.22834 5.00833 6.13334 5.01167 6.13334C5.01667 6.13334 5.17 6.23334 5.355 6.35668ZM26.8517 6.35334C28.7933 8.61668 29.96 11.455 30.2167 14.5417C30.25 14.9383 30.26 15.2033 30.2417 15.21C30.2333 15.2133 28.9583 15.215 27.4083 15.2133L24.5917 15.2083L24.58 15C24.5133 13.86 24.27 12.415 23.9083 11.0083C23.685 10.1433 23.3467 9.05001 23.0683 8.29168C23.0317 8.19168 23.0067 8.10501 23.0133 8.09834C23.02 8.09334 23.1083 8.05334 23.2083 8.00834C24.3933 7.48834 25.5083 6.89501 26.325 6.34668C26.5 6.23001 26.6467 6.13501 26.6517 6.13334C26.6583 6.13334 26.7483 6.23334 26.8517 6.35334ZM10.0517 8.62334C10.2533 8.71168 10.8983 8.95501 11.2483 9.07334C12.4233 9.47334 13.595 9.74168 14.65 9.84834C14.8283 9.86668 15.0083 9.88501 15.05 9.88668L15.125 9.89168L15.13 12.5533L15.1333 15.2167H11.8083H8.48333V15.1367C8.48333 15.025 8.52833 14.4367 8.55833 14.14C8.72333 12.535 9.135 10.77 9.72833 9.13334C9.80667 8.91834 9.88167 8.70668 9.89667 8.66168C9.91167 8.61834 9.93167 8.58334 9.94333 8.58334C9.95333 8.58334 10.0033 8.60168 10.0517 8.62334ZM21.7783 8.69168C21.97 9.18501 22.2783 10.1217 22.4467 10.725C22.8567 12.1867 23.1017 13.6233 23.1767 15.0033L23.1883 15.2167H19.86H16.5333L16.5367 12.5533L16.5417 9.89168L16.7 9.88001C17.3667 9.82834 18.1833 9.69334 18.9417 9.50834C19.7367 9.31334 20.7717 8.97334 21.48 8.67501C21.5967 8.62668 21.7017 8.58668 21.715 8.58834C21.7283 8.59001 21.7567 8.63668 21.7783 8.69168ZM7.08667 16.9033C7.16167 18.7033 7.69333 21.0967 8.51333 23.325C8.58833 23.5267 8.65 23.7017 8.65333 23.7133C8.65667 23.725 8.53833 23.7883 8.35 23.8733C7.09333 24.44 6.185 24.9267 5.35167 25.48L5.01 25.705L4.93 25.615C4.765 25.4317 4.45667 25.05 4.24333 24.7667C2.625 22.6117 1.65833 20.0033 1.44333 17.2C1.42167 16.9267 1.41 16.6817 1.415 16.6283C1.41667 16.6217 2.69 16.6183 4.24667 16.62L7.075 16.625L7.08667 16.9033ZM15.125 19.2833V21.9417L14.8167 21.97C13.3683 22.1 11.7083 22.5283 10.1617 23.1667C10.0517 23.2133 9.95333 23.25 9.94333 23.25C9.93167 23.25 9.91167 23.215 9.89667 23.17C9.88167 23.1267 9.81333 22.93 9.74333 22.7333C9.04167 20.7633 8.59167 18.6433 8.49 16.82L8.47833 16.6167L11.8017 16.62L15.125 16.625V19.2833ZM23.1767 16.82C23.0933 18.32 22.7883 19.9617 22.2817 21.6417C22.1067 22.22 21.77 23.2033 21.7333 23.24C21.7267 23.2467 21.5633 23.19 21.3633 23.1117C19.7817 22.48 18.28 22.1 16.85 21.9683L16.5417 21.94L16.5367 19.2783L16.5333 16.6167H19.86H23.1883L23.1767 16.82ZM30.2517 16.6233C30.255 16.6283 30.2533 16.7317 30.2467 16.8533C30.0733 20.1 28.8883 23.1067 26.845 25.4867C26.745 25.605 26.6583 25.7 26.655 25.7C26.65 25.7 26.4967 25.6 26.3117 25.4767C25.4883 24.93 24.475 24.3883 23.3 23.8667C23.1483 23.8 23.02 23.74 23.0133 23.735C23.0067 23.73 23.055 23.5867 23.1183 23.4167C23.3867 22.7067 23.7067 21.6967 23.9183 20.9C24.2917 19.4883 24.54 17.99 24.5767 16.9333C24.5817 16.7817 24.5883 16.6483 24.5933 16.6367C24.5983 16.6217 25.1783 16.6167 27.4217 16.6167C28.975 16.6167 30.2483 16.62 30.2517 16.6233ZM15.1333 26.935V30.4717L14.88 30.46C14.565 30.445 14.2333 30.4117 13.92 30.3633L13.6817 30.3267L13.5267 30.1183C12.53 28.7633 11.575 27.095 10.8217 25.3917C10.665 25.035 10.3967 24.3967 10.4033 24.3917C10.4167 24.3783 11.1167 24.1533 11.3833 24.075C12.47 23.7567 13.69 23.5233 14.7333 23.4333C14.8483 23.425 14.9683 23.4133 15 23.41C15.0317 23.4083 15.075 23.4033 15.0967 23.4033L15.1333 23.4V26.935ZM16.925 23.4333C17.9383 23.5183 19.145 23.7467 20.2233 24.0583C20.5417 24.15 21.2483 24.3767 21.2633 24.39C21.265 24.3933 21.2 24.5567 21.1183 24.7533C20.2833 26.7583 19.27 28.5783 18.115 30.1517L17.985 30.3267L17.7467 30.3633C17.4333 30.4117 17.1017 30.445 16.7883 30.46L16.5333 30.4717V26.935V23.3983L16.6217 23.4067C16.6683 23.4117 16.8067 23.425 16.925 23.4333ZM9.21 24.9833C9.675 26.2217 10.2133 27.35 10.8417 28.3983C11.05 28.7467 11.485 29.4133 11.6883 29.6917C11.7483 29.7733 11.795 29.8433 11.7933 29.845C11.7867 29.8533 11.325 29.73 11.0567 29.6483C9.56167 29.195 8.06333 28.395 6.77 27.3583C6.415 27.0733 5.98833 26.7033 6.00333 26.6933C6.31167 26.4517 7.02833 25.9967 7.56667 25.6967C8.01833 25.445 9.13 24.9083 9.17333 24.9217C9.18167 24.925 9.19667 24.9517 9.21 24.9833ZM22.79 25.0433C23.5517 25.3833 24.3883 25.8367 25.0417 26.2633C25.2033 26.3683 25.5833 26.63 25.6633 26.6933C25.6783 26.7033 25.225 27.0967 24.87 27.38C23.5833 28.4067 22.0983 29.1983 20.61 29.6483C20.3367 29.7317 19.88 29.8533 19.8733 29.845C19.87 29.8433 19.905 29.7917 19.95 29.73C20.3483 29.1883 20.8283 28.425 21.21 27.7283C21.6283 26.9667 22.11 25.9167 22.3983 25.1383C22.475 24.9317 22.4817 24.9167 22.4933 24.9167C22.5 24.9167 22.6333 24.9733 22.79 25.0433Z" fill="white"/>
</g>
<defs>
<clipPath id="clip0_2846_506483">
<rect width="32" height="32" fill="white"/>
</clipPath>
</defs>
</svg>
