<svg width="26" height="26" viewBox="0 0 26 26" fill="none" xmlns="http://www.w3.org/2000/svg">
<path fill-rule="evenodd" clip-rule="evenodd" d="M14.5712 0.369878C13.6308 -0.118035 12.3566 -0.125557 11.4088 0.361103C7.77546 2.22648 4.48 4.36528 1.59215 6.73751C1.14557 7.10435 0.828644 7.63742 0.834053 8.26487C0.839433 8.88975 1.1628 9.41569 1.60668 9.77654C4.47054 12.1043 7.76872 14.2452 11.3355 16.0957C12.2759 16.5837 13.5501 16.5912 14.498 16.1045C18.1312 14.2392 21.4267 12.1003 24.3146 9.72806C24.7612 9.36125 25.0782 8.82818 25.0727 8.20072C25.0672 7.57585 24.744 7.04989 24.3001 6.6891C21.4361 4.36122 18.138 2.22049 14.5712 0.369878ZM12.3733 2.21758C12.709 2.04517 13.2606 2.0468 13.5988 2.22221C17.0027 3.98838 20.1392 6.0203 22.8565 8.21501C20.1231 10.445 16.9958 12.4704 13.5336 14.248C13.1977 14.4204 12.6461 14.4187 12.308 14.2434C8.90396 12.4772 5.76748 10.4453 3.05022 8.25059C5.78371 6.02055 8.91086 3.99519 12.3733 2.21758Z" fill="white"/>
<path d="M25.8403 13.3779C26.1478 13.8673 25.9978 14.5118 25.5055 14.8174L16.948 20.1286C15.7868 20.8494 14.3461 21.1826 12.9533 21.1826C11.5606 21.1827 10.1198 20.8496 8.95841 20.1291L0.494652 14.878C0.00226715 14.5725 -0.147774 13.928 0.159525 13.4385C0.466809 12.949 1.11508 12.7998 1.60745 13.1053L10.0712 18.3565C10.8337 18.8296 11.8695 19.0933 12.9532 19.0931C14.037 19.0931 15.0726 18.8293 15.8349 18.3562L24.3925 13.045C24.8847 12.7394 25.5331 12.8884 25.8403 13.3779Z" fill="white"/>
<path d="M25.8403 18.6067C26.1478 19.0962 25.9978 19.7406 25.5056 20.0462L18.0947 24.647C16.6128 25.5671 14.759 25.9998 12.9533 26C11.1476 26.0001 9.29363 25.5675 7.81146 24.6477L0.494536 20.1068C0.00219328 19.8013 -0.147764 19.1568 0.159591 18.6674C0.466932 18.1779 1.11522 18.0289 1.60756 18.3344L8.92447 22.8752C10.0076 23.5474 11.4564 23.9107 12.9532 23.9105C14.4499 23.9104 15.8985 23.5471 16.9815 22.8747L24.3923 18.274C24.8846 17.9684 25.5329 18.1173 25.8403 18.6067Z" fill="white"/>
</svg>
