<svg width="106" height="106" viewBox="0 0 106 106" fill="none" xmlns="http://www.w3.org/2000/svg">
<path d="M96.5651 100.545H9.31538C4.49959 100.545 0.582031 96.6271 0.582031 91.8113V32.557C0.582031 30.629 2.14463 29.0664 4.07258 29.0664H101.808C103.736 29.0664 105.298 30.629 105.298 32.557V91.8113C105.298 96.6271 101.381 100.545 96.5651 100.545ZM7.56312 36.0475V91.8113C7.56312 92.777 8.34966 93.5636 9.31538 93.5636H96.5651C97.5308 93.5636 98.3173 92.777 98.3173 91.8113V36.0475H7.56312Z" fill="#B68742"/>
<path d="M47.7666 84.437C47.6107 84.437 47.4536 84.4266 47.2954 84.4056C45.3849 84.1485 44.0457 82.3916 44.3028 80.4799C45.7526 69.7372 49.5666 60.2406 55.6669 52.153H42.5843C40.6564 52.153 39.0938 50.5904 39.0938 48.6624C39.0938 46.7345 40.6564 45.1719 42.5843 45.1719H63.2949C64.7027 45.1719 65.9733 46.0177 66.5166 47.3174C67.0588 48.617 66.768 50.1145 65.7778 51.1163C57.7333 59.2562 52.8349 69.4498 51.2211 81.4142C50.9849 83.1665 49.4863 84.437 47.7666 84.437Z" fill="#B68742"/>
<path d="M101.808 36.0477H4.07258C2.14463 36.0477 0.582031 34.4851 0.582031 32.5571V21.456C0.582031 16.6402 4.49959 12.7227 9.31538 12.7227H96.5651C101.381 12.7227 105.298 16.6402 105.298 21.456V32.5571C105.298 34.4851 103.736 36.0477 101.808 36.0477ZM7.56312 29.0666H98.3173V21.456C98.3173 20.4891 97.5308 19.7038 96.5651 19.7038H9.31538C8.34966 19.7049 7.56312 20.4903 7.56312 21.456V29.0666Z" fill="#B68742"/>
<path d="M25.4984 24.0848C23.5704 24.0848 22.0078 22.5222 22.0078 20.5943V8.82648C22.0078 6.89854 23.5704 5.33594 25.4984 5.33594C27.4263 5.33594 28.9889 6.89854 28.9889 8.82648V20.5943C28.9889 22.5211 27.4251 24.0848 25.4984 24.0848Z" fill="#B68742"/>
<path d="M80.3812 24.0848C78.4532 24.0848 76.8906 22.5222 76.8906 20.5943V8.82648C76.8906 6.89854 78.4532 5.33594 80.3812 5.33594C82.3091 5.33594 83.8717 6.89854 83.8717 8.82648V20.5943C83.8717 22.5211 82.3091 24.0848 80.3812 24.0848Z" fill="#B68742"/>
</svg>
