<svg width="32" height="32" viewBox="0 0 32 32" fill="none" xmlns="http://www.w3.org/2000/svg">
<g clip-path="url(#clip0_2846_458100)">
<path d="M13.7417 0.0416908C11.3017 0.361691 9.04167 1.19669 7.025 2.52336C4.25667 4.34669 2.125 7.01836 0.951667 10.1367C0.506667 11.32 0.208333 12.5267 0.0416667 13.815L0 14.14V15.9167V17.6934L0.0416667 18.0184C0.603333 22.37 2.815 26.1917 6.27 28.7784C8.76 30.6434 11.7567 31.7234 14.9333 31.9C15.33 31.9217 16.3367 31.9217 16.7333 31.9C19.1417 31.7667 21.4517 31.115 23.5167 29.9867C24.8583 29.2534 26.025 28.3784 27.1167 27.285C28.1567 26.2434 29.0117 25.1084 29.7417 23.8084C29.9167 23.495 30.315 22.675 30.4717 22.3084C31.2017 20.59 31.6167 18.7884 31.7333 16.8384C31.755 16.4684 31.755 15.365 31.7333 14.995C31.6317 13.2784 31.305 11.7117 30.725 10.1584C30.3867 9.25002 29.8517 8.16669 29.3417 7.35003C28.41 5.86002 27.2533 4.54836 25.9 3.44502C23.6333 1.59836 20.8617 0.416691 17.91 0.0416908L17.5817 2.47955e-05L15.8117 0.00169182C14.0533 0.00335693 14.04 0.00335693 13.7417 0.0416908ZM15.1333 4.90002V8.43502L15.0383 8.42669C14.985 8.42169 14.8483 8.40836 14.7333 8.40002C13.4767 8.29169 11.945 7.95336 10.6167 7.48836L10.3533 7.39669L10.4183 7.23836C11.165 5.44669 12.255 3.50836 13.495 1.76669L13.68 1.50669L13.9183 1.47002C14.3017 1.41169 14.66 1.37836 14.9967 1.37002L15.1333 1.36669V4.90002ZM17.275 1.40836C17.4033 1.42169 17.615 1.45002 17.7467 1.47002L17.985 1.50669L18.1233 1.69836C19.34 3.39669 20.3967 5.25169 21.1583 7.03002C21.2367 7.21502 21.3 7.37669 21.2967 7.38669C21.2833 7.42336 20.4433 7.69836 19.8283 7.86669C18.8683 8.12836 17.8067 8.32502 16.9333 8.40002C16.8183 8.40836 16.6817 8.42169 16.63 8.42669L16.5333 8.43502V4.89836V1.36169L16.7883 1.37336C16.9267 1.38002 17.1467 1.39669 17.275 1.40836ZM11.7817 1.96669C11.055 3.00002 10.6033 3.74836 10.0583 4.82502C9.73333 5.46836 9.405 6.19169 9.19833 6.72002C9.16667 6.80169 9.135 6.86669 9.12667 6.86669C9.12 6.86669 9.035 6.83336 8.94 6.79169C8.21 6.47336 7.36333 6.02669 6.71667 5.62002C6.46167 5.46002 6.00167 5.14669 6.00167 5.13336C6.00333 5.12169 6.25 4.90502 6.525 4.67502C7.81167 3.60003 9.23833 2.78336 10.7667 2.25002C11.05 2.15169 11.7367 1.94002 11.79 1.93502C11.7983 1.93336 11.7933 1.94836 11.7817 1.96669ZM20.2417 2.04002C21.9183 2.52336 23.5267 3.36836 24.9533 4.52003C25.26 4.76669 25.6767 5.13169 25.6633 5.14002C25.5633 5.21502 25.1167 5.51669 24.95 5.62002C24.3083 6.02336 23.4483 6.47669 22.7317 6.79002C22.6333 6.83169 22.5467 6.86669 22.5383 6.86669C22.53 6.86669 22.5133 6.83836 22.5017 6.80336C22.4883 6.77003 22.4083 6.57502 22.3233 6.37169C21.6583 4.79169 20.89 3.39002 19.9667 2.07669C19.895 1.97503 19.8717 1.93336 19.8933 1.94002C19.9117 1.94502 20.0683 1.99002 20.2417 2.04002ZM5.355 6.35669C5.98167 6.77336 6.53833 7.08669 7.39167 7.50669C7.695 7.65669 8.1 7.84836 8.29167 7.93336C8.485 8.02003 8.64667 8.09336 8.65333 8.09836C8.66 8.10502 8.62 8.23169 8.56667 8.38169C7.775 10.5667 7.205 13.0834 7.09833 14.8667C7.08833 15.0367 7.07667 15.185 7.07333 15.195C7.06833 15.2117 6.48833 15.2167 4.245 15.2167C2.69167 15.2167 1.41833 15.2134 1.415 15.21C1.395 15.1884 1.46167 14.3284 1.51833 13.8834C1.87833 11.0434 3.015 8.45169 4.82167 6.34502C4.92167 6.22836 5.00833 6.13336 5.01167 6.13336C5.01667 6.13336 5.17 6.23336 5.355 6.35669ZM26.8517 6.35336C28.7933 8.61669 29.96 11.455 30.2167 14.5417C30.25 14.9384 30.26 15.2034 30.2417 15.21C30.2333 15.2134 28.9583 15.215 27.4083 15.2134L24.5917 15.2084L24.58 15C24.5133 13.86 24.27 12.415 23.9083 11.0084C23.685 10.1434 23.3467 9.05002 23.0683 8.29169C23.0317 8.19169 23.0067 8.10502 23.0133 8.09836C23.02 8.09336 23.1083 8.05336 23.2083 8.00836C24.3933 7.48836 25.5083 6.89503 26.325 6.34669C26.5 6.23002 26.6467 6.13503 26.6517 6.13336C26.6583 6.13336 26.7483 6.23336 26.8517 6.35336ZM10.0517 8.62336C10.2533 8.71169 10.8983 8.95502 11.2483 9.07336C12.4233 9.47336 13.595 9.74169 14.65 9.84836C14.8283 9.86669 15.0083 9.88503 15.05 9.88669L15.125 9.89169L15.13 12.5534L15.1333 15.2167H11.8083H8.48333V15.1367C8.48333 15.025 8.52833 14.4367 8.55833 14.14C8.72333 12.535 9.135 10.77 9.72833 9.13336C9.80667 8.91836 9.88167 8.70669 9.89667 8.66169C9.91167 8.61836 9.93167 8.58336 9.94333 8.58336C9.95333 8.58336 10.0033 8.60169 10.0517 8.62336ZM21.7783 8.69169C21.97 9.18502 22.2783 10.1217 22.4467 10.725C22.8567 12.1867 23.1017 13.6234 23.1767 15.0034L23.1883 15.2167H19.86H16.5333L16.5367 12.5534L16.5417 9.89169L16.7 9.88002C17.3667 9.82836 18.1833 9.69336 18.9417 9.50836C19.7367 9.31336 20.7717 8.97336 21.48 8.67502C21.5967 8.62669 21.7017 8.58669 21.715 8.58836C21.7283 8.59002 21.7567 8.63669 21.7783 8.69169ZM7.08667 16.9034C7.16167 18.7034 7.69333 21.0967 8.51333 23.325C8.58833 23.5267 8.65 23.7017 8.65333 23.7134C8.65667 23.725 8.53833 23.7884 8.35 23.8734C7.09333 24.44 6.185 24.9267 5.35167 25.48L5.01 25.705L4.93 25.615C4.765 25.4317 4.45667 25.05 4.24333 24.7667C2.625 22.6117 1.65833 20.0034 1.44333 17.2C1.42167 16.9267 1.41 16.6817 1.415 16.6284C1.41667 16.6217 2.69 16.6184 4.24667 16.62L7.075 16.625L7.08667 16.9034ZM15.125 19.2834V21.9417L14.8167 21.97C13.3683 22.1 11.7083 22.5284 10.1617 23.1667C10.0517 23.2134 9.95333 23.25 9.94333 23.25C9.93167 23.25 9.91167 23.215 9.89667 23.17C9.88167 23.1267 9.81333 22.93 9.74333 22.7334C9.04167 20.7634 8.59167 18.6434 8.49 16.82L8.47833 16.6167L11.8017 16.62L15.125 16.625V19.2834ZM23.1767 16.82C23.0933 18.32 22.7883 19.9617 22.2817 21.6417C22.1067 22.22 21.77 23.2034 21.7333 23.24C21.7267 23.2467 21.5633 23.19 21.3633 23.1117C19.7817 22.48 18.28 22.1 16.85 21.9684L16.5417 21.94L16.5367 19.2784L16.5333 16.6167H19.86H23.1883L23.1767 16.82ZM30.2517 16.6234C30.255 16.6284 30.2533 16.7317 30.2467 16.8534C30.0733 20.1 28.8883 23.1067 26.845 25.4867C26.745 25.605 26.6583 25.7 26.655 25.7C26.65 25.7 26.4967 25.6 26.3117 25.4767C25.4883 24.93 24.475 24.3884 23.3 23.8667C23.1483 23.8 23.02 23.74 23.0133 23.735C23.0067 23.73 23.055 23.5867 23.1183 23.4167C23.3867 22.7067 23.7067 21.6967 23.9183 20.9C24.2917 19.4884 24.54 17.99 24.5767 16.9334C24.5817 16.7817 24.5883 16.6484 24.5933 16.6367C24.5983 16.6217 25.1783 16.6167 27.4217 16.6167C28.975 16.6167 30.2483 16.62 30.2517 16.6234ZM15.1333 26.935V30.4717L14.88 30.46C14.565 30.445 14.2333 30.4117 13.92 30.3634L13.6817 30.3267L13.5267 30.1184C12.53 28.7634 11.575 27.095 10.8217 25.3917C10.665 25.035 10.3967 24.3967 10.4033 24.3917C10.4167 24.3784 11.1167 24.1534 11.3833 24.075C12.47 23.7567 13.69 23.5234 14.7333 23.4334C14.8483 23.425 14.9683 23.4134 15 23.41C15.0317 23.4084 15.075 23.4034 15.0967 23.4034L15.1333 23.4V26.935ZM16.925 23.4334C17.9383 23.5184 19.145 23.7467 20.2233 24.0584C20.5417 24.15 21.2483 24.3767 21.2633 24.39C21.265 24.3934 21.2 24.5567 21.1183 24.7534C20.2833 26.7584 19.27 28.5784 18.115 30.1517L17.985 30.3267L17.7467 30.3634C17.4333 30.4117 17.1017 30.445 16.7883 30.46L16.5333 30.4717V26.935V23.3984L16.6217 23.4067C16.6683 23.4117 16.8067 23.425 16.925 23.4334ZM9.21 24.9834C9.675 26.2217 10.2133 27.35 10.8417 28.3984C11.05 28.7467 11.485 29.4134 11.6883 29.6917C11.7483 29.7734 11.795 29.8434 11.7933 29.845C11.7867 29.8534 11.325 29.73 11.0567 29.6484C9.56167 29.195 8.06333 28.395 6.77 27.3584C6.415 27.0734 5.98833 26.7034 6.00333 26.6934C6.31167 26.4517 7.02833 25.9967 7.56667 25.6967C8.01833 25.445 9.13 24.9084 9.17333 24.9217C9.18167 24.925 9.19667 24.9517 9.21 24.9834ZM22.79 25.0434C23.5517 25.3834 24.3883 25.8367 25.0417 26.2634C25.2033 26.3684 25.5833 26.63 25.6633 26.6934C25.6783 26.7034 25.225 27.0967 24.87 27.38C23.5833 28.4067 22.0983 29.1984 20.61 29.6484C20.3367 29.7317 19.88 29.8534 19.8733 29.845C19.87 29.8434 19.905 29.7917 19.95 29.73C20.3483 29.1884 20.8283 28.425 21.21 27.7284C21.6283 26.9667 22.11 25.9167 22.3983 25.1384C22.475 24.9317 22.4817 24.9167 22.4933 24.9167C22.5 24.9167 22.6333 24.9734 22.79 25.0434Z" fill="white"/>
</g>
<defs>
<clipPath id="clip0_2846_458100">
<rect width="32" height="32" fill="white"/>
</clipPath>
</defs>
</svg>
