<svg width="83" height="109" viewBox="0 0 83 109" fill="none" xmlns="http://www.w3.org/2000/svg">
<path d="M68.778 61.4146L68.2874 61.3183L68.778 61.4146ZM1.70246 108.112L6.46572 104.85L1.25857 102.356L1.70246 108.112ZM4.08617 104.291C4.22995 104.025 4.37546 103.763 4.52267 103.503L3.65298 103.01C3.50234 103.275 3.35346 103.544 3.2064 103.816L4.08617 104.291ZM10.9304 95.0636C13.5411 92.4714 16.4028 90.3978 19.4161 88.6944L18.924 87.8239C15.8433 89.5653 12.9077 91.6911 10.2258 94.354L10.9304 95.0636ZM29.1894 84.4174C32.6199 83.2524 36.1001 82.3344 39.5143 81.4815L39.2719 80.5113C35.852 81.3657 32.339 82.2917 28.8678 83.4705L29.1894 84.4174ZM49.9721 78.7786C53.6727 77.6921 57.1057 76.4219 60.0382 74.6573L59.5227 73.8005C56.697 75.5007 53.3581 76.7422 49.6904 77.8191L49.9721 78.7786ZM67.54 66.7498C68.3017 65.201 68.885 63.4652 69.2687 61.5109L68.2874 61.3183C67.9193 63.1936 67.3625 64.8449 66.6427 66.3084L67.54 66.7498ZM69.2687 61.5109C69.6076 59.7842 69.7377 57.8941 69.7296 55.888L68.7296 55.8921C68.7375 57.8559 68.6097 59.6762 68.2874 61.3183L69.2687 61.5109ZM68.8124 44.7528C68.3657 41.1561 67.8578 37.4374 67.5283 33.7262L66.5322 33.8146C66.8637 37.5489 67.3754 41.2958 67.82 44.876L68.8124 44.7528ZM67.328 22.7078C67.6285 18.92 68.4185 15.3508 69.987 12.1773L69.0905 11.7342C67.4495 15.0544 66.6383 18.7568 66.3311 22.6288L67.328 22.7078ZM77.0976 4.15811C78.5128 3.21843 80.1201 2.37462 81.9432 1.64188L81.5702 0.714019C79.6892 1.47006 78.0208 2.34475 76.5444 3.32502L77.0976 4.15811ZM68.778 61.4146L67.7968 61.222L68.778 61.4146ZM1.70246 108.112L11.2935 101.682L0.929369 96.5914L1.70246 108.112ZM11.2827 95.4184C13.8578 92.8615 16.6825 90.814 19.6621 89.1297L18.6779 87.3886C15.5635 89.1491 12.591 91.3009 9.87353 93.9992L11.2827 95.4184ZM29.3501 84.8909C32.7604 83.7327 36.2242 82.8188 39.6355 81.9666L39.1507 80.0262C35.7279 80.8813 32.1985 81.8114 28.707 82.9971L29.3501 84.8909ZM50.113 79.2583C53.8301 78.167 57.31 76.8825 60.296 75.0857L59.2649 73.3721C56.4927 75.0401 53.2008 76.2673 49.5496 77.3393L50.113 79.2583ZM67.9887 66.9704C68.7713 65.3791 69.3679 63.601 69.7593 61.6072L67.7968 61.222C67.4364 63.0578 66.8928 64.6668 66.194 66.0878L67.9887 66.9704ZM69.7593 61.6072C70.1066 59.8383 70.2378 57.9132 70.2296 55.886L68.2296 55.8941C68.2375 57.8368 68.1108 59.6221 67.7968 61.222L69.7593 61.6072ZM69.3086 44.6912C68.8609 41.0862 68.3548 37.3817 68.0264 33.682L66.0342 33.8588C66.3667 37.6046 66.8802 41.3657 67.3238 44.9376L69.3086 44.6912ZM67.8264 22.7474C68.1236 19.0016 68.903 15.499 70.4352 12.3988L68.6422 11.5127C66.965 14.9062 66.1432 18.6752 65.8327 22.5892L67.8264 22.7474ZM77.3741 4.57465C78.7588 3.65528 80.3355 2.8269 82.1296 2.10581L81.3838 0.250089C79.4737 1.01778 77.7748 1.9079 76.2678 2.90848L77.3741 4.57465Z" fill="#F1EFE8"/>
</svg>
