<svg width="32" height="33" viewBox="0 0 32 33" fill="none" xmlns="http://www.w3.org/2000/svg">
<path d="M13.7417 0.541431C11.3017 0.861431 9.04167 1.69643 7.025 3.0231C4.25667 4.84643 2.125 7.5181 0.951667 10.6364C0.506667 11.8198 0.208333 13.0264 0.0416667 14.3148L0 14.6398V16.4164V18.1931L0.0416667 18.5181C0.603333 22.8698 2.815 26.6914 6.27 29.2781C8.76 31.1431 11.7567 32.2231 14.9333 32.3998C15.33 32.4214 16.3367 32.4214 16.7333 32.3998C19.1417 32.2664 21.4517 31.6148 23.5167 30.4864C24.8583 29.7531 26.025 28.8781 27.1167 27.7848C28.1567 26.7431 29.0117 25.6081 29.7417 24.3081C29.9167 23.9948 30.315 23.1748 30.4717 22.8081C31.2017 21.0898 31.6167 19.2881 31.7333 17.3381C31.755 16.9681 31.755 15.8648 31.7333 15.4948C31.6317 13.7781 31.305 12.2114 30.725 10.6581C30.3867 9.74977 29.8517 8.66643 29.3417 7.84977C28.41 6.35976 27.2533 5.0481 25.9 3.94477C23.6333 2.0981 20.8617 0.916431 17.91 0.541431L17.5817 0.499765L15.8117 0.501432C14.0533 0.503098 14.04 0.503098 13.7417 0.541431ZM15.1333 5.39977V8.93476L15.0383 8.92643C14.985 8.92143 14.8483 8.9081 14.7333 8.89977C13.4767 8.79143 11.945 8.4531 10.6167 7.9881L10.3533 7.89643L10.4183 7.7381C11.165 5.94643 12.255 4.0081 13.495 2.26643L13.68 2.00643L13.9183 1.96976C14.3017 1.91143 14.66 1.8781 14.9967 1.86976L15.1333 1.86643V5.39977ZM17.275 1.9081C17.4033 1.92143 17.615 1.94976 17.7467 1.96976L17.985 2.00643L18.1233 2.1981C19.34 3.89643 20.3967 5.75143 21.1583 7.52976C21.2367 7.71477 21.3 7.87643 21.2967 7.88643C21.2833 7.9231 20.4433 8.1981 19.8283 8.36643C18.8683 8.6281 17.8067 8.82476 16.9333 8.89977C16.8183 8.9081 16.6817 8.92143 16.63 8.92643L16.5333 8.93476V5.3981V1.86143L16.7883 1.8731C16.9267 1.87976 17.1467 1.89643 17.275 1.9081ZM11.7817 2.46643C11.055 3.49977 10.6033 4.2481 10.0583 5.32476C9.73333 5.9681 9.405 6.69143 9.19833 7.21976C9.16667 7.30143 9.135 7.36643 9.12667 7.36643C9.12 7.36643 9.035 7.3331 8.94 7.29143C8.21 6.9731 7.36333 6.52643 6.71667 6.11976C6.46167 5.95976 6.00167 5.64643 6.00167 5.6331C6.00333 5.62143 6.25 5.40476 6.525 5.17476C7.81167 4.09977 9.23833 3.2831 10.7667 2.74977C11.05 2.65143 11.7367 2.43976 11.79 2.43476C11.7983 2.4331 11.7933 2.4481 11.7817 2.46643ZM20.2417 2.53976C21.9183 3.0231 23.5267 3.8681 24.9533 5.01977C25.26 5.26643 25.6767 5.63143 25.6633 5.63976C25.5633 5.71477 25.1167 6.01643 24.95 6.11976C24.3083 6.5231 23.4483 6.97643 22.7317 7.28976C22.6333 7.33143 22.5467 7.36643 22.5383 7.36643C22.53 7.36643 22.5133 7.3381 22.5017 7.3031C22.4883 7.26977 22.4083 7.07476 22.3233 6.87143C21.6583 5.29143 20.89 3.88976 19.9667 2.57643C19.895 2.47477 19.8717 2.4331 19.8933 2.43976C19.9117 2.44477 20.0683 2.48977 20.2417 2.53976ZM5.355 6.85643C5.98167 7.2731 6.53833 7.58643 7.39167 8.00643C7.695 8.15643 8.1 8.3481 8.29167 8.4331C8.485 8.51977 8.64667 8.5931 8.65333 8.5981C8.66 8.60476 8.62 8.73143 8.56667 8.88143C7.775 11.0664 7.205 13.5831 7.09833 15.3664C7.08833 15.5364 7.07667 15.6848 7.07333 15.6948C7.06833 15.7114 6.48833 15.7164 4.245 15.7164C2.69167 15.7164 1.41833 15.7131 1.415 15.7098C1.395 15.6881 1.46167 14.8281 1.51833 14.3831C1.87833 11.5431 3.015 8.95143 4.82167 6.84476C4.92167 6.7281 5.00833 6.6331 5.01167 6.6331C5.01667 6.6331 5.17 6.7331 5.355 6.85643ZM26.8517 6.8531C28.7933 9.11643 29.96 11.9548 30.2167 15.0414C30.25 15.4381 30.26 15.7031 30.2417 15.7098C30.2333 15.7131 28.9583 15.7148 27.4083 15.7131L24.5917 15.7081L24.58 15.4998C24.5133 14.3598 24.27 12.9148 23.9083 11.5081C23.685 10.6431 23.3467 9.54976 23.0683 8.79143C23.0317 8.69143 23.0067 8.60476 23.0133 8.5981C23.02 8.5931 23.1083 8.5531 23.2083 8.5081C24.3933 7.9881 25.5083 7.39477 26.325 6.84643C26.5 6.72976 26.6467 6.63477 26.6517 6.6331C26.6583 6.6331 26.7483 6.7331 26.8517 6.8531ZM10.0517 9.1231C10.2533 9.21143 10.8983 9.45477 11.2483 9.5731C12.4233 9.9731 13.595 10.2414 14.65 10.3481C14.8283 10.3664 15.0083 10.3848 15.05 10.3864L15.125 10.3914L15.13 13.0531L15.1333 15.7164H11.8083H8.48333V15.6364C8.48333 15.5248 8.52833 14.9364 8.55833 14.6398C8.72333 13.0348 9.135 11.2698 9.72833 9.6331C9.80667 9.4181 9.88167 9.20643 9.89667 9.16143C9.91167 9.1181 9.93167 9.0831 9.94333 9.0831C9.95333 9.0831 10.0033 9.10143 10.0517 9.1231ZM21.7783 9.19143C21.97 9.68476 22.2783 10.6214 22.4467 11.2248C22.8567 12.6864 23.1017 14.1231 23.1767 15.5031L23.1883 15.7164H19.86H16.5333L16.5367 13.0531L16.5417 10.3914L16.7 10.3798C17.3667 10.3281 18.1833 10.1931 18.9417 10.0081C19.7367 9.8131 20.7717 9.4731 21.48 9.17476C21.5967 9.12643 21.7017 9.08643 21.715 9.0881C21.7283 9.08977 21.7567 9.13643 21.7783 9.19143ZM7.08667 17.4031C7.16167 19.2031 7.69333 21.5964 8.51333 23.8248C8.58833 24.0264 8.65 24.2014 8.65333 24.2131C8.65667 24.2248 8.53833 24.2881 8.35 24.3731C7.09333 24.9398 6.185 25.4264 5.35167 25.9798L5.01 26.2048L4.93 26.1148C4.765 25.9314 4.45667 25.5498 4.24333 25.2664C2.625 23.1114 1.65833 20.5031 1.44333 17.6998C1.42167 17.4264 1.41 17.1814 1.415 17.1281C1.41667 17.1214 2.69 17.1181 4.24667 17.1198L7.075 17.1248L7.08667 17.4031ZM15.125 19.7831V22.4414L14.8167 22.4698C13.3683 22.5998 11.7083 23.0281 10.1617 23.6664C10.0517 23.7131 9.95333 23.7498 9.94333 23.7498C9.93167 23.7498 9.91167 23.7148 9.89667 23.6698C9.88167 23.6264 9.81333 23.4298 9.74333 23.2331C9.04167 21.2631 8.59167 19.1431 8.49 17.3198L8.47833 17.1164L11.8017 17.1198L15.125 17.1248V19.7831ZM23.1767 17.3198C23.0933 18.8198 22.7883 20.4614 22.2817 22.1414C22.1067 22.7198 21.77 23.7031 21.7333 23.7398C21.7267 23.7464 21.5633 23.6898 21.3633 23.6114C19.7817 22.9798 18.28 22.5998 16.85 22.4681L16.5417 22.4398L16.5367 19.7781L16.5333 17.1164H19.86H23.1883L23.1767 17.3198ZM30.2517 17.1231C30.255 17.1281 30.2533 17.2314 30.2467 17.3531C30.0733 20.5998 28.8883 23.6064 26.845 25.9864C26.745 26.1048 26.6583 26.1998 26.655 26.1998C26.65 26.1998 26.4967 26.0998 26.3117 25.9764C25.4883 25.4298 24.475 24.8881 23.3 24.3664C23.1483 24.2998 23.02 24.2398 23.0133 24.2348C23.0067 24.2298 23.055 24.0864 23.1183 23.9164C23.3867 23.2064 23.7067 22.1964 23.9183 21.3998C24.2917 19.9881 24.54 18.4898 24.5767 17.4331C24.5817 17.2814 24.5883 17.1481 24.5933 17.1364C24.5983 17.1214 25.1783 17.1164 27.4217 17.1164C28.975 17.1164 30.2483 17.1198 30.2517 17.1231ZM15.1333 27.4348V30.9714L14.88 30.9598C14.565 30.9448 14.2333 30.9114 13.92 30.8631L13.6817 30.8264L13.5267 30.6181C12.53 29.2631 11.575 27.5948 10.8217 25.8914C10.665 25.5348 10.3967 24.8964 10.4033 24.8914C10.4167 24.8781 11.1167 24.6531 11.3833 24.5748C12.47 24.2564 13.69 24.0231 14.7333 23.9331C14.8483 23.9248 14.9683 23.9131 15 23.9098C15.0317 23.9081 15.075 23.9031 15.0967 23.9031L15.1333 23.8998V27.4348ZM16.925 23.9331C17.9383 24.0181 19.145 24.2464 20.2233 24.5581C20.5417 24.6498 21.2483 24.8764 21.2633 24.8898C21.265 24.8931 21.2 25.0564 21.1183 25.2531C20.2833 27.2581 19.27 29.0781 18.115 30.6514L17.985 30.8264L17.7467 30.8631C17.4333 30.9114 17.1017 30.9448 16.7883 30.9598L16.5333 30.9714V27.4348V23.8981L16.6217 23.9064C16.6683 23.9114 16.8067 23.9248 16.925 23.9331ZM9.21 25.4831C9.675 26.7214 10.2133 27.8498 10.8417 28.8981C11.05 29.2464 11.485 29.9131 11.6883 30.1914C11.7483 30.2731 11.795 30.3431 11.7933 30.3448C11.7867 30.3531 11.325 30.2298 11.0567 30.1481C9.56167 29.6948 8.06333 28.8948 6.77 27.8581C6.415 27.5731 5.98833 27.2031 6.00333 27.1931C6.31167 26.9514 7.02833 26.4964 7.56667 26.1964C8.01833 25.9448 9.13 25.4081 9.17333 25.4214C9.18167 25.4248 9.19667 25.4514 9.21 25.4831ZM22.79 25.5431C23.5517 25.8831 24.3883 26.3364 25.0417 26.7631C25.2033 26.8681 25.5833 27.1298 25.6633 27.1931C25.6783 27.2031 25.225 27.5964 24.87 27.8798C23.5833 28.9064 22.0983 29.6981 20.61 30.1481C20.3367 30.2314 19.88 30.3531 19.8733 30.3448C19.87 30.3431 19.905 30.2914 19.95 30.2298C20.3483 29.6881 20.8283 28.9248 21.21 28.2281C21.6283 27.4664 22.11 26.4164 22.3983 25.6381C22.475 25.4314 22.4817 25.4164 22.4933 25.4164C22.5 25.4164 22.6333 25.4731 22.79 25.5431Z" fill="white"/>
</svg>
