<svg width="390" height="265" viewBox="0 0 390 265" fill="none" xmlns="http://www.w3.org/2000/svg">
<path d="M385.5 136.5L384.538 136.228L385.5 136.5ZM0 264.5L10.8964 260.679L2.13905 253.153L0 264.5ZM10.4705 254.213C12.7242 251.8 14.9693 249.483 17.2059 247.258L15.7954 245.84C13.541 248.083 11.2789 250.418 9.00892 252.848L10.4705 254.213ZM24.2506 240.525C26.6964 238.283 29.1316 236.148 31.5563 234.117L30.272 232.584C27.8239 234.635 25.3662 236.789 22.899 239.051L24.2506 240.525ZM39.1418 228.068C41.7807 226.07 44.4067 224.19 47.0198 222.423L45.8995 220.766C43.2562 222.553 40.6011 224.454 37.9343 226.474L39.1418 228.068ZM55.1952 217.231C58.0334 215.544 60.8561 213.986 63.6632 212.548L62.7513 210.768C59.9065 212.225 57.0472 213.804 54.1734 215.512L55.1952 217.231ZM72.4084 208.426C75.426 207.126 78.4254 205.959 81.4064 204.914L80.7447 203.026C77.72 204.087 74.6774 205.271 71.6171 206.59L72.4084 208.426ZM90.6639 202.034C93.827 201.173 96.9692 200.441 100.09 199.826L99.7036 197.863C96.5368 198.488 93.3484 199.231 90.1386 200.104L90.6639 202.034ZM109.639 198.285C112.874 197.877 116.085 197.583 119.274 197.389L119.152 195.392C115.923 195.589 112.668 195.887 109.388 196.301L109.639 198.285ZM128.966 197.093C132.221 197.089 135.451 197.176 138.656 197.339L138.758 195.342C135.521 195.177 132.255 195.089 128.963 195.093L128.966 197.093ZM148.335 198.054C151.579 198.363 154.798 198.736 157.99 199.154L158.25 197.171C155.038 196.75 151.796 196.375 148.524 196.063L148.335 198.054ZM167.607 200.547C170.84 201.055 174.044 201.593 177.22 202.141L177.56 200.17C174.378 199.621 171.163 199.082 167.917 198.572L167.607 200.547ZM186.813 203.825C190.053 204.396 193.262 204.959 196.439 205.489L196.769 203.517C193.601 202.987 190.399 202.427 187.161 201.855L186.813 203.825ZM206.086 206.996C209.363 207.464 212.606 207.873 215.815 208.197L216.016 206.207C212.84 205.886 209.625 205.481 206.368 205.016L206.086 206.996ZM225.593 208.901C227.238 208.966 228.874 209 230.5 209V207C228.902 207 227.293 206.966 225.672 206.903L225.593 208.901ZM230.5 209C232.135 209 233.81 208.977 235.523 208.931L235.47 206.932C233.774 206.977 232.116 207 230.5 207V209ZM245.555 208.426C248.798 208.19 252.133 207.883 255.541 207.501L255.319 205.514C251.936 205.892 248.626 206.198 245.411 206.431L245.555 208.426ZM265.491 206.205C268.754 205.721 272.062 205.173 275.397 204.561L275.036 202.594C271.723 203.202 268.438 203.746 265.198 204.227L265.491 206.205ZM285.236 202.58C288.485 201.868 291.744 201.095 295 200.261L294.504 198.324C291.271 199.152 288.034 199.919 284.808 200.627L285.236 202.58ZM304.678 197.591C307.892 196.64 311.087 195.627 314.249 194.552L313.605 192.658C310.47 193.724 307.3 194.729 304.111 195.674L304.678 197.591ZM323.688 191.111C326.832 189.884 329.927 188.592 332.955 187.232L332.136 185.408C329.14 186.753 326.076 188.033 322.961 189.248L323.688 191.111ZM342.018 182.854C345.038 181.283 347.969 179.637 350.792 177.916L349.75 176.208C346.969 177.905 344.078 179.528 341.095 181.08L342.018 182.854ZM359.177 172.334C361.951 170.313 364.578 168.202 367.037 166L365.703 164.51C363.298 166.663 360.723 168.732 357.999 170.717L359.177 172.334ZM374.156 158.803C376.415 156.203 378.446 153.491 380.218 150.668L378.524 149.605C376.811 152.334 374.843 154.962 372.646 157.492L374.156 158.803ZM384.828 141.603C385.452 140.023 385.998 138.413 386.462 136.772L384.538 136.228C384.092 137.802 383.568 139.349 382.968 140.868L384.828 141.603ZM386.462 136.772C386.964 134.997 387.387 133.251 387.734 131.535L385.774 131.139C385.438 132.804 385.027 134.5 384.538 136.228L386.462 136.772ZM388.938 120.973C389.019 117.274 388.722 113.725 388.084 110.316L386.118 110.683C386.731 113.955 387.017 117.367 386.939 120.93L388.938 120.973ZM385.015 100.086C383.643 96.8096 381.942 93.6808 379.958 90.6867L378.291 91.7915C380.211 94.6893 381.851 97.7073 383.17 100.859L385.015 100.086ZM373.403 82.3145C371.068 79.7426 368.524 77.2765 365.807 74.9049L364.492 76.4117C367.158 78.7386 369.646 81.1508 371.922 83.6587L373.403 82.3145ZM357.52 68.3133C354.716 66.2673 351.792 64.2921 348.777 62.3791L347.706 64.0678C350.689 65.9608 353.577 67.9116 356.341 69.9288L357.52 68.3133ZM339.73 56.955C336.694 55.2281 333.599 53.5495 330.47 51.9118L329.542 53.6837C332.654 55.3125 335.728 56.9799 338.741 58.6934L339.73 56.955ZM321.082 47.1501C317.927 45.5937 314.763 44.0697 311.615 42.5708L310.755 44.3765C313.898 45.873 317.053 47.3927 320.197 48.9436L321.082 47.1501ZM302.11 38.0794C298.894 36.5643 295.722 35.0685 292.621 33.5825L291.757 35.3861C294.865 36.8753 298.042 38.3737 301.258 39.8888L302.11 38.0794ZM283.211 28.9707C279.989 27.3456 276.89 25.7233 273.952 24.0922L272.981 25.8408C275.949 27.488 279.071 29.1228 282.311 30.7565L283.211 28.9707ZM264.987 18.7302C261.886 16.7059 259.09 14.6562 256.66 12.5615L255.354 14.0764C257.868 16.243 260.739 18.3454 263.894 20.4049L264.987 18.7302ZM249.77 5.05188C248.797 3.60489 248.013 2.13557 247.432 0.638207L245.568 1.36179C246.209 3.0133 247.065 4.6134 248.11 6.16805L249.77 5.05188ZM385.5 136.5L383.576 135.956L385.5 136.5ZM0 264.5L21.7929 256.858L4.2781 241.806L0 264.5ZM11.2014 254.896C13.4469 252.491 15.6835 250.183 17.9112 247.967L15.0902 245.131C12.8269 247.383 10.5562 249.726 8.2781 252.165L11.2014 254.896ZM24.9264 241.263C27.3614 239.03 29.7855 236.905 32.1985 234.884L29.6298 231.817C27.17 233.878 24.7011 236.042 22.2232 238.314L24.9264 241.263ZM39.7456 228.865C42.3705 226.877 44.982 225.008 47.58 223.251L45.3394 219.938C42.6809 221.735 40.0113 223.646 37.3305 225.677L39.7456 228.865ZM55.7061 218.091C58.5265 216.414 61.3309 214.866 64.1191 213.438L62.2953 209.878C59.4317 211.345 56.5541 212.934 53.6625 214.652L55.7061 218.091ZM72.8041 209.345C75.8003 208.054 78.7781 206.895 81.7373 205.857L80.4139 202.083C77.3674 203.151 74.3031 204.344 71.2215 205.671L72.8041 209.345ZM90.9266 202.999C94.0662 202.144 97.1853 201.418 100.284 200.807L99.5102 196.882C96.3207 197.511 93.1091 198.259 89.8759 199.139L90.9266 202.999ZM109.765 199.278C112.976 198.872 116.166 198.579 119.334 198.387L119.092 194.394C115.841 194.592 112.565 194.892 109.263 195.309L109.765 199.278ZM128.967 198.093C132.203 198.089 135.416 198.176 138.605 198.338L138.809 194.343C135.555 194.178 132.273 194.089 128.962 194.093L128.967 198.093ZM148.24 199.05C151.471 199.358 154.678 199.729 157.86 200.146L158.38 196.18C155.158 195.758 151.904 195.381 148.619 195.068L148.24 199.05ZM167.451 201.535C170.678 202.042 173.877 202.579 177.05 203.127L177.731 199.185C174.545 198.635 171.325 198.095 168.072 197.584L167.451 201.535ZM186.64 204.81C189.879 205.381 193.093 205.944 196.274 206.476L196.933 202.53C193.771 202.002 190.573 201.442 187.335 200.871L186.64 204.81ZM205.944 207.986C209.232 208.455 212.489 208.866 215.714 209.192L216.116 205.212C212.957 204.893 209.755 204.49 206.51 204.026L205.944 207.986ZM225.554 209.9C227.211 209.965 228.86 210 230.5 210V206C228.916 206 227.32 205.967 225.711 205.903L225.554 209.9ZM230.5 210C232.144 210 233.829 209.977 235.55 209.931L235.443 205.932C233.755 205.977 232.107 206 230.5 206V210ZM245.628 209.423C248.883 209.187 252.232 208.878 255.653 208.495L255.208 204.52C251.837 204.897 248.54 205.201 245.338 205.433L245.628 209.423ZM265.638 207.194C268.912 206.709 272.231 206.159 275.578 205.544L274.856 201.61C271.554 202.216 268.28 202.759 265.051 203.237L265.638 207.194ZM285.45 203.557C288.71 202.843 291.981 202.067 295.248 201.23L294.255 197.355C291.035 198.18 287.809 198.945 284.594 199.65L285.45 203.557ZM304.962 198.55C308.188 197.595 311.396 196.578 314.571 195.498L313.283 191.711C310.161 192.773 307.004 193.774 303.827 194.715L304.962 198.55ZM324.052 192.043C327.21 190.81 330.32 189.511 333.365 188.145L331.727 184.495C328.746 185.833 325.698 187.107 322.598 188.316L324.052 192.043ZM342.48 183.741C345.519 182.161 348.469 180.504 351.312 178.77L349.23 175.355C346.469 177.038 343.598 178.651 340.634 180.192L342.48 183.741ZM359.766 173.142C362.564 171.103 365.219 168.971 367.704 166.745L365.035 163.765C362.658 165.894 360.11 167.942 357.41 169.909L359.766 173.142ZM374.911 159.459C377.201 156.823 379.263 154.07 381.065 151.2L377.677 149.073C375.994 151.755 374.057 154.342 371.891 156.836L374.911 159.459ZM385.758 141.97C386.394 140.36 386.951 138.718 387.424 137.044L383.576 135.956C383.139 137.497 382.626 139.012 382.038 140.501L385.758 141.97ZM387.424 137.044C387.933 135.245 388.362 133.475 388.714 131.733L384.794 130.941C384.462 132.58 384.058 134.251 383.576 135.956L387.424 137.044ZM389.938 120.995C390.02 117.228 389.718 113.61 389.067 110.132L385.136 110.867C385.735 114.07 386.015 117.413 385.939 120.908L389.938 120.995ZM385.937 99.7002C384.539 96.3607 382.807 93.1766 380.792 90.1344L377.457 92.3439C379.345 95.1935 380.954 98.1562 382.247 101.245L385.937 99.7002ZM374.143 81.6424C371.78 79.0384 369.207 76.5454 366.465 74.1516L363.834 77.1651C366.475 79.4697 368.934 81.855 371.181 84.3308L374.143 81.6424ZM358.109 67.5055C355.286 65.4451 352.344 63.4578 349.313 61.5347L347.17 64.9122C350.138 66.7952 353.007 68.7338 355.751 70.7366L358.109 67.5055ZM340.224 56.0858C337.176 54.3522 334.071 52.668 330.933 51.0258L329.078 54.5697C332.182 56.194 335.246 57.8557 338.246 59.5627L340.224 56.0858ZM321.524 46.2533C318.364 44.6942 315.196 43.168 312.045 41.6679L310.325 45.2794C313.466 46.7746 316.617 48.2922 319.755 49.8404L321.524 46.2533ZM302.536 37.1748C299.32 35.6596 296.151 34.1651 293.053 32.6807L291.325 36.2879C294.436 37.7787 297.616 39.2785 300.832 40.7934L302.536 37.1748ZM283.661 28.0778C280.448 26.457 277.361 24.8409 274.437 23.2178L272.496 26.7152C275.478 28.3703 278.613 30.0114 281.86 31.6493L283.661 28.0778ZM265.534 17.8929C262.46 15.8861 259.702 13.8628 257.313 11.804L254.701 14.8339C257.257 17.0364 260.166 19.1651 263.347 21.2423L265.534 17.8929ZM250.6 4.49379C249.663 3.10064 248.916 1.6967 248.365 0.276415L244.635 1.72359C245.306 3.45217 246.199 5.11766 247.281 6.72614L250.6 4.49379Z" fill="#F1EFE8"/>
</svg>
