<svg width="484" height="426" viewBox="0 0 484 426" fill="none" xmlns="http://www.w3.org/2000/svg">
<path d="M205.704 195.046L205.704 194.046L205.704 195.046ZM480.061 425.501L471.079 418.244L481.854 414.094L480.061 425.501ZM473.562 411.651C472.281 408.462 470.993 405.313 469.697 402.201L471.544 401.432C472.843 404.552 474.134 407.709 475.418 410.905L473.562 411.651ZM465.732 392.852C464.38 389.722 463.019 386.633 461.65 383.584L463.474 382.764C464.848 385.822 466.212 388.92 467.568 392.059L465.732 392.852ZM457.399 374.31C455.949 371.211 454.489 368.155 453.019 365.142L454.816 364.265C456.291 367.288 457.756 370.353 459.211 373.463L457.399 374.31ZM448.496 356.081C446.939 353.028 445.369 350.023 443.787 347.064L445.551 346.121C447.139 349.091 448.715 352.108 450.278 355.172L448.496 356.081ZM438.899 338.142C437.224 335.159 435.536 332.228 433.833 329.346L435.554 328.329C437.265 331.223 438.961 334.168 440.643 337.162L438.899 338.142ZM428.575 320.685C426.766 317.785 424.941 314.939 423.099 312.147L424.768 311.045C426.62 313.852 428.454 316.712 430.272 319.626L428.575 320.685ZM417.383 303.736C415.421 300.934 413.439 298.191 411.437 295.505L413.041 294.31C415.055 297.012 417.048 299.771 419.021 302.589L417.383 303.736ZM405.249 287.468C403.123 284.798 400.975 282.189 398.804 279.643L400.326 278.345C402.512 280.909 404.674 283.535 406.813 286.222L405.249 287.468ZM392.092 272.052C389.79 269.541 387.461 267.096 385.105 264.716L386.526 263.309C388.901 265.707 391.247 268.171 393.566 270.7L392.092 272.052ZM377.835 257.661C375.346 255.342 372.827 253.091 370.276 250.909L371.576 249.39C374.149 251.59 376.689 253.86 379.199 256.198L377.835 257.661ZM362.432 244.491C359.759 242.4 357.052 240.381 354.311 238.432L355.47 236.802C358.236 238.769 360.967 240.806 363.664 242.915L362.432 244.491ZM345.921 232.756C343.076 230.927 340.194 229.169 337.274 227.482L338.275 225.75C341.222 227.453 344.131 229.228 347.002 231.074L345.921 232.756ZM328.388 222.624C325.393 221.078 322.358 219.601 319.282 218.194L320.114 216.375C323.218 217.796 326.282 219.286 329.306 220.847L328.388 222.624ZM309.978 214.197C306.859 212.942 303.699 211.754 300.498 210.632L301.159 208.745C304.389 209.876 307.577 211.075 310.724 212.341L309.978 214.197ZM290.867 207.496C287.655 206.527 284.402 205.621 281.107 204.778L281.603 202.84C284.925 203.69 288.205 204.604 291.445 205.581L290.867 207.496ZM271.241 202.464C267.964 201.765 264.646 201.124 261.286 200.54L261.629 198.57C265.013 199.158 268.356 199.804 271.658 200.508L271.241 202.464ZM251.261 198.986C247.94 198.532 244.579 198.131 241.178 197.783L241.382 195.793C244.805 196.144 248.188 196.547 251.532 197.004L251.261 198.986ZM231.066 196.911C227.734 196.677 224.363 196.49 220.953 196.351L221.034 194.353C224.463 194.493 227.854 194.68 231.207 194.916L231.066 196.911ZM210.82 196.08C209.124 196.057 207.419 196.046 205.704 196.046L205.704 194.046C207.427 194.046 209.141 194.057 210.846 194.08L210.82 196.08ZM205.704 196.046C204.112 196.046 202.444 196.017 200.704 195.958L200.773 193.959C202.491 194.018 204.136 194.046 205.704 194.046L205.704 196.046ZM190.687 195.337C187.501 195.058 184.156 194.695 180.676 194.24L180.936 192.257C184.388 192.708 187.704 193.068 190.861 193.344L190.687 195.337ZM170.706 192.742C167.503 192.2 164.215 191.586 160.858 190.896L161.26 188.937C164.594 189.622 167.859 190.232 171.04 190.77L170.706 192.742ZM151.061 188.708C147.862 187.937 144.616 187.098 141.337 186.189L141.872 184.262C145.129 185.164 148.352 185.998 151.53 186.764L151.061 188.708ZM131.702 183.341C128.541 182.347 125.36 181.288 122.17 180.16L122.837 178.274C126.004 179.394 129.163 180.446 132.302 181.433L131.702 183.341ZM112.757 176.64C109.662 175.417 106.567 174.128 103.481 172.771L104.287 170.94C107.348 172.287 110.42 173.566 113.492 174.78L112.757 176.64ZM94.3634 168.538C91.3636 167.071 88.3821 165.535 85.428 163.929L86.3833 162.172C89.3114 163.764 92.2673 165.287 95.2423 166.742L94.3634 168.538ZM76.7039 158.926C73.8393 157.194 71.01 155.39 68.2249 153.514L69.3426 151.855C72.0996 153.713 74.9012 155.499 77.7388 157.215L76.7039 158.926ZM60.0298 147.675C57.3523 145.658 54.7271 143.566 52.1627 141.397L53.4544 139.87C55.989 142.014 58.5847 144.083 61.2332 146.078L60.0298 147.675ZM44.6733 134.669C42.2489 132.353 39.8934 129.959 37.6153 127.485L39.0868 126.13C41.3349 128.572 43.6603 130.936 46.0546 133.222L44.6733 134.669ZM31.0462 119.847C28.9517 117.236 26.9414 114.544 25.0237 111.769L26.669 110.632C28.559 113.367 30.5408 116.021 32.6063 118.596L31.0462 119.847ZM19.603 103.272C17.9137 100.393 16.321 97.4327 14.8328 94.3897L16.6294 93.511C18.0951 96.508 19.6638 99.4235 21.3279 102.259L19.603 103.272ZM10.7512 85.1663C9.52193 82.0739 8.39682 78.9029 7.38285 75.6518L9.29214 75.0563C10.291 78.2588 11.3991 81.382 12.6098 84.4275L10.7512 85.1663ZM4.74243 65.9218C3.99589 62.7047 3.3544 59.415 2.82369 56.0516L4.79923 55.7398C5.32259 59.0565 5.95497 62.2993 6.69064 65.4697L4.74243 65.9218ZM1.59895 46.0744C1.30801 42.7919 1.11895 39.4438 1.03646 36.0289L3.03588 35.9806C3.11735 39.3532 3.30402 42.6586 3.59115 45.8979L1.59895 46.0744ZM1.10014 25.9395C1.21919 22.639 1.43451 19.28 1.74986 15.8614L3.74141 16.0451C3.42942 19.4273 3.21652 22.7491 3.09885 26.0115L1.10014 25.9395ZM2.92497 5.94081C3.16606 4.26795 3.43039 2.58156 3.71833 0.881551L5.69024 1.21556C5.405 2.89954 5.14325 4.56969 4.90453 6.2261L2.92497 5.94081ZM205.704 195.046L205.704 193.046L205.704 195.046ZM480.061 425.501L462.097 410.988L483.647 402.687L480.061 425.501ZM472.634 412.023C471.355 408.839 470.068 405.693 468.774 402.585L472.467 401.048C473.767 404.171 475.06 407.333 476.346 410.532L472.634 412.023ZM464.814 393.249C463.464 390.123 462.105 387.038 460.738 383.993L464.386 382.355C465.762 385.417 467.128 388.519 468.486 391.662L464.814 393.249ZM456.493 374.734C455.046 371.639 453.588 368.588 452.12 365.581L455.715 363.826C457.193 366.854 458.66 369.925 460.117 373.039L456.493 374.734ZM447.606 356.535C446.051 353.488 444.484 350.489 442.905 347.536L446.433 345.65C448.024 348.626 449.602 351.648 451.169 354.717L447.606 356.535ZM438.027 338.631C436.356 335.655 434.671 332.73 432.972 329.855L436.415 327.82C438.13 330.721 439.829 333.672 441.515 336.673L438.027 338.631ZM427.726 321.214C425.922 318.321 424.101 315.482 422.264 312.697L425.603 310.494C427.459 313.308 429.298 316.176 431.12 319.097L427.726 321.214ZM416.564 304.31C414.607 301.516 412.631 298.78 410.636 296.103L413.843 293.712C415.863 296.422 417.862 299.19 419.84 302.016L416.564 304.31ZM404.466 288.091C402.348 285.429 400.207 282.83 398.043 280.292L401.087 277.696C403.281 280.269 405.45 282.903 407.596 285.6L404.466 288.091ZM391.355 272.727C389.061 270.226 386.741 267.79 384.394 265.42L387.237 262.605C389.62 265.013 391.976 267.485 394.304 270.024L391.355 272.727ZM377.154 258.393C374.674 256.083 372.166 253.842 369.626 251.669L372.227 248.63C374.81 250.84 377.361 253.118 379.88 255.466L377.154 258.393ZM361.816 245.278C359.155 243.198 356.46 241.187 353.731 239.247L356.049 235.987C358.828 237.963 361.571 240.009 364.28 242.127L361.816 245.278ZM345.38 233.597C342.548 231.777 339.68 230.027 336.774 228.347L338.776 224.884C341.736 226.595 344.658 228.378 347.543 230.233L345.38 233.597ZM327.93 223.513C324.948 221.974 321.927 220.504 318.866 219.103L320.531 215.466C323.649 216.893 326.726 218.39 329.764 219.958L327.93 223.513ZM309.604 215.124C306.5 213.875 303.355 212.693 300.167 211.576L301.49 207.801C304.734 208.937 307.936 210.141 311.097 211.413L309.604 215.124ZM290.578 208.453C287.38 207.488 284.141 206.586 280.859 205.746L281.851 201.871C285.187 202.725 288.48 203.642 291.733 204.623L290.578 208.453ZM271.032 203.442C267.768 202.746 264.462 202.107 261.115 201.525L261.8 197.584C265.196 198.174 268.552 198.823 271.867 199.531L271.032 203.442ZM251.125 199.977C247.816 199.524 244.467 199.125 241.077 198.778L241.484 194.798C244.918 195.15 248.312 195.555 251.667 196.014L251.125 199.977ZM230.996 197.909C227.673 197.675 224.312 197.489 220.912 197.35L221.075 193.354C224.514 193.494 227.914 193.682 231.277 193.919L230.996 197.909ZM210.806 197.08C209.115 197.057 207.414 197.046 205.704 197.046L205.704 193.046C207.432 193.046 209.15 193.057 210.859 193.08L210.806 197.08ZM205.704 197.046C204.1 197.046 202.42 197.017 200.67 196.957L200.807 192.959C202.514 193.018 204.149 193.046 205.704 193.046L205.704 197.046ZM190.6 196.333C187.399 196.053 184.04 195.688 180.547 195.231L181.065 191.265C184.504 191.714 187.806 192.074 190.948 192.348L190.6 196.333ZM170.539 193.728C167.324 193.184 164.025 192.568 160.656 191.875L161.462 187.957C164.784 188.64 168.038 189.248 171.207 189.784L170.539 193.728ZM150.827 189.68C147.617 188.906 144.36 188.065 141.07 187.153L142.139 183.298C145.385 184.198 148.597 185.028 151.765 185.792L150.827 189.68ZM131.402 184.295C128.23 183.298 125.039 182.235 121.837 181.103L123.17 177.332C126.326 178.447 129.474 179.495 132.602 180.479L131.402 184.295ZM112.39 177.57C109.283 176.343 106.176 175.049 103.079 173.686L104.69 170.025C107.739 171.366 110.798 172.641 113.86 173.85L112.39 177.57ZM93.924 169.437C90.9117 167.963 87.9175 166.421 84.9503 164.808L86.861 161.293C89.776 162.878 92.7192 164.394 95.6818 165.844L93.924 169.437ZM76.1865 159.782C73.3083 158.041 70.4653 156.229 67.6661 154.343L69.9014 151.026C72.6444 152.874 75.4321 154.651 78.2563 156.359L76.1865 159.782ZM59.4281 148.474C56.7361 146.446 54.0961 144.342 51.5169 142.161L54.1001 139.107C56.6199 141.238 59.2009 143.295 61.8349 145.279L59.4281 148.474ZM43.9826 135.392C41.5432 133.062 39.1727 130.653 36.8796 128.162L39.8225 125.453C42.0557 127.879 44.366 130.227 46.7453 132.499L43.9826 135.392ZM30.2662 120.473C28.1571 117.844 26.1326 115.133 24.201 112.337L27.4917 110.063C29.3679 112.778 31.3354 115.413 33.3864 117.97L30.2662 120.473ZM18.7405 103.778C17.0386 100.877 15.434 97.8951 13.9344 94.829L17.5277 93.0717C18.9822 96.0456 20.5389 98.9389 22.1904 101.753L18.7405 103.778ZM9.82195 85.5357C8.58334 82.4198 7.44976 79.225 6.4282 75.9496L10.2468 74.7586C11.238 77.9368 12.3377 81.036 13.539 84.0581L9.82195 85.5357ZM3.7683 66.1479C3.01636 62.9073 2.37032 59.5943 1.83591 56.2074L5.78701 55.584C6.30667 58.8772 6.9345 62.0966 7.66477 65.2437L3.7683 66.1479ZM0.602838 46.1627C0.309996 42.8586 0.119756 39.489 0.0367809 36.0531L4.03559 35.9565C4.11657 39.308 4.30204 42.5919 4.58723 45.8096L0.602838 46.1627ZM0.1008 25.9034C0.220507 22.584 0.437062 19.2063 0.754089 15.7695L4.73718 16.137C4.42687 19.5009 4.21517 22.8041 4.09819 26.0476L0.1008 25.9034ZM1.93518 5.79817C2.17747 4.11708 2.44306 2.42258 2.73238 0.714549L6.6762 1.38256C6.39233 3.05853 6.13184 4.72056 5.89429 6.36874L1.93518 5.79817Z" fill="#F1EFE8"/>
</svg>
