<svg width="20" height="20" viewBox="0 0 20 20" fill="none" xmlns="http://www.w3.org/2000/svg">
<g clip-path="url(#clip0_3912_440674)">
<path d="M0.686849 13.4801H19.292V12.5455C19.292 12.3194 19.2562 12.1093 19.1927 11.9212C19.1243 11.721 19.0234 11.5429 18.8981 11.3888C18.8216 11.2948 18.7354 11.2087 18.6426 11.1327C18.5482 11.0546 18.4473 10.9866 18.3415 10.9286C18.0566 10.8525 17.7734 10.7805 17.4919 10.7124C17.2087 10.6444 16.9238 10.5803 16.6374 10.5203C16.6243 10.5183 16.6146 10.5163 16.6016 10.5123C16.4567 10.4823 16.3184 10.4543 16.1865 10.4283C16.0547 10.4022 15.9147 10.3762 15.7682 10.3482H15.765C14.7689 10.1921 13.776 10.072 12.7848 9.99199C11.792 9.91195 10.804 9.87192 9.82259 9.86992C9.23991 9.86992 8.65885 9.88193 8.0778 9.90995C7.5 9.93796 6.91895 9.97799 6.33789 10.034H6.33464C5.79102 10.0961 5.24902 10.1741 4.7054 10.2642C4.16341 10.3542 3.61979 10.4603 3.07292 10.5783L3.0127 10.5964C3.0013 10.6004 2.98991 10.6024 2.98014 10.6024C2.97038 10.6044 2.96061 10.6044 2.95085 10.6044C2.69531 10.6604 2.43327 10.7224 2.16309 10.7885C1.90104 10.8525 1.639 10.9206 1.37858 10.9906C1.31348 11.0346 1.25163 11.0847 1.19303 11.1367C1.13444 11.1907 1.07747 11.2487 1.02702 11.3108C0.917969 11.4449 0.831706 11.599 0.773112 11.7711C0.717773 11.9332 0.686849 12.1133 0.686849 12.3094V13.4801ZM2.3112 0H17.4463C17.6432 0 17.832 0.0480288 18.0046 0.136082C18.1836 0.228137 18.3447 0.362217 18.4798 0.526316C18.6149 0.692415 18.724 0.890534 18.7972 1.11067C18.8688 1.32279 18.9079 1.55493 18.9079 1.79708V10.3402C18.9909 10.4002 19.0723 10.4663 19.1471 10.5383C19.2318 10.6184 19.3115 10.7024 19.3848 10.7925C19.5736 11.0246 19.7266 11.2948 19.8291 11.599C19.9268 11.8851 19.9805 12.2033 19.9805 12.5475V13.7663C19.9854 13.7863 19.9902 13.8063 19.9935 13.8263V13.8303C19.9967 13.8563 19.9984 13.8803 19.9984 13.9043C19.9984 13.9304 19.9967 13.9564 19.9919 13.9824C19.9886 14.0024 19.9837 14.0224 19.9788 14.0424V19.5777C19.9788 19.6938 19.9398 19.7999 19.8779 19.8759C19.8161 19.952 19.7298 20 19.6354 20H18.9274C18.8477 20 18.7744 19.966 18.7158 19.9099C18.6572 19.8539 18.6133 19.7739 18.5954 19.6818C18.4652 19.2215 18.3333 18.8573 18.1917 18.5731C18.0518 18.293 17.902 18.0929 17.7295 17.9508C17.5553 17.8087 17.347 17.7186 17.0947 17.6646C16.8376 17.6086 16.5381 17.5906 16.1816 17.5926L3.19987 17.6126H3.19336C2.93783 17.6066 2.72786 17.6466 2.55208 17.7306C2.37793 17.8147 2.23633 17.9408 2.11914 18.1029C1.9873 18.283 1.87663 18.5131 1.77572 18.7813C1.67318 19.0554 1.5804 19.3676 1.48763 19.7098C1.46484 19.7979 1.41927 19.8679 1.3623 19.9179C1.30859 19.966 1.24349 19.994 1.17676 19.998C1.17188 20 1.16699 20 1.16211 20H0.343424C0.249023 20 0.16276 19.952 0.100911 19.8759C0.0390625 19.7999 0 19.6938 0 19.5777V12.3114C0 11.9972 0.0488281 11.709 0.136719 11.4489C0.23112 11.1727 0.369466 10.9266 0.541992 10.7144C0.59082 10.6544 0.644531 10.5944 0.701497 10.5383C0.750326 10.4903 0.799154 10.4443 0.851237 10.4022V1.77907C0.851237 1.53692 0.890299 1.30678 0.961914 1.09866C1.03678 0.880528 1.14583 0.684411 1.28092 0.520312C1.41602 0.356214 1.57715 0.226136 1.75456 0.136082C1.92708 0.0480288 2.11426 0 2.3112 0ZM17.4463 0.844507H2.3112C2.2054 0.844507 2.10449 0.870522 2.01172 0.91655C1.91569 0.964579 1.83105 1.03462 1.75944 1.12067C1.68945 1.20472 1.63249 1.30879 1.59342 1.42085C1.55762 1.53092 1.53809 1.65099 1.53809 1.77907V9.996C1.58691 9.97599 1.63574 9.95998 1.6862 9.94397C1.76595 9.91795 1.8457 9.89594 1.92546 9.87993C2.03613 9.85591 2.15658 9.8299 2.28678 9.80188C2.38444 9.78187 2.48861 9.75986 2.59603 9.73984V7.64258C2.59603 7.3264 2.64811 7.02421 2.74089 6.74805C2.83854 6.45988 2.98014 6.20172 3.15592 5.98559C3.33171 5.76946 3.54167 5.59536 3.77604 5.47529C4.00065 5.36122 4.24642 5.29718 4.50358 5.29718H7.72949C7.98665 5.29718 8.23242 5.36122 8.45703 5.47529C8.69141 5.59536 8.90137 5.76946 9.07715 5.98559C9.25293 6.20172 9.39453 6.45988 9.49219 6.74805C9.58496 7.02421 9.63704 7.3264 9.63704 7.64258V8.98139C9.75098 8.97939 9.86491 8.97939 9.98047 8.97939V7.64258C9.98047 7.3264 10.0326 7.02421 10.1253 6.74805C10.223 6.45988 10.3646 6.20172 10.5404 5.98559C10.7161 5.76946 10.9261 5.59536 11.1605 5.47529C11.3851 5.36122 11.6309 5.29718 11.888 5.29718H15.1139C15.3711 5.29718 15.6169 5.36122 15.8415 5.47529C16.0758 5.59536 16.2858 5.76946 16.4616 5.98559C16.6374 6.20172 16.779 6.45988 16.8766 6.74805C16.9694 7.02421 17.0215 7.3264 17.0215 7.64258V9.71183C17.1436 9.73384 17.2738 9.75986 17.4137 9.78787C17.5684 9.81789 17.7165 9.84791 17.8597 9.87793C17.9329 9.89394 18.0078 9.91195 18.0827 9.93396C18.1299 9.94797 18.1755 9.96198 18.2194 9.97799V1.79708C18.2194 1.669 18.1982 1.54693 18.1608 1.43486C18.1217 1.31879 18.0632 1.21473 17.9915 1.12467C17.9199 1.03662 17.8337 0.964579 17.7409 0.91655C17.6497 0.870522 17.5505 0.844507 17.4463 0.844507ZM7.03288 9.11747C7.36003 9.08745 7.6888 9.06144 8.02246 9.04142C8.33008 9.02141 8.64095 9.0074 8.95182 8.9974V7.64258C8.95182 7.44046 8.91927 7.24635 8.85905 7.07024C8.7972 6.88613 8.70605 6.72203 8.59212 6.58195C8.47982 6.44387 8.34473 6.3318 8.19499 6.25375C8.05176 6.17971 7.89388 6.13968 7.72949 6.13968H4.50358C4.33919 6.13968 4.18131 6.17971 4.03809 6.25375C3.88835 6.3298 3.75488 6.44186 3.64095 6.58195C3.52865 6.72003 3.4375 6.88613 3.37402 7.07024C3.3138 7.24635 3.28125 7.44046 3.28125 7.64258V9.60576C3.54492 9.55773 3.81185 9.51371 4.08529 9.46968C4.37988 9.42365 4.67285 9.38163 4.96257 9.3416C5.07487 9.32559 5.19531 9.30758 5.32064 9.29157C5.43783 9.27557 5.5599 9.26156 5.6901 9.24555C5.91146 9.21953 6.13119 9.19552 6.34766 9.1735C6.57064 9.15549 6.7985 9.13548 7.03288 9.11747ZM10.6673 8.98539C10.8643 8.98939 11.0612 8.9954 11.2581 9.0034C11.4762 9.01141 11.6943 9.02341 11.9108 9.03542H11.9124C12.2689 9.05143 12.6172 9.07144 12.9557 9.09546C13.2943 9.11947 13.6247 9.14949 13.9404 9.18351C14.3994 9.23354 14.8438 9.29358 15.2653 9.36362C15.6429 9.42766 16.001 9.4997 16.3363 9.57975V7.64258C16.3363 7.44046 16.3037 7.24635 16.2435 7.07024C16.1816 6.88613 16.0905 6.72203 15.9766 6.58195C15.8643 6.44387 15.7292 6.3318 15.5794 6.25375C15.4362 6.17971 15.2783 6.13968 15.1139 6.13968H11.8896C11.7253 6.13968 11.5674 6.17971 11.4242 6.25375C11.2744 6.3298 11.141 6.44186 11.027 6.58195C10.9147 6.72003 10.8236 6.88613 10.7601 7.07024C10.6999 7.24635 10.6673 7.44046 10.6673 7.64258V8.98539ZM19.2936 14.3266H0.686849V19.1555H0.919596C1.01074 18.8393 1.10514 18.5451 1.21094 18.283C1.32487 18.0028 1.45345 17.7547 1.6097 17.5405C1.79525 17.2844 2.01335 17.0863 2.27539 16.9542C2.53743 16.8241 2.84342 16.7581 3.21126 16.7681L16.1816 16.748C16.5999 16.748 16.958 16.7721 17.2705 16.8461C17.5879 16.9202 17.8613 17.0462 18.1071 17.2463C18.335 17.4325 18.5303 17.6786 18.7061 18.0008C18.8737 18.309 19.0234 18.6872 19.1667 19.1535H19.2904V14.3266H19.2936Z" fill="#B68742"/>
</g>
<defs>
<clipPath id="clip0_3912_440674">
<rect width="20" height="20" fill="white"/>
</clipPath>
</defs>
</svg>
