<svg width="55" height="31" viewBox="0 0 55 31" fill="none" xmlns="http://www.w3.org/2000/svg">
<path d="M14.2891 13.2222C17.2542 10.6923 21.1861 9.39485 24.9892 9.65433C29.5657 9.97868 33.9489 12.314 38.461 11.795C39.7502 11.6653 41.0394 11.2761 42.0707 10.4976C43.5533 9.39485 44.4557 7.44874 44.1978 5.56749C43.94 3.68625 42.4575 2.06449 40.6526 1.67527C38.8478 1.28605 36.7851 2.32398 36.0761 4.07548C35.6249 5.17827 35.7538 6.60542 36.5917 7.44874C37.4297 8.29205 38.9767 8.42179 39.8147 7.51361" stroke="#B68742" stroke-opacity="0.51" stroke-width="2.25019" stroke-miterlimit="10" stroke-linecap="round"/>
<path d="M11.9688 18.1525C14.9983 15.8821 18.4146 14.1306 22.0243 12.9629" stroke="#B68742" stroke-opacity="0.51" stroke-width="2.25019" stroke-miterlimit="10" stroke-linecap="round"/>
<path d="M18.7363 18.671C21.7014 16.2059 25.5689 14.8437 29.372 14.8437C35.4956 14.8437 41.1679 18.2169 47.2915 18.2169C49.0319 18.2169 50.9656 17.8277 52.1903 16.5303C53.544 15.1031 53.6729 12.5732 52.3837 11.146C51.0301 9.65402 48.3873 9.71889 47.1626 11.2758C46.518 12.1191 46.3246 13.4165 47.0337 14.2598C47.7427 15.1031 49.2897 15.0383 49.7409 14.0652" stroke="#B68742" stroke-width="2.25019" stroke-miterlimit="10" stroke-linecap="round"/>
<path d="M1.71875 26.7145C4.55493 28.7904 8.61582 28.3363 11.9677 27.1686C15.9641 25.7414 19.6382 23.471 23.4413 21.46C24.8594 20.6816 26.2775 19.968 27.8245 19.5788C29.8872 19.0598 32.0788 19.1247 34.077 19.8382C35.1083 20.2275 36.0752 20.7464 36.7842 21.5249C38.1379 23.0169 38.3957 25.4171 37.4288 27.1686C36.3975 28.9201 34.2059 29.8932 32.2721 29.4391C31.7565 29.3093 31.1763 29.1147 30.7896 28.7255C29.307 27.2983 29.8227 23.9899 32.3366 24.1846C33.0456 24.2494 33.6902 24.6387 34.0125 25.2874" stroke="#B68742" stroke-opacity="0.51" stroke-width="2.25019" stroke-miterlimit="10" stroke-linecap="round"/>
</svg>
