<svg width="72" height="334" viewBox="0 0 72 334" fill="none" xmlns="http://www.w3.org/2000/svg">
<path fill-rule="evenodd" clip-rule="evenodd" d="M17.6239 333.104L13.1358 319.27C8.49077 305.437 -0.799321 277.771 0.581764 250.032C1.80592 222.294 13.7013 194.484 19.6333 166.715C25.4084 138.947 25.2202 111.219 22.0503 83.5109C18.8805 55.8032 12.572 28.1168 9.49626 14.2731L6.42051 0.429346L69.6629 8.18966e-05L69.757 13.8641C69.8511 27.728 70.0394 55.4559 70.2276 83.1839C70.4158 110.912 70.604 138.64 70.7922 166.368C70.9804 194.096 71.1686 221.824 71.3568 249.552C71.545 277.28 71.7332 305.007 71.8273 318.871L71.8273 333.108L17.6239 333.104Z" fill="white"/>
</svg>
