<svg width="26" height="32" viewBox="0 0 26 32" fill="none" xmlns="http://www.w3.org/2000/svg">
<path d="M23.5275 13.0622C23.5275 20.8122 13.1942 28.5622 13.1942 28.5622C13.1942 28.5622 2.86084 20.8122 2.86084 13.0622C2.86084 10.3216 3.94953 7.69332 5.8874 5.75545C7.82528 3.81757 10.4536 2.72888 13.1942 2.72888C15.9347 2.72888 18.5631 3.81757 20.5009 5.75545C22.4388 7.69332 23.5275 10.3216 23.5275 13.0622V13.0622Z" stroke="#B68742" stroke-width="2" stroke-linecap="round" stroke-linejoin="round"/>
<path d="M16.0698 13.0624C16.0698 14.6502 14.7826 15.9374 13.1948 15.9374C11.607 15.9374 10.3198 14.6502 10.3198 13.0624C10.3198 11.4746 11.607 10.1874 13.1948 10.1874C14.7826 10.1874 16.0698 11.4746 16.0698 13.0624Z" stroke="#B68742" stroke-width="2"/>
</svg>
