<svg width="315" height="19" viewBox="0 0 315 19" fill="none" xmlns="http://www.w3.org/2000/svg">
<path fill-rule="evenodd" clip-rule="evenodd" d="M0 12.7079L13.125 9.57094C26.25 6.32198 52.5 -0.175932 78.75 0.944398C105 1.9527 131.25 10.5792 157.5 14.9485C183.75 19.2058 210 19.2058 236.25 17.0772C262.5 14.9485 288.75 10.5792 301.875 8.45061L315 6.32198V51.4713H301.875C288.75 51.4713 262.5 51.4713 236.25 51.4713C210 51.4713 183.75 51.4713 157.5 51.4713C131.25 51.4713 105 51.4713 78.75 51.4713C52.5 51.4713 26.25 51.4713 13.125 51.4713H0V12.7079Z" fill="white"/>
</svg>
