<svg width="26" height="25" viewBox="0 0 26 25" fill="none" xmlns="http://www.w3.org/2000/svg">
<path fill-rule="evenodd" clip-rule="evenodd" d="M11.6841 0.016243C11.5759 0.0292742 11.2724 0.0661785 11.0097 0.0982511C6.92908 0.596302 3.24206 3.25012 1.39728 7.01715C0.529019 8.79007 0.141113 10.4858 0.141113 12.5082C0.141113 14.5321 0.529975 16.2307 1.39818 17.9993C3.25931 21.7905 6.84005 24.3573 11.0659 24.9295C11.7596 25.0235 13.5949 25.0235 14.2413 24.9295C18.1496 24.3615 21.3928 22.2421 23.3639 18.9678C24.0212 17.8759 24.4443 16.8736 24.7517 15.6798C25.0578 14.4919 25.1411 13.8128 25.1411 12.5082C25.1411 11.2046 25.0579 10.5264 24.7522 9.33671C23.5144 4.52039 19.4572 0.876193 14.4942 0.122966C13.927 0.0368584 12.0915 -0.0327926 11.6841 0.016243ZM13.9386 8.18351C14.6642 8.31887 15.3585 8.85259 15.6919 9.53128L15.8712 9.89638L15.8873 13.1823C15.8963 14.9895 15.8896 16.5246 15.8725 16.5935C15.7981 16.8938 15.8657 16.8895 11.1951 16.889C8.46654 16.8888 6.74446 16.867 6.51352 16.8299C5.60985 16.6847 4.87535 16.0595 4.57944 15.1836C4.49778 14.9419 4.48727 14.5306 4.48935 11.6498C4.49182 8.22748 4.48778 8.28315 4.74119 8.18053C4.91002 8.11212 13.571 8.11498 13.9386 8.18351ZM20.4915 8.29607C20.5465 8.40475 20.5626 9.35362 20.5632 12.5504C20.564 16.5918 20.5621 16.6667 20.4515 16.7772C20.3525 16.8762 20.3194 16.8812 20.1756 16.8193C20.0858 16.7806 19.2146 16.1677 18.2397 15.4571L16.4671 14.1652L16.4671 12.5082L16.467 10.8513L18.1281 9.64362C20.4935 7.92384 20.3457 8.00809 20.4915 8.29607Z" fill="#B68742"/>
</svg>
