<svg width="53" height="53" viewBox="0 0 53 53" fill="none" xmlns="http://www.w3.org/2000/svg">
<circle cx="26.5" cy="26.5" r="26.5" fill="#FBEFEF"/>
<g clip-path="url(#clip0_5149_3116)">
<path d="M31 14.5H19C17.8933 14.5 16.9466 15.1733 16.5466 16.1267L12.5266 25.5267C12.4066 25.8333 12.3333 26.16 12.3333 26.5V29.0533L12.3466 29.0667L12.3333 29.1667C12.3333 30.64 13.5266 31.8333 15 31.8333H23.42L22.1466 37.9267C22.12 38.06 22.1 38.2 22.1 38.3467C22.1 38.9 22.3266 39.4 22.6866 39.76L24.1066 41.1667L32.8866 32.3867C33.3666 31.9 33.6666 31.2333 33.6666 30.5V17.1667C33.6666 15.6933 32.4733 14.5 31 14.5ZM36.3333 14.5V30.5H41.6666V14.5H36.3333Z" fill="#E5514F"/>
</g>
<defs>
<clipPath id="clip0_5149_3116">
<rect width="32" height="32" fill="white" transform="translate(11 10.5)"/>
</clipPath>
</defs>
</svg>
