<svg width="53" height="53" viewBox="0 0 53 53" fill="none" xmlns="http://www.w3.org/2000/svg">
<circle cx="26.5" cy="26.5" r="26.5" fill="#F2F1FD"/>
<g clip-path="url(#clip0_5149_12889)">
<path d="M26.7333 25.0333C23.7066 24.2467 22.7333 23.44 22.7333 22.1733C22.7333 20.72 24.0733 19.7 26.3333 19.7C28.7066 19.7 29.5866 20.8333 29.6666 22.5H32.6133C32.5266 20.2 31.12 18.1067 28.3333 17.42V14.5H24.3333V17.38C21.7466 17.9467 19.6666 19.6133 19.6666 22.1933C19.6666 25.2733 22.22 26.8067 25.9333 27.7C29.2733 28.5 29.9333 29.6667 29.9333 30.92C29.9333 31.8333 29.2866 33.3 26.3333 33.3C23.5866 33.3 22.5 32.0667 22.36 30.5H19.42C19.5866 33.42 21.7666 35.0533 24.3333 35.6067V38.5H28.3333V35.6333C30.9266 35.1333 33 33.6333 33 30.8933C33 27.12 29.76 25.8267 26.7333 25.0333Z" fill="#533DE2"/>
</g>
<defs>
<clipPath id="clip0_5149_12889">
<rect width="32" height="32" fill="white" transform="translate(11 10.5)"/>
</clipPath>
</defs>
</svg>
