<svg width="53" height="53" viewBox="0 0 53 53" fill="none" xmlns="http://www.w3.org/2000/svg">
<circle cx="26.5" cy="26.5" r="26.5" fill="#F1F9F6"/>
<path fill-rule="evenodd" clip-rule="evenodd" d="M18.3593 36.3284V25.9575H22.5798C24.3683 26.3113 26.1571 27.3847 27.9457 28.6289H31.2235C32.7074 28.7269 33.4847 30.3903 32.0419 31.4826C30.8932 32.4154 29.3764 32.3619 27.8214 32.2075C26.7492 32.1484 26.7035 33.7414 27.8214 33.7468C28.2106 33.7805 28.632 33.6796 29.0001 33.6796C30.9388 33.6763 32.5372 33.2666 33.5152 31.5725L34.006 30.3058L38.8817 27.6346C41.3211 26.7469 43.0564 29.5671 41.2576 31.5306C37.7257 34.3705 34.1046 36.7076 30.4005 38.5953C27.7099 40.4044 25.0187 40.3423 22.3305 38.5953L18.3593 36.3284ZM34.5504 19.9716C35.0531 19.9716 35.4554 20.1309 35.7621 20.4464C36.0672 20.7635 36.2213 21.1843 36.2213 21.7103C36.2213 22.2345 36.0672 22.6569 35.7621 22.9727C35.4554 23.2895 35.0531 23.4474 34.5504 23.4474C34.0477 23.4474 33.6434 23.2895 33.3373 22.9727C33.0321 22.6553 32.8795 22.2345 32.8795 21.7103C32.8795 21.1843 33.0321 20.7635 33.3373 20.4464C33.6434 20.1309 34.048 19.9716 34.5504 19.9716ZM32.214 12.5C36.0611 12.5 39.18 15.9477 39.18 20.2011C39.18 24.4541 36.0611 27.9021 32.214 27.9021C28.3668 27.9021 25.248 24.4544 25.248 20.2011C25.248 15.9477 28.3668 12.5 32.214 12.5ZM32.214 13.9515C35.3358 13.9515 37.8668 16.7496 37.8668 20.2011C37.8668 23.6525 35.3358 26.4506 32.214 26.4506C29.0917 26.4506 26.5609 23.6528 26.5609 20.2013C26.5609 16.7498 29.0917 13.9515 32.214 13.9515ZM33.5248 17.2071H34.8846L30.9022 23.1951H29.5424L33.5248 17.2071ZM34.5504 21.1743C34.4034 21.1743 34.2906 21.2224 34.2128 21.3138C34.1356 21.4097 34.0958 21.5389 34.0958 21.7122C34.0958 21.8831 34.1354 22.0142 34.2128 22.1082C34.2904 22.2021 34.4034 22.248 34.5504 22.248C34.6959 22.248 34.8089 22.2002 34.8866 22.1082C34.9637 22.0142 35.0035 21.8831 35.0035 21.7122C35.0035 21.5389 34.9635 21.4078 34.8866 21.3138C34.8109 21.2202 34.6979 21.1743 34.5504 21.1743ZM29.8588 18.1622C29.7113 18.1622 29.5997 18.21 29.5226 18.302C29.4454 18.3957 29.4057 18.5271 29.4057 18.698C29.4057 18.8691 29.4452 19.0024 29.5226 19.0961C29.5997 19.1878 29.7113 19.2359 29.8588 19.2359C30.0057 19.2359 30.1185 19.1878 30.1959 19.0961C30.2731 19.0003 30.3109 18.8691 30.3109 18.698C30.3109 18.5271 30.2733 18.3957 30.1959 18.302C30.1207 18.21 30.0077 18.1622 29.8588 18.1622ZM29.8583 16.9593C30.361 16.9593 30.7653 17.1169 31.0719 17.4343C31.3766 17.7514 31.5292 18.1722 31.5292 18.6966C31.5292 19.2227 31.3766 19.6434 31.0719 19.9606C30.7653 20.2777 30.361 20.4353 29.8583 20.4353C29.3561 20.4353 28.9533 20.2761 28.6466 19.9606C28.3415 19.6434 28.1874 19.2227 28.1874 18.6966C28.1874 18.1725 28.3415 17.7501 28.6466 17.4343C28.9533 17.1172 29.3563 16.9593 29.8583 16.9593ZM12 24.9605H17.0888V37.3705H12V24.9605Z" fill="#65B488"/>
</svg>
