<svg width="53" height="53" viewBox="0 0 53 53" fill="none" xmlns="http://www.w3.org/2000/svg">
<circle cx="26.5" cy="26.5" r="26.5" fill="#EFF4FB"/>
<path d="M37.1968 14.189C37.2581 14.2976 37.356 14.4908 37.4142 14.6235C37.8979 15.7017 41.6755 24.5889 41.9357 25.2527C42.0459 25.5424 42.0306 25.5947 41.7612 25.8441C41.2837 26.2867 39.9918 27.2884 39.753 27.4011C39.6367 27.4574 39.6336 27.4574 39.551 27.3206C39.2418 26.8338 34.6835 16.2006 34.6835 15.9713C34.6835 15.9391 34.806 15.8023 34.9529 15.6655C35.5192 15.1425 36.9642 13.9999 37.056 13.9999C37.0744 13.9999 37.1387 14.0844 37.1968 14.189Z" fill="#2E11E3"/>
<path d="M17.2804 14.2374C17.8743 14.6559 19.0315 15.6134 19.1998 15.8306C19.2488 15.8869 19.2856 15.9634 19.2856 15.9996C19.2856 16.0881 18.8876 17.0617 17.8682 19.4716C16.2916 23.197 14.5803 27.1357 14.4303 27.3892L14.363 27.4978L14.0018 27.2524C13.4385 26.8742 12.4405 26.0736 12.1129 25.7397C12.0486 25.6673 11.9997 25.5868 11.9997 25.5345C11.9997 25.2328 15.8293 16.2611 16.8794 14.1087C16.9284 14.0081 16.9773 14.0202 17.2804 14.2374Z" fill="#2E11E3"/>
<path d="M26.8344 17.1381C27.9794 17.2146 29.2253 17.472 29.8161 17.7496C30.2202 17.9428 30.3182 18.0916 31.5519 20.409C32.1243 21.4831 32.5131 22.2717 32.6631 22.666C32.755 22.9073 32.7703 22.9878 32.7825 23.3338C32.7978 23.7723 32.7764 23.8608 32.6295 23.9614C32.5499 24.0177 32.4672 24.0258 32.1795 24.0057C31.4754 23.9654 30.8508 23.6154 30.1498 22.8631C29.8284 22.5211 29.3631 21.8613 29.1488 21.4429L28.9498 21.0607L28.3957 20.8274C27.5324 20.4653 27.4191 20.4331 27.2691 20.5015C26.9661 20.6423 25.2915 21.8171 24.217 22.6418C22.5333 23.9332 20.0812 26.1902 18.223 28.1536L17.6016 28.8093L17.3934 28.6605C16.9709 28.3628 16.3709 27.6949 15.7586 26.85L15.5199 26.5201L17.1699 22.6861C18.0761 20.5739 18.9271 18.5985 19.0618 18.2928L19.3036 17.7376L19.4414 17.7617C19.5179 17.7778 19.6955 17.8261 19.8394 17.8703C20.2098 17.991 20.8312 18.0111 21.2659 17.9226C21.4496 17.8864 21.97 17.7496 22.4262 17.6209C23.9844 17.1743 24.214 17.1381 25.4262 17.118C25.9466 17.11 26.5803 17.118 26.8344 17.1381Z" fill="#2E11E3"/>
<path d="M35.1672 18.8357C35.5805 19.7973 37.2825 23.7601 38.1979 25.9044L38.5652 26.7654L38.2683 27.2321C38.103 27.4896 37.8366 27.92 37.6713 28.1896C37.506 28.4632 37.356 28.6844 37.3377 28.6844C37.3223 28.6844 37.2305 28.608 37.1387 28.5155C36.805 28.1856 36.5111 28.0448 36.1682 28.0407C35.5254 28.0367 34.8794 28.6402 34.5794 29.5213C34.5488 29.6138 34.509 29.6902 34.4968 29.6902C34.4845 29.6902 34.3743 29.5172 34.2549 29.308C34.007 28.8735 33.8539 28.6925 33.5937 28.5356C33.4284 28.431 33.3825 28.4229 33.0457 28.4229C32.5988 28.4229 32.412 28.4913 32.0906 28.773C31.7508 29.0747 31.4967 29.5374 31.3895 30.0563C31.3651 30.177 31.3375 30.4788 31.3253 30.7242L31.3069 31.1788H31.114C30.8936 31.1788 30.6946 31.2673 30.4161 31.4926C29.8803 31.9191 29.513 32.7881 29.5466 33.5444C29.562 33.814 29.5589 33.8381 29.4977 33.8502C28.8303 34.0151 28.5885 34.16 28.2548 34.5985C28.0833 34.8198 27.9946 34.9807 27.9119 35.202C27.6395 35.9463 27.6639 36.6141 27.9946 37.3342C28.1782 37.7325 28.1752 37.7889 27.9701 37.8894C26.9905 38.3722 25.8027 38.6458 25.1506 38.5452C24.9884 38.5211 24.7863 38.4648 24.7006 38.4245C24.4465 38.2958 23.9506 37.7607 23.8098 37.463L23.7455 37.3222L23.8128 37.2498C23.8526 37.2055 24.5108 36.763 25.2761 36.2601C26.0415 35.7572 26.6935 35.3106 26.7272 35.2704C26.8435 35.1296 26.767 34.7675 26.6047 34.6991C26.5098 34.6629 26.2986 34.7795 25.1323 35.5118C23.5618 36.5015 23.2894 36.6503 22.9128 36.7107C22.7108 36.7428 22.3342 36.6664 22.1659 36.5618C21.8965 36.3888 21.6944 36.0026 21.6118 35.4876C21.5781 35.2663 21.5781 35.2342 21.6332 35.1135C21.7158 34.9284 22.1138 34.5864 23.372 33.6289C25.2516 32.2007 25.4996 31.9875 25.4996 31.7943C25.4996 31.6777 25.3129 31.4202 25.2333 31.4202C25.1598 31.4202 24.722 31.738 23.2955 32.8122C21.1066 34.4617 21.174 34.4215 20.7087 34.3853C20.3505 34.3571 20.1301 34.2485 19.9158 33.991C19.6556 33.6772 19.5546 33.2548 19.6066 32.6634L19.628 32.4059L20.3658 31.8225C22.9036 29.819 24.1037 28.8333 24.1741 28.6965C24.2353 28.5798 24.1771 28.3344 24.0761 28.2741C23.9077 28.1735 23.5343 28.439 20.9168 30.5029L18.9821 32.0277L18.5566 31.9915C18.226 31.9593 18.1035 31.9311 18.0055 31.8668C17.8341 31.7541 17.678 31.5328 17.577 31.2633C17.5035 31.0662 17.4943 30.9897 17.4943 30.6558C17.4943 30.3178 17.5035 30.2454 17.58 30.0443C17.7331 29.6339 18.3423 28.95 20.0046 27.3166C22.2148 25.1441 23.7822 23.7883 25.6527 22.4365C26.3231 21.9537 27.3701 21.2416 27.4129 21.2416C27.4313 21.2416 27.6884 21.3381 27.9854 21.4548L28.5211 21.664L28.8456 22.1911C29.6599 23.5147 30.5385 24.3193 31.5487 24.6653C31.7753 24.7458 31.8977 24.7619 32.2804 24.7619C32.7243 24.7619 32.7457 24.7578 32.9171 24.6452C33.1192 24.5164 33.3151 24.2268 33.3671 23.9854C33.41 23.7722 33.4039 23.3216 33.3518 22.9917C33.2631 22.4284 33.012 21.8652 31.8579 19.6404C31.7294 19.3909 31.6222 19.1697 31.6222 19.1495C31.6222 19.0811 31.7416 19.0409 32.3294 18.9082C33.4284 18.6668 33.7345 18.53 34.4233 17.9828C34.5641 17.8702 34.6835 17.7817 34.6927 17.7817C34.7019 17.7817 34.9162 18.2564 35.1672 18.8357Z" fill="#2E11E3"/>
<path d="M36.4763 28.8615C36.5406 28.8936 36.6416 28.9781 36.6998 29.0546C36.8559 29.2477 37.309 30.0523 37.4651 30.4063C37.5968 30.7121 37.5998 30.7202 37.5906 31.038C37.5784 31.4403 37.4743 31.7461 37.2478 32.0478C37.0304 32.3294 36.7825 32.4823 36.5039 32.4984C36.308 32.5145 36.2651 32.5024 36.1457 32.4099C35.9345 32.249 35.4753 31.5328 35.2028 30.9374C35.1049 30.7282 35.1018 30.7041 35.1018 30.2937C35.1018 29.9316 35.111 29.8431 35.1753 29.6782C35.2763 29.4086 35.5273 29.0827 35.7386 28.9459C35.9559 28.8092 36.2865 28.7689 36.4763 28.8615Z" fill="#2E11E3"/>
<path d="M33.2847 29.1833C33.4898 29.2839 33.8327 29.823 34.8613 31.6817C35.5991 33.0094 35.7429 33.299 35.7797 33.5243C35.8685 34.1037 35.5593 34.8439 35.1154 35.1094C34.8674 35.2583 34.5245 35.2865 34.3531 35.1698C34.1052 34.9968 33.9888 34.8198 33.0674 33.1703C32.1949 31.6133 31.9592 31.1627 31.9194 30.9616C31.8337 30.5432 32.002 29.9075 32.2898 29.5535C32.5776 29.1994 32.9939 29.0465 33.2847 29.1833Z" fill="#2E11E3"/>
<path d="M31.4071 31.9313C31.649 31.9836 31.7959 32.1928 32.6561 33.6934C33.55 35.2504 33.6296 35.4556 33.5531 35.9705C33.501 36.3125 33.3939 36.578 33.2102 36.8194C33.0143 37.0769 32.7847 37.2137 32.5 37.2419C32.053 37.2861 31.9612 37.1695 30.9418 35.3228C30.3846 34.309 30.2285 34.0032 30.1795 33.8061C30.1275 33.5969 30.1612 33.0497 30.2377 32.8204C30.3112 32.6032 30.5163 32.2934 30.6724 32.1646C30.8836 31.9916 31.2112 31.887 31.4071 31.9313Z" fill="#2E11E3"/>
<path d="M29.7331 34.7353C29.782 34.7675 29.8953 34.8882 29.981 35.0049C30.2657 35.3991 30.881 36.5055 31.08 36.9883C31.1872 37.2418 31.1933 37.2699 31.1841 37.5676C31.1688 37.9579 31.0647 38.2596 30.8351 38.5614C30.6086 38.8591 30.3759 38.9959 30.1004 38.9999C29.7973 39.0039 29.6596 38.9073 29.3902 38.4889C28.8575 37.6682 28.3647 36.7147 28.3096 36.4049C28.2361 36.0066 28.3524 35.5641 28.631 35.1698C28.8636 34.8399 29.081 34.7031 29.3963 34.687C29.5586 34.683 29.6718 34.6991 29.7331 34.7353Z" fill="#2E11E3"/>
</svg>
