<svg width="53" height="53" viewBox="0 0 53 53" fill="none" xmlns="http://www.w3.org/2000/svg">
<circle cx="26.5" cy="26.5" r="26.5" fill="#FBF9EF"/>
<g clip-path="url(#clip0_5149_12898)">
<path d="M26.7127 10.9541C26.5559 11.0783 26.5427 11.124 26.5427 11.5749V12.0584H26.3597C26.0461 12.0584 25.4189 12.2479 24.9091 12.4962C24.2883 12.7967 23.6416 13.4239 23.3475 14.0053C22.7856 15.1224 22.8445 16.5336 23.4848 17.3112C23.8375 17.7426 24.3536 18.0232 25.4906 18.3893L26.5424 18.7356V20.4277V22.1199L26.2877 21.9957C25.8435 21.7669 25.4647 21.2706 25.2227 20.5976C24.8829 19.6437 24.4519 19.2844 23.8378 19.4479C23.472 19.5458 23.289 19.6831 23.1386 19.9704C22.8707 20.5061 22.936 21.2184 23.3216 21.95C23.7789 22.8124 24.896 23.5832 26.0067 23.7989L26.5424 23.9036V24.3804C26.5424 24.8117 26.5555 24.8639 26.7123 24.988C26.9344 25.158 27.0653 25.158 27.2874 24.988C27.4442 24.8639 27.4573 24.8117 27.4573 24.3804V23.91L27.9341 23.8316C28.9143 23.6616 29.9987 22.9692 30.4887 22.1916C30.8675 21.5906 31.0048 21.1004 31.0112 20.3557C31.0112 19.4997 30.8675 19.0882 30.384 18.5525C29.9725 18.1016 29.6394 17.9317 28.4371 17.5464L27.4899 17.246L27.4704 15.5669C27.4509 13.6917 27.4378 13.7442 27.8951 14.0773C28.2935 14.3647 28.4832 14.6524 28.7575 15.3906C29.0448 16.142 29.1427 16.2725 29.5283 16.4492C30.025 16.6712 30.5607 16.4492 30.8416 15.9068C30.9722 15.6584 30.992 15.5474 30.9658 15.1164C30.8938 13.6856 29.6199 12.4703 27.8493 12.1176L27.4573 12.0392V11.5624C27.4573 11.1311 27.4442 11.0789 27.2874 10.9548C27.1895 10.8764 27.0653 10.8175 27 10.8175C26.9347 10.8168 26.8106 10.8757 26.7127 10.9541ZM26.5165 16.8732C26.4643 16.932 25.7719 16.5727 25.5299 16.3634C25.2227 16.0892 25.1053 15.821 25.1053 15.3768C25.1117 14.6648 25.6279 14.0178 26.3466 13.822L26.5098 13.7826L26.5293 15.3112C26.536 16.1544 26.536 16.86 26.5165 16.8732ZM28.2871 19.454C28.8032 19.8002 28.9863 20.3295 28.8032 20.95C28.6791 21.3941 28.385 21.7535 27.9735 21.956C27.4247 22.237 27.4573 22.3154 27.4573 20.5839V19.0485L27.7383 19.1596C27.8887 19.2188 28.137 19.3493 28.2871 19.454Z" fill="#E8BC4E"/>
<path d="M36.911 22.6288C36.7149 22.8445 36.7805 23.1188 37.1856 23.8244C37.4013 24.1968 37.5709 24.5037 37.5645 24.5104C37.4992 24.5757 31.3642 28.1952 31.3315 28.1952C31.2989 28.1952 29.5283 27.2938 27.392 26.1959C24.4848 24.6999 23.4262 24.1901 23.2042 24.1639C22.9168 24.1312 22.7142 24.2228 17.3635 26.8816C14.3123 28.3975 11.745 29.704 11.6534 29.7824C11.4768 29.9463 11.32 30.2794 11.32 30.4951C11.32 30.5735 11.3789 30.7629 11.4573 30.9133C11.601 31.2205 11.9866 31.4621 12.3392 31.4621C12.4634 31.4685 14.3712 30.5476 17.8077 28.8359L23.0867 26.2029L24.6678 27.0064C25.5366 27.4442 27.3334 28.3588 28.6531 29.0384C29.9728 29.7178 31.1357 30.2861 31.2339 30.306C31.3322 30.3258 31.5149 30.306 31.639 30.2602C31.7632 30.2144 33.3574 29.2932 35.1802 28.2087C37.0026 27.1239 38.5117 26.2352 38.5443 26.2352C38.5706 26.2416 38.7731 26.5552 38.9952 26.9408C39.2893 27.4634 39.4397 27.6528 39.5702 27.7053C39.9229 27.8295 40.0275 27.6989 41.3603 25.386C42.0528 24.1837 42.6342 23.1255 42.6538 23.0471C42.6864 22.9424 42.6538 22.8314 42.569 22.7204L42.4384 22.544L39.727 22.5245C37.1658 22.5114 37.009 22.5178 36.911 22.6288Z" fill="#E8BC4E"/>
<path d="M36.8979 28.6852L36.7347 28.842V35.336C36.7347 41.6343 36.7411 41.8432 36.8589 41.9869L36.9831 42.1437L39.5834 42.1632C42.3469 42.1828 42.4711 42.17 42.6083 41.8759C42.6605 41.7581 42.6803 39.9354 42.6803 35.3424C42.6803 28.5738 42.6867 28.6784 42.3863 28.5607C42.3274 28.5412 41.1056 28.5216 39.6685 28.5216H37.0551L36.8979 28.6852Z" fill="#E8BC4E"/>
<path d="M19.9767 30.3841L19.8135 30.5409V36.1857C19.8135 41.6474 19.8199 41.8436 19.9376 41.9873L20.0618 42.1441L22.7079 42.1636L25.354 42.1831L25.5434 42.0199L25.7264 41.8631V36.1988V30.5345L25.5434 30.3777L25.3604 30.2209H22.7469H20.1335L19.9767 30.3841Z" fill="#E8BC4E"/>
<path d="M28.4307 32.8277L28.2739 32.9518L28.2544 37.3749L28.2413 41.7915L28.4307 41.9877L28.6269 42.1838L31.2794 42.1643L33.9386 42.1448L34.0627 41.988C34.1805 41.8443 34.1869 41.668 34.1869 37.4146V32.9851L34.0365 32.8478C33.8861 32.7042 33.8666 32.7042 31.2336 32.7042C28.7184 32.7035 28.5747 32.7099 28.4307 32.8277Z" fill="#E8BC4E"/>
<path d="M11.673 34.1405C11.3136 34.2845 11.32 34.193 11.32 38.1063C11.32 40.6477 11.3395 41.7584 11.392 41.8759C11.5293 42.17 11.6535 42.1828 14.417 42.1632L17.0173 42.1437L17.1415 41.9869C17.2589 41.8432 17.2656 41.68 17.2656 38.1584C17.2656 36.1332 17.2461 34.4279 17.2263 34.369C17.1152 34.0944 16.9453 34.0749 14.3123 34.0816C12.9338 34.082 11.7447 34.1079 11.673 34.1405Z" fill="#E8BC4E"/>
</g>
<defs>
<clipPath id="clip0_5149_12898">
<rect width="32" height="32" fill="white" transform="translate(11 10.5)"/>
</clipPath>
</defs>
</svg>
