<svg width="53" height="53" viewBox="0 0 53 53" fill="none" xmlns="http://www.w3.org/2000/svg">
<circle cx="26.5" cy="26.5" r="26.5" fill="#FAF2EF"/>
<g clip-path="url(#clip0_5149_12918)">
<path d="M23 25.4867V20.5C23 18.66 24.4933 17.1667 26.3333 17.1667C28.1733 17.1667 29.6667 18.66 29.6667 20.5V25.4867C31.2733 24.4133 32.3333 22.58 32.3333 20.5C32.3333 17.1867 29.6467 14.5 26.3333 14.5C23.02 14.5 20.3333 17.1867 20.3333 20.5C20.3333 22.58 21.3933 24.4133 23 25.4867ZM36.1133 31.66L30.06 28.6467C29.8333 28.5533 29.5933 28.5 29.3333 28.5H28.3333V20.5C28.3333 19.3933 27.44 18.5 26.3333 18.5C25.2267 18.5 24.3333 19.3933 24.3333 20.5V34.8133L19.7667 33.86C19.6667 33.84 19.56 33.8267 19.4533 33.8267C19.04 33.8267 18.6667 34 18.3933 34.2667L17.34 35.3333L23.9267 41.92C24.2933 42.28 24.7933 42.5067 25.34 42.5067H34.4C35.4067 42.5067 36.1733 41.7667 36.3133 40.8L37.32 33.7733C37.3333 33.68 37.34 33.5933 37.34 33.5C37.3333 32.6733 36.8267 31.96 36.1133 31.66Z" fill="#EA7C4B"/>
</g>
<defs>
<clipPath id="clip0_5149_12918">
<rect width="32" height="32" fill="white" transform="translate(11 10.5)"/>
</clipPath>
</defs>
</svg>
