<svg width="66" height="66" viewBox="0 0 66 66" fill="none" xmlns="http://www.w3.org/2000/svg">
<circle cx="33" cy="33" r="33" fill="#F7F3EE"/>
<path d="M42.3334 44.9998V42.3331C42.3334 40.9186 41.7715 39.562 40.7713 38.5619C39.7711 37.5617 38.4145 36.9998 37 36.9998H29C27.5855 36.9998 26.229 37.5617 25.2288 38.5619C24.2286 39.562 23.6667 40.9186 23.6667 42.3331V44.9998" stroke="#B68742" stroke-width="2" stroke-linecap="round" stroke-linejoin="round"/>
<path d="M33 31.6664C35.9455 31.6664 38.3334 29.2786 38.3334 26.3331C38.3334 23.3876 35.9455 20.9998 33 20.9998C30.0545 20.9998 27.6667 23.3876 27.6667 26.3331C27.6667 29.2786 30.0545 31.6664 33 31.6664Z" stroke="#B68742" stroke-width="2" stroke-linecap="round" stroke-linejoin="round"/>
</svg>
