<svg width="85" height="49" viewBox="0 0 85 49" fill="none" xmlns="http://www.w3.org/2000/svg">
<path d="M62.8682 21.7787C58.2989 17.9047 52.2396 15.9181 46.3789 16.3154C39.3263 16.8121 32.5717 20.3881 25.6184 19.5934C23.6317 19.3947 21.6451 18.7987 20.0557 17.6067C17.7711 15.9181 16.3804 12.9381 16.7778 10.0575C17.1751 7.1768 19.4597 4.69348 22.2411 4.09749C25.0224 3.50149 28.201 5.09082 29.2937 7.7728C29.989 9.46146 29.7904 11.6468 28.499 12.9381C27.2077 14.2294 24.8237 14.4281 23.5324 13.0374" stroke="#B68742" stroke-opacity="0.66" stroke-width="2.97998" stroke-miterlimit="10" stroke-linecap="round"/>
<path d="M66.448 29.3275C61.7794 25.8508 56.5147 23.1688 50.9521 21.3809" stroke="#B68742" stroke-opacity="0.66" stroke-width="2.97998" stroke-miterlimit="10" stroke-linecap="round"/>
<path d="M56.0085 30.1231C51.4392 26.3484 45.4793 24.2624 39.6186 24.2624C30.182 24.2624 21.4408 29.4277 12.0041 29.4277C9.32215 29.4277 6.34217 28.8317 4.45484 26.8451C2.36886 24.6598 2.17019 20.7858 4.15685 18.6005C6.24284 16.3158 10.3155 16.4151 12.2028 18.7991C13.1961 20.0904 13.4941 22.0771 12.4015 23.3684C11.3088 24.6598 8.92482 24.5604 8.22949 23.0704" stroke="#9E6E28" stroke-opacity="0.78" stroke-width="2.97998" stroke-miterlimit="10" stroke-linecap="round"/>
<path d="M82.2363 42.4402C77.8657 45.6188 71.6077 44.9235 66.4424 43.1355C60.2838 40.9502 54.6218 37.4735 48.7612 34.3942C46.5759 33.2022 44.3905 32.1095 42.0066 31.5135C38.8279 30.7189 35.4506 30.8182 32.3713 31.9109C30.782 32.5069 29.292 33.3015 28.1993 34.4935C26.1133 36.7782 25.716 40.4535 27.206 43.1355C28.7953 45.8175 32.1726 47.3075 35.1526 46.6121C35.9473 46.4135 36.8413 46.1155 37.4373 45.5195C39.7219 43.3341 38.9272 38.2682 35.0533 38.5662C33.9606 38.6655 32.9673 39.2615 32.4706 40.2548" stroke="#B68742" stroke-opacity="0.66" stroke-width="2.97998" stroke-miterlimit="10" stroke-linecap="round"/>
</svg>
