<svg width="94" height="68" viewBox="0 0 94 68" fill="none" xmlns="http://www.w3.org/2000/svg">
<g filter="url(#filter0_b_716_17456)">
<path d="M9.63986 22.9729C6.41973 22.7373 4.93939 22.9729 4.67651 22.9729C4.67654 24.6893 5.01015 28.8829 5.60394 31.3694C6.34617 34.4776 8.29455 39.3949 9.63986 41.8072C10.9852 44.2194 12.516 46.3534 15.6705 50.111C18.1941 53.117 23.1238 56.5282 25.2732 57.8581L28.4745 59.5745L30.6844 60.5217C32.4545 61.2803 34.2874 61.8912 36.1784 62.2559C39.5517 62.9064 42.5607 63.289 44.7106 63.4712C47.1513 63.6781 47.6177 63.4712 47.5404 63.4712C47.6023 63.4712 47.559 62.6919 46.8909 59.5745C46.0559 55.6777 45.0353 52.5696 43.4117 47.6987C42.3757 44.5906 39.8676 40.208 37.0563 36.7043C34.0413 32.9467 30.3765 30.5188 26.5722 28.2613C23.6015 26.4985 21.5624 25.8027 19.4285 25.014C17.2946 24.2254 13.9081 23.2852 9.63986 22.9729Z" fill="#B68742" fill-opacity="0.35"/>
</g>
<g filter="url(#filter1_b_716_17456)">
<path d="M50.9775 63.4705C47.7574 63.7061 46.277 63.4705 46.0142 63.4705C46.0142 61.7541 46.3478 57.5604 46.9416 55.0739C47.6838 51.9658 49.6322 47.0485 50.9775 44.6362C52.3228 42.2239 53.8537 40.09 57.0082 36.3324C59.5318 33.3263 64.4615 29.9151 66.6109 28.5853L69.8122 26.8689L72.0221 25.9217C73.7922 25.163 75.625 24.5521 77.516 24.1875C80.8893 23.537 83.8984 23.1543 86.0483 22.9721C88.4889 22.7653 88.9554 22.9721 88.878 22.9721C88.9399 22.9721 88.8966 23.7515 88.2286 26.8689C87.3936 30.7656 86.373 33.8737 84.7493 38.7447C83.7133 41.8528 81.2052 46.2354 78.3939 49.7391C75.379 53.4967 71.7142 55.9245 67.9098 58.182C64.9391 59.9448 62.9001 60.6407 60.7661 61.4293C58.6322 62.218 55.2457 63.1582 50.9775 63.4705Z" fill="#B68742" fill-opacity="0.35"/>
</g>
<g filter="url(#filter2_b_716_17456)">
<path d="M27.9592 11.3719C25.0879 9.89544 23.6333 9.53318 23.3914 9.43035C22.72 11.01 21.3866 15 20.9604 17.5206C20.4276 20.6714 20.2972 25.9591 20.5916 28.7054C20.8861 31.4517 21.4602 34.0144 22.8935 38.7066C24.0401 42.4603 27.2426 47.528 28.7005 49.5927L30.9752 52.4246L32.6385 54.1608C33.9708 55.5515 35.4186 56.8306 37.0163 57.906C39.8663 59.8242 42.4859 61.3534 44.3932 62.3621C46.5584 63.5072 47.0686 63.4993 46.9975 63.4691C47.0544 63.4933 47.3194 62.7591 47.9241 59.6288C48.68 55.7159 48.9565 52.4562 49.3677 47.3383C49.6301 44.0726 49.0362 39.0581 47.8195 34.7339C46.5147 30.0963 44.0916 26.4283 41.4735 22.8625C39.4292 20.0781 37.8248 18.6401 36.1694 17.0795C34.514 15.519 31.7652 13.329 27.9592 11.3719Z" fill="#B68742" fill-opacity="0.35"/>
</g>
<g filter="url(#filter3_b_716_17456)">
<path d="M51.1543 61.5236C48.2829 63.0001 46.8284 63.3623 46.5865 63.4652C45.9151 61.8855 44.5816 57.8955 44.1554 55.3749C43.6227 52.2241 43.4922 46.9364 43.7867 44.1901C44.0812 41.4438 44.6553 38.8811 46.0886 34.1889C47.2352 30.4352 50.4376 25.3675 51.8955 23.3028L54.1703 20.4709L55.8336 18.7347C57.1659 17.344 58.6137 16.0649 60.2113 14.9895C63.0614 13.0713 65.681 11.5421 67.5883 10.5334C69.7535 9.38828 70.2637 9.39619 70.1925 9.42643C70.2495 9.40223 70.5145 10.1364 71.1192 13.2667C71.875 17.1796 72.1516 20.4393 72.5628 25.5572C72.8251 28.8229 72.2313 33.8374 71.0146 38.1616C69.7097 42.7992 67.2867 46.4672 64.6686 50.033C62.6242 52.8174 61.0199 54.2554 59.3645 55.816C57.7091 57.3765 54.9603 59.5665 51.1543 61.5236Z" fill="#B68742" fill-opacity="0.35"/>
</g>
<g filter="url(#filter4_b_716_17456)">
<path d="M49.3926 59.999C47.312 62.468 46.1094 63.3628 45.9258 63.5509C44.6975 62.352 41.9294 59.184 40.5648 57.0223C38.859 54.3202 36.7009 49.4912 35.9143 46.8435C35.1277 44.1959 34.6699 41.6098 34.1843 36.7278C33.7957 32.8221 34.7979 26.9116 35.3476 24.4446L36.3553 20.9548C37.624 17.6677 39.1988 14.4989 41.1817 11.5865C42.8307 9.16469 43.7176 8.05926 44.9073 6.61399C46.464 4.72292 46.9379 4.5336 46.8839 4.58893C46.9271 4.54466 47.4546 5.12001 49.2189 7.77551C51.4242 11.0949 52.9356 13.9962 55.2873 18.5604C56.7879 21.4728 58.1723 26.3288 58.716 30.7879C59.2991 35.5701 58.4768 39.8886 57.435 44.1879C56.6216 47.5451 55.6953 49.4903 54.7691 51.5683C53.843 53.6462 52.1504 56.7264 49.3926 59.999Z" fill="#B68742" fill-opacity="0.35"/>
</g>
<defs>
<filter id="filter0_b_716_17456" x="3.08956" y="21.2812" width="46.0582" height="43.8692" filterUnits="userSpaceOnUse" color-interpolation-filters="sRGB">
<feFlood flood-opacity="0" result="BackgroundImageFix"/>
<feGaussianBlur in="BackgroundImageFix" stdDeviation="0.793475"/>
<feComposite in2="SourceAlpha" operator="in" result="effect1_backgroundBlur_716_17456"/>
<feBlend mode="normal" in="SourceGraphic" in2="effect1_backgroundBlur_716_17456" result="shape"/>
</filter>
<filter id="filter1_b_716_17456" x="44.4272" y="21.2929" width="46.0582" height="43.8692" filterUnits="userSpaceOnUse" color-interpolation-filters="sRGB">
<feFlood flood-opacity="0" result="BackgroundImageFix"/>
<feGaussianBlur in="BackgroundImageFix" stdDeviation="0.793475"/>
<feComposite in2="SourceAlpha" operator="in" result="effect1_backgroundBlur_716_17456"/>
<feBlend mode="normal" in="SourceGraphic" in2="effect1_backgroundBlur_716_17456" result="shape"/>
</filter>
<filter id="filter2_b_716_17456" x="18.8508" y="7.84371" width="32.1651" height="57.2208" filterUnits="userSpaceOnUse" color-interpolation-filters="sRGB">
<feFlood flood-opacity="0" result="BackgroundImageFix"/>
<feGaussianBlur in="BackgroundImageFix" stdDeviation="0.793475"/>
<feComposite in2="SourceAlpha" operator="in" result="effect1_backgroundBlur_716_17456"/>
<feBlend mode="normal" in="SourceGraphic" in2="effect1_backgroundBlur_716_17456" result="shape"/>
</filter>
<filter id="filter3_b_716_17456" x="42.0459" y="7.83102" width="32.1651" height="57.2208" filterUnits="userSpaceOnUse" color-interpolation-filters="sRGB">
<feFlood flood-opacity="0" result="BackgroundImageFix"/>
<feGaussianBlur in="BackgroundImageFix" stdDeviation="0.793475"/>
<feComposite in2="SourceAlpha" operator="in" result="effect1_backgroundBlur_716_17456"/>
<feBlend mode="normal" in="SourceGraphic" in2="effect1_backgroundBlur_716_17456" result="shape"/>
</filter>
<filter id="filter4_b_716_17456" x="32.51" y="2.99411" width="27.9866" height="62.1436" filterUnits="userSpaceOnUse" color-interpolation-filters="sRGB">
<feFlood flood-opacity="0" result="BackgroundImageFix"/>
<feGaussianBlur in="BackgroundImageFix" stdDeviation="0.793475"/>
<feComposite in2="SourceAlpha" operator="in" result="effect1_backgroundBlur_716_17456"/>
<feBlend mode="normal" in="SourceGraphic" in2="effect1_backgroundBlur_716_17456" result="shape"/>
</filter>
</defs>
</svg>
