<svg width="68" height="60" viewBox="0 0 68 60" fill="none" xmlns="http://www.w3.org/2000/svg">
<path fill-rule="evenodd" clip-rule="evenodd" d="M60.2086 52.3082C55.75 50.8267 51.5207 48.3163 47.7845 45.1383C47.7338 45.2621 47.681 45.3859 47.6283 45.5097C47.2427 46.4087 46.8165 47.2854 46.3538 48.1357C50.37 50.4959 55.0661 51.9936 60.2086 52.3082ZM32.9738 9.29067C33.609 7.20443 32.984 4.80566 30.8206 2.02739C30.4168 1.50989 32.1905 0 32.848 0C33.5055 0 33.814 0.578384 34.0433 1.19533C35.1676 4.21307 35.5248 7.01366 35.2488 9.63567L35.2427 9.67423C53.9235 20.6331 53.5643 47.4275 33.7734 59.5694C13.7471 47.2834 13.6152 19.9958 32.9738 9.29067ZM37.4974 30.8045C35.6445 30.8045 34.1286 32.3205 34.1286 34.1754C34.1286 32.3205 32.6126 30.8045 30.7577 30.8045H26.3498C24.497 30.8045 22.981 32.3205 22.981 34.1754C22.981 36.0303 24.497 37.5462 26.3498 37.5462H30.7577C32.6126 37.5462 34.1286 36.0303 34.1286 34.1754C34.1286 36.0303 35.6445 37.5462 37.4974 37.5462H41.9053C43.7582 37.5462 45.2762 36.0303 45.2762 34.1754C45.2762 32.3205 43.7582 30.8045 41.9053 30.8045H37.4974ZM37.0651 44.2859H40.9048C42.5202 44.2859 43.8414 42.9648 43.8414 41.3494C43.8414 39.7339 42.5202 38.4128 40.9048 38.4128H37.0651C35.4497 38.4128 34.1286 39.7339 34.1286 41.3494C34.1286 39.7339 32.8074 38.4128 31.192 38.4128H27.3524C25.7369 38.4128 24.4158 39.7339 24.4158 41.3494C24.4158 42.9648 25.7369 44.2859 27.3524 44.2859H31.192C32.8074 44.2859 34.1286 42.9648 34.1286 41.3494C34.1286 42.9648 35.4497 44.2859 37.0651 44.2859ZM37.0651 24.282C35.4497 24.282 34.1286 25.6031 34.1286 27.2185C34.1286 25.6031 32.8074 24.282 31.192 24.282H27.3524C25.7369 24.282 24.4158 25.6031 24.4158 27.2185C24.4158 28.8339 25.7369 30.1551 27.3524 30.1551H31.192C32.8074 30.1551 34.1286 28.8339 34.1286 27.2185C34.1286 28.8339 35.4497 30.1551 37.0651 30.1551H40.9048C42.5202 30.1551 43.8414 28.8339 43.8414 27.2185C43.8414 25.6031 42.5202 24.282 40.9048 24.282H37.0651ZM36.6308 49.9419H37.7957C39.1696 49.9419 40.298 48.8156 40.298 47.4396C40.298 46.0637 39.1717 44.9374 37.7957 44.9374H36.6308C35.2549 44.9374 34.1286 46.0637 34.1286 47.4396C34.1286 46.0637 33.0023 44.9374 31.6263 44.9374H30.4614C29.0855 44.9374 27.9591 46.0637 27.9591 47.4396C27.9591 48.8156 29.0834 49.9419 30.4614 49.9419H31.6263C33.0023 49.9419 34.1286 48.8156 34.1286 47.4396C34.1286 48.8156 35.2549 49.9419 36.6308 49.9419ZM36.1641 50.5913C35.123 50.5913 34.2706 51.4437 34.2706 52.4848C34.2706 51.4437 33.4183 50.5913 32.3772 50.5913H32.1682C31.1271 50.5913 30.2747 51.4437 30.2747 52.4848C30.2747 53.5259 31.1271 54.3782 32.1682 54.3782H32.3772C33.4183 54.3782 34.2706 53.5259 34.2706 52.4848C34.2706 53.5259 35.123 54.3782 36.1641 54.3782H36.3731C37.4142 54.3782 38.2666 53.5259 38.2666 52.4848C38.2666 51.4437 37.4142 50.5913 36.3731 50.5913H36.1641ZM35.6344 14.1876C34.7739 14.1876 34.0677 14.8939 34.0677 15.7544C34.0677 14.8939 33.3635 14.1876 32.501 14.1876C31.6405 14.1876 30.9363 14.8939 30.9363 15.7544V16.4099C30.9363 17.2724 31.6405 17.9766 32.501 17.9766C33.3635 17.9766 34.0677 17.2724 34.0677 16.4099C34.0677 17.2724 34.7719 17.9766 35.6344 17.9766C36.4969 17.9766 37.2011 17.2724 37.2011 16.4099V15.7544C37.2011 14.8939 36.4969 14.1876 35.6344 14.1876ZM36.6308 18.626C35.2549 18.626 34.1286 19.7523 34.1286 21.1283C34.1286 19.7523 33.0023 18.626 31.6263 18.626H30.4614C29.0855 18.626 27.9591 19.7523 27.9591 21.1283C27.9591 22.5042 29.0834 23.6305 30.4614 23.6305H31.6263C33.0023 23.6305 34.1286 22.5042 34.1286 21.1283C34.1286 22.5042 35.2549 23.6305 36.6308 23.6305H37.7957C39.1696 23.6305 40.298 22.5042 40.298 21.1283C40.298 19.7523 39.1717 18.626 37.7957 18.626H36.6308ZM7.79284 52.3082C12.7893 52.0018 17.3636 50.5791 21.3027 48.3346C20.7973 47.4214 20.3346 46.4797 19.9186 45.5097L19.8821 45.4224C16.2291 48.4665 12.1196 50.8714 7.79284 52.3082ZM27.2793 11.3769C9.56452 11.7118 -3.19847 28.5681 0.706122 46.9221C1.4773 31.5392 13.5259 15.5656 27.2793 11.3769ZM17.6944 29.5524C17.7958 28.7934 17.9277 28.0364 18.0901 27.2855C19.3362 21.526 22.2321 16.5316 26.3539 12.6595C14.0292 18.6686 2.54883 34.7619 1.19318 48.9049C1.47121 49.9033 1.79795 50.9039 2.17542 51.9064C5.76343 45.8344 11.6771 37.4103 17.6944 29.5524ZM19.1718 43.5939C18.153 40.6979 17.5706 37.6599 17.4549 34.6036C12.2271 41.3615 6.80452 47.8557 2.59957 52.2291C3.66704 52.3265 4.71828 52.3731 5.75531 52.3731C10.4676 50.5629 15.0764 47.4538 19.1718 43.5939ZM40.7221 11.3769C58.4349 11.7138 71.1999 28.5701 67.2933 46.9242C66.5241 31.5392 54.4755 15.5656 40.7221 11.3769ZM49.7449 28.8177C49.6638 28.3043 49.5663 27.7949 49.4568 27.2855C48.166 21.3109 45.0935 16.1582 40.7242 12.2272C53.3938 17.8609 65.4201 34.4067 66.8103 48.9028C66.5323 49.9013 66.2055 50.9018 65.8281 51.9044C62.1264 45.6436 55.9529 36.8826 49.7449 28.8177ZM48.4867 43.2692C49.4973 40.292 50.0473 37.1688 50.1062 34.0353C55.4679 40.9962 61.0772 47.7359 65.4019 52.2291C64.3344 52.3265 63.2832 52.3731 62.2461 52.3731C57.4019 50.5122 52.6673 47.2793 48.4867 43.2692Z" fill="#D5BA93"/>
</svg>
