<svg width="85" height="49" viewBox="0 0 85 49" fill="none" xmlns="http://www.w3.org/2000/svg">
<path d="M22.0171 21.7787C26.5864 17.9047 32.6457 15.9181 38.5063 16.3154C45.559 16.8121 52.3136 20.3881 59.2669 19.5934C61.2535 19.3947 63.2402 18.7987 64.8295 17.6067C67.1142 15.9181 68.5048 12.9381 68.1075 10.0575C67.7102 7.1768 65.4255 4.69348 62.6442 4.09749C59.8629 3.50149 56.6842 5.09082 55.5916 7.7728C54.8962 9.46146 55.0949 11.6468 56.3862 12.9381C57.6775 14.2294 60.0615 14.4281 61.3529 13.0374" stroke="#B68742" stroke-opacity="0.66" stroke-width="2.97998" stroke-miterlimit="10" stroke-linecap="round"/>
<path d="M18.4373 29.3275C23.1059 25.8508 28.3705 23.1688 33.9332 21.3809" stroke="#B68742" stroke-opacity="0.66" stroke-width="2.97998" stroke-miterlimit="10" stroke-linecap="round"/>
<path d="M28.8767 30.1231C33.446 26.3484 39.406 24.2624 45.2666 24.2624C54.7032 24.2624 63.4445 29.4277 72.8811 29.4277C75.5631 29.4277 78.5431 28.8317 80.4304 26.8451C82.5164 24.6598 82.7151 20.7858 80.7284 18.6005C78.6424 16.3158 74.5698 16.4151 72.6825 18.7991C71.6891 20.0904 71.3911 22.0771 72.4838 23.3684C73.5765 24.6598 75.9604 24.5604 76.6558 23.0704" stroke="#9E6E28" stroke-opacity="0.78" stroke-width="2.97998" stroke-miterlimit="10" stroke-linecap="round"/>
<path d="M2.64893 42.4402C7.01957 45.6188 13.2775 44.9235 18.4428 43.1355C24.6015 40.9502 30.2634 37.4735 36.1241 34.3942C38.3094 33.2022 40.4947 32.1095 42.8787 31.5135C46.0573 30.7189 49.4347 30.8182 52.514 31.9109C54.1033 32.5069 55.5933 33.3015 56.6859 34.4935C58.7719 36.7782 59.1693 40.4535 57.6793 43.1355C56.09 45.8175 52.7126 47.3075 49.7327 46.6121C48.938 46.4135 48.044 46.1155 47.448 45.5195C45.1633 43.3341 45.958 38.2682 49.832 38.5662C50.9246 38.6655 51.918 39.2615 52.4146 40.2548" stroke="#B68742" stroke-opacity="0.66" stroke-width="2.97998" stroke-miterlimit="10" stroke-linecap="round"/>
</svg>
